%TF.GenerationSoftware,KiCad,Pcbnew,10.0.5-10.0.5~ubuntu24.04.1*%
%TF.CreationDate,2026-08-27T10:01:35+07:00*%
%TF.ProjectId,driver-bldc-foc-v2,64726976-6572-42d6-926c-64632d666f63,rev?*%
%TF.SameCoordinates,Original*%
%TF.FileFunction,Soldermask,Bot*%
%TF.FilePolarity,Negative*%
%FSLAX46Y46*%
G04 Gerber Fmt 4.6, Leading zero omitted, Abs format (unit mm)*
G04 Created by KiCad (PCBNEW 10.0.5-10.0.5~ubuntu24.04.1) date 2026-08-27 10:01:35*
%MOMM*%
%LPD*%
G01*
G04 APERTURE LIST*
G04 APERTURE END LIST*
G36*
X106158110Y-151184436D02*
G01*
X106158119Y-151184436D01*
X106158127Y-151184436D01*
X106158539Y-151184460D01*
X106471953Y-151219773D01*
X106472783Y-151219914D01*
X106780271Y-151290097D01*
X106780665Y-151290210D01*
X106780676Y-151290213D01*
X106780686Y-151290216D01*
X106781080Y-151290330D01*
X107078779Y-151394499D01*
X107079556Y-151394821D01*
X107363719Y-151531666D01*
X107364456Y-151532073D01*
X107631509Y-151699875D01*
X107631842Y-151700111D01*
X107631853Y-151700118D01*
X107631862Y-151700125D01*
X107632196Y-151700362D01*
X107878783Y-151897008D01*
X107879411Y-151897569D01*
X108102431Y-152120589D01*
X108102992Y-152121217D01*
X108299638Y-152367804D01*
X108299874Y-152368137D01*
X108299882Y-152368147D01*
X108299888Y-152368157D01*
X108300125Y-152368491D01*
X108467927Y-152635544D01*
X108468334Y-152636281D01*
X108605179Y-152920444D01*
X108605501Y-152921221D01*
X108709670Y-153218920D01*
X108709783Y-153219313D01*
X108709787Y-153219324D01*
X108709789Y-153219334D01*
X108709903Y-153219729D01*
X108780086Y-153527217D01*
X108780227Y-153528047D01*
X108815540Y-153841461D01*
X108815563Y-153841872D01*
X108815564Y-153841881D01*
X108815564Y-153841889D01*
X108815587Y-153842301D01*
X108815587Y-154157699D01*
X108815540Y-154158539D01*
X108780227Y-154471953D01*
X108780086Y-154472783D01*
X108709903Y-154780271D01*
X108709789Y-154780665D01*
X108709787Y-154780676D01*
X108709783Y-154780686D01*
X108709670Y-154781080D01*
X108605501Y-155078779D01*
X108605179Y-155079556D01*
X108468334Y-155363719D01*
X108467927Y-155364456D01*
X108300125Y-155631509D01*
X108299888Y-155631842D01*
X108299882Y-155631853D01*
X108299874Y-155631862D01*
X108299638Y-155632196D01*
X108102992Y-155878783D01*
X108102431Y-155879411D01*
X107879411Y-156102431D01*
X107878783Y-156102992D01*
X107632196Y-156299638D01*
X107631862Y-156299874D01*
X107631853Y-156299882D01*
X107631842Y-156299888D01*
X107631509Y-156300125D01*
X107364456Y-156467927D01*
X107363719Y-156468334D01*
X107079556Y-156605179D01*
X107078779Y-156605501D01*
X106781080Y-156709670D01*
X106780686Y-156709783D01*
X106780676Y-156709787D01*
X106780665Y-156709789D01*
X106780271Y-156709903D01*
X106472783Y-156780086D01*
X106471953Y-156780227D01*
X106158539Y-156815540D01*
X106158127Y-156815563D01*
X106158119Y-156815564D01*
X106158110Y-156815564D01*
X106157699Y-156815587D01*
X105842301Y-156815587D01*
X105841890Y-156815564D01*
X105841881Y-156815564D01*
X105841872Y-156815563D01*
X105841461Y-156815540D01*
X105528047Y-156780227D01*
X105527217Y-156780086D01*
X105219729Y-156709903D01*
X105219334Y-156709789D01*
X105219324Y-156709787D01*
X105219313Y-156709783D01*
X105218920Y-156709670D01*
X104921221Y-156605501D01*
X104920444Y-156605179D01*
X104636281Y-156468334D01*
X104635544Y-156467927D01*
X104368491Y-156300125D01*
X104368157Y-156299888D01*
X104368147Y-156299882D01*
X104368137Y-156299874D01*
X104367804Y-156299638D01*
X104121217Y-156102992D01*
X104120589Y-156102431D01*
X103897569Y-155879411D01*
X103897008Y-155878783D01*
X103700362Y-155632196D01*
X103700125Y-155631862D01*
X103700118Y-155631853D01*
X103700111Y-155631842D01*
X103699875Y-155631509D01*
X103532073Y-155364456D01*
X103531666Y-155363719D01*
X103394821Y-155079556D01*
X103394499Y-155078779D01*
X103290330Y-154781080D01*
X103290216Y-154780686D01*
X103290213Y-154780676D01*
X103290210Y-154780665D01*
X103290097Y-154780271D01*
X103219914Y-154472783D01*
X103219773Y-154471953D01*
X103184460Y-154158539D01*
X103184413Y-154157699D01*
X103184413Y-153842301D01*
X103184436Y-153841889D01*
X103184436Y-153841881D01*
X103184436Y-153841872D01*
X103184460Y-153841461D01*
X103219773Y-153528047D01*
X103219914Y-153527217D01*
X103290097Y-153219729D01*
X103290210Y-153219334D01*
X103290213Y-153219324D01*
X103290216Y-153219313D01*
X103290330Y-153218920D01*
X103394499Y-152921221D01*
X103394821Y-152920444D01*
X103531666Y-152636281D01*
X103532073Y-152635544D01*
X103699875Y-152368491D01*
X103700111Y-152368157D01*
X103700118Y-152368147D01*
X103700125Y-152368137D01*
X103700362Y-152367804D01*
X103897008Y-152121217D01*
X103897569Y-152120589D01*
X104120589Y-151897569D01*
X104121217Y-151897008D01*
X104367804Y-151700362D01*
X104368137Y-151700125D01*
X104368147Y-151700118D01*
X104368157Y-151700111D01*
X104368491Y-151699875D01*
X104635544Y-151532073D01*
X104636281Y-151531666D01*
X104920444Y-151394821D01*
X104921221Y-151394499D01*
X105218920Y-151290330D01*
X105219313Y-151290216D01*
X105219324Y-151290213D01*
X105219334Y-151290210D01*
X105219729Y-151290097D01*
X105527217Y-151219914D01*
X105528047Y-151219773D01*
X105841461Y-151184460D01*
X105841872Y-151184436D01*
X105841881Y-151184436D01*
X105841890Y-151184436D01*
X105842301Y-151184413D01*
X106157699Y-151184413D01*
X106158110Y-151184436D01*
G37*
G36*
X174168110Y-151184436D02*
G01*
X174168119Y-151184436D01*
X174168127Y-151184436D01*
X174168539Y-151184460D01*
X174481953Y-151219773D01*
X174482783Y-151219914D01*
X174790271Y-151290097D01*
X174790665Y-151290210D01*
X174790676Y-151290213D01*
X174790686Y-151290216D01*
X174791080Y-151290330D01*
X175088779Y-151394499D01*
X175089556Y-151394821D01*
X175373719Y-151531666D01*
X175374456Y-151532073D01*
X175641509Y-151699875D01*
X175641842Y-151700111D01*
X175641853Y-151700118D01*
X175641862Y-151700125D01*
X175642196Y-151700362D01*
X175888783Y-151897008D01*
X175889411Y-151897569D01*
X176112431Y-152120589D01*
X176112992Y-152121217D01*
X176309638Y-152367804D01*
X176309874Y-152368137D01*
X176309882Y-152368147D01*
X176309888Y-152368157D01*
X176310125Y-152368491D01*
X176477927Y-152635544D01*
X176478334Y-152636281D01*
X176615179Y-152920444D01*
X176615501Y-152921221D01*
X176719670Y-153218920D01*
X176719783Y-153219313D01*
X176719787Y-153219324D01*
X176719789Y-153219334D01*
X176719903Y-153219729D01*
X176790086Y-153527217D01*
X176790227Y-153528047D01*
X176825540Y-153841461D01*
X176825563Y-153841872D01*
X176825564Y-153841881D01*
X176825564Y-153841889D01*
X176825587Y-153842301D01*
X176825587Y-154157699D01*
X176825540Y-154158539D01*
X176790227Y-154471953D01*
X176790086Y-154472783D01*
X176719903Y-154780271D01*
X176719789Y-154780665D01*
X176719787Y-154780676D01*
X176719783Y-154780686D01*
X176719670Y-154781080D01*
X176615501Y-155078779D01*
X176615179Y-155079556D01*
X176478334Y-155363719D01*
X176477927Y-155364456D01*
X176310125Y-155631509D01*
X176309888Y-155631842D01*
X176309882Y-155631853D01*
X176309874Y-155631862D01*
X176309638Y-155632196D01*
X176112992Y-155878783D01*
X176112431Y-155879411D01*
X175889411Y-156102431D01*
X175888783Y-156102992D01*
X175642196Y-156299638D01*
X175641862Y-156299874D01*
X175641853Y-156299882D01*
X175641842Y-156299888D01*
X175641509Y-156300125D01*
X175374456Y-156467927D01*
X175373719Y-156468334D01*
X175089556Y-156605179D01*
X175088779Y-156605501D01*
X174791080Y-156709670D01*
X174790686Y-156709783D01*
X174790676Y-156709787D01*
X174790665Y-156709789D01*
X174790271Y-156709903D01*
X174482783Y-156780086D01*
X174481953Y-156780227D01*
X174168539Y-156815540D01*
X174168127Y-156815563D01*
X174168119Y-156815564D01*
X174168110Y-156815564D01*
X174167699Y-156815587D01*
X173852301Y-156815587D01*
X173851890Y-156815564D01*
X173851881Y-156815564D01*
X173851872Y-156815563D01*
X173851461Y-156815540D01*
X173538047Y-156780227D01*
X173537217Y-156780086D01*
X173229729Y-156709903D01*
X173229334Y-156709789D01*
X173229324Y-156709787D01*
X173229313Y-156709783D01*
X173228920Y-156709670D01*
X172931221Y-156605501D01*
X172930444Y-156605179D01*
X172646281Y-156468334D01*
X172645544Y-156467927D01*
X172378491Y-156300125D01*
X172378157Y-156299888D01*
X172378147Y-156299882D01*
X172378137Y-156299874D01*
X172377804Y-156299638D01*
X172131217Y-156102992D01*
X172130589Y-156102431D01*
X171907569Y-155879411D01*
X171907008Y-155878783D01*
X171710362Y-155632196D01*
X171710125Y-155631862D01*
X171710118Y-155631853D01*
X171710111Y-155631842D01*
X171709875Y-155631509D01*
X171542073Y-155364456D01*
X171541666Y-155363719D01*
X171404821Y-155079556D01*
X171404499Y-155078779D01*
X171300330Y-154781080D01*
X171300216Y-154780686D01*
X171300213Y-154780676D01*
X171300210Y-154780665D01*
X171300097Y-154780271D01*
X171229914Y-154472783D01*
X171229773Y-154471953D01*
X171194460Y-154158539D01*
X171194413Y-154157699D01*
X171194413Y-153842301D01*
X171194436Y-153841889D01*
X171194436Y-153841881D01*
X171194436Y-153841872D01*
X171194460Y-153841461D01*
X171229773Y-153528047D01*
X171229914Y-153527217D01*
X171300097Y-153219729D01*
X171300210Y-153219334D01*
X171300213Y-153219324D01*
X171300216Y-153219313D01*
X171300330Y-153218920D01*
X171404499Y-152921221D01*
X171404821Y-152920444D01*
X171541666Y-152636281D01*
X171542073Y-152635544D01*
X171709875Y-152368491D01*
X171710111Y-152368157D01*
X171710118Y-152368147D01*
X171710125Y-152368137D01*
X171710362Y-152367804D01*
X171907008Y-152121217D01*
X171907569Y-152120589D01*
X172130589Y-151897569D01*
X172131217Y-151897008D01*
X172377804Y-151700362D01*
X172378137Y-151700125D01*
X172378147Y-151700118D01*
X172378157Y-151700111D01*
X172378491Y-151699875D01*
X172645544Y-151532073D01*
X172646281Y-151531666D01*
X172930444Y-151394821D01*
X172931221Y-151394499D01*
X173228920Y-151290330D01*
X173229313Y-151290216D01*
X173229324Y-151290213D01*
X173229334Y-151290210D01*
X173229729Y-151290097D01*
X173537217Y-151219914D01*
X173538047Y-151219773D01*
X173851461Y-151184460D01*
X173851872Y-151184436D01*
X173851881Y-151184436D01*
X173851890Y-151184436D01*
X173852301Y-151184413D01*
X174167699Y-151184413D01*
X174168110Y-151184436D01*
G37*
G36*
X105066405Y-123938298D02*
G01*
X105193785Y-123963636D01*
X105194489Y-123963849D01*
X105194491Y-123963850D01*
X105194492Y-123963850D01*
X105195196Y-123964064D01*
X105315185Y-124013765D01*
X105316485Y-124014460D01*
X105424474Y-124086616D01*
X105425038Y-124087079D01*
X105425044Y-124087083D01*
X105425049Y-124087088D01*
X105425613Y-124087551D01*
X105517449Y-124179387D01*
X105517911Y-124179950D01*
X105517917Y-124179956D01*
X105517920Y-124179961D01*
X105518384Y-124180526D01*
X105590540Y-124288515D01*
X105591235Y-124289815D01*
X105640936Y-124409804D01*
X105641364Y-124411215D01*
X105666702Y-124538595D01*
X105666846Y-124540062D01*
X105666846Y-124669938D01*
X105666702Y-124671405D01*
X105641364Y-124798785D01*
X105640936Y-124800196D01*
X105591235Y-124920185D01*
X105590540Y-124921485D01*
X105518384Y-125029474D01*
X105517920Y-125030038D01*
X105517917Y-125030044D01*
X105517911Y-125030049D01*
X105517449Y-125030613D01*
X105425613Y-125122449D01*
X105425049Y-125122911D01*
X105425044Y-125122917D01*
X105425038Y-125122920D01*
X105424474Y-125123384D01*
X105316485Y-125195540D01*
X105315185Y-125196235D01*
X105195196Y-125245936D01*
X105193785Y-125246364D01*
X105066405Y-125271702D01*
X105064938Y-125271846D01*
X104935062Y-125271846D01*
X104933595Y-125271702D01*
X104806215Y-125246364D01*
X104804804Y-125245936D01*
X104684815Y-125196235D01*
X104683515Y-125195540D01*
X104575526Y-125123384D01*
X104574961Y-125122920D01*
X104574956Y-125122917D01*
X104574950Y-125122911D01*
X104574387Y-125122449D01*
X104482551Y-125030613D01*
X104482088Y-125030049D01*
X104482083Y-125030044D01*
X104482079Y-125030038D01*
X104481616Y-125029474D01*
X104409460Y-124921485D01*
X104408765Y-124920185D01*
X104359064Y-124800196D01*
X104358636Y-124798785D01*
X104333298Y-124671405D01*
X104333154Y-124669938D01*
X104333154Y-124540062D01*
X104333298Y-124538595D01*
X104358636Y-124411215D01*
X104359064Y-124409804D01*
X104408765Y-124289815D01*
X104409460Y-124288515D01*
X104481616Y-124180526D01*
X104482079Y-124179961D01*
X104482083Y-124179956D01*
X104482088Y-124179950D01*
X104482551Y-124179387D01*
X104574387Y-124087551D01*
X104574950Y-124087088D01*
X104574956Y-124087083D01*
X104574961Y-124087079D01*
X104575526Y-124086616D01*
X104683515Y-124014460D01*
X104684815Y-124013765D01*
X104804804Y-123964064D01*
X104805507Y-123963850D01*
X104805509Y-123963850D01*
X104805510Y-123963849D01*
X104806215Y-123963636D01*
X104933595Y-123938298D01*
X104935062Y-123938154D01*
X105064938Y-123938154D01*
X105066405Y-123938298D01*
G37*
G36*
X105066405Y-122038298D02*
G01*
X105193785Y-122063636D01*
X105194489Y-122063849D01*
X105194491Y-122063850D01*
X105194492Y-122063850D01*
X105195196Y-122064064D01*
X105315185Y-122113765D01*
X105316485Y-122114460D01*
X105424474Y-122186616D01*
X105425038Y-122187079D01*
X105425044Y-122187083D01*
X105425049Y-122187088D01*
X105425613Y-122187551D01*
X105517449Y-122279387D01*
X105517911Y-122279950D01*
X105517917Y-122279956D01*
X105517920Y-122279961D01*
X105518384Y-122280526D01*
X105590540Y-122388515D01*
X105591235Y-122389815D01*
X105640936Y-122509804D01*
X105641364Y-122511215D01*
X105666702Y-122638595D01*
X105666846Y-122640062D01*
X105666846Y-122769938D01*
X105666702Y-122771405D01*
X105641364Y-122898785D01*
X105640936Y-122900196D01*
X105591235Y-123020185D01*
X105590540Y-123021485D01*
X105518384Y-123129474D01*
X105517920Y-123130038D01*
X105517917Y-123130044D01*
X105517911Y-123130049D01*
X105517449Y-123130613D01*
X105425613Y-123222449D01*
X105425049Y-123222911D01*
X105425044Y-123222917D01*
X105425038Y-123222920D01*
X105424474Y-123223384D01*
X105316485Y-123295540D01*
X105315185Y-123296235D01*
X105195196Y-123345936D01*
X105193785Y-123346364D01*
X105066405Y-123371702D01*
X105064938Y-123371846D01*
X104935062Y-123371846D01*
X104933595Y-123371702D01*
X104806215Y-123346364D01*
X104804804Y-123345936D01*
X104684815Y-123296235D01*
X104683515Y-123295540D01*
X104575526Y-123223384D01*
X104574961Y-123222920D01*
X104574956Y-123222917D01*
X104574950Y-123222911D01*
X104574387Y-123222449D01*
X104482551Y-123130613D01*
X104482088Y-123130049D01*
X104482083Y-123130044D01*
X104482079Y-123130038D01*
X104481616Y-123129474D01*
X104409460Y-123021485D01*
X104408765Y-123020185D01*
X104359064Y-122900196D01*
X104358636Y-122898785D01*
X104333298Y-122771405D01*
X104333154Y-122769938D01*
X104333154Y-122640062D01*
X104333298Y-122638595D01*
X104358636Y-122511215D01*
X104359064Y-122509804D01*
X104408765Y-122389815D01*
X104409460Y-122388515D01*
X104481616Y-122280526D01*
X104482079Y-122279961D01*
X104482083Y-122279956D01*
X104482088Y-122279950D01*
X104482551Y-122279387D01*
X104574387Y-122187551D01*
X104574950Y-122187088D01*
X104574956Y-122187083D01*
X104574961Y-122187079D01*
X104575526Y-122186616D01*
X104683515Y-122114460D01*
X104684815Y-122113765D01*
X104804804Y-122064064D01*
X104805507Y-122063850D01*
X104805509Y-122063850D01*
X104805510Y-122063849D01*
X104806215Y-122063636D01*
X104933595Y-122038298D01*
X104935062Y-122038154D01*
X105064938Y-122038154D01*
X105066405Y-122038298D01*
G37*
G36*
X122140389Y-111300280D02*
G01*
X122149376Y-111300280D01*
X122150843Y-111300424D01*
X122188145Y-111307843D01*
X122295681Y-111324876D01*
X122330270Y-111336114D01*
X122356072Y-111341247D01*
X122357483Y-111341675D01*
X122394231Y-111356896D01*
X122456097Y-111376998D01*
X122514062Y-111406532D01*
X122550805Y-111421752D01*
X122552105Y-111422447D01*
X122573971Y-111437057D01*
X122606385Y-111453573D01*
X122694484Y-111517581D01*
X122726091Y-111538700D01*
X122727230Y-111539635D01*
X122733583Y-111545988D01*
X122742843Y-111552716D01*
X122862111Y-111671984D01*
X122868838Y-111681243D01*
X122875192Y-111687597D01*
X122876127Y-111688736D01*
X122897245Y-111720342D01*
X122961254Y-111808442D01*
X122977769Y-111840855D01*
X122992380Y-111862722D01*
X122993075Y-111864022D01*
X123008294Y-111900764D01*
X123037829Y-111958730D01*
X123057930Y-112020595D01*
X123073152Y-112057344D01*
X123073580Y-112058755D01*
X123078712Y-112084556D01*
X123089951Y-112119146D01*
X123106983Y-112226681D01*
X123114403Y-112263984D01*
X123114547Y-112265451D01*
X123114547Y-112274438D01*
X123116337Y-112285740D01*
X123116337Y-112454412D01*
X123114547Y-112465713D01*
X123114547Y-112474701D01*
X123114403Y-112476168D01*
X123106983Y-112513470D01*
X123089951Y-112621006D01*
X123078712Y-112655595D01*
X123073580Y-112681397D01*
X123073152Y-112682808D01*
X123057930Y-112719556D01*
X123037829Y-112781422D01*
X123008294Y-112839387D01*
X122993075Y-112876130D01*
X122992380Y-112877430D01*
X122977769Y-112899296D01*
X122961254Y-112931710D01*
X122897245Y-113019809D01*
X122876127Y-113051416D01*
X122875192Y-113052555D01*
X122868838Y-113058908D01*
X122862111Y-113068168D01*
X122742843Y-113187436D01*
X122733583Y-113194163D01*
X122727230Y-113200517D01*
X122726091Y-113201452D01*
X122694484Y-113222570D01*
X122606385Y-113286579D01*
X122573971Y-113303094D01*
X122552105Y-113317705D01*
X122550805Y-113318400D01*
X122514062Y-113333619D01*
X122456097Y-113363154D01*
X122394231Y-113383255D01*
X122357483Y-113398477D01*
X122356072Y-113398905D01*
X122330270Y-113404037D01*
X122295681Y-113415276D01*
X122188145Y-113432308D01*
X122150843Y-113439728D01*
X122149376Y-113439872D01*
X122140389Y-113439872D01*
X122129087Y-113441662D01*
X121960415Y-113441662D01*
X121949113Y-113439872D01*
X121940126Y-113439872D01*
X121938659Y-113439728D01*
X121901356Y-113432308D01*
X121793821Y-113415276D01*
X121759231Y-113404037D01*
X121733430Y-113398905D01*
X121732019Y-113398477D01*
X121695270Y-113383255D01*
X121633405Y-113363154D01*
X121575439Y-113333619D01*
X121538697Y-113318400D01*
X121537397Y-113317705D01*
X121515530Y-113303094D01*
X121483117Y-113286579D01*
X121395017Y-113222570D01*
X121363411Y-113201452D01*
X121362272Y-113200517D01*
X121355918Y-113194163D01*
X121346659Y-113187436D01*
X121227391Y-113068168D01*
X121220663Y-113058908D01*
X121214310Y-113052555D01*
X121213375Y-113051416D01*
X121192256Y-113019809D01*
X121128248Y-112931710D01*
X121111732Y-112899296D01*
X121097122Y-112877430D01*
X121096427Y-112876130D01*
X121081207Y-112839387D01*
X121051673Y-112781422D01*
X121031571Y-112719556D01*
X121016350Y-112682808D01*
X121015922Y-112681397D01*
X121010789Y-112655595D01*
X120999551Y-112621006D01*
X120982518Y-112513470D01*
X120975099Y-112476168D01*
X120974955Y-112474701D01*
X120974955Y-112465713D01*
X120973165Y-112454412D01*
X120973165Y-112285740D01*
X120974955Y-112274438D01*
X120974955Y-112265451D01*
X120975099Y-112263984D01*
X120982518Y-112226681D01*
X120999551Y-112119146D01*
X121010789Y-112084556D01*
X121015922Y-112058755D01*
X121016350Y-112057344D01*
X121031571Y-112020595D01*
X121051673Y-111958730D01*
X121081207Y-111900764D01*
X121096427Y-111864022D01*
X121097122Y-111862722D01*
X121111732Y-111840855D01*
X121128248Y-111808442D01*
X121192256Y-111720342D01*
X121213375Y-111688736D01*
X121214310Y-111687597D01*
X121220663Y-111681243D01*
X121227391Y-111671984D01*
X121346659Y-111552716D01*
X121355918Y-111545988D01*
X121362272Y-111539635D01*
X121363411Y-111538700D01*
X121395017Y-111517581D01*
X121483117Y-111453573D01*
X121515530Y-111437057D01*
X121537397Y-111422447D01*
X121538697Y-111421752D01*
X121575439Y-111406532D01*
X121633405Y-111376998D01*
X121695270Y-111356896D01*
X121732019Y-111341675D01*
X121733430Y-111341247D01*
X121759231Y-111336114D01*
X121793821Y-111324876D01*
X121901356Y-111307843D01*
X121938659Y-111300424D01*
X121940126Y-111300280D01*
X121949113Y-111300280D01*
X121960415Y-111298490D01*
X122129087Y-111298490D01*
X122140389Y-111300280D01*
G37*
G36*
X127140389Y-111300280D02*
G01*
X127149376Y-111300280D01*
X127150843Y-111300424D01*
X127188145Y-111307843D01*
X127295681Y-111324876D01*
X127330270Y-111336114D01*
X127356072Y-111341247D01*
X127357483Y-111341675D01*
X127394231Y-111356896D01*
X127456097Y-111376998D01*
X127514062Y-111406532D01*
X127550805Y-111421752D01*
X127552105Y-111422447D01*
X127573971Y-111437057D01*
X127606385Y-111453573D01*
X127694484Y-111517581D01*
X127726091Y-111538700D01*
X127727230Y-111539635D01*
X127733583Y-111545988D01*
X127742843Y-111552716D01*
X127862111Y-111671984D01*
X127868838Y-111681243D01*
X127875192Y-111687597D01*
X127876127Y-111688736D01*
X127897245Y-111720342D01*
X127961254Y-111808442D01*
X127977769Y-111840855D01*
X127992380Y-111862722D01*
X127993075Y-111864022D01*
X128008294Y-111900764D01*
X128037829Y-111958730D01*
X128057930Y-112020595D01*
X128073152Y-112057344D01*
X128073580Y-112058755D01*
X128078712Y-112084556D01*
X128089951Y-112119146D01*
X128106983Y-112226681D01*
X128114403Y-112263984D01*
X128114547Y-112265451D01*
X128114547Y-112274438D01*
X128116337Y-112285740D01*
X128116337Y-112454412D01*
X128114547Y-112465713D01*
X128114547Y-112474701D01*
X128114403Y-112476168D01*
X128106983Y-112513470D01*
X128089951Y-112621006D01*
X128078712Y-112655595D01*
X128073580Y-112681397D01*
X128073152Y-112682808D01*
X128057930Y-112719556D01*
X128037829Y-112781422D01*
X128008294Y-112839387D01*
X127993075Y-112876130D01*
X127992380Y-112877430D01*
X127977769Y-112899296D01*
X127961254Y-112931710D01*
X127897245Y-113019809D01*
X127876127Y-113051416D01*
X127875192Y-113052555D01*
X127868838Y-113058908D01*
X127862111Y-113068168D01*
X127742843Y-113187436D01*
X127733583Y-113194163D01*
X127727230Y-113200517D01*
X127726091Y-113201452D01*
X127694484Y-113222570D01*
X127606385Y-113286579D01*
X127573971Y-113303094D01*
X127552105Y-113317705D01*
X127550805Y-113318400D01*
X127514062Y-113333619D01*
X127456097Y-113363154D01*
X127394231Y-113383255D01*
X127357483Y-113398477D01*
X127356072Y-113398905D01*
X127330270Y-113404037D01*
X127295681Y-113415276D01*
X127188145Y-113432308D01*
X127150843Y-113439728D01*
X127149376Y-113439872D01*
X127140389Y-113439872D01*
X127129087Y-113441662D01*
X126960415Y-113441662D01*
X126949113Y-113439872D01*
X126940126Y-113439872D01*
X126938659Y-113439728D01*
X126901356Y-113432308D01*
X126793821Y-113415276D01*
X126759231Y-113404037D01*
X126733430Y-113398905D01*
X126732019Y-113398477D01*
X126695270Y-113383255D01*
X126633405Y-113363154D01*
X126575439Y-113333619D01*
X126538697Y-113318400D01*
X126537397Y-113317705D01*
X126515530Y-113303094D01*
X126483117Y-113286579D01*
X126395017Y-113222570D01*
X126363411Y-113201452D01*
X126362272Y-113200517D01*
X126355918Y-113194163D01*
X126346659Y-113187436D01*
X126227391Y-113068168D01*
X126220663Y-113058908D01*
X126214310Y-113052555D01*
X126213375Y-113051416D01*
X126192256Y-113019809D01*
X126128248Y-112931710D01*
X126111732Y-112899296D01*
X126097122Y-112877430D01*
X126096427Y-112876130D01*
X126081207Y-112839387D01*
X126051673Y-112781422D01*
X126031571Y-112719556D01*
X126016350Y-112682808D01*
X126015922Y-112681397D01*
X126010789Y-112655595D01*
X125999551Y-112621006D01*
X125982518Y-112513470D01*
X125975099Y-112476168D01*
X125974955Y-112474701D01*
X125974955Y-112465713D01*
X125973165Y-112454412D01*
X125973165Y-112285740D01*
X125974955Y-112274438D01*
X125974955Y-112265451D01*
X125975099Y-112263984D01*
X125982518Y-112226681D01*
X125999551Y-112119146D01*
X126010789Y-112084556D01*
X126015922Y-112058755D01*
X126016350Y-112057344D01*
X126031571Y-112020595D01*
X126051673Y-111958730D01*
X126081207Y-111900764D01*
X126096427Y-111864022D01*
X126097122Y-111862722D01*
X126111732Y-111840855D01*
X126128248Y-111808442D01*
X126192256Y-111720342D01*
X126213375Y-111688736D01*
X126214310Y-111687597D01*
X126220663Y-111681243D01*
X126227391Y-111671984D01*
X126346659Y-111552716D01*
X126355918Y-111545988D01*
X126362272Y-111539635D01*
X126363411Y-111538700D01*
X126395017Y-111517581D01*
X126483117Y-111453573D01*
X126515530Y-111437057D01*
X126537397Y-111422447D01*
X126538697Y-111421752D01*
X126575439Y-111406532D01*
X126633405Y-111376998D01*
X126695270Y-111356896D01*
X126732019Y-111341675D01*
X126733430Y-111341247D01*
X126759231Y-111336114D01*
X126793821Y-111324876D01*
X126901356Y-111307843D01*
X126938659Y-111300424D01*
X126940126Y-111300280D01*
X126949113Y-111300280D01*
X126960415Y-111298490D01*
X127129087Y-111298490D01*
X127140389Y-111300280D01*
G37*
G36*
X174158110Y-103194436D02*
G01*
X174158119Y-103194436D01*
X174158127Y-103194436D01*
X174158539Y-103194460D01*
X174471953Y-103229773D01*
X174472783Y-103229914D01*
X174780271Y-103300097D01*
X174780665Y-103300210D01*
X174780676Y-103300213D01*
X174780686Y-103300216D01*
X174781080Y-103300330D01*
X175078779Y-103404499D01*
X175079556Y-103404821D01*
X175363719Y-103541666D01*
X175364456Y-103542073D01*
X175631509Y-103709875D01*
X175631842Y-103710111D01*
X175631853Y-103710118D01*
X175631862Y-103710125D01*
X175632196Y-103710362D01*
X175878783Y-103907008D01*
X175879411Y-103907569D01*
X176102431Y-104130589D01*
X176102992Y-104131217D01*
X176299638Y-104377804D01*
X176299874Y-104378137D01*
X176299882Y-104378147D01*
X176299888Y-104378157D01*
X176300125Y-104378491D01*
X176467927Y-104645544D01*
X176468334Y-104646281D01*
X176605179Y-104930444D01*
X176605501Y-104931221D01*
X176709670Y-105228920D01*
X176709783Y-105229313D01*
X176709787Y-105229324D01*
X176709789Y-105229334D01*
X176709903Y-105229729D01*
X176780086Y-105537217D01*
X176780227Y-105538047D01*
X176815540Y-105851461D01*
X176815563Y-105851872D01*
X176815564Y-105851881D01*
X176815564Y-105851889D01*
X176815587Y-105852301D01*
X176815587Y-106167699D01*
X176815540Y-106168539D01*
X176780227Y-106481953D01*
X176780086Y-106482783D01*
X176709903Y-106790271D01*
X176709789Y-106790665D01*
X176709787Y-106790676D01*
X176709783Y-106790686D01*
X176709670Y-106791080D01*
X176605501Y-107088779D01*
X176605179Y-107089556D01*
X176468334Y-107373719D01*
X176467927Y-107374456D01*
X176300125Y-107641509D01*
X176299888Y-107641842D01*
X176299882Y-107641853D01*
X176299874Y-107641862D01*
X176299638Y-107642196D01*
X176102992Y-107888783D01*
X176102431Y-107889411D01*
X175879411Y-108112431D01*
X175878783Y-108112992D01*
X175632196Y-108309638D01*
X175631862Y-108309874D01*
X175631853Y-108309882D01*
X175631842Y-108309888D01*
X175631509Y-108310125D01*
X175364456Y-108477927D01*
X175363719Y-108478334D01*
X175079556Y-108615179D01*
X175078779Y-108615501D01*
X174781080Y-108719670D01*
X174780686Y-108719783D01*
X174780676Y-108719787D01*
X174780665Y-108719789D01*
X174780271Y-108719903D01*
X174472783Y-108790086D01*
X174471953Y-108790227D01*
X174158539Y-108825540D01*
X174158127Y-108825563D01*
X174158119Y-108825564D01*
X174158110Y-108825564D01*
X174157699Y-108825587D01*
X173842301Y-108825587D01*
X173841890Y-108825564D01*
X173841881Y-108825564D01*
X173841872Y-108825563D01*
X173841461Y-108825540D01*
X173528047Y-108790227D01*
X173527217Y-108790086D01*
X173219729Y-108719903D01*
X173219334Y-108719789D01*
X173219324Y-108719787D01*
X173219313Y-108719783D01*
X173218920Y-108719670D01*
X172921221Y-108615501D01*
X172920444Y-108615179D01*
X172636281Y-108478334D01*
X172635544Y-108477927D01*
X172368491Y-108310125D01*
X172368157Y-108309888D01*
X172368147Y-108309882D01*
X172368137Y-108309874D01*
X172367804Y-108309638D01*
X172121217Y-108112992D01*
X172120589Y-108112431D01*
X171897569Y-107889411D01*
X171897008Y-107888783D01*
X171700362Y-107642196D01*
X171700125Y-107641862D01*
X171700118Y-107641853D01*
X171700111Y-107641842D01*
X171699875Y-107641509D01*
X171532073Y-107374456D01*
X171531666Y-107373719D01*
X171394821Y-107089556D01*
X171394499Y-107088779D01*
X171290330Y-106791080D01*
X171290216Y-106790686D01*
X171290213Y-106790676D01*
X171290210Y-106790665D01*
X171290097Y-106790271D01*
X171219914Y-106482783D01*
X171219773Y-106481953D01*
X171184460Y-106168539D01*
X171184413Y-106167699D01*
X171184413Y-105852301D01*
X171184436Y-105851889D01*
X171184436Y-105851881D01*
X171184436Y-105851872D01*
X171184460Y-105851461D01*
X171219773Y-105538047D01*
X171219914Y-105537217D01*
X171290097Y-105229729D01*
X171290210Y-105229334D01*
X171290213Y-105229324D01*
X171290216Y-105229313D01*
X171290330Y-105228920D01*
X171394499Y-104931221D01*
X171394821Y-104930444D01*
X171531666Y-104646281D01*
X171532073Y-104645544D01*
X171699875Y-104378491D01*
X171700111Y-104378157D01*
X171700118Y-104378147D01*
X171700125Y-104378137D01*
X171700362Y-104377804D01*
X171897008Y-104131217D01*
X171897569Y-104130589D01*
X172120589Y-103907569D01*
X172121217Y-103907008D01*
X172367804Y-103710362D01*
X172368137Y-103710125D01*
X172368147Y-103710118D01*
X172368157Y-103710111D01*
X172368491Y-103709875D01*
X172635544Y-103542073D01*
X172636281Y-103541666D01*
X172920444Y-103404821D01*
X172921221Y-103404499D01*
X173218920Y-103300330D01*
X173219313Y-103300216D01*
X173219324Y-103300213D01*
X173219334Y-103300210D01*
X173219729Y-103300097D01*
X173527217Y-103229914D01*
X173528047Y-103229773D01*
X173841461Y-103194460D01*
X173841872Y-103194436D01*
X173841881Y-103194436D01*
X173841890Y-103194436D01*
X173842301Y-103194413D01*
X174157699Y-103194413D01*
X174158110Y-103194436D01*
G37*
G36*
X106158110Y-103184436D02*
G01*
X106158119Y-103184436D01*
X106158127Y-103184436D01*
X106158539Y-103184460D01*
X106471953Y-103219773D01*
X106472783Y-103219914D01*
X106780271Y-103290097D01*
X106780665Y-103290210D01*
X106780676Y-103290213D01*
X106780686Y-103290216D01*
X106781080Y-103290330D01*
X107078779Y-103394499D01*
X107079556Y-103394821D01*
X107363719Y-103531666D01*
X107364456Y-103532073D01*
X107631509Y-103699875D01*
X107631842Y-103700111D01*
X107631853Y-103700118D01*
X107631862Y-103700125D01*
X107632196Y-103700362D01*
X107878783Y-103897008D01*
X107879411Y-103897569D01*
X108102431Y-104120589D01*
X108102992Y-104121217D01*
X108299638Y-104367804D01*
X108299874Y-104368137D01*
X108299882Y-104368147D01*
X108299888Y-104368157D01*
X108300125Y-104368491D01*
X108467927Y-104635544D01*
X108468334Y-104636281D01*
X108605179Y-104920444D01*
X108605501Y-104921221D01*
X108709670Y-105218920D01*
X108709783Y-105219313D01*
X108709787Y-105219324D01*
X108709789Y-105219334D01*
X108709903Y-105219729D01*
X108780086Y-105527217D01*
X108780227Y-105528047D01*
X108815540Y-105841461D01*
X108815563Y-105841872D01*
X108815564Y-105841881D01*
X108815564Y-105841889D01*
X108815587Y-105842301D01*
X108815587Y-106157699D01*
X108815540Y-106158539D01*
X108780227Y-106471953D01*
X108780086Y-106472783D01*
X108709903Y-106780271D01*
X108709789Y-106780665D01*
X108709787Y-106780676D01*
X108709783Y-106780686D01*
X108709670Y-106781080D01*
X108605501Y-107078779D01*
X108605179Y-107079556D01*
X108468334Y-107363719D01*
X108467927Y-107364456D01*
X108300125Y-107631509D01*
X108299888Y-107631842D01*
X108299882Y-107631853D01*
X108299874Y-107631862D01*
X108299638Y-107632196D01*
X108102992Y-107878783D01*
X108102431Y-107879411D01*
X107879411Y-108102431D01*
X107878783Y-108102992D01*
X107632196Y-108299638D01*
X107631862Y-108299874D01*
X107631853Y-108299882D01*
X107631842Y-108299888D01*
X107631509Y-108300125D01*
X107364456Y-108467927D01*
X107363719Y-108468334D01*
X107079556Y-108605179D01*
X107078779Y-108605501D01*
X106781080Y-108709670D01*
X106780686Y-108709783D01*
X106780676Y-108709787D01*
X106780665Y-108709789D01*
X106780271Y-108709903D01*
X106472783Y-108780086D01*
X106471953Y-108780227D01*
X106158539Y-108815540D01*
X106158127Y-108815563D01*
X106158119Y-108815564D01*
X106158110Y-108815564D01*
X106157699Y-108815587D01*
X105842301Y-108815587D01*
X105841890Y-108815564D01*
X105841881Y-108815564D01*
X105841872Y-108815563D01*
X105841461Y-108815540D01*
X105528047Y-108780227D01*
X105527217Y-108780086D01*
X105219729Y-108709903D01*
X105219334Y-108709789D01*
X105219324Y-108709787D01*
X105219313Y-108709783D01*
X105218920Y-108709670D01*
X104921221Y-108605501D01*
X104920444Y-108605179D01*
X104636281Y-108468334D01*
X104635544Y-108467927D01*
X104368491Y-108300125D01*
X104368157Y-108299888D01*
X104368147Y-108299882D01*
X104368137Y-108299874D01*
X104367804Y-108299638D01*
X104121217Y-108102992D01*
X104120589Y-108102431D01*
X103897569Y-107879411D01*
X103897008Y-107878783D01*
X103700362Y-107632196D01*
X103700125Y-107631862D01*
X103700118Y-107631853D01*
X103700111Y-107631842D01*
X103699875Y-107631509D01*
X103532073Y-107364456D01*
X103531666Y-107363719D01*
X103394821Y-107079556D01*
X103394499Y-107078779D01*
X103290330Y-106781080D01*
X103290216Y-106780686D01*
X103290213Y-106780676D01*
X103290210Y-106780665D01*
X103290097Y-106780271D01*
X103219914Y-106472783D01*
X103219773Y-106471953D01*
X103184460Y-106158539D01*
X103184413Y-106157699D01*
X103184413Y-105842301D01*
X103184436Y-105841889D01*
X103184436Y-105841881D01*
X103184436Y-105841872D01*
X103184460Y-105841461D01*
X103219773Y-105528047D01*
X103219914Y-105527217D01*
X103290097Y-105219729D01*
X103290210Y-105219334D01*
X103290213Y-105219324D01*
X103290216Y-105219313D01*
X103290330Y-105218920D01*
X103394499Y-104921221D01*
X103394821Y-104920444D01*
X103531666Y-104636281D01*
X103532073Y-104635544D01*
X103699875Y-104368491D01*
X103700111Y-104368157D01*
X103700118Y-104368147D01*
X103700125Y-104368137D01*
X103700362Y-104367804D01*
X103897008Y-104121217D01*
X103897569Y-104120589D01*
X104120589Y-103897569D01*
X104121217Y-103897008D01*
X104367804Y-103700362D01*
X104368137Y-103700125D01*
X104368147Y-103700118D01*
X104368157Y-103700111D01*
X104368491Y-103699875D01*
X104635544Y-103532073D01*
X104636281Y-103531666D01*
X104920444Y-103394821D01*
X104921221Y-103394499D01*
X105218920Y-103290330D01*
X105219313Y-103290216D01*
X105219324Y-103290213D01*
X105219334Y-103290210D01*
X105219729Y-103290097D01*
X105527217Y-103219914D01*
X105528047Y-103219773D01*
X105841461Y-103184460D01*
X105841872Y-103184436D01*
X105841881Y-103184436D01*
X105841890Y-103184436D01*
X105842301Y-103184413D01*
X106157699Y-103184413D01*
X106158110Y-103184436D01*
G37*
G36*
X160841456Y-106051019D02*
G01*
X160841457Y-106051019D01*
X160842190Y-106051091D01*
X160961303Y-106074784D01*
X160962714Y-106075212D01*
X161074916Y-106121688D01*
X161075559Y-106122032D01*
X161075566Y-106122035D01*
X161075571Y-106122038D01*
X161076215Y-106122383D01*
X161177195Y-106189855D01*
X161177759Y-106190318D01*
X161177765Y-106190322D01*
X161177770Y-106190327D01*
X161178334Y-106190790D01*
X161264210Y-106276666D01*
X161264672Y-106277229D01*
X161264678Y-106277235D01*
X161264681Y-106277240D01*
X161265145Y-106277805D01*
X161332617Y-106378785D01*
X161332961Y-106379428D01*
X161332965Y-106379434D01*
X161332967Y-106379440D01*
X161333312Y-106380084D01*
X161379788Y-106492286D01*
X161380216Y-106493697D01*
X161403873Y-106612629D01*
X161404008Y-106613726D01*
X161406991Y-106674448D01*
X161407000Y-106674816D01*
X161407000Y-107775184D01*
X161406991Y-107775552D01*
X161404008Y-107836274D01*
X161403873Y-107837371D01*
X161380216Y-107956303D01*
X161379788Y-107957714D01*
X161333312Y-108069916D01*
X161332967Y-108070559D01*
X161332965Y-108070566D01*
X161332961Y-108070571D01*
X161332617Y-108071215D01*
X161265145Y-108172195D01*
X161264681Y-108172759D01*
X161264678Y-108172765D01*
X161264672Y-108172770D01*
X161264210Y-108173334D01*
X161178334Y-108259210D01*
X161177770Y-108259672D01*
X161177765Y-108259678D01*
X161177759Y-108259681D01*
X161177195Y-108260145D01*
X161076215Y-108327617D01*
X161075571Y-108327961D01*
X161075566Y-108327965D01*
X161075559Y-108327967D01*
X161074916Y-108328312D01*
X160962714Y-108374788D01*
X160961303Y-108375216D01*
X160842190Y-108398909D01*
X160840723Y-108399053D01*
X160719277Y-108399053D01*
X160717810Y-108398909D01*
X160598697Y-108375216D01*
X160597286Y-108374788D01*
X160485084Y-108328312D01*
X160484440Y-108327967D01*
X160484434Y-108327965D01*
X160484428Y-108327961D01*
X160483785Y-108327617D01*
X160382805Y-108260145D01*
X160382240Y-108259681D01*
X160382235Y-108259678D01*
X160382229Y-108259672D01*
X160381666Y-108259210D01*
X160295790Y-108173334D01*
X160295327Y-108172770D01*
X160295322Y-108172765D01*
X160295318Y-108172759D01*
X160294855Y-108172195D01*
X160227383Y-108071215D01*
X160227038Y-108070571D01*
X160227035Y-108070566D01*
X160227032Y-108070559D01*
X160226688Y-108069916D01*
X160180212Y-107957714D01*
X160179784Y-107956303D01*
X160156127Y-107837371D01*
X160155992Y-107836274D01*
X160153009Y-107775552D01*
X160153000Y-107775184D01*
X160153000Y-106674816D01*
X160153009Y-106674448D01*
X160155992Y-106613726D01*
X160156127Y-106612629D01*
X160179784Y-106493697D01*
X160180212Y-106492286D01*
X160226688Y-106380084D01*
X160227032Y-106379440D01*
X160227035Y-106379434D01*
X160227038Y-106379428D01*
X160227383Y-106378785D01*
X160294855Y-106277805D01*
X160295318Y-106277240D01*
X160295322Y-106277235D01*
X160295327Y-106277229D01*
X160295790Y-106276666D01*
X160381666Y-106190790D01*
X160382229Y-106190327D01*
X160382235Y-106190322D01*
X160382240Y-106190318D01*
X160382805Y-106189855D01*
X160483785Y-106122383D01*
X160484428Y-106122038D01*
X160484434Y-106122035D01*
X160484440Y-106122032D01*
X160485084Y-106121688D01*
X160597286Y-106075212D01*
X160598697Y-106074784D01*
X160717810Y-106051091D01*
X160718542Y-106051019D01*
X160718543Y-106051019D01*
X160718544Y-106051019D01*
X160719277Y-106050947D01*
X160840723Y-106050947D01*
X160841456Y-106051019D01*
G37*
G36*
X169481456Y-106051019D02*
G01*
X169481457Y-106051019D01*
X169482190Y-106051091D01*
X169601303Y-106074784D01*
X169602714Y-106075212D01*
X169714916Y-106121688D01*
X169715559Y-106122032D01*
X169715566Y-106122035D01*
X169715571Y-106122038D01*
X169716215Y-106122383D01*
X169817195Y-106189855D01*
X169817759Y-106190318D01*
X169817765Y-106190322D01*
X169817770Y-106190327D01*
X169818334Y-106190790D01*
X169904210Y-106276666D01*
X169904672Y-106277229D01*
X169904678Y-106277235D01*
X169904681Y-106277240D01*
X169905145Y-106277805D01*
X169972617Y-106378785D01*
X169972961Y-106379428D01*
X169972965Y-106379434D01*
X169972967Y-106379440D01*
X169973312Y-106380084D01*
X170019788Y-106492286D01*
X170020216Y-106493697D01*
X170043873Y-106612629D01*
X170044008Y-106613726D01*
X170046991Y-106674448D01*
X170047000Y-106674816D01*
X170047000Y-107775184D01*
X170046991Y-107775552D01*
X170044008Y-107836274D01*
X170043873Y-107837371D01*
X170020216Y-107956303D01*
X170019788Y-107957714D01*
X169973312Y-108069916D01*
X169972967Y-108070559D01*
X169972965Y-108070566D01*
X169972961Y-108070571D01*
X169972617Y-108071215D01*
X169905145Y-108172195D01*
X169904681Y-108172759D01*
X169904678Y-108172765D01*
X169904672Y-108172770D01*
X169904210Y-108173334D01*
X169818334Y-108259210D01*
X169817770Y-108259672D01*
X169817765Y-108259678D01*
X169817759Y-108259681D01*
X169817195Y-108260145D01*
X169716215Y-108327617D01*
X169715571Y-108327961D01*
X169715566Y-108327965D01*
X169715559Y-108327967D01*
X169714916Y-108328312D01*
X169602714Y-108374788D01*
X169601303Y-108375216D01*
X169482190Y-108398909D01*
X169480723Y-108399053D01*
X169359277Y-108399053D01*
X169357810Y-108398909D01*
X169238697Y-108375216D01*
X169237286Y-108374788D01*
X169125084Y-108328312D01*
X169124440Y-108327967D01*
X169124434Y-108327965D01*
X169124428Y-108327961D01*
X169123785Y-108327617D01*
X169022805Y-108260145D01*
X169022240Y-108259681D01*
X169022235Y-108259678D01*
X169022229Y-108259672D01*
X169021666Y-108259210D01*
X168935790Y-108173334D01*
X168935327Y-108172770D01*
X168935322Y-108172765D01*
X168935318Y-108172759D01*
X168934855Y-108172195D01*
X168867383Y-108071215D01*
X168867038Y-108070571D01*
X168867035Y-108070566D01*
X168867032Y-108070559D01*
X168866688Y-108069916D01*
X168820212Y-107957714D01*
X168819784Y-107956303D01*
X168796127Y-107837371D01*
X168795992Y-107836274D01*
X168793009Y-107775552D01*
X168793000Y-107775184D01*
X168793000Y-106674816D01*
X168793009Y-106674448D01*
X168795992Y-106613726D01*
X168796127Y-106612629D01*
X168819784Y-106493697D01*
X168820212Y-106492286D01*
X168866688Y-106380084D01*
X168867032Y-106379440D01*
X168867035Y-106379434D01*
X168867038Y-106379428D01*
X168867383Y-106378785D01*
X168934855Y-106277805D01*
X168935318Y-106277240D01*
X168935322Y-106277235D01*
X168935327Y-106277229D01*
X168935790Y-106276666D01*
X169021666Y-106190790D01*
X169022229Y-106190327D01*
X169022235Y-106190322D01*
X169022240Y-106190318D01*
X169022805Y-106189855D01*
X169123785Y-106122383D01*
X169124428Y-106122038D01*
X169124434Y-106122035D01*
X169124440Y-106122032D01*
X169125084Y-106121688D01*
X169237286Y-106075212D01*
X169238697Y-106074784D01*
X169357810Y-106051091D01*
X169358542Y-106051019D01*
X169358543Y-106051019D01*
X169358544Y-106051019D01*
X169359277Y-106050947D01*
X169480723Y-106050947D01*
X169481456Y-106051019D01*
G37*
G36*
X160841456Y-102051019D02*
G01*
X160841457Y-102051019D01*
X160842190Y-102051091D01*
X160961303Y-102074784D01*
X160962714Y-102075212D01*
X161074916Y-102121688D01*
X161075559Y-102122032D01*
X161075566Y-102122035D01*
X161075571Y-102122038D01*
X161076215Y-102122383D01*
X161177195Y-102189855D01*
X161177759Y-102190318D01*
X161177765Y-102190322D01*
X161177770Y-102190327D01*
X161178334Y-102190790D01*
X161264210Y-102276666D01*
X161264672Y-102277229D01*
X161264678Y-102277235D01*
X161264681Y-102277240D01*
X161265145Y-102277805D01*
X161332617Y-102378785D01*
X161332961Y-102379428D01*
X161332965Y-102379434D01*
X161332967Y-102379440D01*
X161333312Y-102380084D01*
X161379788Y-102492286D01*
X161380216Y-102493697D01*
X161403873Y-102612629D01*
X161404008Y-102613726D01*
X161406991Y-102674448D01*
X161407000Y-102674816D01*
X161407000Y-103475184D01*
X161406991Y-103475552D01*
X161404008Y-103536274D01*
X161403873Y-103537371D01*
X161380216Y-103656303D01*
X161379788Y-103657714D01*
X161333312Y-103769916D01*
X161332967Y-103770559D01*
X161332965Y-103770566D01*
X161332961Y-103770571D01*
X161332617Y-103771215D01*
X161265145Y-103872195D01*
X161264681Y-103872759D01*
X161264678Y-103872765D01*
X161264672Y-103872770D01*
X161264210Y-103873334D01*
X161178334Y-103959210D01*
X161177770Y-103959672D01*
X161177765Y-103959678D01*
X161177759Y-103959681D01*
X161177195Y-103960145D01*
X161076215Y-104027617D01*
X161075571Y-104027961D01*
X161075566Y-104027965D01*
X161075559Y-104027967D01*
X161074916Y-104028312D01*
X160962714Y-104074788D01*
X160961303Y-104075216D01*
X160842190Y-104098909D01*
X160840723Y-104099053D01*
X160719277Y-104099053D01*
X160717810Y-104098909D01*
X160598697Y-104075216D01*
X160597286Y-104074788D01*
X160485084Y-104028312D01*
X160484440Y-104027967D01*
X160484434Y-104027965D01*
X160484428Y-104027961D01*
X160483785Y-104027617D01*
X160382805Y-103960145D01*
X160382240Y-103959681D01*
X160382235Y-103959678D01*
X160382229Y-103959672D01*
X160381666Y-103959210D01*
X160295790Y-103873334D01*
X160295327Y-103872770D01*
X160295322Y-103872765D01*
X160295318Y-103872759D01*
X160294855Y-103872195D01*
X160227383Y-103771215D01*
X160227038Y-103770571D01*
X160227035Y-103770566D01*
X160227032Y-103770559D01*
X160226688Y-103769916D01*
X160180212Y-103657714D01*
X160179784Y-103656303D01*
X160156127Y-103537371D01*
X160155992Y-103536274D01*
X160153009Y-103475552D01*
X160153000Y-103475184D01*
X160153000Y-102674816D01*
X160153009Y-102674448D01*
X160155992Y-102613726D01*
X160156127Y-102612629D01*
X160179784Y-102493697D01*
X160180212Y-102492286D01*
X160226688Y-102380084D01*
X160227032Y-102379440D01*
X160227035Y-102379434D01*
X160227038Y-102379428D01*
X160227383Y-102378785D01*
X160294855Y-102277805D01*
X160295318Y-102277240D01*
X160295322Y-102277235D01*
X160295327Y-102277229D01*
X160295790Y-102276666D01*
X160381666Y-102190790D01*
X160382229Y-102190327D01*
X160382235Y-102190322D01*
X160382240Y-102190318D01*
X160382805Y-102189855D01*
X160483785Y-102122383D01*
X160484428Y-102122038D01*
X160484434Y-102122035D01*
X160484440Y-102122032D01*
X160485084Y-102121688D01*
X160597286Y-102075212D01*
X160598697Y-102074784D01*
X160717810Y-102051091D01*
X160718542Y-102051019D01*
X160718543Y-102051019D01*
X160718544Y-102051019D01*
X160719277Y-102050947D01*
X160840723Y-102050947D01*
X160841456Y-102051019D01*
G37*
G36*
X169481456Y-102051019D02*
G01*
X169481457Y-102051019D01*
X169482190Y-102051091D01*
X169601303Y-102074784D01*
X169602714Y-102075212D01*
X169714916Y-102121688D01*
X169715559Y-102122032D01*
X169715566Y-102122035D01*
X169715571Y-102122038D01*
X169716215Y-102122383D01*
X169817195Y-102189855D01*
X169817759Y-102190318D01*
X169817765Y-102190322D01*
X169817770Y-102190327D01*
X169818334Y-102190790D01*
X169904210Y-102276666D01*
X169904672Y-102277229D01*
X169904678Y-102277235D01*
X169904681Y-102277240D01*
X169905145Y-102277805D01*
X169972617Y-102378785D01*
X169972961Y-102379428D01*
X169972965Y-102379434D01*
X169972967Y-102379440D01*
X169973312Y-102380084D01*
X170019788Y-102492286D01*
X170020216Y-102493697D01*
X170043873Y-102612629D01*
X170044008Y-102613726D01*
X170046991Y-102674448D01*
X170047000Y-102674816D01*
X170047000Y-103475184D01*
X170046991Y-103475552D01*
X170044008Y-103536274D01*
X170043873Y-103537371D01*
X170020216Y-103656303D01*
X170019788Y-103657714D01*
X169973312Y-103769916D01*
X169972967Y-103770559D01*
X169972965Y-103770566D01*
X169972961Y-103770571D01*
X169972617Y-103771215D01*
X169905145Y-103872195D01*
X169904681Y-103872759D01*
X169904678Y-103872765D01*
X169904672Y-103872770D01*
X169904210Y-103873334D01*
X169818334Y-103959210D01*
X169817770Y-103959672D01*
X169817765Y-103959678D01*
X169817759Y-103959681D01*
X169817195Y-103960145D01*
X169716215Y-104027617D01*
X169715571Y-104027961D01*
X169715566Y-104027965D01*
X169715559Y-104027967D01*
X169714916Y-104028312D01*
X169602714Y-104074788D01*
X169601303Y-104075216D01*
X169482190Y-104098909D01*
X169480723Y-104099053D01*
X169359277Y-104099053D01*
X169357810Y-104098909D01*
X169238697Y-104075216D01*
X169237286Y-104074788D01*
X169125084Y-104028312D01*
X169124440Y-104027967D01*
X169124434Y-104027965D01*
X169124428Y-104027961D01*
X169123785Y-104027617D01*
X169022805Y-103960145D01*
X169022240Y-103959681D01*
X169022235Y-103959678D01*
X169022229Y-103959672D01*
X169021666Y-103959210D01*
X168935790Y-103873334D01*
X168935327Y-103872770D01*
X168935322Y-103872765D01*
X168935318Y-103872759D01*
X168934855Y-103872195D01*
X168867383Y-103771215D01*
X168867038Y-103770571D01*
X168867035Y-103770566D01*
X168867032Y-103770559D01*
X168866688Y-103769916D01*
X168820212Y-103657714D01*
X168819784Y-103656303D01*
X168796127Y-103537371D01*
X168795992Y-103536274D01*
X168793009Y-103475552D01*
X168793000Y-103475184D01*
X168793000Y-102674816D01*
X168793009Y-102674448D01*
X168795992Y-102613726D01*
X168796127Y-102612629D01*
X168819784Y-102493697D01*
X168820212Y-102492286D01*
X168866688Y-102380084D01*
X168867032Y-102379440D01*
X168867035Y-102379434D01*
X168867038Y-102379428D01*
X168867383Y-102378785D01*
X168934855Y-102277805D01*
X168935318Y-102277240D01*
X168935322Y-102277235D01*
X168935327Y-102277229D01*
X168935790Y-102276666D01*
X169021666Y-102190790D01*
X169022229Y-102190327D01*
X169022235Y-102190322D01*
X169022240Y-102190318D01*
X169022805Y-102189855D01*
X169123785Y-102122383D01*
X169124428Y-102122038D01*
X169124434Y-102122035D01*
X169124440Y-102122032D01*
X169125084Y-102121688D01*
X169237286Y-102075212D01*
X169238697Y-102074784D01*
X169357810Y-102051091D01*
X169358542Y-102051019D01*
X169358543Y-102051019D01*
X169358544Y-102051019D01*
X169359277Y-102050947D01*
X169480723Y-102050947D01*
X169481456Y-102051019D01*
G37*
G36*
X147321117Y-101848359D02*
G01*
X147399361Y-101900639D01*
X147451641Y-101978883D01*
X147469999Y-102071178D01*
X147470000Y-103478823D01*
X147451641Y-103571117D01*
X147399361Y-103649361D01*
X147321117Y-103701641D01*
X147228822Y-103719999D01*
X146649999Y-103719999D01*
X146081029Y-103720000D01*
X146081028Y-103719999D01*
X146071177Y-103720000D01*
X145978883Y-103701641D01*
X145900639Y-103649361D01*
X145848359Y-103571117D01*
X145830001Y-103478822D01*
X145830000Y-102071177D01*
X145848359Y-101978883D01*
X145900639Y-101900639D01*
X145978883Y-101848359D01*
X146071178Y-101830001D01*
X146650000Y-101830000D01*
X147218971Y-101830000D01*
X147228823Y-101830000D01*
X147321117Y-101848359D01*
G37*
G36*
X149231108Y-101834020D02*
G01*
X149387328Y-101865095D01*
X149388739Y-101865523D01*
X149535895Y-101926477D01*
X149537195Y-101927172D01*
X149669633Y-102015664D01*
X149670772Y-102016599D01*
X149783401Y-102129228D01*
X149784336Y-102130367D01*
X149872828Y-102262805D01*
X149873523Y-102264105D01*
X149934477Y-102411261D01*
X149934905Y-102412672D01*
X149965944Y-102568711D01*
X149966079Y-102569808D01*
X149969991Y-102649448D01*
X149970000Y-102649816D01*
X149970000Y-102900184D01*
X149969991Y-102900552D01*
X149966079Y-102980192D01*
X149965944Y-102981289D01*
X149934905Y-103137328D01*
X149934477Y-103138739D01*
X149873523Y-103285895D01*
X149872828Y-103287195D01*
X149784336Y-103419633D01*
X149783401Y-103420772D01*
X149670772Y-103533401D01*
X149669633Y-103534336D01*
X149537195Y-103622828D01*
X149535895Y-103623523D01*
X149388739Y-103684477D01*
X149387328Y-103684905D01*
X149231108Y-103715980D01*
X149229641Y-103716124D01*
X149070359Y-103716124D01*
X149068892Y-103715980D01*
X148912672Y-103684905D01*
X148911261Y-103684477D01*
X148764105Y-103623523D01*
X148762805Y-103622828D01*
X148630367Y-103534336D01*
X148629228Y-103533401D01*
X148516599Y-103420772D01*
X148515664Y-103419633D01*
X148427172Y-103287195D01*
X148426477Y-103285895D01*
X148365523Y-103138739D01*
X148365095Y-103137328D01*
X148334056Y-102981289D01*
X148333921Y-102980192D01*
X148330009Y-102900552D01*
X148330000Y-102900184D01*
X148330000Y-102649816D01*
X148330009Y-102649448D01*
X148333921Y-102569808D01*
X148334056Y-102568711D01*
X148365095Y-102412672D01*
X148365523Y-102411261D01*
X148426477Y-102264105D01*
X148427172Y-102262805D01*
X148515664Y-102130367D01*
X148516599Y-102129228D01*
X148629228Y-102016599D01*
X148630367Y-102015664D01*
X148762805Y-101927172D01*
X148764105Y-101926477D01*
X148911261Y-101865523D01*
X148912672Y-101865095D01*
X149068892Y-101834020D01*
X149070359Y-101833876D01*
X149229641Y-101833876D01*
X149231108Y-101834020D01*
G37*
G36*
X151731108Y-101834020D02*
G01*
X151887328Y-101865095D01*
X151888739Y-101865523D01*
X152035895Y-101926477D01*
X152037195Y-101927172D01*
X152169633Y-102015664D01*
X152170772Y-102016599D01*
X152283401Y-102129228D01*
X152284336Y-102130367D01*
X152372828Y-102262805D01*
X152373523Y-102264105D01*
X152434477Y-102411261D01*
X152434905Y-102412672D01*
X152465944Y-102568711D01*
X152466079Y-102569808D01*
X152469991Y-102649448D01*
X152470000Y-102649816D01*
X152470000Y-102900184D01*
X152469991Y-102900552D01*
X152466079Y-102980192D01*
X152465944Y-102981289D01*
X152434905Y-103137328D01*
X152434477Y-103138739D01*
X152373523Y-103285895D01*
X152372828Y-103287195D01*
X152284336Y-103419633D01*
X152283401Y-103420772D01*
X152170772Y-103533401D01*
X152169633Y-103534336D01*
X152037195Y-103622828D01*
X152035895Y-103623523D01*
X151888739Y-103684477D01*
X151887328Y-103684905D01*
X151731108Y-103715980D01*
X151729641Y-103716124D01*
X151570359Y-103716124D01*
X151568892Y-103715980D01*
X151412672Y-103684905D01*
X151411261Y-103684477D01*
X151264105Y-103623523D01*
X151262805Y-103622828D01*
X151130367Y-103534336D01*
X151129228Y-103533401D01*
X151016599Y-103420772D01*
X151015664Y-103419633D01*
X150927172Y-103287195D01*
X150926477Y-103285895D01*
X150865523Y-103138739D01*
X150865095Y-103137328D01*
X150834056Y-102981289D01*
X150833921Y-102980192D01*
X150830009Y-102900552D01*
X150830000Y-102900184D01*
X150830000Y-102649816D01*
X150830009Y-102649448D01*
X150833921Y-102569808D01*
X150834056Y-102568711D01*
X150865095Y-102412672D01*
X150865523Y-102411261D01*
X150926477Y-102264105D01*
X150927172Y-102262805D01*
X151015664Y-102130367D01*
X151016599Y-102129228D01*
X151129228Y-102016599D01*
X151130367Y-102015664D01*
X151262805Y-101927172D01*
X151264105Y-101926477D01*
X151411261Y-101865523D01*
X151412672Y-101865095D01*
X151568892Y-101834020D01*
X151570359Y-101833876D01*
X151729641Y-101833876D01*
X151731108Y-101834020D01*
G37*
G36*
X154231108Y-101834020D02*
G01*
X154387328Y-101865095D01*
X154388739Y-101865523D01*
X154535895Y-101926477D01*
X154537195Y-101927172D01*
X154669633Y-102015664D01*
X154670772Y-102016599D01*
X154783401Y-102129228D01*
X154784336Y-102130367D01*
X154872828Y-102262805D01*
X154873523Y-102264105D01*
X154934477Y-102411261D01*
X154934905Y-102412672D01*
X154965944Y-102568711D01*
X154966079Y-102569808D01*
X154969991Y-102649448D01*
X154970000Y-102649816D01*
X154970000Y-102900184D01*
X154969991Y-102900552D01*
X154966079Y-102980192D01*
X154965944Y-102981289D01*
X154934905Y-103137328D01*
X154934477Y-103138739D01*
X154873523Y-103285895D01*
X154872828Y-103287195D01*
X154784336Y-103419633D01*
X154783401Y-103420772D01*
X154670772Y-103533401D01*
X154669633Y-103534336D01*
X154537195Y-103622828D01*
X154535895Y-103623523D01*
X154388739Y-103684477D01*
X154387328Y-103684905D01*
X154231108Y-103715980D01*
X154229641Y-103716124D01*
X154070359Y-103716124D01*
X154068892Y-103715980D01*
X153912672Y-103684905D01*
X153911261Y-103684477D01*
X153764105Y-103623523D01*
X153762805Y-103622828D01*
X153630367Y-103534336D01*
X153629228Y-103533401D01*
X153516599Y-103420772D01*
X153515664Y-103419633D01*
X153427172Y-103287195D01*
X153426477Y-103285895D01*
X153365523Y-103138739D01*
X153365095Y-103137328D01*
X153334056Y-102981289D01*
X153333921Y-102980192D01*
X153330009Y-102900552D01*
X153330000Y-102900184D01*
X153330000Y-102649816D01*
X153330009Y-102649448D01*
X153333921Y-102569808D01*
X153334056Y-102568711D01*
X153365095Y-102412672D01*
X153365523Y-102411261D01*
X153426477Y-102264105D01*
X153427172Y-102262805D01*
X153515664Y-102130367D01*
X153516599Y-102129228D01*
X153629228Y-102016599D01*
X153630367Y-102015664D01*
X153762805Y-101927172D01*
X153764105Y-101926477D01*
X153911261Y-101865523D01*
X153912672Y-101865095D01*
X154068892Y-101834020D01*
X154070359Y-101833876D01*
X154229641Y-101833876D01*
X154231108Y-101834020D01*
G37*
G36*
X119115989Y-101654311D02*
G01*
X119252848Y-101681535D01*
X119253552Y-101681748D01*
X119253554Y-101681749D01*
X119253555Y-101681749D01*
X119254259Y-101681963D01*
X119383177Y-101735363D01*
X119383819Y-101735706D01*
X119383828Y-101735710D01*
X119383835Y-101735715D01*
X119384477Y-101736058D01*
X119500502Y-101813583D01*
X119501641Y-101814518D01*
X119600310Y-101913187D01*
X119601245Y-101914326D01*
X119678770Y-102030351D01*
X119679112Y-102030992D01*
X119679118Y-102031000D01*
X119679121Y-102031008D01*
X119679465Y-102031651D01*
X119732865Y-102160569D01*
X119733293Y-102161980D01*
X119760517Y-102298839D01*
X119760661Y-102300306D01*
X119760661Y-102439846D01*
X119760517Y-102441313D01*
X119733293Y-102578172D01*
X119732865Y-102579583D01*
X119679465Y-102708501D01*
X119679121Y-102709143D01*
X119679118Y-102709152D01*
X119679112Y-102709159D01*
X119678770Y-102709801D01*
X119601245Y-102825826D01*
X119600310Y-102826965D01*
X119501641Y-102925634D01*
X119500502Y-102926569D01*
X119384477Y-103004094D01*
X119383835Y-103004436D01*
X119383828Y-103004442D01*
X119383819Y-103004445D01*
X119383177Y-103004789D01*
X119254259Y-103058189D01*
X119252848Y-103058617D01*
X119115989Y-103085841D01*
X119114522Y-103085985D01*
X118974982Y-103085985D01*
X118973515Y-103085841D01*
X118836656Y-103058617D01*
X118835245Y-103058189D01*
X118706327Y-103004789D01*
X118705684Y-103004445D01*
X118705676Y-103004442D01*
X118705668Y-103004436D01*
X118705027Y-103004094D01*
X118589002Y-102926569D01*
X118587863Y-102925634D01*
X118489194Y-102826965D01*
X118488259Y-102825826D01*
X118410734Y-102709801D01*
X118410391Y-102709159D01*
X118410386Y-102709152D01*
X118410382Y-102709143D01*
X118410039Y-102708501D01*
X118356639Y-102579583D01*
X118356211Y-102578172D01*
X118328987Y-102441313D01*
X118328843Y-102439846D01*
X118328843Y-102300306D01*
X118328987Y-102298839D01*
X118356211Y-102161980D01*
X118356639Y-102160569D01*
X118410039Y-102031651D01*
X118410382Y-102031008D01*
X118410386Y-102031000D01*
X118410391Y-102030992D01*
X118410734Y-102030351D01*
X118488259Y-101914326D01*
X118489194Y-101913187D01*
X118587863Y-101814518D01*
X118589002Y-101813583D01*
X118705027Y-101736058D01*
X118705668Y-101735715D01*
X118705676Y-101735710D01*
X118705684Y-101735706D01*
X118706327Y-101735363D01*
X118835245Y-101681963D01*
X118835948Y-101681749D01*
X118835950Y-101681749D01*
X118835951Y-101681748D01*
X118836656Y-101681535D01*
X118973515Y-101654311D01*
X118974982Y-101654167D01*
X119114522Y-101654167D01*
X119115989Y-101654311D01*
G37*
G36*
X130115987Y-101654311D02*
G01*
X130252846Y-101681535D01*
X130253550Y-101681748D01*
X130253552Y-101681749D01*
X130253553Y-101681749D01*
X130254257Y-101681963D01*
X130383175Y-101735363D01*
X130383817Y-101735706D01*
X130383826Y-101735710D01*
X130383833Y-101735715D01*
X130384475Y-101736058D01*
X130500500Y-101813583D01*
X130501639Y-101814518D01*
X130600308Y-101913187D01*
X130601243Y-101914326D01*
X130678768Y-102030351D01*
X130679110Y-102030992D01*
X130679116Y-102031000D01*
X130679119Y-102031008D01*
X130679463Y-102031651D01*
X130732863Y-102160569D01*
X130733291Y-102161980D01*
X130760515Y-102298839D01*
X130760659Y-102300306D01*
X130760659Y-102439846D01*
X130760515Y-102441313D01*
X130733291Y-102578172D01*
X130732863Y-102579583D01*
X130679463Y-102708501D01*
X130679119Y-102709143D01*
X130679116Y-102709152D01*
X130679110Y-102709159D01*
X130678768Y-102709801D01*
X130601243Y-102825826D01*
X130600308Y-102826965D01*
X130501639Y-102925634D01*
X130500500Y-102926569D01*
X130384475Y-103004094D01*
X130383833Y-103004436D01*
X130383826Y-103004442D01*
X130383817Y-103004445D01*
X130383175Y-103004789D01*
X130254257Y-103058189D01*
X130252846Y-103058617D01*
X130115987Y-103085841D01*
X130114520Y-103085985D01*
X129974980Y-103085985D01*
X129973513Y-103085841D01*
X129836654Y-103058617D01*
X129835243Y-103058189D01*
X129706325Y-103004789D01*
X129705682Y-103004445D01*
X129705674Y-103004442D01*
X129705666Y-103004436D01*
X129705025Y-103004094D01*
X129589000Y-102926569D01*
X129587861Y-102925634D01*
X129489192Y-102826965D01*
X129488257Y-102825826D01*
X129410732Y-102709801D01*
X129410389Y-102709159D01*
X129410384Y-102709152D01*
X129410380Y-102709143D01*
X129410037Y-102708501D01*
X129356637Y-102579583D01*
X129356209Y-102578172D01*
X129328985Y-102441313D01*
X129328841Y-102439846D01*
X129328841Y-102300306D01*
X129328985Y-102298839D01*
X129356209Y-102161980D01*
X129356637Y-102160569D01*
X129410037Y-102031651D01*
X129410380Y-102031008D01*
X129410384Y-102031000D01*
X129410389Y-102030992D01*
X129410732Y-102030351D01*
X129488257Y-101914326D01*
X129489192Y-101913187D01*
X129587861Y-101814518D01*
X129589000Y-101813583D01*
X129705025Y-101736058D01*
X129705666Y-101735715D01*
X129705674Y-101735710D01*
X129705682Y-101735706D01*
X129706325Y-101735363D01*
X129835243Y-101681963D01*
X129835946Y-101681749D01*
X129835948Y-101681749D01*
X129835949Y-101681748D01*
X129836654Y-101681535D01*
X129973513Y-101654311D01*
X129974980Y-101654167D01*
X130114520Y-101654167D01*
X130115987Y-101654311D01*
G37*
M02*
