%TF.GenerationSoftware,KiCad,Pcbnew,10.0.4-10.0.4~ubuntu24.04.1*%
%TF.CreationDate,2026-07-24T11:01:07+07:00*%
%TF.ProjectId,driver-bldc-foc,64726976-6572-42d6-926c-64632d666f63,rev?*%
%TF.SameCoordinates,Original*%
%TF.FileFunction,Drillmap*%
%TF.FilePolarity,Positive*%
%FSLAX45Y45*%
G04 Gerber Fmt 4.5, Leading zero omitted, Abs format (unit mm)*
G04 Created by KiCad (PCBNEW 10.0.4-10.0.4~ubuntu24.04.1) date 2026-07-24 11:01:07*
%MOMM*%
%LPD*%
G01*
G04 APERTURE LIST*
%ADD10C,0.050000*%
%ADD11C,0.200000*%
%ADD12C,0.100000*%
%ADD13C,0.170180*%
G04 APERTURE END LIST*
D10*
X10000000Y-10900000D02*
X10000000Y-10900000D01*
G75*
G02*
X10900000Y-10000000I900000J0D01*
G01*
X17100000Y-10000000D01*
G75*
G02*
X18000000Y-10900000I0J-900000D01*
G01*
X18000000Y-15100000D01*
G75*
G02*
X17100000Y-16000000I-900000J0D01*
G01*
X10900000Y-16000000D01*
G75*
G02*
X10000000Y-15100000I0J900000D01*
G01*
X10000000Y-10900000D01*
X10760000Y-10600000D02*
G75*
G02*
X10440000Y-10600000I-160000J0D01*
G01*
X10440000Y-10600000D02*
G75*
G02*
X10760000Y-10600000I160000J0D01*
G01*
X10760000Y-15400000D02*
G75*
G02*
X10440000Y-15400000I-160000J0D01*
G01*
X10440000Y-15400000D02*
G75*
G02*
X10760000Y-15400000I160000J0D01*
G01*
X17560000Y-10600000D02*
G75*
G02*
X17240000Y-10600000I-160000J0D01*
G01*
X17240000Y-10600000D02*
G75*
G02*
X17560000Y-10600000I160000J0D01*
G01*
X17560000Y-15400000D02*
G75*
G02*
X17240000Y-15400000I-160000J0D01*
G01*
X17240000Y-15400000D02*
G75*
G02*
X17560000Y-15400000I160000J0D01*
G01*
D11*
D12*
X11008600Y-13853400D02*
X11038600Y-13883400D01*
X11038600Y-13853400D02*
X11008600Y-13883400D01*
X11021300Y-12570700D02*
X11051300Y-12600700D01*
X11051300Y-12570700D02*
X11021300Y-12600700D01*
X11345400Y-15606000D02*
X11375400Y-15636000D01*
X11375400Y-15606000D02*
X11345400Y-15636000D01*
X11750280Y-13995640D02*
X11780280Y-14025640D01*
X11780280Y-13995640D02*
X11750280Y-14025640D01*
X11770600Y-14082000D02*
X11800600Y-14112000D01*
X11800600Y-14082000D02*
X11770600Y-14112000D01*
X11815000Y-11565000D02*
X11845000Y-11595000D01*
X11845000Y-11565000D02*
X11815000Y-11595000D01*
X11815000Y-11625000D02*
X11845000Y-11655000D01*
X11845000Y-11625000D02*
X11815000Y-11655000D01*
X11815000Y-11685000D02*
X11845000Y-11715000D01*
X11845000Y-11685000D02*
X11815000Y-11715000D01*
X11815000Y-11745000D02*
X11845000Y-11775000D01*
X11845000Y-11745000D02*
X11815000Y-11775000D01*
X11815000Y-11805000D02*
X11845000Y-11835000D01*
X11845000Y-11805000D02*
X11815000Y-11835000D01*
X11815000Y-11865000D02*
X11845000Y-11895000D01*
X11845000Y-11865000D02*
X11815000Y-11895000D01*
X11815000Y-11925000D02*
X11845000Y-11955000D01*
X11845000Y-11925000D02*
X11815000Y-11955000D01*
X11815000Y-12905000D02*
X11845000Y-12935000D01*
X11845000Y-12905000D02*
X11815000Y-12935000D01*
X11815000Y-12965000D02*
X11845000Y-12995000D01*
X11845000Y-12965000D02*
X11815000Y-12995000D01*
X11815000Y-13025000D02*
X11845000Y-13055000D01*
X11845000Y-13025000D02*
X11815000Y-13055000D01*
X11815000Y-13085000D02*
X11845000Y-13115000D01*
X11845000Y-13085000D02*
X11815000Y-13115000D01*
X11815000Y-13145000D02*
X11845000Y-13175000D01*
X11845000Y-13145000D02*
X11815000Y-13175000D01*
X11815000Y-13205000D02*
X11845000Y-13235000D01*
X11845000Y-13205000D02*
X11815000Y-13235000D01*
X11815000Y-13265000D02*
X11845000Y-13295000D01*
X11845000Y-13265000D02*
X11815000Y-13295000D01*
X11821400Y-11460720D02*
X11851400Y-11490720D01*
X11851400Y-11460720D02*
X11821400Y-11490720D01*
X11825000Y-14305000D02*
X11855000Y-14335000D01*
X11855000Y-14305000D02*
X11825000Y-14335000D01*
X11825000Y-14365000D02*
X11855000Y-14395000D01*
X11855000Y-14365000D02*
X11825000Y-14395000D01*
X11825000Y-14425000D02*
X11855000Y-14455000D01*
X11855000Y-14425000D02*
X11825000Y-14455000D01*
X11825000Y-14485000D02*
X11855000Y-14515000D01*
X11855000Y-14485000D02*
X11825000Y-14515000D01*
X11825000Y-14545000D02*
X11855000Y-14575000D01*
X11855000Y-14545000D02*
X11825000Y-14575000D01*
X11825000Y-14605000D02*
X11855000Y-14635000D01*
X11855000Y-14605000D02*
X11825000Y-14635000D01*
X11825000Y-14665000D02*
X11855000Y-14695000D01*
X11855000Y-14665000D02*
X11825000Y-14695000D01*
X11826480Y-12634200D02*
X11856480Y-12664200D01*
X11856480Y-12634200D02*
X11826480Y-12664200D01*
X11851880Y-12786600D02*
X11881880Y-12816600D01*
X11881880Y-12786600D02*
X11851880Y-12816600D01*
X11872200Y-14127720D02*
X11902200Y-14157720D01*
X11902200Y-14127720D02*
X11872200Y-14157720D01*
X11875000Y-11565000D02*
X11905000Y-11595000D01*
X11905000Y-11565000D02*
X11875000Y-11595000D01*
X11875000Y-11625000D02*
X11905000Y-11655000D01*
X11905000Y-11625000D02*
X11875000Y-11655000D01*
X11875000Y-11685000D02*
X11905000Y-11715000D01*
X11905000Y-11685000D02*
X11875000Y-11715000D01*
X11875000Y-11745000D02*
X11905000Y-11775000D01*
X11905000Y-11745000D02*
X11875000Y-11775000D01*
X11875000Y-11805000D02*
X11905000Y-11835000D01*
X11905000Y-11805000D02*
X11875000Y-11835000D01*
X11875000Y-11865000D02*
X11905000Y-11895000D01*
X11905000Y-11865000D02*
X11875000Y-11895000D01*
X11875000Y-12905000D02*
X11905000Y-12935000D01*
X11905000Y-12905000D02*
X11875000Y-12935000D01*
X11875000Y-12965000D02*
X11905000Y-12995000D01*
X11905000Y-12965000D02*
X11875000Y-12995000D01*
X11875000Y-13025000D02*
X11905000Y-13055000D01*
X11905000Y-13025000D02*
X11875000Y-13055000D01*
X11875000Y-13085000D02*
X11905000Y-13115000D01*
X11905000Y-13085000D02*
X11875000Y-13115000D01*
X11875000Y-13145000D02*
X11905000Y-13175000D01*
X11905000Y-13145000D02*
X11875000Y-13175000D01*
X11875000Y-13205000D02*
X11905000Y-13235000D01*
X11905000Y-13205000D02*
X11875000Y-13235000D01*
X11885000Y-14305000D02*
X11915000Y-14335000D01*
X11915000Y-14305000D02*
X11885000Y-14335000D01*
X11885000Y-14365000D02*
X11915000Y-14395000D01*
X11915000Y-14365000D02*
X11885000Y-14395000D01*
X11885000Y-14425000D02*
X11915000Y-14455000D01*
X11915000Y-14425000D02*
X11885000Y-14455000D01*
X11885000Y-14485000D02*
X11915000Y-14515000D01*
X11915000Y-14485000D02*
X11885000Y-14515000D01*
X11885000Y-14545000D02*
X11915000Y-14575000D01*
X11915000Y-14545000D02*
X11885000Y-14575000D01*
X11885000Y-14605000D02*
X11915000Y-14635000D01*
X11915000Y-14605000D02*
X11885000Y-14635000D01*
X12025000Y-12563080D02*
X12055000Y-12593080D01*
X12055000Y-12563080D02*
X12025000Y-12593080D01*
X12025000Y-12663080D02*
X12055000Y-12693080D01*
X12055000Y-12663080D02*
X12025000Y-12693080D01*
X12065000Y-12613080D02*
X12095000Y-12643080D01*
X12095000Y-12613080D02*
X12065000Y-12643080D01*
X12105000Y-12563080D02*
X12135000Y-12593080D01*
X12135000Y-12563080D02*
X12105000Y-12593080D01*
X12105000Y-12663080D02*
X12135000Y-12693080D01*
X12135000Y-12663080D02*
X12105000Y-12693080D01*
X12145000Y-12613080D02*
X12175000Y-12643080D01*
X12175000Y-12613080D02*
X12145000Y-12643080D01*
X12185000Y-12563080D02*
X12215000Y-12593080D01*
X12215000Y-12563080D02*
X12185000Y-12593080D01*
X12185000Y-12663080D02*
X12215000Y-12693080D01*
X12215000Y-12663080D02*
X12185000Y-12693080D01*
X12225000Y-12613080D02*
X12255000Y-12643080D01*
X12255000Y-12613080D02*
X12225000Y-12643080D01*
X12227800Y-15412960D02*
X12257800Y-15442960D01*
X12257800Y-15412960D02*
X12227800Y-15442960D01*
X12257900Y-15606000D02*
X12287900Y-15636000D01*
X12287900Y-15606000D02*
X12257900Y-15636000D01*
X12265000Y-12563080D02*
X12295000Y-12593080D01*
X12295000Y-12563080D02*
X12265000Y-12593080D01*
X12265000Y-12663080D02*
X12295000Y-12693080D01*
X12295000Y-12663080D02*
X12265000Y-12693080D01*
X12305000Y-12613080D02*
X12335000Y-12643080D01*
X12335000Y-12613080D02*
X12305000Y-12643080D01*
X12345000Y-12563080D02*
X12375000Y-12593080D01*
X12375000Y-12563080D02*
X12345000Y-12593080D01*
X12345000Y-12663080D02*
X12375000Y-12693080D01*
X12375000Y-12663080D02*
X12345000Y-12693080D01*
X12546600Y-15535840D02*
X12576600Y-15565840D01*
X12576600Y-15535840D02*
X12546600Y-15565840D01*
X12546600Y-15595840D02*
X12576600Y-15625840D01*
X12576600Y-15595840D02*
X12546600Y-15625840D01*
X12546600Y-15655840D02*
X12576600Y-15685840D01*
X12576600Y-15655840D02*
X12546600Y-15685840D01*
X12546600Y-15715840D02*
X12576600Y-15745840D01*
X12576600Y-15715840D02*
X12546600Y-15745840D01*
X12546600Y-15775840D02*
X12576600Y-15805840D01*
X12576600Y-15775840D02*
X12546600Y-15805840D01*
X12555000Y-10795000D02*
X12585000Y-10825000D01*
X12585000Y-10795000D02*
X12555000Y-10825000D01*
X12555000Y-10855000D02*
X12585000Y-10885000D01*
X12585000Y-10855000D02*
X12555000Y-10885000D01*
X12555000Y-10915000D02*
X12585000Y-10945000D01*
X12585000Y-10915000D02*
X12555000Y-10945000D01*
X12555000Y-10975000D02*
X12585000Y-11005000D01*
X12585000Y-10975000D02*
X12555000Y-11005000D01*
X12555000Y-11035000D02*
X12585000Y-11065000D01*
X12585000Y-11035000D02*
X12555000Y-11065000D01*
X12606600Y-15535840D02*
X12636600Y-15565840D01*
X12636600Y-15535840D02*
X12606600Y-15565840D01*
X12606600Y-15595840D02*
X12636600Y-15625840D01*
X12636600Y-15595840D02*
X12606600Y-15625840D01*
X12606600Y-15655840D02*
X12636600Y-15685840D01*
X12636600Y-15655840D02*
X12606600Y-15685840D01*
X12606600Y-15715840D02*
X12636600Y-15745840D01*
X12636600Y-15715840D02*
X12606600Y-15745840D01*
X12606600Y-15775840D02*
X12636600Y-15805840D01*
X12636600Y-15775840D02*
X12606600Y-15805840D01*
X12615000Y-10795000D02*
X12645000Y-10825000D01*
X12645000Y-10795000D02*
X12615000Y-10825000D01*
X12615000Y-10855000D02*
X12645000Y-10885000D01*
X12645000Y-10855000D02*
X12615000Y-10885000D01*
X12615000Y-10915000D02*
X12645000Y-10945000D01*
X12645000Y-10915000D02*
X12615000Y-10945000D01*
X12615000Y-10975000D02*
X12645000Y-11005000D01*
X12645000Y-10975000D02*
X12615000Y-11005000D01*
X12615000Y-11035000D02*
X12645000Y-11065000D01*
X12645000Y-11035000D02*
X12615000Y-11065000D01*
X12666600Y-15535840D02*
X12696600Y-15565840D01*
X12696600Y-15535840D02*
X12666600Y-15565840D01*
X12666600Y-15595840D02*
X12696600Y-15625840D01*
X12696600Y-15595840D02*
X12666600Y-15625840D01*
X12666600Y-15655840D02*
X12696600Y-15685840D01*
X12696600Y-15655840D02*
X12666600Y-15685840D01*
X12666600Y-15715840D02*
X12696600Y-15745840D01*
X12696600Y-15715840D02*
X12666600Y-15745840D01*
X12666600Y-15775840D02*
X12696600Y-15805840D01*
X12696600Y-15775840D02*
X12666600Y-15805840D01*
X12675000Y-10795000D02*
X12705000Y-10825000D01*
X12705000Y-10795000D02*
X12675000Y-10825000D01*
X12675000Y-10855000D02*
X12705000Y-10885000D01*
X12705000Y-10855000D02*
X12675000Y-10885000D01*
X12675000Y-10915000D02*
X12705000Y-10945000D01*
X12705000Y-10915000D02*
X12675000Y-10945000D01*
X12675000Y-10975000D02*
X12705000Y-11005000D01*
X12705000Y-10975000D02*
X12675000Y-11005000D01*
X12675000Y-11035000D02*
X12705000Y-11065000D01*
X12705000Y-11035000D02*
X12675000Y-11065000D01*
X12726600Y-15535840D02*
X12756600Y-15565840D01*
X12756600Y-15535840D02*
X12726600Y-15565840D01*
X12726600Y-15595840D02*
X12756600Y-15625840D01*
X12756600Y-15595840D02*
X12726600Y-15625840D01*
X12726600Y-15655840D02*
X12756600Y-15685840D01*
X12756600Y-15655840D02*
X12726600Y-15685840D01*
X12726600Y-15715840D02*
X12756600Y-15745840D01*
X12756600Y-15715840D02*
X12726600Y-15745840D01*
X12726600Y-15775840D02*
X12756600Y-15805840D01*
X12756600Y-15775840D02*
X12726600Y-15805840D01*
X12735000Y-10795000D02*
X12765000Y-10825000D01*
X12765000Y-10795000D02*
X12735000Y-10825000D01*
X12735000Y-10855000D02*
X12765000Y-10885000D01*
X12765000Y-10855000D02*
X12735000Y-10885000D01*
X12735000Y-10915000D02*
X12765000Y-10945000D01*
X12765000Y-10915000D02*
X12735000Y-10945000D01*
X12735000Y-10975000D02*
X12765000Y-11005000D01*
X12765000Y-10975000D02*
X12735000Y-11005000D01*
X12735000Y-11035000D02*
X12765000Y-11065000D01*
X12765000Y-11035000D02*
X12735000Y-11065000D01*
X12786600Y-15535840D02*
X12816600Y-15565840D01*
X12816600Y-15535840D02*
X12786600Y-15565840D01*
X12786600Y-15595840D02*
X12816600Y-15625840D01*
X12816600Y-15595840D02*
X12786600Y-15625840D01*
X12786600Y-15655840D02*
X12816600Y-15685840D01*
X12816600Y-15655840D02*
X12786600Y-15685840D01*
X12786600Y-15715840D02*
X12816600Y-15745840D01*
X12816600Y-15715840D02*
X12786600Y-15745840D01*
X12786600Y-15775840D02*
X12816600Y-15805840D01*
X12816600Y-15775840D02*
X12786600Y-15805840D01*
X12795000Y-10795000D02*
X12825000Y-10825000D01*
X12825000Y-10795000D02*
X12795000Y-10825000D01*
X12795000Y-10855000D02*
X12825000Y-10885000D01*
X12825000Y-10855000D02*
X12795000Y-10885000D01*
X12795000Y-10915000D02*
X12825000Y-10945000D01*
X12825000Y-10915000D02*
X12795000Y-10945000D01*
X12795000Y-10975000D02*
X12825000Y-11005000D01*
X12825000Y-10975000D02*
X12795000Y-11005000D01*
X12795000Y-11035000D02*
X12825000Y-11065000D01*
X12825000Y-11035000D02*
X12795000Y-11065000D01*
X12846600Y-15535840D02*
X12876600Y-15565840D01*
X12876600Y-15535840D02*
X12846600Y-15565840D01*
X12846600Y-15595840D02*
X12876600Y-15625840D01*
X12876600Y-15595840D02*
X12846600Y-15625840D01*
X12846600Y-15655840D02*
X12876600Y-15685840D01*
X12876600Y-15655840D02*
X12846600Y-15685840D01*
X12846600Y-15715840D02*
X12876600Y-15745840D01*
X12876600Y-15715840D02*
X12846600Y-15745840D01*
X12846600Y-15775840D02*
X12876600Y-15805840D01*
X12876600Y-15775840D02*
X12846600Y-15805840D01*
X12855000Y-10795000D02*
X12885000Y-10825000D01*
X12885000Y-10795000D02*
X12855000Y-10825000D01*
X12855000Y-10855000D02*
X12885000Y-10885000D01*
X12885000Y-10855000D02*
X12855000Y-10885000D01*
X12855000Y-10915000D02*
X12885000Y-10945000D01*
X12885000Y-10915000D02*
X12855000Y-10945000D01*
X12855000Y-10975000D02*
X12885000Y-11005000D01*
X12885000Y-10975000D02*
X12855000Y-11005000D01*
X12855000Y-11035000D02*
X12885000Y-11065000D01*
X12885000Y-11035000D02*
X12855000Y-11065000D01*
X12906600Y-15535840D02*
X12936600Y-15565840D01*
X12936600Y-15535840D02*
X12906600Y-15565840D01*
X12906600Y-15595840D02*
X12936600Y-15625840D01*
X12936600Y-15595840D02*
X12906600Y-15625840D01*
X12906600Y-15655840D02*
X12936600Y-15685840D01*
X12936600Y-15655840D02*
X12906600Y-15685840D01*
X12906600Y-15715840D02*
X12936600Y-15745840D01*
X12936600Y-15715840D02*
X12906600Y-15745840D01*
X12906600Y-15775840D02*
X12936600Y-15805840D01*
X12936600Y-15775840D02*
X12906600Y-15805840D01*
X12915000Y-10795000D02*
X12945000Y-10825000D01*
X12945000Y-10795000D02*
X12915000Y-10825000D01*
X12915000Y-10855000D02*
X12945000Y-10885000D01*
X12945000Y-10855000D02*
X12915000Y-10885000D01*
X12915000Y-10915000D02*
X12945000Y-10945000D01*
X12945000Y-10915000D02*
X12915000Y-10945000D01*
X12915000Y-10975000D02*
X12945000Y-11005000D01*
X12945000Y-10975000D02*
X12915000Y-11005000D01*
X12915000Y-11035000D02*
X12945000Y-11065000D01*
X12945000Y-11035000D02*
X12915000Y-11065000D01*
X12966600Y-15535840D02*
X12996600Y-15565840D01*
X12996600Y-15535840D02*
X12966600Y-15565840D01*
X12966600Y-15595840D02*
X12996600Y-15625840D01*
X12996600Y-15595840D02*
X12966600Y-15625840D01*
X12966600Y-15655840D02*
X12996600Y-15685840D01*
X12996600Y-15655840D02*
X12966600Y-15685840D01*
X12966600Y-15715840D02*
X12996600Y-15745840D01*
X12996600Y-15715840D02*
X12966600Y-15745840D01*
X12966600Y-15775840D02*
X12996600Y-15805840D01*
X12996600Y-15775840D02*
X12966600Y-15805840D01*
X12975000Y-10795000D02*
X13005000Y-10825000D01*
X13005000Y-10795000D02*
X12975000Y-10825000D01*
X12975000Y-10855000D02*
X13005000Y-10885000D01*
X13005000Y-10855000D02*
X12975000Y-10885000D01*
X12975000Y-10915000D02*
X13005000Y-10945000D01*
X13005000Y-10915000D02*
X12975000Y-10945000D01*
X12975000Y-10975000D02*
X13005000Y-11005000D01*
X13005000Y-10975000D02*
X12975000Y-11005000D01*
X12975000Y-11035000D02*
X13005000Y-11065000D01*
X13005000Y-11035000D02*
X12975000Y-11065000D01*
X13027500Y-14187720D02*
X13057500Y-14217720D01*
X13057500Y-14187720D02*
X13027500Y-14217720D01*
X13265000Y-10875000D02*
X13295000Y-10905000D01*
X13295000Y-10875000D02*
X13265000Y-10905000D01*
X13265000Y-10940000D02*
X13295000Y-10970000D01*
X13295000Y-10940000D02*
X13265000Y-10970000D01*
X13294600Y-11770600D02*
X13324600Y-11800600D01*
X13324600Y-11770600D02*
X13294600Y-11800600D01*
X13395000Y-14965000D02*
X13425000Y-14995000D01*
X13425000Y-14965000D02*
X13395000Y-14995000D01*
X13395000Y-15025000D02*
X13425000Y-15055000D01*
X13425000Y-15025000D02*
X13395000Y-15055000D01*
X13395000Y-15085000D02*
X13425000Y-15115000D01*
X13425000Y-15085000D02*
X13395000Y-15115000D01*
X13395000Y-15145000D02*
X13425000Y-15175000D01*
X13425000Y-15145000D02*
X13395000Y-15175000D01*
X13395000Y-15205000D02*
X13425000Y-15235000D01*
X13425000Y-15205000D02*
X13395000Y-15235000D01*
X13395000Y-15265000D02*
X13425000Y-15295000D01*
X13425000Y-15265000D02*
X13395000Y-15295000D01*
X13405000Y-12115000D02*
X13435000Y-12145000D01*
X13435000Y-12115000D02*
X13405000Y-12145000D01*
X13405000Y-12175000D02*
X13435000Y-12205000D01*
X13435000Y-12175000D02*
X13405000Y-12205000D01*
X13405000Y-12235000D02*
X13435000Y-12265000D01*
X13435000Y-12235000D02*
X13405000Y-12265000D01*
X13405000Y-12295000D02*
X13435000Y-12325000D01*
X13435000Y-12295000D02*
X13405000Y-12325000D01*
X13405000Y-12355000D02*
X13435000Y-12385000D01*
X13435000Y-12355000D02*
X13405000Y-12385000D01*
X13405000Y-12415000D02*
X13435000Y-12445000D01*
X13435000Y-12415000D02*
X13405000Y-12445000D01*
X13405000Y-13525000D02*
X13435000Y-13555000D01*
X13435000Y-13525000D02*
X13405000Y-13555000D01*
X13405000Y-13585000D02*
X13435000Y-13615000D01*
X13435000Y-13585000D02*
X13405000Y-13615000D01*
X13405000Y-13645000D02*
X13435000Y-13675000D01*
X13435000Y-13645000D02*
X13405000Y-13675000D01*
X13405000Y-13705000D02*
X13435000Y-13735000D01*
X13435000Y-13705000D02*
X13405000Y-13735000D01*
X13405000Y-13765000D02*
X13435000Y-13795000D01*
X13435000Y-13765000D02*
X13405000Y-13795000D01*
X13405000Y-13825000D02*
X13435000Y-13855000D01*
X13435000Y-13825000D02*
X13405000Y-13855000D01*
X13433180Y-10772380D02*
X13463180Y-10802380D01*
X13463180Y-10772380D02*
X13433180Y-10802380D01*
X13455000Y-14965000D02*
X13485000Y-14995000D01*
X13485000Y-14965000D02*
X13455000Y-14995000D01*
X13455000Y-15025000D02*
X13485000Y-15055000D01*
X13485000Y-15025000D02*
X13455000Y-15055000D01*
X13455000Y-15085000D02*
X13485000Y-15115000D01*
X13485000Y-15085000D02*
X13455000Y-15115000D01*
X13455000Y-15145000D02*
X13485000Y-15175000D01*
X13485000Y-15145000D02*
X13455000Y-15175000D01*
X13455000Y-15205000D02*
X13485000Y-15235000D01*
X13485000Y-15205000D02*
X13455000Y-15235000D01*
X13455000Y-15265000D02*
X13485000Y-15295000D01*
X13485000Y-15265000D02*
X13455000Y-15295000D01*
X13459700Y-11349150D02*
X13489700Y-11379150D01*
X13489700Y-11349150D02*
X13459700Y-11379150D01*
X13465000Y-12115000D02*
X13495000Y-12145000D01*
X13495000Y-12115000D02*
X13465000Y-12145000D01*
X13465000Y-12175000D02*
X13495000Y-12205000D01*
X13495000Y-12175000D02*
X13465000Y-12205000D01*
X13465000Y-12235000D02*
X13495000Y-12265000D01*
X13495000Y-12235000D02*
X13465000Y-12265000D01*
X13465000Y-12295000D02*
X13495000Y-12325000D01*
X13495000Y-12295000D02*
X13465000Y-12325000D01*
X13465000Y-12355000D02*
X13495000Y-12385000D01*
X13495000Y-12355000D02*
X13465000Y-12385000D01*
X13465000Y-12415000D02*
X13495000Y-12445000D01*
X13495000Y-12415000D02*
X13465000Y-12445000D01*
X13465000Y-13525000D02*
X13495000Y-13555000D01*
X13495000Y-13525000D02*
X13465000Y-13555000D01*
X13465000Y-13585000D02*
X13495000Y-13615000D01*
X13495000Y-13585000D02*
X13465000Y-13615000D01*
X13465000Y-13645000D02*
X13495000Y-13675000D01*
X13495000Y-13645000D02*
X13465000Y-13675000D01*
X13465000Y-13705000D02*
X13495000Y-13735000D01*
X13495000Y-13705000D02*
X13465000Y-13735000D01*
X13465000Y-13765000D02*
X13495000Y-13795000D01*
X13495000Y-13765000D02*
X13465000Y-13795000D01*
X13465000Y-13825000D02*
X13495000Y-13855000D01*
X13495000Y-13825000D02*
X13465000Y-13855000D01*
X13561300Y-12926300D02*
X13591300Y-12956300D01*
X13591300Y-12926300D02*
X13561300Y-12956300D01*
X13590000Y-10875000D02*
X13620000Y-10905000D01*
X13620000Y-10875000D02*
X13590000Y-10905000D01*
X13590000Y-10940000D02*
X13620000Y-10970000D01*
X13620000Y-10940000D02*
X13590000Y-10970000D01*
X13612100Y-12062700D02*
X13642100Y-12092700D01*
X13642100Y-12062700D02*
X13612100Y-12092700D01*
X13675600Y-14336000D02*
X13705600Y-14366000D01*
X13705600Y-14336000D02*
X13675600Y-14366000D01*
X13735000Y-12558800D02*
X13765000Y-12588800D01*
X13765000Y-12558800D02*
X13735000Y-12588800D01*
X13735000Y-12658800D02*
X13765000Y-12688800D01*
X13765000Y-12658800D02*
X13735000Y-12688800D01*
X13765000Y-12608800D02*
X13795000Y-12638800D01*
X13795000Y-12608800D02*
X13765000Y-12638800D01*
X13795000Y-12558800D02*
X13825000Y-12588800D01*
X13825000Y-12558800D02*
X13795000Y-12588800D01*
X13795000Y-12658800D02*
X13825000Y-12688800D01*
X13825000Y-12658800D02*
X13795000Y-12688800D01*
X13802600Y-14284400D02*
X13832600Y-14314400D01*
X13832600Y-14284400D02*
X13802600Y-14314400D01*
X13825000Y-12608800D02*
X13855000Y-12638800D01*
X13855000Y-12608800D02*
X13825000Y-12638800D01*
X13828000Y-12974560D02*
X13858000Y-13004560D01*
X13858000Y-12974560D02*
X13828000Y-13004560D01*
X13828000Y-13517100D02*
X13858000Y-13547100D01*
X13858000Y-13517100D02*
X13828000Y-13547100D01*
X13828000Y-13707100D02*
X13858000Y-13737100D01*
X13858000Y-13707100D02*
X13828000Y-13737100D01*
X13828000Y-15218400D02*
X13858000Y-15248400D01*
X13858000Y-15218400D02*
X13828000Y-15248400D01*
X13834600Y-15034500D02*
X13864600Y-15064500D01*
X13864600Y-15034500D02*
X13834600Y-15064500D01*
X13855000Y-12558800D02*
X13885000Y-12588800D01*
X13885000Y-12558800D02*
X13855000Y-12588800D01*
X13855000Y-12658800D02*
X13885000Y-12688800D01*
X13885000Y-12658800D02*
X13855000Y-12688800D01*
X13885000Y-12608800D02*
X13915000Y-12638800D01*
X13915000Y-12608800D02*
X13885000Y-12638800D01*
X13915000Y-12558800D02*
X13945000Y-12588800D01*
X13945000Y-12558800D02*
X13915000Y-12588800D01*
X13915000Y-12658800D02*
X13945000Y-12688800D01*
X13945000Y-12658800D02*
X13915000Y-12688800D01*
X13928180Y-10645380D02*
X13958180Y-10675380D01*
X13958180Y-10645380D02*
X13928180Y-10675380D01*
X13942300Y-12900000D02*
X13972300Y-12930000D01*
X13972300Y-12900000D02*
X13942300Y-12930000D01*
X13955000Y-10195800D02*
X13985000Y-10225800D01*
X13985000Y-10195800D02*
X13955000Y-10225800D01*
X13955000Y-10255800D02*
X13985000Y-10285800D01*
X13985000Y-10255800D02*
X13955000Y-10285800D01*
X13955000Y-13078700D02*
X13985000Y-13108700D01*
X13985000Y-13078700D02*
X13955000Y-13108700D01*
X14015000Y-10195800D02*
X14045000Y-10225800D01*
X14045000Y-10195800D02*
X14015000Y-10225800D01*
X14015000Y-10255800D02*
X14045000Y-10285800D01*
X14045000Y-10255800D02*
X14015000Y-10285800D01*
X14090000Y-11030000D02*
X14120000Y-11060000D01*
X14120000Y-11030000D02*
X14090000Y-11060000D01*
X14107400Y-12558000D02*
X14137400Y-12588000D01*
X14137400Y-12558000D02*
X14107400Y-12588000D01*
X14120100Y-13142200D02*
X14150100Y-13172200D01*
X14150100Y-13142200D02*
X14120100Y-13172200D01*
X14132800Y-11338800D02*
X14162800Y-11368800D01*
X14162800Y-11338800D02*
X14132800Y-11368800D01*
X14132800Y-11402300D02*
X14162800Y-11432300D01*
X14162800Y-11402300D02*
X14132800Y-11432300D01*
X14132800Y-11465800D02*
X14162800Y-11495800D01*
X14162800Y-11465800D02*
X14132800Y-11495800D01*
X14132800Y-11529300D02*
X14162800Y-11559300D01*
X14162800Y-11529300D02*
X14132800Y-11559300D01*
X14132800Y-11783300D02*
X14162800Y-11813300D01*
X14162800Y-11783300D02*
X14132800Y-11813300D01*
X14132800Y-11846800D02*
X14162800Y-11876800D01*
X14162800Y-11846800D02*
X14132800Y-11876800D01*
X14132800Y-11910300D02*
X14162800Y-11940300D01*
X14162800Y-11910300D02*
X14132800Y-11940300D01*
X14132800Y-11973800D02*
X14162800Y-12003800D01*
X14162800Y-11973800D02*
X14132800Y-12003800D01*
X14133100Y-12849300D02*
X14163100Y-12879300D01*
X14163100Y-12849300D02*
X14133100Y-12879300D01*
X14145500Y-12240500D02*
X14175500Y-12270500D01*
X14175500Y-12240500D02*
X14145500Y-12270500D01*
X14145500Y-12304000D02*
X14175500Y-12334000D01*
X14175500Y-12304000D02*
X14145500Y-12334000D01*
X14145500Y-12367500D02*
X14175500Y-12397500D01*
X14175500Y-12367500D02*
X14145500Y-12397500D01*
X14145500Y-12431000D02*
X14175500Y-12461000D01*
X14175500Y-12431000D02*
X14145500Y-12461000D01*
X14145500Y-13269200D02*
X14175500Y-13299200D01*
X14175500Y-13269200D02*
X14145500Y-13299200D01*
X14155000Y-11030000D02*
X14185000Y-11060000D01*
X14185000Y-11030000D02*
X14155000Y-11060000D01*
X14208000Y-13670000D02*
X14238000Y-13700000D01*
X14238000Y-13670000D02*
X14208000Y-13700000D01*
X14212000Y-14318000D02*
X14242000Y-14348000D01*
X14242000Y-14318000D02*
X14212000Y-14348000D01*
X14212000Y-14378000D02*
X14242000Y-14408000D01*
X14242000Y-14378000D02*
X14212000Y-14408000D01*
X14212000Y-14438000D02*
X14242000Y-14468000D01*
X14242000Y-14438000D02*
X14212000Y-14468000D01*
X14212000Y-14498000D02*
X14242000Y-14528000D01*
X14242000Y-14498000D02*
X14212000Y-14528000D01*
X14212000Y-14558000D02*
X14242000Y-14588000D01*
X14242000Y-14558000D02*
X14212000Y-14588000D01*
X14212000Y-14618000D02*
X14242000Y-14648000D01*
X14242000Y-14618000D02*
X14212000Y-14648000D01*
X14212000Y-14678000D02*
X14242000Y-14708000D01*
X14242000Y-14678000D02*
X14212000Y-14708000D01*
X14212000Y-14738000D02*
X14242000Y-14768000D01*
X14242000Y-14738000D02*
X14212000Y-14768000D01*
X14220000Y-11030000D02*
X14250000Y-11060000D01*
X14250000Y-11030000D02*
X14220000Y-11060000D01*
X14223300Y-13566000D02*
X14253300Y-13596000D01*
X14253300Y-13566000D02*
X14223300Y-13596000D01*
X14259800Y-11770600D02*
X14289800Y-11800600D01*
X14289800Y-11770600D02*
X14259800Y-11800600D01*
X14259800Y-15390100D02*
X14289800Y-15420100D01*
X14289800Y-15390100D02*
X14259800Y-15420100D01*
X14274000Y-14740000D02*
X14304000Y-14770000D01*
X14304000Y-14740000D02*
X14274000Y-14770000D01*
X14306380Y-15595000D02*
X14336380Y-15625000D01*
X14336380Y-15595000D02*
X14306380Y-15625000D01*
X14323300Y-12485300D02*
X14353300Y-12515300D01*
X14353300Y-12485300D02*
X14323300Y-12515300D01*
X14336000Y-14739000D02*
X14366000Y-14769000D01*
X14366000Y-14739000D02*
X14336000Y-14769000D01*
X14339800Y-13378500D02*
X14369800Y-13408500D01*
X14369800Y-13378500D02*
X14339800Y-13408500D01*
X14355000Y-13628700D02*
X14385000Y-13658700D01*
X14385000Y-13628700D02*
X14355000Y-13658700D01*
X14358080Y-15098000D02*
X14388080Y-15128000D01*
X14388080Y-15098000D02*
X14358080Y-15128000D01*
X14366380Y-15595000D02*
X14396380Y-15625000D01*
X14396380Y-15595000D02*
X14366380Y-15625000D01*
X14396000Y-14739000D02*
X14426000Y-14769000D01*
X14426000Y-14739000D02*
X14396000Y-14769000D01*
X14420000Y-13566000D02*
X14450000Y-13596000D01*
X14450000Y-13566000D02*
X14420000Y-13596000D01*
X14431380Y-15595000D02*
X14461380Y-15625000D01*
X14461380Y-15595000D02*
X14431380Y-15625000D01*
X14456000Y-14739000D02*
X14486000Y-14769000D01*
X14486000Y-14739000D02*
X14456000Y-14769000D01*
X14516000Y-14739000D02*
X14546000Y-14769000D01*
X14546000Y-14739000D02*
X14516000Y-14769000D01*
X14560000Y-11410000D02*
X14590000Y-11440000D01*
X14590000Y-11410000D02*
X14560000Y-11440000D01*
X14576000Y-14739000D02*
X14606000Y-14769000D01*
X14606000Y-14739000D02*
X14576000Y-14769000D01*
X14580000Y-10940000D02*
X14610000Y-10970000D01*
X14610000Y-10940000D02*
X14580000Y-10970000D01*
X14580000Y-11000000D02*
X14610000Y-11030000D01*
X14610000Y-11000000D02*
X14580000Y-11030000D01*
X14580000Y-11060000D02*
X14610000Y-11090000D01*
X14610000Y-11060000D02*
X14580000Y-11090000D01*
X14580000Y-11120000D02*
X14610000Y-11150000D01*
X14610000Y-11120000D02*
X14580000Y-11150000D01*
X14590000Y-11897600D02*
X14620000Y-11927600D01*
X14620000Y-11897600D02*
X14590000Y-11927600D01*
X14595000Y-12935000D02*
X14625000Y-12965000D01*
X14625000Y-12935000D02*
X14595000Y-12965000D01*
X14595000Y-12995000D02*
X14625000Y-13025000D01*
X14625000Y-12995000D02*
X14595000Y-13025000D01*
X14595000Y-13055000D02*
X14625000Y-13085000D01*
X14625000Y-13055000D02*
X14595000Y-13085000D01*
X14595000Y-13115000D02*
X14625000Y-13145000D01*
X14625000Y-13115000D02*
X14595000Y-13145000D01*
X14595911Y-13591760D02*
X14625911Y-13621760D01*
X14625911Y-13591760D02*
X14595911Y-13621760D01*
X14600000Y-12502120D02*
X14630000Y-12532120D01*
X14630000Y-12502120D02*
X14600000Y-12532120D01*
X14607000Y-15098000D02*
X14637000Y-15128000D01*
X14637000Y-15098000D02*
X14607000Y-15128000D01*
X14636000Y-14739000D02*
X14666000Y-14769000D01*
X14666000Y-14739000D02*
X14636000Y-14769000D01*
X14640000Y-10940000D02*
X14670000Y-10970000D01*
X14670000Y-10940000D02*
X14640000Y-10970000D01*
X14640000Y-11000000D02*
X14670000Y-11030000D01*
X14670000Y-11000000D02*
X14640000Y-11030000D01*
X14640000Y-11060000D02*
X14670000Y-11090000D01*
X14670000Y-11060000D02*
X14640000Y-11090000D01*
X14640000Y-11120000D02*
X14670000Y-11150000D01*
X14670000Y-11120000D02*
X14640000Y-11150000D01*
X14655000Y-12935000D02*
X14685000Y-12965000D01*
X14685000Y-12935000D02*
X14655000Y-12965000D01*
X14655000Y-12995000D02*
X14685000Y-13025000D01*
X14685000Y-12995000D02*
X14655000Y-13025000D01*
X14655000Y-13055000D02*
X14685000Y-13085000D01*
X14685000Y-13055000D02*
X14655000Y-13085000D01*
X14655000Y-13115000D02*
X14685000Y-13145000D01*
X14685000Y-13115000D02*
X14655000Y-13145000D01*
X14670133Y-13553700D02*
X14700133Y-13583700D01*
X14700133Y-13553700D02*
X14670133Y-13583700D01*
X14696000Y-14739000D02*
X14726000Y-14769000D01*
X14726000Y-14739000D02*
X14696000Y-14769000D01*
X14700000Y-10940000D02*
X14730000Y-10970000D01*
X14730000Y-10940000D02*
X14700000Y-10970000D01*
X14700000Y-11000000D02*
X14730000Y-11030000D01*
X14730000Y-11000000D02*
X14700000Y-11030000D01*
X14700000Y-11060000D02*
X14730000Y-11090000D01*
X14730000Y-11060000D02*
X14700000Y-11090000D01*
X14700000Y-11120000D02*
X14730000Y-11150000D01*
X14730000Y-11120000D02*
X14700000Y-11150000D01*
X14715000Y-12935000D02*
X14745000Y-12965000D01*
X14745000Y-12935000D02*
X14715000Y-12965000D01*
X14715000Y-12995000D02*
X14745000Y-13025000D01*
X14745000Y-12995000D02*
X14715000Y-13025000D01*
X14715000Y-13055000D02*
X14745000Y-13085000D01*
X14745000Y-13055000D02*
X14715000Y-13085000D01*
X14715000Y-13115000D02*
X14745000Y-13145000D01*
X14745000Y-13115000D02*
X14715000Y-13145000D01*
X14740500Y-13591760D02*
X14770500Y-13621760D01*
X14770500Y-13591760D02*
X14740500Y-13621760D01*
X14756000Y-14739000D02*
X14786000Y-14769000D01*
X14786000Y-14739000D02*
X14756000Y-14769000D01*
X14775000Y-12935000D02*
X14805000Y-12965000D01*
X14805000Y-12935000D02*
X14775000Y-12965000D01*
X14775000Y-12995000D02*
X14805000Y-13025000D01*
X14805000Y-12995000D02*
X14775000Y-13025000D01*
X14775000Y-13055000D02*
X14805000Y-13085000D01*
X14805000Y-13055000D02*
X14775000Y-13085000D01*
X14775000Y-13115000D02*
X14805000Y-13145000D01*
X14805000Y-13115000D02*
X14775000Y-13145000D01*
X14780000Y-11897600D02*
X14810000Y-11927600D01*
X14810000Y-11897600D02*
X14780000Y-11927600D01*
X14816000Y-14739000D02*
X14846000Y-14769000D01*
X14846000Y-14739000D02*
X14816000Y-14769000D01*
X14837520Y-15100000D02*
X14867520Y-15130000D01*
X14867520Y-15100000D02*
X14837520Y-15130000D01*
X14843031Y-12481800D02*
X14873031Y-12511800D01*
X14873031Y-12481800D02*
X14843031Y-12511800D01*
X14844000Y-11440400D02*
X14874000Y-11470400D01*
X14874000Y-11440400D02*
X14844000Y-11470400D01*
X14863050Y-12399250D02*
X14893050Y-12429250D01*
X14893050Y-12399250D02*
X14863050Y-12429250D01*
X14867700Y-13583212D02*
X14897700Y-13613212D01*
X14897700Y-13583212D02*
X14867700Y-13613212D01*
X14872700Y-12558000D02*
X14902700Y-12588000D01*
X14902700Y-12558000D02*
X14872700Y-12588000D01*
X14876000Y-14739000D02*
X14906000Y-14769000D01*
X14906000Y-14739000D02*
X14876000Y-14769000D01*
X14910800Y-12288000D02*
X14940800Y-12318000D01*
X14940800Y-12288000D02*
X14910800Y-12318000D01*
X14930020Y-15690000D02*
X14960020Y-15720000D01*
X14960020Y-15690000D02*
X14930020Y-15720000D01*
X14931380Y-15500000D02*
X14961380Y-15530000D01*
X14961380Y-15500000D02*
X14931380Y-15530000D01*
X14936000Y-14739000D02*
X14966000Y-14769000D01*
X14966000Y-14739000D02*
X14936000Y-14769000D01*
X14960000Y-12405600D02*
X14990000Y-12435600D01*
X14990000Y-12405600D02*
X14960000Y-12435600D01*
X14985020Y-15690000D02*
X15015020Y-15720000D01*
X15015020Y-15690000D02*
X14985020Y-15720000D01*
X14991380Y-15500000D02*
X15021380Y-15530000D01*
X15021380Y-15500000D02*
X14991380Y-15530000D01*
X15007836Y-13473300D02*
X15037836Y-13503300D01*
X15037836Y-13473300D02*
X15007836Y-13503300D01*
X15009100Y-11897600D02*
X15039100Y-11927600D01*
X15039100Y-11897600D02*
X15009100Y-11927600D01*
X15040020Y-15690000D02*
X15070020Y-15720000D01*
X15070020Y-15690000D02*
X15040020Y-15720000D01*
X15046380Y-15500000D02*
X15076380Y-15530000D01*
X15076380Y-15500000D02*
X15046380Y-15530000D01*
X15077766Y-13613263D02*
X15107766Y-13643263D01*
X15107766Y-13613263D02*
X15077766Y-13643263D01*
X15096300Y-13535439D02*
X15126300Y-13565439D01*
X15126300Y-13535439D02*
X15096300Y-13565439D01*
X15097000Y-11247000D02*
X15127000Y-11277000D01*
X15127000Y-11247000D02*
X15097000Y-11277000D01*
X15098000Y-11304000D02*
X15128000Y-11334000D01*
X15128000Y-11304000D02*
X15098000Y-11334000D01*
X15098000Y-11481000D02*
X15128000Y-11511000D01*
X15128000Y-11481000D02*
X15098000Y-11511000D01*
X15099000Y-11361000D02*
X15129000Y-11391000D01*
X15129000Y-11361000D02*
X15099000Y-11391000D01*
X15099000Y-11420000D02*
X15129000Y-11450000D01*
X15129000Y-11420000D02*
X15099000Y-11450000D01*
X15153647Y-12722300D02*
X15183647Y-12752300D01*
X15183647Y-12722300D02*
X15153647Y-12752300D01*
X15159000Y-11244000D02*
X15189000Y-11274000D01*
X15189000Y-11244000D02*
X15159000Y-11274000D01*
X15159000Y-13610000D02*
X15189000Y-13640000D01*
X15189000Y-13610000D02*
X15159000Y-13640000D01*
X15160000Y-11301000D02*
X15190000Y-11331000D01*
X15190000Y-11301000D02*
X15160000Y-11331000D01*
X15160000Y-11478000D02*
X15190000Y-11508000D01*
X15190000Y-11478000D02*
X15160000Y-11508000D01*
X15161000Y-11358000D02*
X15191000Y-11388000D01*
X15191000Y-11358000D02*
X15161000Y-11388000D01*
X15161000Y-11417000D02*
X15191000Y-11447000D01*
X15191000Y-11417000D02*
X15161000Y-11447000D01*
X15161500Y-13129500D02*
X15191500Y-13159500D01*
X15191500Y-13129500D02*
X15161500Y-13159500D01*
X15193000Y-11897600D02*
X15223000Y-11927600D01*
X15223000Y-11897600D02*
X15193000Y-11927600D01*
X15212000Y-13211000D02*
X15242000Y-13241000D01*
X15242000Y-13211000D02*
X15212000Y-13241000D01*
X15214000Y-13319000D02*
X15244000Y-13349000D01*
X15244000Y-13319000D02*
X15214000Y-13349000D01*
X15223000Y-11245000D02*
X15253000Y-11275000D01*
X15253000Y-11245000D02*
X15223000Y-11275000D01*
X15224000Y-11302000D02*
X15254000Y-11332000D01*
X15254000Y-11302000D02*
X15224000Y-11332000D01*
X15224000Y-11479000D02*
X15254000Y-11509000D01*
X15254000Y-11479000D02*
X15224000Y-11509000D01*
X15225000Y-11359000D02*
X15255000Y-11389000D01*
X15255000Y-11359000D02*
X15225000Y-11389000D01*
X15225000Y-11418000D02*
X15255000Y-11448000D01*
X15255000Y-11418000D02*
X15225000Y-11448000D01*
X15260000Y-14586960D02*
X15290000Y-14616960D01*
X15290000Y-14586960D02*
X15260000Y-14616960D01*
X15273800Y-10958100D02*
X15303800Y-10988100D01*
X15303800Y-10958100D02*
X15273800Y-10988100D01*
X15274800Y-11015100D02*
X15304800Y-11045100D01*
X15304800Y-11015100D02*
X15274800Y-11045100D01*
X15275800Y-11072100D02*
X15305800Y-11102100D01*
X15305800Y-11072100D02*
X15275800Y-11102100D01*
X15275800Y-15063400D02*
X15305800Y-15093400D01*
X15305800Y-15063400D02*
X15275800Y-15093400D01*
X15275800Y-15123400D02*
X15305800Y-15153400D01*
X15305800Y-15123400D02*
X15275800Y-15153400D01*
X15287000Y-11245000D02*
X15317000Y-11275000D01*
X15317000Y-11245000D02*
X15287000Y-11275000D01*
X15288000Y-11302000D02*
X15318000Y-11332000D01*
X15318000Y-11302000D02*
X15288000Y-11332000D01*
X15288000Y-11479000D02*
X15318000Y-11509000D01*
X15318000Y-11479000D02*
X15288000Y-11509000D01*
X15288500Y-10665700D02*
X15318500Y-10695700D01*
X15318500Y-10665700D02*
X15288500Y-10695700D01*
X15289000Y-11359000D02*
X15319000Y-11389000D01*
X15319000Y-11359000D02*
X15289000Y-11389000D01*
X15289000Y-11418000D02*
X15319000Y-11448000D01*
X15319000Y-11418000D02*
X15289000Y-11448000D01*
X15293179Y-12816679D02*
X15323179Y-12846679D01*
X15323179Y-12816679D02*
X15293179Y-12846679D01*
X15293179Y-12901532D02*
X15323179Y-12931532D01*
X15323179Y-12901532D02*
X15293179Y-12931532D01*
X15301200Y-12532600D02*
X15331200Y-12562600D01*
X15331200Y-12532600D02*
X15301200Y-12562600D01*
X15307000Y-13079000D02*
X15337000Y-13109000D01*
X15337000Y-13079000D02*
X15307000Y-13109000D01*
X15335800Y-15063400D02*
X15365800Y-15093400D01*
X15365800Y-15063400D02*
X15335800Y-15093400D01*
X15335800Y-15123400D02*
X15365800Y-15153400D01*
X15365800Y-15123400D02*
X15335800Y-15153400D01*
X15337800Y-10959100D02*
X15367800Y-10989100D01*
X15367800Y-10959100D02*
X15337800Y-10989100D01*
X15338800Y-11016100D02*
X15368800Y-11046100D01*
X15368800Y-11016100D02*
X15338800Y-11046100D01*
X15339800Y-11073100D02*
X15369800Y-11103100D01*
X15369800Y-11073100D02*
X15339800Y-11103100D01*
X15349000Y-11242000D02*
X15379000Y-11272000D01*
X15379000Y-11242000D02*
X15349000Y-11272000D01*
X15350000Y-11299000D02*
X15380000Y-11329000D01*
X15380000Y-11299000D02*
X15350000Y-11329000D01*
X15350000Y-11476000D02*
X15380000Y-11506000D01*
X15380000Y-11476000D02*
X15350000Y-11506000D01*
X15351000Y-11356000D02*
X15381000Y-11386000D01*
X15381000Y-11356000D02*
X15351000Y-11386000D01*
X15351000Y-11415000D02*
X15381000Y-11445000D01*
X15381000Y-11415000D02*
X15351000Y-11445000D01*
X15385000Y-14586960D02*
X15415000Y-14616960D01*
X15415000Y-14586960D02*
X15385000Y-14616960D01*
X15402800Y-13472400D02*
X15432800Y-13502400D01*
X15432800Y-13472400D02*
X15402800Y-13502400D01*
X15413000Y-11243000D02*
X15443000Y-11273000D01*
X15443000Y-11243000D02*
X15413000Y-11273000D01*
X15413150Y-11897600D02*
X15443150Y-11927600D01*
X15443150Y-11897600D02*
X15413150Y-11927600D01*
X15414000Y-11300000D02*
X15444000Y-11330000D01*
X15444000Y-11300000D02*
X15414000Y-11330000D01*
X15414000Y-11477000D02*
X15444000Y-11507000D01*
X15444000Y-11477000D02*
X15414000Y-11507000D01*
X15415000Y-11357000D02*
X15445000Y-11387000D01*
X15445000Y-11357000D02*
X15415000Y-11387000D01*
X15415000Y-11416000D02*
X15445000Y-11446000D01*
X15445000Y-11416000D02*
X15415000Y-11446000D01*
X15428200Y-13015200D02*
X15458200Y-13045200D01*
X15458200Y-13015200D02*
X15428200Y-13045200D01*
X15504400Y-13157000D02*
X15534400Y-13187000D01*
X15534400Y-13157000D02*
X15504400Y-13187000D01*
X15567900Y-13459700D02*
X15597900Y-13489700D01*
X15597900Y-13459700D02*
X15567900Y-13489700D01*
X15595650Y-11897600D02*
X15625650Y-11927600D01*
X15625650Y-11897600D02*
X15595650Y-11927600D01*
X15615200Y-12392900D02*
X15645200Y-12422900D01*
X15645200Y-12392900D02*
X15615200Y-12422900D01*
X15648800Y-12558000D02*
X15678800Y-12588000D01*
X15678800Y-12558000D02*
X15648800Y-12588000D01*
X15650200Y-12761200D02*
X15680200Y-12791200D01*
X15680200Y-12761200D02*
X15650200Y-12791200D01*
X15656800Y-14450300D02*
X15686800Y-14480300D01*
X15686800Y-14450300D02*
X15656800Y-14480300D01*
X15662900Y-12977100D02*
X15692900Y-13007100D01*
X15692900Y-12977100D02*
X15662900Y-13007100D01*
X15720300Y-13180300D02*
X15750300Y-13210300D01*
X15750300Y-13180300D02*
X15720300Y-13210300D01*
X15723000Y-13325000D02*
X15753000Y-13355000D01*
X15753000Y-13325000D02*
X15723000Y-13355000D01*
X15758400Y-14539200D02*
X15788400Y-14569200D01*
X15788400Y-14539200D02*
X15758400Y-14569200D01*
X15771100Y-12413300D02*
X15801100Y-12443300D01*
X15801100Y-12413300D02*
X15771100Y-12443300D01*
X15789900Y-10907000D02*
X15819900Y-10937000D01*
X15819900Y-10907000D02*
X15789900Y-10937000D01*
X15794000Y-11398000D02*
X15824000Y-11428000D01*
X15824000Y-11398000D02*
X15794000Y-11428000D01*
X15796500Y-13783300D02*
X15826500Y-13813300D01*
X15826500Y-13783300D02*
X15796500Y-13813300D01*
X15798000Y-11662000D02*
X15828000Y-11692000D01*
X15828000Y-11662000D02*
X15798000Y-11692000D01*
X15857000Y-12097000D02*
X15887000Y-12127000D01*
X15887000Y-12097000D02*
X15857000Y-12127000D01*
X15974300Y-13764500D02*
X16004300Y-13794500D01*
X16004300Y-13764500D02*
X15974300Y-13794500D01*
X15980000Y-14539200D02*
X16010000Y-14569200D01*
X16010000Y-14539200D02*
X15980000Y-14569200D01*
X15980000Y-14602700D02*
X16010000Y-14632700D01*
X16010000Y-14602700D02*
X15980000Y-14632700D01*
X15981270Y-14983700D02*
X16011270Y-15013700D01*
X16011270Y-14983700D02*
X15981270Y-15013700D01*
X15993000Y-12592000D02*
X16023000Y-12622000D01*
X16023000Y-12592000D02*
X15993000Y-12622000D01*
X16000000Y-13374000D02*
X16030000Y-13404000D01*
X16030000Y-13374000D02*
X16000000Y-13404000D01*
X16007464Y-12924000D02*
X16037464Y-12954000D01*
X16037464Y-12924000D02*
X16007464Y-12954000D01*
X16012000Y-12839000D02*
X16042000Y-12869000D01*
X16042000Y-12839000D02*
X16012000Y-12869000D01*
X16028000Y-12542000D02*
X16058000Y-12572000D01*
X16058000Y-12542000D02*
X16028000Y-12572000D01*
X16032000Y-11485500D02*
X16062000Y-11515500D01*
X16062000Y-11485500D02*
X16032000Y-11515500D01*
X16034000Y-11611500D02*
X16064000Y-11641500D01*
X16064000Y-11611500D02*
X16034000Y-11641500D01*
X16035000Y-11547500D02*
X16065000Y-11577500D01*
X16065000Y-11547500D02*
X16035000Y-11577500D01*
X16037000Y-12029500D02*
X16067000Y-12059500D01*
X16067000Y-12029500D02*
X16037000Y-12059500D01*
X16040000Y-12091500D02*
X16070000Y-12121500D01*
X16070000Y-12091500D02*
X16040000Y-12121500D01*
X16081000Y-12662000D02*
X16111000Y-12692000D01*
X16111000Y-12662000D02*
X16081000Y-12692000D01*
X16088600Y-11300700D02*
X16118600Y-11330700D01*
X16118600Y-11300700D02*
X16088600Y-11330700D01*
X16093000Y-11485500D02*
X16123000Y-11515500D01*
X16123000Y-11485500D02*
X16093000Y-11515500D01*
X16095000Y-11611500D02*
X16125000Y-11641500D01*
X16125000Y-11611500D02*
X16095000Y-11641500D01*
X16096000Y-11547500D02*
X16126000Y-11577500D01*
X16126000Y-11547500D02*
X16096000Y-11577500D01*
X16097000Y-14172500D02*
X16127000Y-14202500D01*
X16127000Y-14172500D02*
X16097000Y-14202500D01*
X16098000Y-12029500D02*
X16128000Y-12059500D01*
X16128000Y-12029500D02*
X16098000Y-12059500D01*
X16101000Y-12091500D02*
X16131000Y-12121500D01*
X16131000Y-12091500D02*
X16101000Y-12121500D01*
X16111000Y-12280000D02*
X16141000Y-12310000D01*
X16141000Y-12280000D02*
X16111000Y-12310000D01*
X16126700Y-14501100D02*
X16156700Y-14531100D01*
X16156700Y-14501100D02*
X16126700Y-14531100D01*
X16154000Y-11486500D02*
X16184000Y-11516500D01*
X16184000Y-11486500D02*
X16154000Y-11516500D01*
X16156000Y-11612500D02*
X16186000Y-11642500D01*
X16186000Y-11612500D02*
X16156000Y-11642500D01*
X16157000Y-11548500D02*
X16187000Y-11578500D01*
X16187000Y-11548500D02*
X16157000Y-11578500D01*
X16158464Y-13123136D02*
X16188464Y-13153136D01*
X16188464Y-13123136D02*
X16158464Y-13153136D01*
X16159000Y-12030500D02*
X16189000Y-12060500D01*
X16189000Y-12030500D02*
X16159000Y-12060500D01*
X16162000Y-12092500D02*
X16192000Y-12122500D01*
X16192000Y-12092500D02*
X16162000Y-12122500D01*
X16175000Y-10765000D02*
X16205000Y-10795000D01*
X16205000Y-10765000D02*
X16175000Y-10795000D01*
X16192000Y-14085300D02*
X16222000Y-14115300D01*
X16222000Y-14085300D02*
X16192000Y-14115300D01*
X16213000Y-11486500D02*
X16243000Y-11516500D01*
X16243000Y-11486500D02*
X16213000Y-11516500D01*
X16215000Y-11612500D02*
X16245000Y-11642500D01*
X16245000Y-11612500D02*
X16215000Y-11642500D01*
X16215600Y-12227800D02*
X16245600Y-12257800D01*
X16245600Y-12227800D02*
X16215600Y-12257800D01*
X16216000Y-11548500D02*
X16246000Y-11578500D01*
X16246000Y-11548500D02*
X16216000Y-11578500D01*
X16218000Y-12030500D02*
X16248000Y-12060500D01*
X16248000Y-12030500D02*
X16218000Y-12060500D01*
X16221000Y-12092500D02*
X16251000Y-12122500D01*
X16251000Y-12092500D02*
X16221000Y-12122500D01*
X16241000Y-13332700D02*
X16271000Y-13362700D01*
X16271000Y-13332700D02*
X16241000Y-13362700D01*
X16241000Y-14463000D02*
X16271000Y-14493000D01*
X16271000Y-14463000D02*
X16241000Y-14493000D01*
X16253700Y-12646900D02*
X16283700Y-12676900D01*
X16283700Y-12646900D02*
X16253700Y-12676900D01*
X16253700Y-13066000D02*
X16283700Y-13096000D01*
X16283700Y-13066000D02*
X16253700Y-13096000D01*
X16260000Y-14318800D02*
X16290000Y-14348800D01*
X16290000Y-14318800D02*
X16260000Y-14348800D01*
X16268750Y-11313400D02*
X16298750Y-11343400D01*
X16298750Y-11313400D02*
X16268750Y-11343400D01*
X16270000Y-11485500D02*
X16300000Y-11515500D01*
X16300000Y-11485500D02*
X16270000Y-11515500D01*
X16271250Y-11097500D02*
X16301250Y-11127500D01*
X16301250Y-11097500D02*
X16271250Y-11127500D01*
X16272000Y-11611500D02*
X16302000Y-11641500D01*
X16302000Y-11611500D02*
X16272000Y-11641500D01*
X16273000Y-11547500D02*
X16303000Y-11577500D01*
X16303000Y-11547500D02*
X16273000Y-11577500D01*
X16275000Y-12029500D02*
X16305000Y-12059500D01*
X16305000Y-12029500D02*
X16275000Y-12059500D01*
X16278000Y-12091500D02*
X16308000Y-12121500D01*
X16308000Y-12091500D02*
X16278000Y-12121500D01*
X16310000Y-12323565D02*
X16340000Y-12353565D01*
X16340000Y-12323565D02*
X16310000Y-12353565D01*
X16317700Y-10628100D02*
X16347700Y-10658100D01*
X16347700Y-10628100D02*
X16317700Y-10658100D01*
X16327000Y-11484500D02*
X16357000Y-11514500D01*
X16357000Y-11484500D02*
X16327000Y-11514500D01*
X16329000Y-11610500D02*
X16359000Y-11640500D01*
X16359000Y-11610500D02*
X16329000Y-11640500D01*
X16330000Y-11546500D02*
X16360000Y-11576500D01*
X16360000Y-11546500D02*
X16330000Y-11576500D01*
X16332000Y-12028500D02*
X16362000Y-12058500D01*
X16362000Y-12028500D02*
X16332000Y-12058500D01*
X16335000Y-12090500D02*
X16365000Y-12120500D01*
X16365000Y-12090500D02*
X16335000Y-12120500D01*
X16360000Y-12634000D02*
X16390000Y-12664000D01*
X16390000Y-12634000D02*
X16360000Y-12664000D01*
X16379900Y-13421600D02*
X16409900Y-13451600D01*
X16409900Y-13421600D02*
X16379900Y-13451600D01*
X16397700Y-10628100D02*
X16427700Y-10658100D01*
X16427700Y-10628100D02*
X16397700Y-10658100D01*
X16409000Y-13193000D02*
X16439000Y-13223000D01*
X16439000Y-13193000D02*
X16409000Y-13223000D01*
X16410000Y-13852000D02*
X16440000Y-13882000D01*
X16440000Y-13852000D02*
X16410000Y-13882000D01*
X16460000Y-14256100D02*
X16490000Y-14286100D01*
X16490000Y-14256100D02*
X16460000Y-14286100D01*
X16494200Y-12659600D02*
X16524200Y-12689600D01*
X16524200Y-12659600D02*
X16494200Y-12689600D01*
X16494200Y-12833000D02*
X16524200Y-12863000D01*
X16524200Y-12833000D02*
X16494200Y-12863000D01*
X16497300Y-13130300D02*
X16527300Y-13160300D01*
X16527300Y-13130300D02*
X16497300Y-13160300D01*
X16520400Y-12164300D02*
X16550400Y-12194300D01*
X16550400Y-12164300D02*
X16520400Y-12194300D01*
X16521335Y-12305096D02*
X16551335Y-12335096D01*
X16551335Y-12305096D02*
X16521335Y-12335096D01*
X16522700Y-13751800D02*
X16552700Y-13781800D01*
X16552700Y-13751800D02*
X16522700Y-13781800D01*
X16539200Y-14729700D02*
X16569200Y-14759700D01*
X16569200Y-14729700D02*
X16539200Y-14759700D01*
X16539200Y-14983700D02*
X16569200Y-15013700D01*
X16569200Y-14983700D02*
X16539200Y-15013700D01*
X16558994Y-10628323D02*
X16588994Y-10658323D01*
X16588994Y-10628323D02*
X16558994Y-10658323D01*
X16560000Y-13435000D02*
X16590000Y-13465000D01*
X16590000Y-13435000D02*
X16560000Y-13465000D01*
X16596600Y-12787700D02*
X16626600Y-12817700D01*
X16626600Y-12787700D02*
X16596600Y-12817700D01*
X16596938Y-12278938D02*
X16626938Y-12308938D01*
X16626938Y-12278938D02*
X16596938Y-12308938D01*
X16622000Y-11298350D02*
X16652000Y-11328350D01*
X16652000Y-11298350D02*
X16622000Y-11328350D01*
X16653507Y-12222369D02*
X16683507Y-12252369D01*
X16683507Y-12222369D02*
X16653507Y-12252369D01*
X16660100Y-10640300D02*
X16690100Y-10670300D01*
X16690100Y-10640300D02*
X16660100Y-10670300D01*
X16660100Y-15225000D02*
X16690100Y-15255000D01*
X16690100Y-15225000D02*
X16660100Y-15255000D01*
X16680000Y-11655000D02*
X16710000Y-11685000D01*
X16710000Y-11655000D02*
X16680000Y-11685000D01*
X16717320Y-13122496D02*
X16747320Y-13152496D01*
X16747320Y-13122496D02*
X16717320Y-13152496D01*
X16722700Y-14073000D02*
X16752700Y-14103000D01*
X16752700Y-14073000D02*
X16722700Y-14103000D01*
X16722764Y-12671236D02*
X16752764Y-12701236D01*
X16752764Y-12671236D02*
X16722764Y-12701236D01*
X16771299Y-13182235D02*
X16801299Y-13212235D01*
X16801299Y-13182235D02*
X16771299Y-13212235D01*
X16799800Y-12202400D02*
X16829800Y-12232400D01*
X16829800Y-12202400D02*
X16799800Y-12232400D01*
X16812000Y-13436000D02*
X16842000Y-13466000D01*
X16842000Y-13436000D02*
X16812000Y-13466000D01*
X16812500Y-11084800D02*
X16842500Y-11114800D01*
X16842500Y-11084800D02*
X16812500Y-11114800D01*
X16815000Y-10765000D02*
X16845000Y-10795000D01*
X16845000Y-10765000D02*
X16815000Y-10795000D01*
X16825200Y-11300700D02*
X16855200Y-11330700D01*
X16855200Y-11300700D02*
X16825200Y-11330700D01*
X16825200Y-13307300D02*
X16855200Y-13337300D01*
X16855200Y-13307300D02*
X16825200Y-13337300D01*
X16832000Y-13798000D02*
X16862000Y-13828000D01*
X16862000Y-13798000D02*
X16832000Y-13828000D01*
X16837900Y-11453100D02*
X16867900Y-11483100D01*
X16867900Y-11453100D02*
X16837900Y-11483100D01*
X16874000Y-12624000D02*
X16904000Y-12654000D01*
X16904000Y-12624000D02*
X16874000Y-12654000D01*
X16901400Y-12215100D02*
X16931400Y-12245100D01*
X16931400Y-12215100D02*
X16901400Y-12245100D01*
X16942000Y-14195000D02*
X16972000Y-14225000D01*
X16972000Y-14195000D02*
X16942000Y-14225000D01*
X16975250Y-14577300D02*
X17005250Y-14607300D01*
X17005250Y-14577300D02*
X16975250Y-14607300D01*
X17001000Y-11893000D02*
X17031000Y-11923000D01*
X17031000Y-11893000D02*
X17001000Y-11923000D01*
X17002500Y-11084800D02*
X17032500Y-11114800D01*
X17032500Y-11084800D02*
X17002500Y-11114800D01*
X17009100Y-11300700D02*
X17039100Y-11330700D01*
X17039100Y-11300700D02*
X17009100Y-11330700D01*
X17065000Y-13999000D02*
X17095000Y-14029000D01*
X17095000Y-13999000D02*
X17065000Y-14029000D01*
X17079200Y-12398550D02*
X17109200Y-12428550D01*
X17109200Y-12398550D02*
X17079200Y-12428550D01*
X17079200Y-13612100D02*
X17109200Y-13642100D01*
X17109200Y-13612100D02*
X17079200Y-13642100D01*
X17159000Y-12674000D02*
X17189000Y-12704000D01*
X17189000Y-12674000D02*
X17159000Y-12704000D01*
X17162000Y-13441000D02*
X17192000Y-13471000D01*
X17192000Y-13441000D02*
X17162000Y-13471000D01*
X17178000Y-14201000D02*
X17208000Y-14231000D01*
X17208000Y-14201000D02*
X17178000Y-14231000D01*
X17218900Y-13243800D02*
X17248900Y-13273800D01*
X17248900Y-13243800D02*
X17218900Y-13273800D01*
X17263350Y-12970750D02*
X17293350Y-13000750D01*
X17293350Y-12970750D02*
X17263350Y-13000750D01*
X17320500Y-12710400D02*
X17350500Y-12740400D01*
X17350500Y-12710400D02*
X17320500Y-12740400D01*
X17339000Y-11275300D02*
X17369000Y-11305300D01*
X17369000Y-11275300D02*
X17339000Y-11305300D01*
X17447500Y-13320000D02*
X17477500Y-13350000D01*
X17477500Y-13320000D02*
X17447500Y-13350000D01*
X17447500Y-13408900D02*
X17477500Y-13438900D01*
X17477500Y-13408900D02*
X17447500Y-13438900D01*
X17485600Y-14386800D02*
X17515600Y-14416800D01*
X17515600Y-14386800D02*
X17485600Y-14416800D01*
X17642000Y-12345000D02*
X17672000Y-12375000D01*
X17672000Y-12345000D02*
X17642000Y-12375000D01*
X17644000Y-12407000D02*
X17674000Y-12437000D01*
X17674000Y-12407000D02*
X17644000Y-12437000D01*
X17702000Y-12344000D02*
X17732000Y-12374000D01*
X17732000Y-12344000D02*
X17702000Y-12374000D01*
X17704000Y-12406000D02*
X17734000Y-12436000D01*
X17734000Y-12406000D02*
X17704000Y-12436000D01*
X17705000Y-14590000D02*
X17735000Y-14620000D01*
X17735000Y-14590000D02*
X17705000Y-14620000D01*
X17705000Y-14650000D02*
X17735000Y-14680000D01*
X17735000Y-14650000D02*
X17705000Y-14680000D01*
X17717700Y-10970500D02*
X17747700Y-11000500D01*
X17747700Y-10970500D02*
X17717700Y-11000500D01*
X17717700Y-11030500D02*
X17747700Y-11060500D01*
X17747700Y-11030500D02*
X17717700Y-11060500D01*
X17717700Y-14031200D02*
X17747700Y-14061200D01*
X17747700Y-14031200D02*
X17717700Y-14061200D01*
X17717700Y-14091200D02*
X17747700Y-14121200D01*
X17747700Y-14091200D02*
X17717700Y-14121200D01*
X17750000Y-11280000D02*
X17780000Y-11310000D01*
X17780000Y-11280000D02*
X17750000Y-11310000D01*
X17750000Y-11570000D02*
X17780000Y-11600000D01*
X17780000Y-11570000D02*
X17750000Y-11600000D01*
X17750000Y-11855000D02*
X17780000Y-11885000D01*
X17780000Y-11855000D02*
X17750000Y-11885000D01*
X17750000Y-12935000D02*
X17780000Y-12965000D01*
X17780000Y-12935000D02*
X17750000Y-12965000D01*
X17750000Y-13495000D02*
X17780000Y-13525000D01*
X17780000Y-13495000D02*
X17750000Y-13525000D01*
X17750000Y-13775000D02*
X17780000Y-13805000D01*
X17780000Y-13775000D02*
X17750000Y-13805000D01*
X17750000Y-14900000D02*
X17780000Y-14930000D01*
X17780000Y-14900000D02*
X17750000Y-14930000D01*
X17763000Y-12345000D02*
X17793000Y-12375000D01*
X17793000Y-12345000D02*
X17763000Y-12375000D01*
X17765000Y-12407000D02*
X17795000Y-12437000D01*
X17795000Y-12407000D02*
X17765000Y-12437000D01*
X17765000Y-14590000D02*
X17795000Y-14620000D01*
X17795000Y-14590000D02*
X17765000Y-14620000D01*
X17765000Y-14650000D02*
X17795000Y-14680000D01*
X17795000Y-14650000D02*
X17765000Y-14680000D01*
X17777700Y-10970500D02*
X17807700Y-11000500D01*
X17807700Y-10970500D02*
X17777700Y-11000500D01*
X17777700Y-11030500D02*
X17807700Y-11060500D01*
X17807700Y-11030500D02*
X17777700Y-11060500D01*
X17777700Y-14031200D02*
X17807700Y-14061200D01*
X17807700Y-14031200D02*
X17777700Y-14061200D01*
X17777700Y-14091200D02*
X17807700Y-14121200D01*
X17807700Y-14091200D02*
X17777700Y-14121200D01*
X17822000Y-12345000D02*
X17852000Y-12375000D01*
X17852000Y-12345000D02*
X17822000Y-12375000D01*
X17824000Y-12407000D02*
X17854000Y-12437000D01*
X17854000Y-12407000D02*
X17824000Y-12437000D01*
X16110500Y-10307500D02*
G75*
G02*
X16045500Y-10307500I-32500J0D01*
G01*
X16045500Y-10307500D02*
G75*
G02*
X16110500Y-10307500I32500J0D01*
G01*
X16110500Y-10347500D02*
X16110500Y-10267500D01*
X16045500Y-10267500D02*
G75*
G02*
X16110500Y-10267500I32500J0D01*
G01*
X16045500Y-10267500D02*
X16045500Y-10347500D01*
X16045500Y-10347500D02*
G75*
G03*
X16110500Y-10347500I32500J0D01*
G01*
X16110500Y-10722500D02*
G75*
G02*
X16045500Y-10722500I-32500J0D01*
G01*
X16045500Y-10722500D02*
G75*
G02*
X16110500Y-10722500I32500J0D01*
G01*
X16110500Y-10777500D02*
X16110500Y-10667500D01*
X16045500Y-10667500D02*
G75*
G02*
X16110500Y-10667500I32500J0D01*
G01*
X16045500Y-10667500D02*
X16045500Y-10777500D01*
X16045500Y-10777500D02*
G75*
G03*
X16110500Y-10777500I32500J0D01*
G01*
X16974500Y-10307500D02*
G75*
G02*
X16909500Y-10307500I-32500J0D01*
G01*
X16909500Y-10307500D02*
G75*
G02*
X16974500Y-10307500I32500J0D01*
G01*
X16974500Y-10347500D02*
X16974500Y-10267500D01*
X16909500Y-10267500D02*
G75*
G02*
X16974500Y-10267500I32500J0D01*
G01*
X16909500Y-10267500D02*
X16909500Y-10347500D01*
X16909500Y-10347500D02*
G75*
G03*
X16974500Y-10347500I32500J0D01*
G01*
X16974500Y-10722500D02*
G75*
G02*
X16909500Y-10722500I-32500J0D01*
G01*
X16909500Y-10722500D02*
G75*
G02*
X16974500Y-10722500I32500J0D01*
G01*
X16974500Y-10777500D02*
X16974500Y-10667500D01*
X16909500Y-10667500D02*
G75*
G02*
X16974500Y-10667500I32500J0D01*
G01*
X16909500Y-10667500D02*
X16909500Y-10777500D01*
X16909500Y-10777500D02*
G75*
G03*
X16974500Y-10777500I32500J0D01*
G01*
X10500000Y-12235500D02*
X10500000Y-12305500D01*
X10465000Y-12270500D02*
X10535000Y-12270500D01*
X10500000Y-12425500D02*
X10500000Y-12495500D01*
X10465000Y-12460500D02*
X10535000Y-12460500D01*
X14698588Y-10311088D02*
X14698588Y-10243912D01*
X14631412Y-10243912D01*
X14631412Y-10311088D01*
X14698588Y-10311088D01*
X14948588Y-10311088D02*
X14948588Y-10243912D01*
X14881412Y-10243912D01*
X14881412Y-10311088D01*
X14948588Y-10311088D01*
X15198588Y-10311088D02*
X15198588Y-10243912D01*
X15131412Y-10243912D01*
X15131412Y-10311088D01*
X15198588Y-10311088D01*
X15448588Y-10311088D02*
X15448588Y-10243912D01*
X15381412Y-10243912D01*
X15381412Y-10311088D01*
X15448588Y-10311088D01*
X11904475Y-10286538D02*
X11954005Y-10237008D01*
X11904475Y-10187478D01*
X11854945Y-10237008D01*
X11904475Y-10286538D01*
X13004475Y-10286538D02*
X13054005Y-10237008D01*
X13004475Y-10187478D01*
X12954945Y-10237008D01*
X13004475Y-10286538D01*
D13*
X12119385Y-11151918D02*
X12289565Y-11322098D01*
X12289565Y-11151918D02*
X12119385Y-11322098D01*
X12289565Y-11237008D02*
G75*
G02*
X12119385Y-11237008I-85090J0D01*
G01*
X12119385Y-11237008D02*
G75*
G02*
X12289565Y-11237008I85090J0D01*
G01*
X12619385Y-11151918D02*
X12789565Y-11322098D01*
X12789565Y-11151918D02*
X12619385Y-11322098D01*
X12789565Y-11237008D02*
G75*
G02*
X12619385Y-11237008I-85090J0D01*
G01*
X12619385Y-11237008D02*
G75*
G02*
X12789565Y-11237008I85090J0D01*
G01*
D11*
X10258277Y-16313984D02*
X10258277Y-16113984D01*
X10258277Y-16113984D02*
X10305896Y-16113984D01*
X10305896Y-16113984D02*
X10334467Y-16123508D01*
X10334467Y-16123508D02*
X10353515Y-16142555D01*
X10353515Y-16142555D02*
X10363039Y-16161603D01*
X10363039Y-16161603D02*
X10372563Y-16199698D01*
X10372563Y-16199698D02*
X10372563Y-16228269D01*
X10372563Y-16228269D02*
X10363039Y-16266365D01*
X10363039Y-16266365D02*
X10353515Y-16285412D01*
X10353515Y-16285412D02*
X10334467Y-16304460D01*
X10334467Y-16304460D02*
X10305896Y-16313984D01*
X10305896Y-16313984D02*
X10258277Y-16313984D01*
X10458277Y-16313984D02*
X10458277Y-16180650D01*
X10458277Y-16218746D02*
X10467801Y-16199698D01*
X10467801Y-16199698D02*
X10477324Y-16190174D01*
X10477324Y-16190174D02*
X10496372Y-16180650D01*
X10496372Y-16180650D02*
X10515420Y-16180650D01*
X10582086Y-16313984D02*
X10582086Y-16180650D01*
X10582086Y-16113984D02*
X10572563Y-16123508D01*
X10572563Y-16123508D02*
X10582086Y-16133031D01*
X10582086Y-16133031D02*
X10591610Y-16123508D01*
X10591610Y-16123508D02*
X10582086Y-16113984D01*
X10582086Y-16113984D02*
X10582086Y-16133031D01*
X10705896Y-16313984D02*
X10686848Y-16304460D01*
X10686848Y-16304460D02*
X10677324Y-16285412D01*
X10677324Y-16285412D02*
X10677324Y-16113984D01*
X10810658Y-16313984D02*
X10791610Y-16304460D01*
X10791610Y-16304460D02*
X10782086Y-16285412D01*
X10782086Y-16285412D02*
X10782086Y-16113984D01*
X11039229Y-16313984D02*
X11039229Y-16113984D01*
X11039229Y-16113984D02*
X11105896Y-16256841D01*
X11105896Y-16256841D02*
X11172563Y-16113984D01*
X11172563Y-16113984D02*
X11172563Y-16313984D01*
X11353515Y-16313984D02*
X11353515Y-16209222D01*
X11353515Y-16209222D02*
X11343991Y-16190174D01*
X11343991Y-16190174D02*
X11324943Y-16180650D01*
X11324943Y-16180650D02*
X11286848Y-16180650D01*
X11286848Y-16180650D02*
X11267801Y-16190174D01*
X11353515Y-16304460D02*
X11334467Y-16313984D01*
X11334467Y-16313984D02*
X11286848Y-16313984D01*
X11286848Y-16313984D02*
X11267801Y-16304460D01*
X11267801Y-16304460D02*
X11258277Y-16285412D01*
X11258277Y-16285412D02*
X11258277Y-16266365D01*
X11258277Y-16266365D02*
X11267801Y-16247317D01*
X11267801Y-16247317D02*
X11286848Y-16237793D01*
X11286848Y-16237793D02*
X11334467Y-16237793D01*
X11334467Y-16237793D02*
X11353515Y-16228269D01*
X11448753Y-16180650D02*
X11448753Y-16380650D01*
X11448753Y-16190174D02*
X11467801Y-16180650D01*
X11467801Y-16180650D02*
X11505896Y-16180650D01*
X11505896Y-16180650D02*
X11524943Y-16190174D01*
X11524943Y-16190174D02*
X11534467Y-16199698D01*
X11534467Y-16199698D02*
X11543991Y-16218746D01*
X11543991Y-16218746D02*
X11543991Y-16275888D01*
X11543991Y-16275888D02*
X11534467Y-16294936D01*
X11534467Y-16294936D02*
X11524943Y-16304460D01*
X11524943Y-16304460D02*
X11505896Y-16313984D01*
X11505896Y-16313984D02*
X11467801Y-16313984D01*
X11467801Y-16313984D02*
X11448753Y-16304460D01*
X11629705Y-16294936D02*
X11639229Y-16304460D01*
X11639229Y-16304460D02*
X11629705Y-16313984D01*
X11629705Y-16313984D02*
X11620182Y-16304460D01*
X11620182Y-16304460D02*
X11629705Y-16294936D01*
X11629705Y-16294936D02*
X11629705Y-16313984D01*
X11629705Y-16190174D02*
X11639229Y-16199698D01*
X11639229Y-16199698D02*
X11629705Y-16209222D01*
X11629705Y-16209222D02*
X11620182Y-16199698D01*
X11620182Y-16199698D02*
X11629705Y-16190174D01*
X11629705Y-16190174D02*
X11629705Y-16209222D01*
D12*
X9967500Y-16627500D02*
X9997500Y-16657500D01*
X9997500Y-16627500D02*
X9967500Y-16657500D01*
D11*
X10296372Y-16533984D02*
X10315420Y-16533984D01*
X10315420Y-16533984D02*
X10334467Y-16543508D01*
X10334467Y-16543508D02*
X10343991Y-16553031D01*
X10343991Y-16553031D02*
X10353515Y-16572079D01*
X10353515Y-16572079D02*
X10363039Y-16610174D01*
X10363039Y-16610174D02*
X10363039Y-16657793D01*
X10363039Y-16657793D02*
X10353515Y-16695888D01*
X10353515Y-16695888D02*
X10343991Y-16714936D01*
X10343991Y-16714936D02*
X10334467Y-16724460D01*
X10334467Y-16724460D02*
X10315420Y-16733984D01*
X10315420Y-16733984D02*
X10296372Y-16733984D01*
X10296372Y-16733984D02*
X10277324Y-16724460D01*
X10277324Y-16724460D02*
X10267801Y-16714936D01*
X10267801Y-16714936D02*
X10258277Y-16695888D01*
X10258277Y-16695888D02*
X10248753Y-16657793D01*
X10248753Y-16657793D02*
X10248753Y-16610174D01*
X10248753Y-16610174D02*
X10258277Y-16572079D01*
X10258277Y-16572079D02*
X10267801Y-16553031D01*
X10267801Y-16553031D02*
X10277324Y-16543508D01*
X10277324Y-16543508D02*
X10296372Y-16533984D01*
X10448753Y-16714936D02*
X10458277Y-16724460D01*
X10458277Y-16724460D02*
X10448753Y-16733984D01*
X10448753Y-16733984D02*
X10439229Y-16724460D01*
X10439229Y-16724460D02*
X10448753Y-16714936D01*
X10448753Y-16714936D02*
X10448753Y-16733984D01*
X10524944Y-16533984D02*
X10648753Y-16533984D01*
X10648753Y-16533984D02*
X10582086Y-16610174D01*
X10582086Y-16610174D02*
X10610658Y-16610174D01*
X10610658Y-16610174D02*
X10629705Y-16619698D01*
X10629705Y-16619698D02*
X10639229Y-16629222D01*
X10639229Y-16629222D02*
X10648753Y-16648269D01*
X10648753Y-16648269D02*
X10648753Y-16695888D01*
X10648753Y-16695888D02*
X10639229Y-16714936D01*
X10639229Y-16714936D02*
X10629705Y-16724460D01*
X10629705Y-16724460D02*
X10610658Y-16733984D01*
X10610658Y-16733984D02*
X10553515Y-16733984D01*
X10553515Y-16733984D02*
X10534467Y-16724460D01*
X10534467Y-16724460D02*
X10524944Y-16714936D01*
X10772563Y-16533984D02*
X10791610Y-16533984D01*
X10791610Y-16533984D02*
X10810658Y-16543508D01*
X10810658Y-16543508D02*
X10820182Y-16553031D01*
X10820182Y-16553031D02*
X10829705Y-16572079D01*
X10829705Y-16572079D02*
X10839229Y-16610174D01*
X10839229Y-16610174D02*
X10839229Y-16657793D01*
X10839229Y-16657793D02*
X10829705Y-16695888D01*
X10829705Y-16695888D02*
X10820182Y-16714936D01*
X10820182Y-16714936D02*
X10810658Y-16724460D01*
X10810658Y-16724460D02*
X10791610Y-16733984D01*
X10791610Y-16733984D02*
X10772563Y-16733984D01*
X10772563Y-16733984D02*
X10753515Y-16724460D01*
X10753515Y-16724460D02*
X10743991Y-16714936D01*
X10743991Y-16714936D02*
X10734467Y-16695888D01*
X10734467Y-16695888D02*
X10724944Y-16657793D01*
X10724944Y-16657793D02*
X10724944Y-16610174D01*
X10724944Y-16610174D02*
X10734467Y-16572079D01*
X10734467Y-16572079D02*
X10743991Y-16553031D01*
X10743991Y-16553031D02*
X10753515Y-16543508D01*
X10753515Y-16543508D02*
X10772563Y-16533984D01*
X10963039Y-16533984D02*
X10982086Y-16533984D01*
X10982086Y-16533984D02*
X11001134Y-16543508D01*
X11001134Y-16543508D02*
X11010658Y-16553031D01*
X11010658Y-16553031D02*
X11020182Y-16572079D01*
X11020182Y-16572079D02*
X11029705Y-16610174D01*
X11029705Y-16610174D02*
X11029705Y-16657793D01*
X11029705Y-16657793D02*
X11020182Y-16695888D01*
X11020182Y-16695888D02*
X11010658Y-16714936D01*
X11010658Y-16714936D02*
X11001134Y-16724460D01*
X11001134Y-16724460D02*
X10982086Y-16733984D01*
X10982086Y-16733984D02*
X10963039Y-16733984D01*
X10963039Y-16733984D02*
X10943991Y-16724460D01*
X10943991Y-16724460D02*
X10934467Y-16714936D01*
X10934467Y-16714936D02*
X10924944Y-16695888D01*
X10924944Y-16695888D02*
X10915420Y-16657793D01*
X10915420Y-16657793D02*
X10915420Y-16610174D01*
X10915420Y-16610174D02*
X10924944Y-16572079D01*
X10924944Y-16572079D02*
X10934467Y-16553031D01*
X10934467Y-16553031D02*
X10943991Y-16543508D01*
X10943991Y-16543508D02*
X10963039Y-16533984D01*
X11115420Y-16733984D02*
X11115420Y-16600650D01*
X11115420Y-16619698D02*
X11124944Y-16610174D01*
X11124944Y-16610174D02*
X11143991Y-16600650D01*
X11143991Y-16600650D02*
X11172563Y-16600650D01*
X11172563Y-16600650D02*
X11191610Y-16610174D01*
X11191610Y-16610174D02*
X11201134Y-16629222D01*
X11201134Y-16629222D02*
X11201134Y-16733984D01*
X11201134Y-16629222D02*
X11210658Y-16610174D01*
X11210658Y-16610174D02*
X11229705Y-16600650D01*
X11229705Y-16600650D02*
X11258277Y-16600650D01*
X11258277Y-16600650D02*
X11277324Y-16610174D01*
X11277324Y-16610174D02*
X11286848Y-16629222D01*
X11286848Y-16629222D02*
X11286848Y-16733984D01*
X11382086Y-16733984D02*
X11382086Y-16600650D01*
X11382086Y-16619698D02*
X11391610Y-16610174D01*
X11391610Y-16610174D02*
X11410658Y-16600650D01*
X11410658Y-16600650D02*
X11439229Y-16600650D01*
X11439229Y-16600650D02*
X11458277Y-16610174D01*
X11458277Y-16610174D02*
X11467801Y-16629222D01*
X11467801Y-16629222D02*
X11467801Y-16733984D01*
X11467801Y-16629222D02*
X11477324Y-16610174D01*
X11477324Y-16610174D02*
X11496372Y-16600650D01*
X11496372Y-16600650D02*
X11524943Y-16600650D01*
X11524943Y-16600650D02*
X11543991Y-16610174D01*
X11543991Y-16610174D02*
X11553515Y-16629222D01*
X11553515Y-16629222D02*
X11553515Y-16733984D01*
X11943991Y-16524460D02*
X11772563Y-16781603D01*
X12201134Y-16533984D02*
X12220182Y-16533984D01*
X12220182Y-16533984D02*
X12239229Y-16543508D01*
X12239229Y-16543508D02*
X12248753Y-16553031D01*
X12248753Y-16553031D02*
X12258277Y-16572079D01*
X12258277Y-16572079D02*
X12267801Y-16610174D01*
X12267801Y-16610174D02*
X12267801Y-16657793D01*
X12267801Y-16657793D02*
X12258277Y-16695888D01*
X12258277Y-16695888D02*
X12248753Y-16714936D01*
X12248753Y-16714936D02*
X12239229Y-16724460D01*
X12239229Y-16724460D02*
X12220182Y-16733984D01*
X12220182Y-16733984D02*
X12201134Y-16733984D01*
X12201134Y-16733984D02*
X12182086Y-16724460D01*
X12182086Y-16724460D02*
X12172563Y-16714936D01*
X12172563Y-16714936D02*
X12163039Y-16695888D01*
X12163039Y-16695888D02*
X12153515Y-16657793D01*
X12153515Y-16657793D02*
X12153515Y-16610174D01*
X12153515Y-16610174D02*
X12163039Y-16572079D01*
X12163039Y-16572079D02*
X12172563Y-16553031D01*
X12172563Y-16553031D02*
X12182086Y-16543508D01*
X12182086Y-16543508D02*
X12201134Y-16533984D01*
X12353515Y-16714936D02*
X12363039Y-16724460D01*
X12363039Y-16724460D02*
X12353515Y-16733984D01*
X12353515Y-16733984D02*
X12343991Y-16724460D01*
X12343991Y-16724460D02*
X12353515Y-16714936D01*
X12353515Y-16714936D02*
X12353515Y-16733984D01*
X12486848Y-16533984D02*
X12505896Y-16533984D01*
X12505896Y-16533984D02*
X12524944Y-16543508D01*
X12524944Y-16543508D02*
X12534467Y-16553031D01*
X12534467Y-16553031D02*
X12543991Y-16572079D01*
X12543991Y-16572079D02*
X12553515Y-16610174D01*
X12553515Y-16610174D02*
X12553515Y-16657793D01*
X12553515Y-16657793D02*
X12543991Y-16695888D01*
X12543991Y-16695888D02*
X12534467Y-16714936D01*
X12534467Y-16714936D02*
X12524944Y-16724460D01*
X12524944Y-16724460D02*
X12505896Y-16733984D01*
X12505896Y-16733984D02*
X12486848Y-16733984D01*
X12486848Y-16733984D02*
X12467801Y-16724460D01*
X12467801Y-16724460D02*
X12458277Y-16714936D01*
X12458277Y-16714936D02*
X12448753Y-16695888D01*
X12448753Y-16695888D02*
X12439229Y-16657793D01*
X12439229Y-16657793D02*
X12439229Y-16610174D01*
X12439229Y-16610174D02*
X12448753Y-16572079D01*
X12448753Y-16572079D02*
X12458277Y-16553031D01*
X12458277Y-16553031D02*
X12467801Y-16543508D01*
X12467801Y-16543508D02*
X12486848Y-16533984D01*
X12743991Y-16733984D02*
X12629706Y-16733984D01*
X12686848Y-16733984D02*
X12686848Y-16533984D01*
X12686848Y-16533984D02*
X12667801Y-16562555D01*
X12667801Y-16562555D02*
X12648753Y-16581603D01*
X12648753Y-16581603D02*
X12629706Y-16591127D01*
X12934467Y-16733984D02*
X12820182Y-16733984D01*
X12877325Y-16733984D02*
X12877325Y-16533984D01*
X12877325Y-16533984D02*
X12858277Y-16562555D01*
X12858277Y-16562555D02*
X12839229Y-16581603D01*
X12839229Y-16581603D02*
X12820182Y-16591127D01*
X13048753Y-16619698D02*
X13029706Y-16610174D01*
X13029706Y-16610174D02*
X13020182Y-16600650D01*
X13020182Y-16600650D02*
X13010658Y-16581603D01*
X13010658Y-16581603D02*
X13010658Y-16572079D01*
X13010658Y-16572079D02*
X13020182Y-16553031D01*
X13020182Y-16553031D02*
X13029706Y-16543508D01*
X13029706Y-16543508D02*
X13048753Y-16533984D01*
X13048753Y-16533984D02*
X13086848Y-16533984D01*
X13086848Y-16533984D02*
X13105896Y-16543508D01*
X13105896Y-16543508D02*
X13115420Y-16553031D01*
X13115420Y-16553031D02*
X13124944Y-16572079D01*
X13124944Y-16572079D02*
X13124944Y-16581603D01*
X13124944Y-16581603D02*
X13115420Y-16600650D01*
X13115420Y-16600650D02*
X13105896Y-16610174D01*
X13105896Y-16610174D02*
X13086848Y-16619698D01*
X13086848Y-16619698D02*
X13048753Y-16619698D01*
X13048753Y-16619698D02*
X13029706Y-16629222D01*
X13029706Y-16629222D02*
X13020182Y-16638746D01*
X13020182Y-16638746D02*
X13010658Y-16657793D01*
X13010658Y-16657793D02*
X13010658Y-16695888D01*
X13010658Y-16695888D02*
X13020182Y-16714936D01*
X13020182Y-16714936D02*
X13029706Y-16724460D01*
X13029706Y-16724460D02*
X13048753Y-16733984D01*
X13048753Y-16733984D02*
X13086848Y-16733984D01*
X13086848Y-16733984D02*
X13105896Y-16724460D01*
X13105896Y-16724460D02*
X13115420Y-16714936D01*
X13115420Y-16714936D02*
X13124944Y-16695888D01*
X13124944Y-16695888D02*
X13124944Y-16657793D01*
X13124944Y-16657793D02*
X13115420Y-16638746D01*
X13115420Y-16638746D02*
X13105896Y-16629222D01*
X13105896Y-16629222D02*
X13086848Y-16619698D01*
X13201134Y-16533984D02*
X13201134Y-16572079D01*
X13277325Y-16533984D02*
X13277325Y-16572079D01*
X13572563Y-16810174D02*
X13563039Y-16800650D01*
X13563039Y-16800650D02*
X13543991Y-16772079D01*
X13543991Y-16772079D02*
X13534468Y-16753031D01*
X13534468Y-16753031D02*
X13524944Y-16724460D01*
X13524944Y-16724460D02*
X13515420Y-16676841D01*
X13515420Y-16676841D02*
X13515420Y-16638746D01*
X13515420Y-16638746D02*
X13524944Y-16591127D01*
X13524944Y-16591127D02*
X13534468Y-16562555D01*
X13534468Y-16562555D02*
X13543991Y-16543508D01*
X13543991Y-16543508D02*
X13563039Y-16514936D01*
X13563039Y-16514936D02*
X13572563Y-16505412D01*
X13743991Y-16533984D02*
X13648753Y-16533984D01*
X13648753Y-16533984D02*
X13639229Y-16629222D01*
X13639229Y-16629222D02*
X13648753Y-16619698D01*
X13648753Y-16619698D02*
X13667801Y-16610174D01*
X13667801Y-16610174D02*
X13715420Y-16610174D01*
X13715420Y-16610174D02*
X13734468Y-16619698D01*
X13734468Y-16619698D02*
X13743991Y-16629222D01*
X13743991Y-16629222D02*
X13753515Y-16648269D01*
X13753515Y-16648269D02*
X13753515Y-16695888D01*
X13753515Y-16695888D02*
X13743991Y-16714936D01*
X13743991Y-16714936D02*
X13734468Y-16724460D01*
X13734468Y-16724460D02*
X13715420Y-16733984D01*
X13715420Y-16733984D02*
X13667801Y-16733984D01*
X13667801Y-16733984D02*
X13648753Y-16724460D01*
X13648753Y-16724460D02*
X13639229Y-16714936D01*
X13820182Y-16533984D02*
X13943991Y-16533984D01*
X13943991Y-16533984D02*
X13877325Y-16610174D01*
X13877325Y-16610174D02*
X13905896Y-16610174D01*
X13905896Y-16610174D02*
X13924944Y-16619698D01*
X13924944Y-16619698D02*
X13934468Y-16629222D01*
X13934468Y-16629222D02*
X13943991Y-16648269D01*
X13943991Y-16648269D02*
X13943991Y-16695888D01*
X13943991Y-16695888D02*
X13934468Y-16714936D01*
X13934468Y-16714936D02*
X13924944Y-16724460D01*
X13924944Y-16724460D02*
X13905896Y-16733984D01*
X13905896Y-16733984D02*
X13848753Y-16733984D01*
X13848753Y-16733984D02*
X13829706Y-16724460D01*
X13829706Y-16724460D02*
X13820182Y-16714936D01*
X14020182Y-16553031D02*
X14029706Y-16543508D01*
X14029706Y-16543508D02*
X14048753Y-16533984D01*
X14048753Y-16533984D02*
X14096372Y-16533984D01*
X14096372Y-16533984D02*
X14115420Y-16543508D01*
X14115420Y-16543508D02*
X14124944Y-16553031D01*
X14124944Y-16553031D02*
X14134468Y-16572079D01*
X14134468Y-16572079D02*
X14134468Y-16591127D01*
X14134468Y-16591127D02*
X14124944Y-16619698D01*
X14124944Y-16619698D02*
X14010658Y-16733984D01*
X14010658Y-16733984D02*
X14134468Y-16733984D01*
X14372563Y-16733984D02*
X14372563Y-16533984D01*
X14458277Y-16733984D02*
X14458277Y-16629222D01*
X14458277Y-16629222D02*
X14448753Y-16610174D01*
X14448753Y-16610174D02*
X14429706Y-16600650D01*
X14429706Y-16600650D02*
X14401134Y-16600650D01*
X14401134Y-16600650D02*
X14382087Y-16610174D01*
X14382087Y-16610174D02*
X14372563Y-16619698D01*
X14582087Y-16733984D02*
X14563039Y-16724460D01*
X14563039Y-16724460D02*
X14553515Y-16714936D01*
X14553515Y-16714936D02*
X14543991Y-16695888D01*
X14543991Y-16695888D02*
X14543991Y-16638746D01*
X14543991Y-16638746D02*
X14553515Y-16619698D01*
X14553515Y-16619698D02*
X14563039Y-16610174D01*
X14563039Y-16610174D02*
X14582087Y-16600650D01*
X14582087Y-16600650D02*
X14610658Y-16600650D01*
X14610658Y-16600650D02*
X14629706Y-16610174D01*
X14629706Y-16610174D02*
X14639230Y-16619698D01*
X14639230Y-16619698D02*
X14648753Y-16638746D01*
X14648753Y-16638746D02*
X14648753Y-16695888D01*
X14648753Y-16695888D02*
X14639230Y-16714936D01*
X14639230Y-16714936D02*
X14629706Y-16724460D01*
X14629706Y-16724460D02*
X14610658Y-16733984D01*
X14610658Y-16733984D02*
X14582087Y-16733984D01*
X14763039Y-16733984D02*
X14743991Y-16724460D01*
X14743991Y-16724460D02*
X14734468Y-16705412D01*
X14734468Y-16705412D02*
X14734468Y-16533984D01*
X14915420Y-16724460D02*
X14896372Y-16733984D01*
X14896372Y-16733984D02*
X14858277Y-16733984D01*
X14858277Y-16733984D02*
X14839230Y-16724460D01*
X14839230Y-16724460D02*
X14829706Y-16705412D01*
X14829706Y-16705412D02*
X14829706Y-16629222D01*
X14829706Y-16629222D02*
X14839230Y-16610174D01*
X14839230Y-16610174D02*
X14858277Y-16600650D01*
X14858277Y-16600650D02*
X14896372Y-16600650D01*
X14896372Y-16600650D02*
X14915420Y-16610174D01*
X14915420Y-16610174D02*
X14924944Y-16629222D01*
X14924944Y-16629222D02*
X14924944Y-16648269D01*
X14924944Y-16648269D02*
X14829706Y-16667317D01*
X15001134Y-16724460D02*
X15020182Y-16733984D01*
X15020182Y-16733984D02*
X15058277Y-16733984D01*
X15058277Y-16733984D02*
X15077325Y-16724460D01*
X15077325Y-16724460D02*
X15086849Y-16705412D01*
X15086849Y-16705412D02*
X15086849Y-16695888D01*
X15086849Y-16695888D02*
X15077325Y-16676841D01*
X15077325Y-16676841D02*
X15058277Y-16667317D01*
X15058277Y-16667317D02*
X15029706Y-16667317D01*
X15029706Y-16667317D02*
X15010658Y-16657793D01*
X15010658Y-16657793D02*
X15001134Y-16638746D01*
X15001134Y-16638746D02*
X15001134Y-16629222D01*
X15001134Y-16629222D02*
X15010658Y-16610174D01*
X15010658Y-16610174D02*
X15029706Y-16600650D01*
X15029706Y-16600650D02*
X15058277Y-16600650D01*
X15058277Y-16600650D02*
X15077325Y-16610174D01*
X15153515Y-16810174D02*
X15163039Y-16800650D01*
X15163039Y-16800650D02*
X15182087Y-16772079D01*
X15182087Y-16772079D02*
X15191611Y-16753031D01*
X15191611Y-16753031D02*
X15201134Y-16724460D01*
X15201134Y-16724460D02*
X15210658Y-16676841D01*
X15210658Y-16676841D02*
X15210658Y-16638746D01*
X15210658Y-16638746D02*
X15201134Y-16591127D01*
X15201134Y-16591127D02*
X15191611Y-16562555D01*
X15191611Y-16562555D02*
X15182087Y-16543508D01*
X15182087Y-16543508D02*
X15163039Y-16514936D01*
X15163039Y-16514936D02*
X15153515Y-16505412D01*
D12*
X9997500Y-16906500D02*
G75*
G02*
X9932500Y-16906500I-32500J0D01*
G01*
X9932500Y-16906500D02*
G75*
G02*
X9997500Y-16906500I32500J0D01*
G01*
D11*
X10296372Y-16797984D02*
X10315420Y-16797984D01*
X10315420Y-16797984D02*
X10334467Y-16807508D01*
X10334467Y-16807508D02*
X10343991Y-16817031D01*
X10343991Y-16817031D02*
X10353515Y-16836079D01*
X10353515Y-16836079D02*
X10363039Y-16874174D01*
X10363039Y-16874174D02*
X10363039Y-16921793D01*
X10363039Y-16921793D02*
X10353515Y-16959889D01*
X10353515Y-16959889D02*
X10343991Y-16978936D01*
X10343991Y-16978936D02*
X10334467Y-16988460D01*
X10334467Y-16988460D02*
X10315420Y-16997984D01*
X10315420Y-16997984D02*
X10296372Y-16997984D01*
X10296372Y-16997984D02*
X10277324Y-16988460D01*
X10277324Y-16988460D02*
X10267801Y-16978936D01*
X10267801Y-16978936D02*
X10258277Y-16959889D01*
X10258277Y-16959889D02*
X10248753Y-16921793D01*
X10248753Y-16921793D02*
X10248753Y-16874174D01*
X10248753Y-16874174D02*
X10258277Y-16836079D01*
X10258277Y-16836079D02*
X10267801Y-16817031D01*
X10267801Y-16817031D02*
X10277324Y-16807508D01*
X10277324Y-16807508D02*
X10296372Y-16797984D01*
X10448753Y-16978936D02*
X10458277Y-16988460D01*
X10458277Y-16988460D02*
X10448753Y-16997984D01*
X10448753Y-16997984D02*
X10439229Y-16988460D01*
X10439229Y-16988460D02*
X10448753Y-16978936D01*
X10448753Y-16978936D02*
X10448753Y-16997984D01*
X10629705Y-16797984D02*
X10591610Y-16797984D01*
X10591610Y-16797984D02*
X10572563Y-16807508D01*
X10572563Y-16807508D02*
X10563039Y-16817031D01*
X10563039Y-16817031D02*
X10543991Y-16845603D01*
X10543991Y-16845603D02*
X10534467Y-16883698D01*
X10534467Y-16883698D02*
X10534467Y-16959889D01*
X10534467Y-16959889D02*
X10543991Y-16978936D01*
X10543991Y-16978936D02*
X10553515Y-16988460D01*
X10553515Y-16988460D02*
X10572563Y-16997984D01*
X10572563Y-16997984D02*
X10610658Y-16997984D01*
X10610658Y-16997984D02*
X10629705Y-16988460D01*
X10629705Y-16988460D02*
X10639229Y-16978936D01*
X10639229Y-16978936D02*
X10648753Y-16959889D01*
X10648753Y-16959889D02*
X10648753Y-16912270D01*
X10648753Y-16912270D02*
X10639229Y-16893222D01*
X10639229Y-16893222D02*
X10629705Y-16883698D01*
X10629705Y-16883698D02*
X10610658Y-16874174D01*
X10610658Y-16874174D02*
X10572563Y-16874174D01*
X10572563Y-16874174D02*
X10553515Y-16883698D01*
X10553515Y-16883698D02*
X10543991Y-16893222D01*
X10543991Y-16893222D02*
X10534467Y-16912270D01*
X10829705Y-16797984D02*
X10734467Y-16797984D01*
X10734467Y-16797984D02*
X10724944Y-16893222D01*
X10724944Y-16893222D02*
X10734467Y-16883698D01*
X10734467Y-16883698D02*
X10753515Y-16874174D01*
X10753515Y-16874174D02*
X10801134Y-16874174D01*
X10801134Y-16874174D02*
X10820182Y-16883698D01*
X10820182Y-16883698D02*
X10829705Y-16893222D01*
X10829705Y-16893222D02*
X10839229Y-16912270D01*
X10839229Y-16912270D02*
X10839229Y-16959889D01*
X10839229Y-16959889D02*
X10829705Y-16978936D01*
X10829705Y-16978936D02*
X10820182Y-16988460D01*
X10820182Y-16988460D02*
X10801134Y-16997984D01*
X10801134Y-16997984D02*
X10753515Y-16997984D01*
X10753515Y-16997984D02*
X10734467Y-16988460D01*
X10734467Y-16988460D02*
X10724944Y-16978936D01*
X10963039Y-16797984D02*
X10982086Y-16797984D01*
X10982086Y-16797984D02*
X11001134Y-16807508D01*
X11001134Y-16807508D02*
X11010658Y-16817031D01*
X11010658Y-16817031D02*
X11020182Y-16836079D01*
X11020182Y-16836079D02*
X11029705Y-16874174D01*
X11029705Y-16874174D02*
X11029705Y-16921793D01*
X11029705Y-16921793D02*
X11020182Y-16959889D01*
X11020182Y-16959889D02*
X11010658Y-16978936D01*
X11010658Y-16978936D02*
X11001134Y-16988460D01*
X11001134Y-16988460D02*
X10982086Y-16997984D01*
X10982086Y-16997984D02*
X10963039Y-16997984D01*
X10963039Y-16997984D02*
X10943991Y-16988460D01*
X10943991Y-16988460D02*
X10934467Y-16978936D01*
X10934467Y-16978936D02*
X10924944Y-16959889D01*
X10924944Y-16959889D02*
X10915420Y-16921793D01*
X10915420Y-16921793D02*
X10915420Y-16874174D01*
X10915420Y-16874174D02*
X10924944Y-16836079D01*
X10924944Y-16836079D02*
X10934467Y-16817031D01*
X10934467Y-16817031D02*
X10943991Y-16807508D01*
X10943991Y-16807508D02*
X10963039Y-16797984D01*
X11115420Y-16997984D02*
X11115420Y-16864650D01*
X11115420Y-16883698D02*
X11124944Y-16874174D01*
X11124944Y-16874174D02*
X11143991Y-16864650D01*
X11143991Y-16864650D02*
X11172563Y-16864650D01*
X11172563Y-16864650D02*
X11191610Y-16874174D01*
X11191610Y-16874174D02*
X11201134Y-16893222D01*
X11201134Y-16893222D02*
X11201134Y-16997984D01*
X11201134Y-16893222D02*
X11210658Y-16874174D01*
X11210658Y-16874174D02*
X11229705Y-16864650D01*
X11229705Y-16864650D02*
X11258277Y-16864650D01*
X11258277Y-16864650D02*
X11277324Y-16874174D01*
X11277324Y-16874174D02*
X11286848Y-16893222D01*
X11286848Y-16893222D02*
X11286848Y-16997984D01*
X11382086Y-16997984D02*
X11382086Y-16864650D01*
X11382086Y-16883698D02*
X11391610Y-16874174D01*
X11391610Y-16874174D02*
X11410658Y-16864650D01*
X11410658Y-16864650D02*
X11439229Y-16864650D01*
X11439229Y-16864650D02*
X11458277Y-16874174D01*
X11458277Y-16874174D02*
X11467801Y-16893222D01*
X11467801Y-16893222D02*
X11467801Y-16997984D01*
X11467801Y-16893222D02*
X11477324Y-16874174D01*
X11477324Y-16874174D02*
X11496372Y-16864650D01*
X11496372Y-16864650D02*
X11524943Y-16864650D01*
X11524943Y-16864650D02*
X11543991Y-16874174D01*
X11543991Y-16874174D02*
X11553515Y-16893222D01*
X11553515Y-16893222D02*
X11553515Y-16997984D01*
X11943991Y-16788460D02*
X11772563Y-17045603D01*
X12201134Y-16797984D02*
X12220182Y-16797984D01*
X12220182Y-16797984D02*
X12239229Y-16807508D01*
X12239229Y-16807508D02*
X12248753Y-16817031D01*
X12248753Y-16817031D02*
X12258277Y-16836079D01*
X12258277Y-16836079D02*
X12267801Y-16874174D01*
X12267801Y-16874174D02*
X12267801Y-16921793D01*
X12267801Y-16921793D02*
X12258277Y-16959889D01*
X12258277Y-16959889D02*
X12248753Y-16978936D01*
X12248753Y-16978936D02*
X12239229Y-16988460D01*
X12239229Y-16988460D02*
X12220182Y-16997984D01*
X12220182Y-16997984D02*
X12201134Y-16997984D01*
X12201134Y-16997984D02*
X12182086Y-16988460D01*
X12182086Y-16988460D02*
X12172563Y-16978936D01*
X12172563Y-16978936D02*
X12163039Y-16959889D01*
X12163039Y-16959889D02*
X12153515Y-16921793D01*
X12153515Y-16921793D02*
X12153515Y-16874174D01*
X12153515Y-16874174D02*
X12163039Y-16836079D01*
X12163039Y-16836079D02*
X12172563Y-16817031D01*
X12172563Y-16817031D02*
X12182086Y-16807508D01*
X12182086Y-16807508D02*
X12201134Y-16797984D01*
X12353515Y-16978936D02*
X12363039Y-16988460D01*
X12363039Y-16988460D02*
X12353515Y-16997984D01*
X12353515Y-16997984D02*
X12343991Y-16988460D01*
X12343991Y-16988460D02*
X12353515Y-16978936D01*
X12353515Y-16978936D02*
X12353515Y-16997984D01*
X12486848Y-16797984D02*
X12505896Y-16797984D01*
X12505896Y-16797984D02*
X12524944Y-16807508D01*
X12524944Y-16807508D02*
X12534467Y-16817031D01*
X12534467Y-16817031D02*
X12543991Y-16836079D01*
X12543991Y-16836079D02*
X12553515Y-16874174D01*
X12553515Y-16874174D02*
X12553515Y-16921793D01*
X12553515Y-16921793D02*
X12543991Y-16959889D01*
X12543991Y-16959889D02*
X12534467Y-16978936D01*
X12534467Y-16978936D02*
X12524944Y-16988460D01*
X12524944Y-16988460D02*
X12505896Y-16997984D01*
X12505896Y-16997984D02*
X12486848Y-16997984D01*
X12486848Y-16997984D02*
X12467801Y-16988460D01*
X12467801Y-16988460D02*
X12458277Y-16978936D01*
X12458277Y-16978936D02*
X12448753Y-16959889D01*
X12448753Y-16959889D02*
X12439229Y-16921793D01*
X12439229Y-16921793D02*
X12439229Y-16874174D01*
X12439229Y-16874174D02*
X12448753Y-16836079D01*
X12448753Y-16836079D02*
X12458277Y-16817031D01*
X12458277Y-16817031D02*
X12467801Y-16807508D01*
X12467801Y-16807508D02*
X12486848Y-16797984D01*
X12629706Y-16817031D02*
X12639229Y-16807508D01*
X12639229Y-16807508D02*
X12658277Y-16797984D01*
X12658277Y-16797984D02*
X12705896Y-16797984D01*
X12705896Y-16797984D02*
X12724944Y-16807508D01*
X12724944Y-16807508D02*
X12734467Y-16817031D01*
X12734467Y-16817031D02*
X12743991Y-16836079D01*
X12743991Y-16836079D02*
X12743991Y-16855127D01*
X12743991Y-16855127D02*
X12734467Y-16883698D01*
X12734467Y-16883698D02*
X12620182Y-16997984D01*
X12620182Y-16997984D02*
X12743991Y-16997984D01*
X12924944Y-16797984D02*
X12829706Y-16797984D01*
X12829706Y-16797984D02*
X12820182Y-16893222D01*
X12820182Y-16893222D02*
X12829706Y-16883698D01*
X12829706Y-16883698D02*
X12848753Y-16874174D01*
X12848753Y-16874174D02*
X12896372Y-16874174D01*
X12896372Y-16874174D02*
X12915420Y-16883698D01*
X12915420Y-16883698D02*
X12924944Y-16893222D01*
X12924944Y-16893222D02*
X12934467Y-16912270D01*
X12934467Y-16912270D02*
X12934467Y-16959889D01*
X12934467Y-16959889D02*
X12924944Y-16978936D01*
X12924944Y-16978936D02*
X12915420Y-16988460D01*
X12915420Y-16988460D02*
X12896372Y-16997984D01*
X12896372Y-16997984D02*
X12848753Y-16997984D01*
X12848753Y-16997984D02*
X12829706Y-16988460D01*
X12829706Y-16988460D02*
X12820182Y-16978936D01*
X13105896Y-16797984D02*
X13067801Y-16797984D01*
X13067801Y-16797984D02*
X13048753Y-16807508D01*
X13048753Y-16807508D02*
X13039229Y-16817031D01*
X13039229Y-16817031D02*
X13020182Y-16845603D01*
X13020182Y-16845603D02*
X13010658Y-16883698D01*
X13010658Y-16883698D02*
X13010658Y-16959889D01*
X13010658Y-16959889D02*
X13020182Y-16978936D01*
X13020182Y-16978936D02*
X13029706Y-16988460D01*
X13029706Y-16988460D02*
X13048753Y-16997984D01*
X13048753Y-16997984D02*
X13086848Y-16997984D01*
X13086848Y-16997984D02*
X13105896Y-16988460D01*
X13105896Y-16988460D02*
X13115420Y-16978936D01*
X13115420Y-16978936D02*
X13124944Y-16959889D01*
X13124944Y-16959889D02*
X13124944Y-16912270D01*
X13124944Y-16912270D02*
X13115420Y-16893222D01*
X13115420Y-16893222D02*
X13105896Y-16883698D01*
X13105896Y-16883698D02*
X13086848Y-16874174D01*
X13086848Y-16874174D02*
X13048753Y-16874174D01*
X13048753Y-16874174D02*
X13029706Y-16883698D01*
X13029706Y-16883698D02*
X13020182Y-16893222D01*
X13020182Y-16893222D02*
X13010658Y-16912270D01*
X13201134Y-16797984D02*
X13201134Y-16836079D01*
X13277325Y-16797984D02*
X13277325Y-16836079D01*
X13572563Y-17074174D02*
X13563039Y-17064650D01*
X13563039Y-17064650D02*
X13543991Y-17036079D01*
X13543991Y-17036079D02*
X13534468Y-17017031D01*
X13534468Y-17017031D02*
X13524944Y-16988460D01*
X13524944Y-16988460D02*
X13515420Y-16940841D01*
X13515420Y-16940841D02*
X13515420Y-16902746D01*
X13515420Y-16902746D02*
X13524944Y-16855127D01*
X13524944Y-16855127D02*
X13534468Y-16826555D01*
X13534468Y-16826555D02*
X13543991Y-16807508D01*
X13543991Y-16807508D02*
X13563039Y-16778936D01*
X13563039Y-16778936D02*
X13572563Y-16769412D01*
X13686848Y-16797984D02*
X13705896Y-16797984D01*
X13705896Y-16797984D02*
X13724944Y-16807508D01*
X13724944Y-16807508D02*
X13734468Y-16817031D01*
X13734468Y-16817031D02*
X13743991Y-16836079D01*
X13743991Y-16836079D02*
X13753515Y-16874174D01*
X13753515Y-16874174D02*
X13753515Y-16921793D01*
X13753515Y-16921793D02*
X13743991Y-16959889D01*
X13743991Y-16959889D02*
X13734468Y-16978936D01*
X13734468Y-16978936D02*
X13724944Y-16988460D01*
X13724944Y-16988460D02*
X13705896Y-16997984D01*
X13705896Y-16997984D02*
X13686848Y-16997984D01*
X13686848Y-16997984D02*
X13667801Y-16988460D01*
X13667801Y-16988460D02*
X13658277Y-16978936D01*
X13658277Y-16978936D02*
X13648753Y-16959889D01*
X13648753Y-16959889D02*
X13639229Y-16921793D01*
X13639229Y-16921793D02*
X13639229Y-16874174D01*
X13639229Y-16874174D02*
X13648753Y-16836079D01*
X13648753Y-16836079D02*
X13658277Y-16817031D01*
X13658277Y-16817031D02*
X13667801Y-16807508D01*
X13667801Y-16807508D02*
X13686848Y-16797984D01*
X13991610Y-16997984D02*
X13991610Y-16797984D01*
X14077325Y-16997984D02*
X14077325Y-16893222D01*
X14077325Y-16893222D02*
X14067801Y-16874174D01*
X14067801Y-16874174D02*
X14048753Y-16864650D01*
X14048753Y-16864650D02*
X14020182Y-16864650D01*
X14020182Y-16864650D02*
X14001134Y-16874174D01*
X14001134Y-16874174D02*
X13991610Y-16883698D01*
X14201134Y-16997984D02*
X14182087Y-16988460D01*
X14182087Y-16988460D02*
X14172563Y-16978936D01*
X14172563Y-16978936D02*
X14163039Y-16959889D01*
X14163039Y-16959889D02*
X14163039Y-16902746D01*
X14163039Y-16902746D02*
X14172563Y-16883698D01*
X14172563Y-16883698D02*
X14182087Y-16874174D01*
X14182087Y-16874174D02*
X14201134Y-16864650D01*
X14201134Y-16864650D02*
X14229706Y-16864650D01*
X14229706Y-16864650D02*
X14248753Y-16874174D01*
X14248753Y-16874174D02*
X14258277Y-16883698D01*
X14258277Y-16883698D02*
X14267801Y-16902746D01*
X14267801Y-16902746D02*
X14267801Y-16959889D01*
X14267801Y-16959889D02*
X14258277Y-16978936D01*
X14258277Y-16978936D02*
X14248753Y-16988460D01*
X14248753Y-16988460D02*
X14229706Y-16997984D01*
X14229706Y-16997984D02*
X14201134Y-16997984D01*
X14382087Y-16997984D02*
X14363039Y-16988460D01*
X14363039Y-16988460D02*
X14353515Y-16969412D01*
X14353515Y-16969412D02*
X14353515Y-16797984D01*
X14534468Y-16988460D02*
X14515420Y-16997984D01*
X14515420Y-16997984D02*
X14477325Y-16997984D01*
X14477325Y-16997984D02*
X14458277Y-16988460D01*
X14458277Y-16988460D02*
X14448753Y-16969412D01*
X14448753Y-16969412D02*
X14448753Y-16893222D01*
X14448753Y-16893222D02*
X14458277Y-16874174D01*
X14458277Y-16874174D02*
X14477325Y-16864650D01*
X14477325Y-16864650D02*
X14515420Y-16864650D01*
X14515420Y-16864650D02*
X14534468Y-16874174D01*
X14534468Y-16874174D02*
X14543991Y-16893222D01*
X14543991Y-16893222D02*
X14543991Y-16912270D01*
X14543991Y-16912270D02*
X14448753Y-16931317D01*
X14620182Y-16988460D02*
X14639230Y-16997984D01*
X14639230Y-16997984D02*
X14677325Y-16997984D01*
X14677325Y-16997984D02*
X14696372Y-16988460D01*
X14696372Y-16988460D02*
X14705896Y-16969412D01*
X14705896Y-16969412D02*
X14705896Y-16959889D01*
X14705896Y-16959889D02*
X14696372Y-16940841D01*
X14696372Y-16940841D02*
X14677325Y-16931317D01*
X14677325Y-16931317D02*
X14648753Y-16931317D01*
X14648753Y-16931317D02*
X14629706Y-16921793D01*
X14629706Y-16921793D02*
X14620182Y-16902746D01*
X14620182Y-16902746D02*
X14620182Y-16893222D01*
X14620182Y-16893222D02*
X14629706Y-16874174D01*
X14629706Y-16874174D02*
X14648753Y-16864650D01*
X14648753Y-16864650D02*
X14677325Y-16864650D01*
X14677325Y-16864650D02*
X14696372Y-16874174D01*
X14943992Y-16921793D02*
X15096373Y-16921793D01*
X15020182Y-16997984D02*
X15020182Y-16845603D01*
X15429706Y-16864650D02*
X15429706Y-16997984D01*
X15382087Y-16788460D02*
X15334468Y-16931317D01*
X15334468Y-16931317D02*
X15458277Y-16931317D01*
X15677325Y-16988460D02*
X15696373Y-16997984D01*
X15696373Y-16997984D02*
X15734468Y-16997984D01*
X15734468Y-16997984D02*
X15753515Y-16988460D01*
X15753515Y-16988460D02*
X15763039Y-16969412D01*
X15763039Y-16969412D02*
X15763039Y-16959889D01*
X15763039Y-16959889D02*
X15753515Y-16940841D01*
X15753515Y-16940841D02*
X15734468Y-16931317D01*
X15734468Y-16931317D02*
X15705896Y-16931317D01*
X15705896Y-16931317D02*
X15686849Y-16921793D01*
X15686849Y-16921793D02*
X15677325Y-16902746D01*
X15677325Y-16902746D02*
X15677325Y-16893222D01*
X15677325Y-16893222D02*
X15686849Y-16874174D01*
X15686849Y-16874174D02*
X15705896Y-16864650D01*
X15705896Y-16864650D02*
X15734468Y-16864650D01*
X15734468Y-16864650D02*
X15753515Y-16874174D01*
X15877325Y-16997984D02*
X15858277Y-16988460D01*
X15858277Y-16988460D02*
X15848754Y-16969412D01*
X15848754Y-16969412D02*
X15848754Y-16797984D01*
X15982087Y-16997984D02*
X15963039Y-16988460D01*
X15963039Y-16988460D02*
X15953515Y-16978936D01*
X15953515Y-16978936D02*
X15943992Y-16959889D01*
X15943992Y-16959889D02*
X15943992Y-16902746D01*
X15943992Y-16902746D02*
X15953515Y-16883698D01*
X15953515Y-16883698D02*
X15963039Y-16874174D01*
X15963039Y-16874174D02*
X15982087Y-16864650D01*
X15982087Y-16864650D02*
X16010658Y-16864650D01*
X16010658Y-16864650D02*
X16029706Y-16874174D01*
X16029706Y-16874174D02*
X16039230Y-16883698D01*
X16039230Y-16883698D02*
X16048754Y-16902746D01*
X16048754Y-16902746D02*
X16048754Y-16959889D01*
X16048754Y-16959889D02*
X16039230Y-16978936D01*
X16039230Y-16978936D02*
X16029706Y-16988460D01*
X16029706Y-16988460D02*
X16010658Y-16997984D01*
X16010658Y-16997984D02*
X15982087Y-16997984D01*
X16105896Y-16864650D02*
X16182087Y-16864650D01*
X16134468Y-16797984D02*
X16134468Y-16969412D01*
X16134468Y-16969412D02*
X16143992Y-16988460D01*
X16143992Y-16988460D02*
X16163039Y-16997984D01*
X16163039Y-16997984D02*
X16182087Y-16997984D01*
X16239230Y-16988460D02*
X16258277Y-16997984D01*
X16258277Y-16997984D02*
X16296373Y-16997984D01*
X16296373Y-16997984D02*
X16315420Y-16988460D01*
X16315420Y-16988460D02*
X16324944Y-16969412D01*
X16324944Y-16969412D02*
X16324944Y-16959889D01*
X16324944Y-16959889D02*
X16315420Y-16940841D01*
X16315420Y-16940841D02*
X16296373Y-16931317D01*
X16296373Y-16931317D02*
X16267801Y-16931317D01*
X16267801Y-16931317D02*
X16248754Y-16921793D01*
X16248754Y-16921793D02*
X16239230Y-16902746D01*
X16239230Y-16902746D02*
X16239230Y-16893222D01*
X16239230Y-16893222D02*
X16248754Y-16874174D01*
X16248754Y-16874174D02*
X16267801Y-16864650D01*
X16267801Y-16864650D02*
X16296373Y-16864650D01*
X16296373Y-16864650D02*
X16315420Y-16874174D01*
X16391611Y-17074174D02*
X16401135Y-17064650D01*
X16401135Y-17064650D02*
X16420182Y-17036079D01*
X16420182Y-17036079D02*
X16429706Y-17017031D01*
X16429706Y-17017031D02*
X16439230Y-16988460D01*
X16439230Y-16988460D02*
X16448754Y-16940841D01*
X16448754Y-16940841D02*
X16448754Y-16902746D01*
X16448754Y-16902746D02*
X16439230Y-16855127D01*
X16439230Y-16855127D02*
X16429706Y-16826555D01*
X16429706Y-16826555D02*
X16420182Y-16807508D01*
X16420182Y-16807508D02*
X16401135Y-16778936D01*
X16401135Y-16778936D02*
X16391611Y-16769412D01*
D12*
X9962500Y-17135500D02*
X9962500Y-17205500D01*
X9927500Y-17170500D02*
X9997500Y-17170500D01*
D11*
X10296372Y-17061984D02*
X10315420Y-17061984D01*
X10315420Y-17061984D02*
X10334467Y-17071508D01*
X10334467Y-17071508D02*
X10343991Y-17081031D01*
X10343991Y-17081031D02*
X10353515Y-17100079D01*
X10353515Y-17100079D02*
X10363039Y-17138174D01*
X10363039Y-17138174D02*
X10363039Y-17185793D01*
X10363039Y-17185793D02*
X10353515Y-17223889D01*
X10353515Y-17223889D02*
X10343991Y-17242936D01*
X10343991Y-17242936D02*
X10334467Y-17252460D01*
X10334467Y-17252460D02*
X10315420Y-17261984D01*
X10315420Y-17261984D02*
X10296372Y-17261984D01*
X10296372Y-17261984D02*
X10277324Y-17252460D01*
X10277324Y-17252460D02*
X10267801Y-17242936D01*
X10267801Y-17242936D02*
X10258277Y-17223889D01*
X10258277Y-17223889D02*
X10248753Y-17185793D01*
X10248753Y-17185793D02*
X10248753Y-17138174D01*
X10248753Y-17138174D02*
X10258277Y-17100079D01*
X10258277Y-17100079D02*
X10267801Y-17081031D01*
X10267801Y-17081031D02*
X10277324Y-17071508D01*
X10277324Y-17071508D02*
X10296372Y-17061984D01*
X10448753Y-17242936D02*
X10458277Y-17252460D01*
X10458277Y-17252460D02*
X10448753Y-17261984D01*
X10448753Y-17261984D02*
X10439229Y-17252460D01*
X10439229Y-17252460D02*
X10448753Y-17242936D01*
X10448753Y-17242936D02*
X10448753Y-17261984D01*
X10524944Y-17061984D02*
X10658277Y-17061984D01*
X10658277Y-17061984D02*
X10572563Y-17261984D01*
X10772563Y-17061984D02*
X10791610Y-17061984D01*
X10791610Y-17061984D02*
X10810658Y-17071508D01*
X10810658Y-17071508D02*
X10820182Y-17081031D01*
X10820182Y-17081031D02*
X10829705Y-17100079D01*
X10829705Y-17100079D02*
X10839229Y-17138174D01*
X10839229Y-17138174D02*
X10839229Y-17185793D01*
X10839229Y-17185793D02*
X10829705Y-17223889D01*
X10829705Y-17223889D02*
X10820182Y-17242936D01*
X10820182Y-17242936D02*
X10810658Y-17252460D01*
X10810658Y-17252460D02*
X10791610Y-17261984D01*
X10791610Y-17261984D02*
X10772563Y-17261984D01*
X10772563Y-17261984D02*
X10753515Y-17252460D01*
X10753515Y-17252460D02*
X10743991Y-17242936D01*
X10743991Y-17242936D02*
X10734467Y-17223889D01*
X10734467Y-17223889D02*
X10724944Y-17185793D01*
X10724944Y-17185793D02*
X10724944Y-17138174D01*
X10724944Y-17138174D02*
X10734467Y-17100079D01*
X10734467Y-17100079D02*
X10743991Y-17081031D01*
X10743991Y-17081031D02*
X10753515Y-17071508D01*
X10753515Y-17071508D02*
X10772563Y-17061984D01*
X10963039Y-17061984D02*
X10982086Y-17061984D01*
X10982086Y-17061984D02*
X11001134Y-17071508D01*
X11001134Y-17071508D02*
X11010658Y-17081031D01*
X11010658Y-17081031D02*
X11020182Y-17100079D01*
X11020182Y-17100079D02*
X11029705Y-17138174D01*
X11029705Y-17138174D02*
X11029705Y-17185793D01*
X11029705Y-17185793D02*
X11020182Y-17223889D01*
X11020182Y-17223889D02*
X11010658Y-17242936D01*
X11010658Y-17242936D02*
X11001134Y-17252460D01*
X11001134Y-17252460D02*
X10982086Y-17261984D01*
X10982086Y-17261984D02*
X10963039Y-17261984D01*
X10963039Y-17261984D02*
X10943991Y-17252460D01*
X10943991Y-17252460D02*
X10934467Y-17242936D01*
X10934467Y-17242936D02*
X10924944Y-17223889D01*
X10924944Y-17223889D02*
X10915420Y-17185793D01*
X10915420Y-17185793D02*
X10915420Y-17138174D01*
X10915420Y-17138174D02*
X10924944Y-17100079D01*
X10924944Y-17100079D02*
X10934467Y-17081031D01*
X10934467Y-17081031D02*
X10943991Y-17071508D01*
X10943991Y-17071508D02*
X10963039Y-17061984D01*
X11115420Y-17261984D02*
X11115420Y-17128650D01*
X11115420Y-17147698D02*
X11124944Y-17138174D01*
X11124944Y-17138174D02*
X11143991Y-17128650D01*
X11143991Y-17128650D02*
X11172563Y-17128650D01*
X11172563Y-17128650D02*
X11191610Y-17138174D01*
X11191610Y-17138174D02*
X11201134Y-17157222D01*
X11201134Y-17157222D02*
X11201134Y-17261984D01*
X11201134Y-17157222D02*
X11210658Y-17138174D01*
X11210658Y-17138174D02*
X11229705Y-17128650D01*
X11229705Y-17128650D02*
X11258277Y-17128650D01*
X11258277Y-17128650D02*
X11277324Y-17138174D01*
X11277324Y-17138174D02*
X11286848Y-17157222D01*
X11286848Y-17157222D02*
X11286848Y-17261984D01*
X11382086Y-17261984D02*
X11382086Y-17128650D01*
X11382086Y-17147698D02*
X11391610Y-17138174D01*
X11391610Y-17138174D02*
X11410658Y-17128650D01*
X11410658Y-17128650D02*
X11439229Y-17128650D01*
X11439229Y-17128650D02*
X11458277Y-17138174D01*
X11458277Y-17138174D02*
X11467801Y-17157222D01*
X11467801Y-17157222D02*
X11467801Y-17261984D01*
X11467801Y-17157222D02*
X11477324Y-17138174D01*
X11477324Y-17138174D02*
X11496372Y-17128650D01*
X11496372Y-17128650D02*
X11524943Y-17128650D01*
X11524943Y-17128650D02*
X11543991Y-17138174D01*
X11543991Y-17138174D02*
X11553515Y-17157222D01*
X11553515Y-17157222D02*
X11553515Y-17261984D01*
X11943991Y-17052460D02*
X11772563Y-17309603D01*
X12201134Y-17061984D02*
X12220182Y-17061984D01*
X12220182Y-17061984D02*
X12239229Y-17071508D01*
X12239229Y-17071508D02*
X12248753Y-17081031D01*
X12248753Y-17081031D02*
X12258277Y-17100079D01*
X12258277Y-17100079D02*
X12267801Y-17138174D01*
X12267801Y-17138174D02*
X12267801Y-17185793D01*
X12267801Y-17185793D02*
X12258277Y-17223889D01*
X12258277Y-17223889D02*
X12248753Y-17242936D01*
X12248753Y-17242936D02*
X12239229Y-17252460D01*
X12239229Y-17252460D02*
X12220182Y-17261984D01*
X12220182Y-17261984D02*
X12201134Y-17261984D01*
X12201134Y-17261984D02*
X12182086Y-17252460D01*
X12182086Y-17252460D02*
X12172563Y-17242936D01*
X12172563Y-17242936D02*
X12163039Y-17223889D01*
X12163039Y-17223889D02*
X12153515Y-17185793D01*
X12153515Y-17185793D02*
X12153515Y-17138174D01*
X12153515Y-17138174D02*
X12163039Y-17100079D01*
X12163039Y-17100079D02*
X12172563Y-17081031D01*
X12172563Y-17081031D02*
X12182086Y-17071508D01*
X12182086Y-17071508D02*
X12201134Y-17061984D01*
X12353515Y-17242936D02*
X12363039Y-17252460D01*
X12363039Y-17252460D02*
X12353515Y-17261984D01*
X12353515Y-17261984D02*
X12343991Y-17252460D01*
X12343991Y-17252460D02*
X12353515Y-17242936D01*
X12353515Y-17242936D02*
X12353515Y-17261984D01*
X12486848Y-17061984D02*
X12505896Y-17061984D01*
X12505896Y-17061984D02*
X12524944Y-17071508D01*
X12524944Y-17071508D02*
X12534467Y-17081031D01*
X12534467Y-17081031D02*
X12543991Y-17100079D01*
X12543991Y-17100079D02*
X12553515Y-17138174D01*
X12553515Y-17138174D02*
X12553515Y-17185793D01*
X12553515Y-17185793D02*
X12543991Y-17223889D01*
X12543991Y-17223889D02*
X12534467Y-17242936D01*
X12534467Y-17242936D02*
X12524944Y-17252460D01*
X12524944Y-17252460D02*
X12505896Y-17261984D01*
X12505896Y-17261984D02*
X12486848Y-17261984D01*
X12486848Y-17261984D02*
X12467801Y-17252460D01*
X12467801Y-17252460D02*
X12458277Y-17242936D01*
X12458277Y-17242936D02*
X12448753Y-17223889D01*
X12448753Y-17223889D02*
X12439229Y-17185793D01*
X12439229Y-17185793D02*
X12439229Y-17138174D01*
X12439229Y-17138174D02*
X12448753Y-17100079D01*
X12448753Y-17100079D02*
X12458277Y-17081031D01*
X12458277Y-17081031D02*
X12467801Y-17071508D01*
X12467801Y-17071508D02*
X12486848Y-17061984D01*
X12629706Y-17081031D02*
X12639229Y-17071508D01*
X12639229Y-17071508D02*
X12658277Y-17061984D01*
X12658277Y-17061984D02*
X12705896Y-17061984D01*
X12705896Y-17061984D02*
X12724944Y-17071508D01*
X12724944Y-17071508D02*
X12734467Y-17081031D01*
X12734467Y-17081031D02*
X12743991Y-17100079D01*
X12743991Y-17100079D02*
X12743991Y-17119127D01*
X12743991Y-17119127D02*
X12734467Y-17147698D01*
X12734467Y-17147698D02*
X12620182Y-17261984D01*
X12620182Y-17261984D02*
X12743991Y-17261984D01*
X12810658Y-17061984D02*
X12943991Y-17061984D01*
X12943991Y-17061984D02*
X12858277Y-17261984D01*
X13105896Y-17061984D02*
X13067801Y-17061984D01*
X13067801Y-17061984D02*
X13048753Y-17071508D01*
X13048753Y-17071508D02*
X13039229Y-17081031D01*
X13039229Y-17081031D02*
X13020182Y-17109603D01*
X13020182Y-17109603D02*
X13010658Y-17147698D01*
X13010658Y-17147698D02*
X13010658Y-17223889D01*
X13010658Y-17223889D02*
X13020182Y-17242936D01*
X13020182Y-17242936D02*
X13029706Y-17252460D01*
X13029706Y-17252460D02*
X13048753Y-17261984D01*
X13048753Y-17261984D02*
X13086848Y-17261984D01*
X13086848Y-17261984D02*
X13105896Y-17252460D01*
X13105896Y-17252460D02*
X13115420Y-17242936D01*
X13115420Y-17242936D02*
X13124944Y-17223889D01*
X13124944Y-17223889D02*
X13124944Y-17176270D01*
X13124944Y-17176270D02*
X13115420Y-17157222D01*
X13115420Y-17157222D02*
X13105896Y-17147698D01*
X13105896Y-17147698D02*
X13086848Y-17138174D01*
X13086848Y-17138174D02*
X13048753Y-17138174D01*
X13048753Y-17138174D02*
X13029706Y-17147698D01*
X13029706Y-17147698D02*
X13020182Y-17157222D01*
X13020182Y-17157222D02*
X13010658Y-17176270D01*
X13201134Y-17061984D02*
X13201134Y-17100079D01*
X13277325Y-17061984D02*
X13277325Y-17100079D01*
X13572563Y-17338174D02*
X13563039Y-17328650D01*
X13563039Y-17328650D02*
X13543991Y-17300079D01*
X13543991Y-17300079D02*
X13534468Y-17281031D01*
X13534468Y-17281031D02*
X13524944Y-17252460D01*
X13524944Y-17252460D02*
X13515420Y-17204841D01*
X13515420Y-17204841D02*
X13515420Y-17166746D01*
X13515420Y-17166746D02*
X13524944Y-17119127D01*
X13524944Y-17119127D02*
X13534468Y-17090555D01*
X13534468Y-17090555D02*
X13543991Y-17071508D01*
X13543991Y-17071508D02*
X13563039Y-17042936D01*
X13563039Y-17042936D02*
X13572563Y-17033412D01*
X13639229Y-17081031D02*
X13648753Y-17071508D01*
X13648753Y-17071508D02*
X13667801Y-17061984D01*
X13667801Y-17061984D02*
X13715420Y-17061984D01*
X13715420Y-17061984D02*
X13734468Y-17071508D01*
X13734468Y-17071508D02*
X13743991Y-17081031D01*
X13743991Y-17081031D02*
X13753515Y-17100079D01*
X13753515Y-17100079D02*
X13753515Y-17119127D01*
X13753515Y-17119127D02*
X13743991Y-17147698D01*
X13743991Y-17147698D02*
X13629706Y-17261984D01*
X13629706Y-17261984D02*
X13753515Y-17261984D01*
X13991610Y-17261984D02*
X13991610Y-17061984D01*
X14077325Y-17261984D02*
X14077325Y-17157222D01*
X14077325Y-17157222D02*
X14067801Y-17138174D01*
X14067801Y-17138174D02*
X14048753Y-17128650D01*
X14048753Y-17128650D02*
X14020182Y-17128650D01*
X14020182Y-17128650D02*
X14001134Y-17138174D01*
X14001134Y-17138174D02*
X13991610Y-17147698D01*
X14201134Y-17261984D02*
X14182087Y-17252460D01*
X14182087Y-17252460D02*
X14172563Y-17242936D01*
X14172563Y-17242936D02*
X14163039Y-17223889D01*
X14163039Y-17223889D02*
X14163039Y-17166746D01*
X14163039Y-17166746D02*
X14172563Y-17147698D01*
X14172563Y-17147698D02*
X14182087Y-17138174D01*
X14182087Y-17138174D02*
X14201134Y-17128650D01*
X14201134Y-17128650D02*
X14229706Y-17128650D01*
X14229706Y-17128650D02*
X14248753Y-17138174D01*
X14248753Y-17138174D02*
X14258277Y-17147698D01*
X14258277Y-17147698D02*
X14267801Y-17166746D01*
X14267801Y-17166746D02*
X14267801Y-17223889D01*
X14267801Y-17223889D02*
X14258277Y-17242936D01*
X14258277Y-17242936D02*
X14248753Y-17252460D01*
X14248753Y-17252460D02*
X14229706Y-17261984D01*
X14229706Y-17261984D02*
X14201134Y-17261984D01*
X14382087Y-17261984D02*
X14363039Y-17252460D01*
X14363039Y-17252460D02*
X14353515Y-17233412D01*
X14353515Y-17233412D02*
X14353515Y-17061984D01*
X14534468Y-17252460D02*
X14515420Y-17261984D01*
X14515420Y-17261984D02*
X14477325Y-17261984D01*
X14477325Y-17261984D02*
X14458277Y-17252460D01*
X14458277Y-17252460D02*
X14448753Y-17233412D01*
X14448753Y-17233412D02*
X14448753Y-17157222D01*
X14448753Y-17157222D02*
X14458277Y-17138174D01*
X14458277Y-17138174D02*
X14477325Y-17128650D01*
X14477325Y-17128650D02*
X14515420Y-17128650D01*
X14515420Y-17128650D02*
X14534468Y-17138174D01*
X14534468Y-17138174D02*
X14543991Y-17157222D01*
X14543991Y-17157222D02*
X14543991Y-17176270D01*
X14543991Y-17176270D02*
X14448753Y-17195317D01*
X14620182Y-17252460D02*
X14639230Y-17261984D01*
X14639230Y-17261984D02*
X14677325Y-17261984D01*
X14677325Y-17261984D02*
X14696372Y-17252460D01*
X14696372Y-17252460D02*
X14705896Y-17233412D01*
X14705896Y-17233412D02*
X14705896Y-17223889D01*
X14705896Y-17223889D02*
X14696372Y-17204841D01*
X14696372Y-17204841D02*
X14677325Y-17195317D01*
X14677325Y-17195317D02*
X14648753Y-17195317D01*
X14648753Y-17195317D02*
X14629706Y-17185793D01*
X14629706Y-17185793D02*
X14620182Y-17166746D01*
X14620182Y-17166746D02*
X14620182Y-17157222D01*
X14620182Y-17157222D02*
X14629706Y-17138174D01*
X14629706Y-17138174D02*
X14648753Y-17128650D01*
X14648753Y-17128650D02*
X14677325Y-17128650D01*
X14677325Y-17128650D02*
X14696372Y-17138174D01*
X14772563Y-17338174D02*
X14782087Y-17328650D01*
X14782087Y-17328650D02*
X14801134Y-17300079D01*
X14801134Y-17300079D02*
X14810658Y-17281031D01*
X14810658Y-17281031D02*
X14820182Y-17252460D01*
X14820182Y-17252460D02*
X14829706Y-17204841D01*
X14829706Y-17204841D02*
X14829706Y-17166746D01*
X14829706Y-17166746D02*
X14820182Y-17119127D01*
X14820182Y-17119127D02*
X14810658Y-17090555D01*
X14810658Y-17090555D02*
X14801134Y-17071508D01*
X14801134Y-17071508D02*
X14782087Y-17042936D01*
X14782087Y-17042936D02*
X14772563Y-17033412D01*
D12*
X9983588Y-17468088D02*
X9983588Y-17400912D01*
X9916412Y-17400912D01*
X9916412Y-17468088D01*
X9983588Y-17468088D01*
D11*
X10296372Y-17325984D02*
X10315420Y-17325984D01*
X10315420Y-17325984D02*
X10334467Y-17335508D01*
X10334467Y-17335508D02*
X10343991Y-17345031D01*
X10343991Y-17345031D02*
X10353515Y-17364079D01*
X10353515Y-17364079D02*
X10363039Y-17402174D01*
X10363039Y-17402174D02*
X10363039Y-17449793D01*
X10363039Y-17449793D02*
X10353515Y-17487889D01*
X10353515Y-17487889D02*
X10343991Y-17506936D01*
X10343991Y-17506936D02*
X10334467Y-17516460D01*
X10334467Y-17516460D02*
X10315420Y-17525984D01*
X10315420Y-17525984D02*
X10296372Y-17525984D01*
X10296372Y-17525984D02*
X10277324Y-17516460D01*
X10277324Y-17516460D02*
X10267801Y-17506936D01*
X10267801Y-17506936D02*
X10258277Y-17487889D01*
X10258277Y-17487889D02*
X10248753Y-17449793D01*
X10248753Y-17449793D02*
X10248753Y-17402174D01*
X10248753Y-17402174D02*
X10258277Y-17364079D01*
X10258277Y-17364079D02*
X10267801Y-17345031D01*
X10267801Y-17345031D02*
X10277324Y-17335508D01*
X10277324Y-17335508D02*
X10296372Y-17325984D01*
X10448753Y-17506936D02*
X10458277Y-17516460D01*
X10458277Y-17516460D02*
X10448753Y-17525984D01*
X10448753Y-17525984D02*
X10439229Y-17516460D01*
X10439229Y-17516460D02*
X10448753Y-17506936D01*
X10448753Y-17506936D02*
X10448753Y-17525984D01*
X10553515Y-17525984D02*
X10591610Y-17525984D01*
X10591610Y-17525984D02*
X10610658Y-17516460D01*
X10610658Y-17516460D02*
X10620182Y-17506936D01*
X10620182Y-17506936D02*
X10639229Y-17478365D01*
X10639229Y-17478365D02*
X10648753Y-17440270D01*
X10648753Y-17440270D02*
X10648753Y-17364079D01*
X10648753Y-17364079D02*
X10639229Y-17345031D01*
X10639229Y-17345031D02*
X10629705Y-17335508D01*
X10629705Y-17335508D02*
X10610658Y-17325984D01*
X10610658Y-17325984D02*
X10572563Y-17325984D01*
X10572563Y-17325984D02*
X10553515Y-17335508D01*
X10553515Y-17335508D02*
X10543991Y-17345031D01*
X10543991Y-17345031D02*
X10534467Y-17364079D01*
X10534467Y-17364079D02*
X10534467Y-17411698D01*
X10534467Y-17411698D02*
X10543991Y-17430746D01*
X10543991Y-17430746D02*
X10553515Y-17440270D01*
X10553515Y-17440270D02*
X10572563Y-17449793D01*
X10572563Y-17449793D02*
X10610658Y-17449793D01*
X10610658Y-17449793D02*
X10629705Y-17440270D01*
X10629705Y-17440270D02*
X10639229Y-17430746D01*
X10639229Y-17430746D02*
X10648753Y-17411698D01*
X10829705Y-17325984D02*
X10734467Y-17325984D01*
X10734467Y-17325984D02*
X10724944Y-17421222D01*
X10724944Y-17421222D02*
X10734467Y-17411698D01*
X10734467Y-17411698D02*
X10753515Y-17402174D01*
X10753515Y-17402174D02*
X10801134Y-17402174D01*
X10801134Y-17402174D02*
X10820182Y-17411698D01*
X10820182Y-17411698D02*
X10829705Y-17421222D01*
X10829705Y-17421222D02*
X10839229Y-17440270D01*
X10839229Y-17440270D02*
X10839229Y-17487889D01*
X10839229Y-17487889D02*
X10829705Y-17506936D01*
X10829705Y-17506936D02*
X10820182Y-17516460D01*
X10820182Y-17516460D02*
X10801134Y-17525984D01*
X10801134Y-17525984D02*
X10753515Y-17525984D01*
X10753515Y-17525984D02*
X10734467Y-17516460D01*
X10734467Y-17516460D02*
X10724944Y-17506936D01*
X10963039Y-17325984D02*
X10982086Y-17325984D01*
X10982086Y-17325984D02*
X11001134Y-17335508D01*
X11001134Y-17335508D02*
X11010658Y-17345031D01*
X11010658Y-17345031D02*
X11020182Y-17364079D01*
X11020182Y-17364079D02*
X11029705Y-17402174D01*
X11029705Y-17402174D02*
X11029705Y-17449793D01*
X11029705Y-17449793D02*
X11020182Y-17487889D01*
X11020182Y-17487889D02*
X11010658Y-17506936D01*
X11010658Y-17506936D02*
X11001134Y-17516460D01*
X11001134Y-17516460D02*
X10982086Y-17525984D01*
X10982086Y-17525984D02*
X10963039Y-17525984D01*
X10963039Y-17525984D02*
X10943991Y-17516460D01*
X10943991Y-17516460D02*
X10934467Y-17506936D01*
X10934467Y-17506936D02*
X10924944Y-17487889D01*
X10924944Y-17487889D02*
X10915420Y-17449793D01*
X10915420Y-17449793D02*
X10915420Y-17402174D01*
X10915420Y-17402174D02*
X10924944Y-17364079D01*
X10924944Y-17364079D02*
X10934467Y-17345031D01*
X10934467Y-17345031D02*
X10943991Y-17335508D01*
X10943991Y-17335508D02*
X10963039Y-17325984D01*
X11115420Y-17525984D02*
X11115420Y-17392650D01*
X11115420Y-17411698D02*
X11124944Y-17402174D01*
X11124944Y-17402174D02*
X11143991Y-17392650D01*
X11143991Y-17392650D02*
X11172563Y-17392650D01*
X11172563Y-17392650D02*
X11191610Y-17402174D01*
X11191610Y-17402174D02*
X11201134Y-17421222D01*
X11201134Y-17421222D02*
X11201134Y-17525984D01*
X11201134Y-17421222D02*
X11210658Y-17402174D01*
X11210658Y-17402174D02*
X11229705Y-17392650D01*
X11229705Y-17392650D02*
X11258277Y-17392650D01*
X11258277Y-17392650D02*
X11277324Y-17402174D01*
X11277324Y-17402174D02*
X11286848Y-17421222D01*
X11286848Y-17421222D02*
X11286848Y-17525984D01*
X11382086Y-17525984D02*
X11382086Y-17392650D01*
X11382086Y-17411698D02*
X11391610Y-17402174D01*
X11391610Y-17402174D02*
X11410658Y-17392650D01*
X11410658Y-17392650D02*
X11439229Y-17392650D01*
X11439229Y-17392650D02*
X11458277Y-17402174D01*
X11458277Y-17402174D02*
X11467801Y-17421222D01*
X11467801Y-17421222D02*
X11467801Y-17525984D01*
X11467801Y-17421222D02*
X11477324Y-17402174D01*
X11477324Y-17402174D02*
X11496372Y-17392650D01*
X11496372Y-17392650D02*
X11524943Y-17392650D01*
X11524943Y-17392650D02*
X11543991Y-17402174D01*
X11543991Y-17402174D02*
X11553515Y-17421222D01*
X11553515Y-17421222D02*
X11553515Y-17525984D01*
X11943991Y-17316460D02*
X11772563Y-17573603D01*
X12201134Y-17325984D02*
X12220182Y-17325984D01*
X12220182Y-17325984D02*
X12239229Y-17335508D01*
X12239229Y-17335508D02*
X12248753Y-17345031D01*
X12248753Y-17345031D02*
X12258277Y-17364079D01*
X12258277Y-17364079D02*
X12267801Y-17402174D01*
X12267801Y-17402174D02*
X12267801Y-17449793D01*
X12267801Y-17449793D02*
X12258277Y-17487889D01*
X12258277Y-17487889D02*
X12248753Y-17506936D01*
X12248753Y-17506936D02*
X12239229Y-17516460D01*
X12239229Y-17516460D02*
X12220182Y-17525984D01*
X12220182Y-17525984D02*
X12201134Y-17525984D01*
X12201134Y-17525984D02*
X12182086Y-17516460D01*
X12182086Y-17516460D02*
X12172563Y-17506936D01*
X12172563Y-17506936D02*
X12163039Y-17487889D01*
X12163039Y-17487889D02*
X12153515Y-17449793D01*
X12153515Y-17449793D02*
X12153515Y-17402174D01*
X12153515Y-17402174D02*
X12163039Y-17364079D01*
X12163039Y-17364079D02*
X12172563Y-17345031D01*
X12172563Y-17345031D02*
X12182086Y-17335508D01*
X12182086Y-17335508D02*
X12201134Y-17325984D01*
X12353515Y-17506936D02*
X12363039Y-17516460D01*
X12363039Y-17516460D02*
X12353515Y-17525984D01*
X12353515Y-17525984D02*
X12343991Y-17516460D01*
X12343991Y-17516460D02*
X12353515Y-17506936D01*
X12353515Y-17506936D02*
X12353515Y-17525984D01*
X12486848Y-17325984D02*
X12505896Y-17325984D01*
X12505896Y-17325984D02*
X12524944Y-17335508D01*
X12524944Y-17335508D02*
X12534467Y-17345031D01*
X12534467Y-17345031D02*
X12543991Y-17364079D01*
X12543991Y-17364079D02*
X12553515Y-17402174D01*
X12553515Y-17402174D02*
X12553515Y-17449793D01*
X12553515Y-17449793D02*
X12543991Y-17487889D01*
X12543991Y-17487889D02*
X12534467Y-17506936D01*
X12534467Y-17506936D02*
X12524944Y-17516460D01*
X12524944Y-17516460D02*
X12505896Y-17525984D01*
X12505896Y-17525984D02*
X12486848Y-17525984D01*
X12486848Y-17525984D02*
X12467801Y-17516460D01*
X12467801Y-17516460D02*
X12458277Y-17506936D01*
X12458277Y-17506936D02*
X12448753Y-17487889D01*
X12448753Y-17487889D02*
X12439229Y-17449793D01*
X12439229Y-17449793D02*
X12439229Y-17402174D01*
X12439229Y-17402174D02*
X12448753Y-17364079D01*
X12448753Y-17364079D02*
X12458277Y-17345031D01*
X12458277Y-17345031D02*
X12467801Y-17335508D01*
X12467801Y-17335508D02*
X12486848Y-17325984D01*
X12620182Y-17325984D02*
X12743991Y-17325984D01*
X12743991Y-17325984D02*
X12677325Y-17402174D01*
X12677325Y-17402174D02*
X12705896Y-17402174D01*
X12705896Y-17402174D02*
X12724944Y-17411698D01*
X12724944Y-17411698D02*
X12734467Y-17421222D01*
X12734467Y-17421222D02*
X12743991Y-17440270D01*
X12743991Y-17440270D02*
X12743991Y-17487889D01*
X12743991Y-17487889D02*
X12734467Y-17506936D01*
X12734467Y-17506936D02*
X12724944Y-17516460D01*
X12724944Y-17516460D02*
X12705896Y-17525984D01*
X12705896Y-17525984D02*
X12648753Y-17525984D01*
X12648753Y-17525984D02*
X12629706Y-17516460D01*
X12629706Y-17516460D02*
X12620182Y-17506936D01*
X12810658Y-17325984D02*
X12943991Y-17325984D01*
X12943991Y-17325984D02*
X12858277Y-17525984D01*
X13105896Y-17392650D02*
X13105896Y-17525984D01*
X13058277Y-17316460D02*
X13010658Y-17459317D01*
X13010658Y-17459317D02*
X13134467Y-17459317D01*
X13201134Y-17325984D02*
X13201134Y-17364079D01*
X13277325Y-17325984D02*
X13277325Y-17364079D01*
X13572563Y-17602174D02*
X13563039Y-17592650D01*
X13563039Y-17592650D02*
X13543991Y-17564079D01*
X13543991Y-17564079D02*
X13534468Y-17545031D01*
X13534468Y-17545031D02*
X13524944Y-17516460D01*
X13524944Y-17516460D02*
X13515420Y-17468841D01*
X13515420Y-17468841D02*
X13515420Y-17430746D01*
X13515420Y-17430746D02*
X13524944Y-17383127D01*
X13524944Y-17383127D02*
X13534468Y-17354555D01*
X13534468Y-17354555D02*
X13543991Y-17335508D01*
X13543991Y-17335508D02*
X13563039Y-17306936D01*
X13563039Y-17306936D02*
X13572563Y-17297412D01*
X13734468Y-17392650D02*
X13734468Y-17525984D01*
X13686848Y-17316460D02*
X13639229Y-17459317D01*
X13639229Y-17459317D02*
X13763039Y-17459317D01*
X13991610Y-17525984D02*
X13991610Y-17325984D01*
X14077325Y-17525984D02*
X14077325Y-17421222D01*
X14077325Y-17421222D02*
X14067801Y-17402174D01*
X14067801Y-17402174D02*
X14048753Y-17392650D01*
X14048753Y-17392650D02*
X14020182Y-17392650D01*
X14020182Y-17392650D02*
X14001134Y-17402174D01*
X14001134Y-17402174D02*
X13991610Y-17411698D01*
X14201134Y-17525984D02*
X14182087Y-17516460D01*
X14182087Y-17516460D02*
X14172563Y-17506936D01*
X14172563Y-17506936D02*
X14163039Y-17487889D01*
X14163039Y-17487889D02*
X14163039Y-17430746D01*
X14163039Y-17430746D02*
X14172563Y-17411698D01*
X14172563Y-17411698D02*
X14182087Y-17402174D01*
X14182087Y-17402174D02*
X14201134Y-17392650D01*
X14201134Y-17392650D02*
X14229706Y-17392650D01*
X14229706Y-17392650D02*
X14248753Y-17402174D01*
X14248753Y-17402174D02*
X14258277Y-17411698D01*
X14258277Y-17411698D02*
X14267801Y-17430746D01*
X14267801Y-17430746D02*
X14267801Y-17487889D01*
X14267801Y-17487889D02*
X14258277Y-17506936D01*
X14258277Y-17506936D02*
X14248753Y-17516460D01*
X14248753Y-17516460D02*
X14229706Y-17525984D01*
X14229706Y-17525984D02*
X14201134Y-17525984D01*
X14382087Y-17525984D02*
X14363039Y-17516460D01*
X14363039Y-17516460D02*
X14353515Y-17497412D01*
X14353515Y-17497412D02*
X14353515Y-17325984D01*
X14534468Y-17516460D02*
X14515420Y-17525984D01*
X14515420Y-17525984D02*
X14477325Y-17525984D01*
X14477325Y-17525984D02*
X14458277Y-17516460D01*
X14458277Y-17516460D02*
X14448753Y-17497412D01*
X14448753Y-17497412D02*
X14448753Y-17421222D01*
X14448753Y-17421222D02*
X14458277Y-17402174D01*
X14458277Y-17402174D02*
X14477325Y-17392650D01*
X14477325Y-17392650D02*
X14515420Y-17392650D01*
X14515420Y-17392650D02*
X14534468Y-17402174D01*
X14534468Y-17402174D02*
X14543991Y-17421222D01*
X14543991Y-17421222D02*
X14543991Y-17440270D01*
X14543991Y-17440270D02*
X14448753Y-17459317D01*
X14620182Y-17516460D02*
X14639230Y-17525984D01*
X14639230Y-17525984D02*
X14677325Y-17525984D01*
X14677325Y-17525984D02*
X14696372Y-17516460D01*
X14696372Y-17516460D02*
X14705896Y-17497412D01*
X14705896Y-17497412D02*
X14705896Y-17487889D01*
X14705896Y-17487889D02*
X14696372Y-17468841D01*
X14696372Y-17468841D02*
X14677325Y-17459317D01*
X14677325Y-17459317D02*
X14648753Y-17459317D01*
X14648753Y-17459317D02*
X14629706Y-17449793D01*
X14629706Y-17449793D02*
X14620182Y-17430746D01*
X14620182Y-17430746D02*
X14620182Y-17421222D01*
X14620182Y-17421222D02*
X14629706Y-17402174D01*
X14629706Y-17402174D02*
X14648753Y-17392650D01*
X14648753Y-17392650D02*
X14677325Y-17392650D01*
X14677325Y-17392650D02*
X14696372Y-17402174D01*
X14772563Y-17602174D02*
X14782087Y-17592650D01*
X14782087Y-17592650D02*
X14801134Y-17564079D01*
X14801134Y-17564079D02*
X14810658Y-17545031D01*
X14810658Y-17545031D02*
X14820182Y-17516460D01*
X14820182Y-17516460D02*
X14829706Y-17468841D01*
X14829706Y-17468841D02*
X14829706Y-17430746D01*
X14829706Y-17430746D02*
X14820182Y-17383127D01*
X14820182Y-17383127D02*
X14810658Y-17354555D01*
X14810658Y-17354555D02*
X14801134Y-17335508D01*
X14801134Y-17335508D02*
X14782087Y-17306936D01*
X14782087Y-17306936D02*
X14772563Y-17297412D01*
D12*
X9947970Y-17748030D02*
X9997500Y-17698500D01*
X9947970Y-17648970D01*
X9898440Y-17698500D01*
X9947970Y-17748030D01*
D11*
X10296372Y-17589984D02*
X10315420Y-17589984D01*
X10315420Y-17589984D02*
X10334467Y-17599508D01*
X10334467Y-17599508D02*
X10343991Y-17609031D01*
X10343991Y-17609031D02*
X10353515Y-17628079D01*
X10353515Y-17628079D02*
X10363039Y-17666174D01*
X10363039Y-17666174D02*
X10363039Y-17713793D01*
X10363039Y-17713793D02*
X10353515Y-17751889D01*
X10353515Y-17751889D02*
X10343991Y-17770936D01*
X10343991Y-17770936D02*
X10334467Y-17780460D01*
X10334467Y-17780460D02*
X10315420Y-17789984D01*
X10315420Y-17789984D02*
X10296372Y-17789984D01*
X10296372Y-17789984D02*
X10277324Y-17780460D01*
X10277324Y-17780460D02*
X10267801Y-17770936D01*
X10267801Y-17770936D02*
X10258277Y-17751889D01*
X10258277Y-17751889D02*
X10248753Y-17713793D01*
X10248753Y-17713793D02*
X10248753Y-17666174D01*
X10248753Y-17666174D02*
X10258277Y-17628079D01*
X10258277Y-17628079D02*
X10267801Y-17609031D01*
X10267801Y-17609031D02*
X10277324Y-17599508D01*
X10277324Y-17599508D02*
X10296372Y-17589984D01*
X10448753Y-17770936D02*
X10458277Y-17780460D01*
X10458277Y-17780460D02*
X10448753Y-17789984D01*
X10448753Y-17789984D02*
X10439229Y-17780460D01*
X10439229Y-17780460D02*
X10448753Y-17770936D01*
X10448753Y-17770936D02*
X10448753Y-17789984D01*
X10553515Y-17789984D02*
X10591610Y-17789984D01*
X10591610Y-17789984D02*
X10610658Y-17780460D01*
X10610658Y-17780460D02*
X10620182Y-17770936D01*
X10620182Y-17770936D02*
X10639229Y-17742365D01*
X10639229Y-17742365D02*
X10648753Y-17704270D01*
X10648753Y-17704270D02*
X10648753Y-17628079D01*
X10648753Y-17628079D02*
X10639229Y-17609031D01*
X10639229Y-17609031D02*
X10629705Y-17599508D01*
X10629705Y-17599508D02*
X10610658Y-17589984D01*
X10610658Y-17589984D02*
X10572563Y-17589984D01*
X10572563Y-17589984D02*
X10553515Y-17599508D01*
X10553515Y-17599508D02*
X10543991Y-17609031D01*
X10543991Y-17609031D02*
X10534467Y-17628079D01*
X10534467Y-17628079D02*
X10534467Y-17675698D01*
X10534467Y-17675698D02*
X10543991Y-17694746D01*
X10543991Y-17694746D02*
X10553515Y-17704270D01*
X10553515Y-17704270D02*
X10572563Y-17713793D01*
X10572563Y-17713793D02*
X10610658Y-17713793D01*
X10610658Y-17713793D02*
X10629705Y-17704270D01*
X10629705Y-17704270D02*
X10639229Y-17694746D01*
X10639229Y-17694746D02*
X10648753Y-17675698D01*
X10743991Y-17789984D02*
X10782086Y-17789984D01*
X10782086Y-17789984D02*
X10801134Y-17780460D01*
X10801134Y-17780460D02*
X10810658Y-17770936D01*
X10810658Y-17770936D02*
X10829705Y-17742365D01*
X10829705Y-17742365D02*
X10839229Y-17704270D01*
X10839229Y-17704270D02*
X10839229Y-17628079D01*
X10839229Y-17628079D02*
X10829705Y-17609031D01*
X10829705Y-17609031D02*
X10820182Y-17599508D01*
X10820182Y-17599508D02*
X10801134Y-17589984D01*
X10801134Y-17589984D02*
X10763039Y-17589984D01*
X10763039Y-17589984D02*
X10743991Y-17599508D01*
X10743991Y-17599508D02*
X10734467Y-17609031D01*
X10734467Y-17609031D02*
X10724944Y-17628079D01*
X10724944Y-17628079D02*
X10724944Y-17675698D01*
X10724944Y-17675698D02*
X10734467Y-17694746D01*
X10734467Y-17694746D02*
X10743991Y-17704270D01*
X10743991Y-17704270D02*
X10763039Y-17713793D01*
X10763039Y-17713793D02*
X10801134Y-17713793D01*
X10801134Y-17713793D02*
X10820182Y-17704270D01*
X10820182Y-17704270D02*
X10829705Y-17694746D01*
X10829705Y-17694746D02*
X10839229Y-17675698D01*
X11029705Y-17789984D02*
X10915420Y-17789984D01*
X10972563Y-17789984D02*
X10972563Y-17589984D01*
X10972563Y-17589984D02*
X10953515Y-17618555D01*
X10953515Y-17618555D02*
X10934467Y-17637603D01*
X10934467Y-17637603D02*
X10915420Y-17647127D01*
X11115420Y-17789984D02*
X11115420Y-17656650D01*
X11115420Y-17675698D02*
X11124944Y-17666174D01*
X11124944Y-17666174D02*
X11143991Y-17656650D01*
X11143991Y-17656650D02*
X11172563Y-17656650D01*
X11172563Y-17656650D02*
X11191610Y-17666174D01*
X11191610Y-17666174D02*
X11201134Y-17685222D01*
X11201134Y-17685222D02*
X11201134Y-17789984D01*
X11201134Y-17685222D02*
X11210658Y-17666174D01*
X11210658Y-17666174D02*
X11229705Y-17656650D01*
X11229705Y-17656650D02*
X11258277Y-17656650D01*
X11258277Y-17656650D02*
X11277324Y-17666174D01*
X11277324Y-17666174D02*
X11286848Y-17685222D01*
X11286848Y-17685222D02*
X11286848Y-17789984D01*
X11382086Y-17789984D02*
X11382086Y-17656650D01*
X11382086Y-17675698D02*
X11391610Y-17666174D01*
X11391610Y-17666174D02*
X11410658Y-17656650D01*
X11410658Y-17656650D02*
X11439229Y-17656650D01*
X11439229Y-17656650D02*
X11458277Y-17666174D01*
X11458277Y-17666174D02*
X11467801Y-17685222D01*
X11467801Y-17685222D02*
X11467801Y-17789984D01*
X11467801Y-17685222D02*
X11477324Y-17666174D01*
X11477324Y-17666174D02*
X11496372Y-17656650D01*
X11496372Y-17656650D02*
X11524943Y-17656650D01*
X11524943Y-17656650D02*
X11543991Y-17666174D01*
X11543991Y-17666174D02*
X11553515Y-17685222D01*
X11553515Y-17685222D02*
X11553515Y-17789984D01*
X11943991Y-17580460D02*
X11772563Y-17837603D01*
X12201134Y-17589984D02*
X12220182Y-17589984D01*
X12220182Y-17589984D02*
X12239229Y-17599508D01*
X12239229Y-17599508D02*
X12248753Y-17609031D01*
X12248753Y-17609031D02*
X12258277Y-17628079D01*
X12258277Y-17628079D02*
X12267801Y-17666174D01*
X12267801Y-17666174D02*
X12267801Y-17713793D01*
X12267801Y-17713793D02*
X12258277Y-17751889D01*
X12258277Y-17751889D02*
X12248753Y-17770936D01*
X12248753Y-17770936D02*
X12239229Y-17780460D01*
X12239229Y-17780460D02*
X12220182Y-17789984D01*
X12220182Y-17789984D02*
X12201134Y-17789984D01*
X12201134Y-17789984D02*
X12182086Y-17780460D01*
X12182086Y-17780460D02*
X12172563Y-17770936D01*
X12172563Y-17770936D02*
X12163039Y-17751889D01*
X12163039Y-17751889D02*
X12153515Y-17713793D01*
X12153515Y-17713793D02*
X12153515Y-17666174D01*
X12153515Y-17666174D02*
X12163039Y-17628079D01*
X12163039Y-17628079D02*
X12172563Y-17609031D01*
X12172563Y-17609031D02*
X12182086Y-17599508D01*
X12182086Y-17599508D02*
X12201134Y-17589984D01*
X12353515Y-17770936D02*
X12363039Y-17780460D01*
X12363039Y-17780460D02*
X12353515Y-17789984D01*
X12353515Y-17789984D02*
X12343991Y-17780460D01*
X12343991Y-17780460D02*
X12353515Y-17770936D01*
X12353515Y-17770936D02*
X12353515Y-17789984D01*
X12486848Y-17589984D02*
X12505896Y-17589984D01*
X12505896Y-17589984D02*
X12524944Y-17599508D01*
X12524944Y-17599508D02*
X12534467Y-17609031D01*
X12534467Y-17609031D02*
X12543991Y-17628079D01*
X12543991Y-17628079D02*
X12553515Y-17666174D01*
X12553515Y-17666174D02*
X12553515Y-17713793D01*
X12553515Y-17713793D02*
X12543991Y-17751889D01*
X12543991Y-17751889D02*
X12534467Y-17770936D01*
X12534467Y-17770936D02*
X12524944Y-17780460D01*
X12524944Y-17780460D02*
X12505896Y-17789984D01*
X12505896Y-17789984D02*
X12486848Y-17789984D01*
X12486848Y-17789984D02*
X12467801Y-17780460D01*
X12467801Y-17780460D02*
X12458277Y-17770936D01*
X12458277Y-17770936D02*
X12448753Y-17751889D01*
X12448753Y-17751889D02*
X12439229Y-17713793D01*
X12439229Y-17713793D02*
X12439229Y-17666174D01*
X12439229Y-17666174D02*
X12448753Y-17628079D01*
X12448753Y-17628079D02*
X12458277Y-17609031D01*
X12458277Y-17609031D02*
X12467801Y-17599508D01*
X12467801Y-17599508D02*
X12486848Y-17589984D01*
X12620182Y-17589984D02*
X12743991Y-17589984D01*
X12743991Y-17589984D02*
X12677325Y-17666174D01*
X12677325Y-17666174D02*
X12705896Y-17666174D01*
X12705896Y-17666174D02*
X12724944Y-17675698D01*
X12724944Y-17675698D02*
X12734467Y-17685222D01*
X12734467Y-17685222D02*
X12743991Y-17704270D01*
X12743991Y-17704270D02*
X12743991Y-17751889D01*
X12743991Y-17751889D02*
X12734467Y-17770936D01*
X12734467Y-17770936D02*
X12724944Y-17780460D01*
X12724944Y-17780460D02*
X12705896Y-17789984D01*
X12705896Y-17789984D02*
X12648753Y-17789984D01*
X12648753Y-17789984D02*
X12629706Y-17780460D01*
X12629706Y-17780460D02*
X12620182Y-17770936D01*
X12839229Y-17789984D02*
X12877325Y-17789984D01*
X12877325Y-17789984D02*
X12896372Y-17780460D01*
X12896372Y-17780460D02*
X12905896Y-17770936D01*
X12905896Y-17770936D02*
X12924944Y-17742365D01*
X12924944Y-17742365D02*
X12934467Y-17704270D01*
X12934467Y-17704270D02*
X12934467Y-17628079D01*
X12934467Y-17628079D02*
X12924944Y-17609031D01*
X12924944Y-17609031D02*
X12915420Y-17599508D01*
X12915420Y-17599508D02*
X12896372Y-17589984D01*
X12896372Y-17589984D02*
X12858277Y-17589984D01*
X12858277Y-17589984D02*
X12839229Y-17599508D01*
X12839229Y-17599508D02*
X12829706Y-17609031D01*
X12829706Y-17609031D02*
X12820182Y-17628079D01*
X12820182Y-17628079D02*
X12820182Y-17675698D01*
X12820182Y-17675698D02*
X12829706Y-17694746D01*
X12829706Y-17694746D02*
X12839229Y-17704270D01*
X12839229Y-17704270D02*
X12858277Y-17713793D01*
X12858277Y-17713793D02*
X12896372Y-17713793D01*
X12896372Y-17713793D02*
X12915420Y-17704270D01*
X12915420Y-17704270D02*
X12924944Y-17694746D01*
X12924944Y-17694746D02*
X12934467Y-17675698D01*
X13058277Y-17589984D02*
X13077325Y-17589984D01*
X13077325Y-17589984D02*
X13096372Y-17599508D01*
X13096372Y-17599508D02*
X13105896Y-17609031D01*
X13105896Y-17609031D02*
X13115420Y-17628079D01*
X13115420Y-17628079D02*
X13124944Y-17666174D01*
X13124944Y-17666174D02*
X13124944Y-17713793D01*
X13124944Y-17713793D02*
X13115420Y-17751889D01*
X13115420Y-17751889D02*
X13105896Y-17770936D01*
X13105896Y-17770936D02*
X13096372Y-17780460D01*
X13096372Y-17780460D02*
X13077325Y-17789984D01*
X13077325Y-17789984D02*
X13058277Y-17789984D01*
X13058277Y-17789984D02*
X13039229Y-17780460D01*
X13039229Y-17780460D02*
X13029706Y-17770936D01*
X13029706Y-17770936D02*
X13020182Y-17751889D01*
X13020182Y-17751889D02*
X13010658Y-17713793D01*
X13010658Y-17713793D02*
X13010658Y-17666174D01*
X13010658Y-17666174D02*
X13020182Y-17628079D01*
X13020182Y-17628079D02*
X13029706Y-17609031D01*
X13029706Y-17609031D02*
X13039229Y-17599508D01*
X13039229Y-17599508D02*
X13058277Y-17589984D01*
X13201134Y-17589984D02*
X13201134Y-17628079D01*
X13277325Y-17589984D02*
X13277325Y-17628079D01*
X13572563Y-17866174D02*
X13563039Y-17856650D01*
X13563039Y-17856650D02*
X13543991Y-17828079D01*
X13543991Y-17828079D02*
X13534468Y-17809031D01*
X13534468Y-17809031D02*
X13524944Y-17780460D01*
X13524944Y-17780460D02*
X13515420Y-17732841D01*
X13515420Y-17732841D02*
X13515420Y-17694746D01*
X13515420Y-17694746D02*
X13524944Y-17647127D01*
X13524944Y-17647127D02*
X13534468Y-17618555D01*
X13534468Y-17618555D02*
X13543991Y-17599508D01*
X13543991Y-17599508D02*
X13563039Y-17570936D01*
X13563039Y-17570936D02*
X13572563Y-17561412D01*
X13639229Y-17609031D02*
X13648753Y-17599508D01*
X13648753Y-17599508D02*
X13667801Y-17589984D01*
X13667801Y-17589984D02*
X13715420Y-17589984D01*
X13715420Y-17589984D02*
X13734468Y-17599508D01*
X13734468Y-17599508D02*
X13743991Y-17609031D01*
X13743991Y-17609031D02*
X13753515Y-17628079D01*
X13753515Y-17628079D02*
X13753515Y-17647127D01*
X13753515Y-17647127D02*
X13743991Y-17675698D01*
X13743991Y-17675698D02*
X13629706Y-17789984D01*
X13629706Y-17789984D02*
X13753515Y-17789984D01*
X13991610Y-17789984D02*
X13991610Y-17589984D01*
X14077325Y-17789984D02*
X14077325Y-17685222D01*
X14077325Y-17685222D02*
X14067801Y-17666174D01*
X14067801Y-17666174D02*
X14048753Y-17656650D01*
X14048753Y-17656650D02*
X14020182Y-17656650D01*
X14020182Y-17656650D02*
X14001134Y-17666174D01*
X14001134Y-17666174D02*
X13991610Y-17675698D01*
X14201134Y-17789984D02*
X14182087Y-17780460D01*
X14182087Y-17780460D02*
X14172563Y-17770936D01*
X14172563Y-17770936D02*
X14163039Y-17751889D01*
X14163039Y-17751889D02*
X14163039Y-17694746D01*
X14163039Y-17694746D02*
X14172563Y-17675698D01*
X14172563Y-17675698D02*
X14182087Y-17666174D01*
X14182087Y-17666174D02*
X14201134Y-17656650D01*
X14201134Y-17656650D02*
X14229706Y-17656650D01*
X14229706Y-17656650D02*
X14248753Y-17666174D01*
X14248753Y-17666174D02*
X14258277Y-17675698D01*
X14258277Y-17675698D02*
X14267801Y-17694746D01*
X14267801Y-17694746D02*
X14267801Y-17751889D01*
X14267801Y-17751889D02*
X14258277Y-17770936D01*
X14258277Y-17770936D02*
X14248753Y-17780460D01*
X14248753Y-17780460D02*
X14229706Y-17789984D01*
X14229706Y-17789984D02*
X14201134Y-17789984D01*
X14382087Y-17789984D02*
X14363039Y-17780460D01*
X14363039Y-17780460D02*
X14353515Y-17761412D01*
X14353515Y-17761412D02*
X14353515Y-17589984D01*
X14534468Y-17780460D02*
X14515420Y-17789984D01*
X14515420Y-17789984D02*
X14477325Y-17789984D01*
X14477325Y-17789984D02*
X14458277Y-17780460D01*
X14458277Y-17780460D02*
X14448753Y-17761412D01*
X14448753Y-17761412D02*
X14448753Y-17685222D01*
X14448753Y-17685222D02*
X14458277Y-17666174D01*
X14458277Y-17666174D02*
X14477325Y-17656650D01*
X14477325Y-17656650D02*
X14515420Y-17656650D01*
X14515420Y-17656650D02*
X14534468Y-17666174D01*
X14534468Y-17666174D02*
X14543991Y-17685222D01*
X14543991Y-17685222D02*
X14543991Y-17704270D01*
X14543991Y-17704270D02*
X14448753Y-17723317D01*
X14620182Y-17780460D02*
X14639230Y-17789984D01*
X14639230Y-17789984D02*
X14677325Y-17789984D01*
X14677325Y-17789984D02*
X14696372Y-17780460D01*
X14696372Y-17780460D02*
X14705896Y-17761412D01*
X14705896Y-17761412D02*
X14705896Y-17751889D01*
X14705896Y-17751889D02*
X14696372Y-17732841D01*
X14696372Y-17732841D02*
X14677325Y-17723317D01*
X14677325Y-17723317D02*
X14648753Y-17723317D01*
X14648753Y-17723317D02*
X14629706Y-17713793D01*
X14629706Y-17713793D02*
X14620182Y-17694746D01*
X14620182Y-17694746D02*
X14620182Y-17685222D01*
X14620182Y-17685222D02*
X14629706Y-17666174D01*
X14629706Y-17666174D02*
X14648753Y-17656650D01*
X14648753Y-17656650D02*
X14677325Y-17656650D01*
X14677325Y-17656650D02*
X14696372Y-17666174D01*
X14772563Y-17866174D02*
X14782087Y-17856650D01*
X14782087Y-17856650D02*
X14801134Y-17828079D01*
X14801134Y-17828079D02*
X14810658Y-17809031D01*
X14810658Y-17809031D02*
X14820182Y-17780460D01*
X14820182Y-17780460D02*
X14829706Y-17732841D01*
X14829706Y-17732841D02*
X14829706Y-17694746D01*
X14829706Y-17694746D02*
X14820182Y-17647127D01*
X14820182Y-17647127D02*
X14810658Y-17618555D01*
X14810658Y-17618555D02*
X14801134Y-17599508D01*
X14801134Y-17599508D02*
X14782087Y-17570936D01*
X14782087Y-17570936D02*
X14772563Y-17561412D01*
D13*
X9827320Y-17877410D02*
X9997500Y-18047590D01*
X9997500Y-17877410D02*
X9827320Y-18047590D01*
X9997500Y-17962500D02*
G75*
G02*
X9827320Y-17962500I-85090J0D01*
G01*
X9827320Y-17962500D02*
G75*
G02*
X9997500Y-17962500I85090J0D01*
G01*
D11*
X10363039Y-18053984D02*
X10248753Y-18053984D01*
X10305896Y-18053984D02*
X10305896Y-17853984D01*
X10305896Y-17853984D02*
X10286848Y-17882555D01*
X10286848Y-17882555D02*
X10267801Y-17901603D01*
X10267801Y-17901603D02*
X10248753Y-17911127D01*
X10448753Y-18034936D02*
X10458277Y-18044460D01*
X10458277Y-18044460D02*
X10448753Y-18053984D01*
X10448753Y-18053984D02*
X10439229Y-18044460D01*
X10439229Y-18044460D02*
X10448753Y-18034936D01*
X10448753Y-18034936D02*
X10448753Y-18053984D01*
X10524944Y-17853984D02*
X10658277Y-17853984D01*
X10658277Y-17853984D02*
X10572563Y-18053984D01*
X10772563Y-17853984D02*
X10791610Y-17853984D01*
X10791610Y-17853984D02*
X10810658Y-17863508D01*
X10810658Y-17863508D02*
X10820182Y-17873031D01*
X10820182Y-17873031D02*
X10829705Y-17892079D01*
X10829705Y-17892079D02*
X10839229Y-17930174D01*
X10839229Y-17930174D02*
X10839229Y-17977793D01*
X10839229Y-17977793D02*
X10829705Y-18015889D01*
X10829705Y-18015889D02*
X10820182Y-18034936D01*
X10820182Y-18034936D02*
X10810658Y-18044460D01*
X10810658Y-18044460D02*
X10791610Y-18053984D01*
X10791610Y-18053984D02*
X10772563Y-18053984D01*
X10772563Y-18053984D02*
X10753515Y-18044460D01*
X10753515Y-18044460D02*
X10743991Y-18034936D01*
X10743991Y-18034936D02*
X10734467Y-18015889D01*
X10734467Y-18015889D02*
X10724944Y-17977793D01*
X10724944Y-17977793D02*
X10724944Y-17930174D01*
X10724944Y-17930174D02*
X10734467Y-17892079D01*
X10734467Y-17892079D02*
X10743991Y-17873031D01*
X10743991Y-17873031D02*
X10753515Y-17863508D01*
X10753515Y-17863508D02*
X10772563Y-17853984D01*
X10915420Y-17873031D02*
X10924944Y-17863508D01*
X10924944Y-17863508D02*
X10943991Y-17853984D01*
X10943991Y-17853984D02*
X10991610Y-17853984D01*
X10991610Y-17853984D02*
X11010658Y-17863508D01*
X11010658Y-17863508D02*
X11020182Y-17873031D01*
X11020182Y-17873031D02*
X11029705Y-17892079D01*
X11029705Y-17892079D02*
X11029705Y-17911127D01*
X11029705Y-17911127D02*
X11020182Y-17939698D01*
X11020182Y-17939698D02*
X10905896Y-18053984D01*
X10905896Y-18053984D02*
X11029705Y-18053984D01*
X11115420Y-18053984D02*
X11115420Y-17920650D01*
X11115420Y-17939698D02*
X11124944Y-17930174D01*
X11124944Y-17930174D02*
X11143991Y-17920650D01*
X11143991Y-17920650D02*
X11172563Y-17920650D01*
X11172563Y-17920650D02*
X11191610Y-17930174D01*
X11191610Y-17930174D02*
X11201134Y-17949222D01*
X11201134Y-17949222D02*
X11201134Y-18053984D01*
X11201134Y-17949222D02*
X11210658Y-17930174D01*
X11210658Y-17930174D02*
X11229705Y-17920650D01*
X11229705Y-17920650D02*
X11258277Y-17920650D01*
X11258277Y-17920650D02*
X11277324Y-17930174D01*
X11277324Y-17930174D02*
X11286848Y-17949222D01*
X11286848Y-17949222D02*
X11286848Y-18053984D01*
X11382086Y-18053984D02*
X11382086Y-17920650D01*
X11382086Y-17939698D02*
X11391610Y-17930174D01*
X11391610Y-17930174D02*
X11410658Y-17920650D01*
X11410658Y-17920650D02*
X11439229Y-17920650D01*
X11439229Y-17920650D02*
X11458277Y-17930174D01*
X11458277Y-17930174D02*
X11467801Y-17949222D01*
X11467801Y-17949222D02*
X11467801Y-18053984D01*
X11467801Y-17949222D02*
X11477324Y-17930174D01*
X11477324Y-17930174D02*
X11496372Y-17920650D01*
X11496372Y-17920650D02*
X11524943Y-17920650D01*
X11524943Y-17920650D02*
X11543991Y-17930174D01*
X11543991Y-17930174D02*
X11553515Y-17949222D01*
X11553515Y-17949222D02*
X11553515Y-18053984D01*
X11943991Y-17844460D02*
X11772563Y-18101603D01*
X12201134Y-17853984D02*
X12220182Y-17853984D01*
X12220182Y-17853984D02*
X12239229Y-17863508D01*
X12239229Y-17863508D02*
X12248753Y-17873031D01*
X12248753Y-17873031D02*
X12258277Y-17892079D01*
X12258277Y-17892079D02*
X12267801Y-17930174D01*
X12267801Y-17930174D02*
X12267801Y-17977793D01*
X12267801Y-17977793D02*
X12258277Y-18015889D01*
X12258277Y-18015889D02*
X12248753Y-18034936D01*
X12248753Y-18034936D02*
X12239229Y-18044460D01*
X12239229Y-18044460D02*
X12220182Y-18053984D01*
X12220182Y-18053984D02*
X12201134Y-18053984D01*
X12201134Y-18053984D02*
X12182086Y-18044460D01*
X12182086Y-18044460D02*
X12172563Y-18034936D01*
X12172563Y-18034936D02*
X12163039Y-18015889D01*
X12163039Y-18015889D02*
X12153515Y-17977793D01*
X12153515Y-17977793D02*
X12153515Y-17930174D01*
X12153515Y-17930174D02*
X12163039Y-17892079D01*
X12163039Y-17892079D02*
X12172563Y-17873031D01*
X12172563Y-17873031D02*
X12182086Y-17863508D01*
X12182086Y-17863508D02*
X12201134Y-17853984D01*
X12353515Y-18034936D02*
X12363039Y-18044460D01*
X12363039Y-18044460D02*
X12353515Y-18053984D01*
X12353515Y-18053984D02*
X12343991Y-18044460D01*
X12343991Y-18044460D02*
X12353515Y-18034936D01*
X12353515Y-18034936D02*
X12353515Y-18053984D01*
X12486848Y-17853984D02*
X12505896Y-17853984D01*
X12505896Y-17853984D02*
X12524944Y-17863508D01*
X12524944Y-17863508D02*
X12534467Y-17873031D01*
X12534467Y-17873031D02*
X12543991Y-17892079D01*
X12543991Y-17892079D02*
X12553515Y-17930174D01*
X12553515Y-17930174D02*
X12553515Y-17977793D01*
X12553515Y-17977793D02*
X12543991Y-18015889D01*
X12543991Y-18015889D02*
X12534467Y-18034936D01*
X12534467Y-18034936D02*
X12524944Y-18044460D01*
X12524944Y-18044460D02*
X12505896Y-18053984D01*
X12505896Y-18053984D02*
X12486848Y-18053984D01*
X12486848Y-18053984D02*
X12467801Y-18044460D01*
X12467801Y-18044460D02*
X12458277Y-18034936D01*
X12458277Y-18034936D02*
X12448753Y-18015889D01*
X12448753Y-18015889D02*
X12439229Y-17977793D01*
X12439229Y-17977793D02*
X12439229Y-17930174D01*
X12439229Y-17930174D02*
X12448753Y-17892079D01*
X12448753Y-17892079D02*
X12458277Y-17873031D01*
X12458277Y-17873031D02*
X12467801Y-17863508D01*
X12467801Y-17863508D02*
X12486848Y-17853984D01*
X12724944Y-17853984D02*
X12686848Y-17853984D01*
X12686848Y-17853984D02*
X12667801Y-17863508D01*
X12667801Y-17863508D02*
X12658277Y-17873031D01*
X12658277Y-17873031D02*
X12639229Y-17901603D01*
X12639229Y-17901603D02*
X12629706Y-17939698D01*
X12629706Y-17939698D02*
X12629706Y-18015889D01*
X12629706Y-18015889D02*
X12639229Y-18034936D01*
X12639229Y-18034936D02*
X12648753Y-18044460D01*
X12648753Y-18044460D02*
X12667801Y-18053984D01*
X12667801Y-18053984D02*
X12705896Y-18053984D01*
X12705896Y-18053984D02*
X12724944Y-18044460D01*
X12724944Y-18044460D02*
X12734467Y-18034936D01*
X12734467Y-18034936D02*
X12743991Y-18015889D01*
X12743991Y-18015889D02*
X12743991Y-17968270D01*
X12743991Y-17968270D02*
X12734467Y-17949222D01*
X12734467Y-17949222D02*
X12724944Y-17939698D01*
X12724944Y-17939698D02*
X12705896Y-17930174D01*
X12705896Y-17930174D02*
X12667801Y-17930174D01*
X12667801Y-17930174D02*
X12648753Y-17939698D01*
X12648753Y-17939698D02*
X12639229Y-17949222D01*
X12639229Y-17949222D02*
X12629706Y-17968270D01*
X12810658Y-17853984D02*
X12943991Y-17853984D01*
X12943991Y-17853984D02*
X12858277Y-18053984D01*
X13058277Y-17853984D02*
X13077325Y-17853984D01*
X13077325Y-17853984D02*
X13096372Y-17863508D01*
X13096372Y-17863508D02*
X13105896Y-17873031D01*
X13105896Y-17873031D02*
X13115420Y-17892079D01*
X13115420Y-17892079D02*
X13124944Y-17930174D01*
X13124944Y-17930174D02*
X13124944Y-17977793D01*
X13124944Y-17977793D02*
X13115420Y-18015889D01*
X13115420Y-18015889D02*
X13105896Y-18034936D01*
X13105896Y-18034936D02*
X13096372Y-18044460D01*
X13096372Y-18044460D02*
X13077325Y-18053984D01*
X13077325Y-18053984D02*
X13058277Y-18053984D01*
X13058277Y-18053984D02*
X13039229Y-18044460D01*
X13039229Y-18044460D02*
X13029706Y-18034936D01*
X13029706Y-18034936D02*
X13020182Y-18015889D01*
X13020182Y-18015889D02*
X13010658Y-17977793D01*
X13010658Y-17977793D02*
X13010658Y-17930174D01*
X13010658Y-17930174D02*
X13020182Y-17892079D01*
X13020182Y-17892079D02*
X13029706Y-17873031D01*
X13029706Y-17873031D02*
X13039229Y-17863508D01*
X13039229Y-17863508D02*
X13058277Y-17853984D01*
X13201134Y-17853984D02*
X13201134Y-17892079D01*
X13277325Y-17853984D02*
X13277325Y-17892079D01*
X13572563Y-18130174D02*
X13563039Y-18120650D01*
X13563039Y-18120650D02*
X13543991Y-18092079D01*
X13543991Y-18092079D02*
X13534468Y-18073031D01*
X13534468Y-18073031D02*
X13524944Y-18044460D01*
X13524944Y-18044460D02*
X13515420Y-17996841D01*
X13515420Y-17996841D02*
X13515420Y-17958746D01*
X13515420Y-17958746D02*
X13524944Y-17911127D01*
X13524944Y-17911127D02*
X13534468Y-17882555D01*
X13534468Y-17882555D02*
X13543991Y-17863508D01*
X13543991Y-17863508D02*
X13563039Y-17834936D01*
X13563039Y-17834936D02*
X13572563Y-17825412D01*
X13639229Y-17873031D02*
X13648753Y-17863508D01*
X13648753Y-17863508D02*
X13667801Y-17853984D01*
X13667801Y-17853984D02*
X13715420Y-17853984D01*
X13715420Y-17853984D02*
X13734468Y-17863508D01*
X13734468Y-17863508D02*
X13743991Y-17873031D01*
X13743991Y-17873031D02*
X13753515Y-17892079D01*
X13753515Y-17892079D02*
X13753515Y-17911127D01*
X13753515Y-17911127D02*
X13743991Y-17939698D01*
X13743991Y-17939698D02*
X13629706Y-18053984D01*
X13629706Y-18053984D02*
X13753515Y-18053984D01*
X13991610Y-18053984D02*
X13991610Y-17853984D01*
X14077325Y-18053984D02*
X14077325Y-17949222D01*
X14077325Y-17949222D02*
X14067801Y-17930174D01*
X14067801Y-17930174D02*
X14048753Y-17920650D01*
X14048753Y-17920650D02*
X14020182Y-17920650D01*
X14020182Y-17920650D02*
X14001134Y-17930174D01*
X14001134Y-17930174D02*
X13991610Y-17939698D01*
X14201134Y-18053984D02*
X14182087Y-18044460D01*
X14182087Y-18044460D02*
X14172563Y-18034936D01*
X14172563Y-18034936D02*
X14163039Y-18015889D01*
X14163039Y-18015889D02*
X14163039Y-17958746D01*
X14163039Y-17958746D02*
X14172563Y-17939698D01*
X14172563Y-17939698D02*
X14182087Y-17930174D01*
X14182087Y-17930174D02*
X14201134Y-17920650D01*
X14201134Y-17920650D02*
X14229706Y-17920650D01*
X14229706Y-17920650D02*
X14248753Y-17930174D01*
X14248753Y-17930174D02*
X14258277Y-17939698D01*
X14258277Y-17939698D02*
X14267801Y-17958746D01*
X14267801Y-17958746D02*
X14267801Y-18015889D01*
X14267801Y-18015889D02*
X14258277Y-18034936D01*
X14258277Y-18034936D02*
X14248753Y-18044460D01*
X14248753Y-18044460D02*
X14229706Y-18053984D01*
X14229706Y-18053984D02*
X14201134Y-18053984D01*
X14382087Y-18053984D02*
X14363039Y-18044460D01*
X14363039Y-18044460D02*
X14353515Y-18025412D01*
X14353515Y-18025412D02*
X14353515Y-17853984D01*
X14534468Y-18044460D02*
X14515420Y-18053984D01*
X14515420Y-18053984D02*
X14477325Y-18053984D01*
X14477325Y-18053984D02*
X14458277Y-18044460D01*
X14458277Y-18044460D02*
X14448753Y-18025412D01*
X14448753Y-18025412D02*
X14448753Y-17949222D01*
X14448753Y-17949222D02*
X14458277Y-17930174D01*
X14458277Y-17930174D02*
X14477325Y-17920650D01*
X14477325Y-17920650D02*
X14515420Y-17920650D01*
X14515420Y-17920650D02*
X14534468Y-17930174D01*
X14534468Y-17930174D02*
X14543991Y-17949222D01*
X14543991Y-17949222D02*
X14543991Y-17968270D01*
X14543991Y-17968270D02*
X14448753Y-17987317D01*
X14620182Y-18044460D02*
X14639230Y-18053984D01*
X14639230Y-18053984D02*
X14677325Y-18053984D01*
X14677325Y-18053984D02*
X14696372Y-18044460D01*
X14696372Y-18044460D02*
X14705896Y-18025412D01*
X14705896Y-18025412D02*
X14705896Y-18015889D01*
X14705896Y-18015889D02*
X14696372Y-17996841D01*
X14696372Y-17996841D02*
X14677325Y-17987317D01*
X14677325Y-17987317D02*
X14648753Y-17987317D01*
X14648753Y-17987317D02*
X14629706Y-17977793D01*
X14629706Y-17977793D02*
X14620182Y-17958746D01*
X14620182Y-17958746D02*
X14620182Y-17949222D01*
X14620182Y-17949222D02*
X14629706Y-17930174D01*
X14629706Y-17930174D02*
X14648753Y-17920650D01*
X14648753Y-17920650D02*
X14677325Y-17920650D01*
X14677325Y-17920650D02*
X14696372Y-17930174D01*
X14772563Y-18130174D02*
X14782087Y-18120650D01*
X14782087Y-18120650D02*
X14801134Y-18092079D01*
X14801134Y-18092079D02*
X14810658Y-18073031D01*
X14810658Y-18073031D02*
X14820182Y-18044460D01*
X14820182Y-18044460D02*
X14829706Y-17996841D01*
X14829706Y-17996841D02*
X14829706Y-17958746D01*
X14829706Y-17958746D02*
X14820182Y-17911127D01*
X14820182Y-17911127D02*
X14810658Y-17882555D01*
X14810658Y-17882555D02*
X14801134Y-17863508D01*
X14801134Y-17863508D02*
X14782087Y-17834936D01*
X14782087Y-17834936D02*
X14772563Y-17825412D01*
M02*
