%TF.GenerationSoftware,KiCad,Pcbnew,10.0.4-10.0.4~ubuntu24.04.1*%
%TF.CreationDate,2026-07-24T11:00:07+07:00*%
%TF.ProjectId,driver-bldc-foc,64726976-6572-42d6-926c-64632d666f63,rev?*%
%TF.SameCoordinates,Original*%
%TF.FileFunction,Copper,L1,Top*%
%TF.FilePolarity,Positive*%
%FSLAX46Y46*%
G04 Gerber Fmt 4.6, Leading zero omitted, Abs format (unit mm)*
G04 Created by KiCad (PCBNEW 10.0.4-10.0.4~ubuntu24.04.1) date 2026-07-24 11:00:07*
%MOMM*%
%LPD*%
G01*
G04 APERTURE LIST*
G04 Aperture macros list*
%AMRoundRect*
0 Rectangle with rounded corners*
0 $1 Rounding radius*
0 $2 $3 $4 $5 $6 $7 $8 $9 X,Y pos of 4 corners*
0 Add a 4 corners polygon primitive as box body*
4,1,4,$2,$3,$4,$5,$6,$7,$8,$9,$2,$3,0*
0 Add four circle primitives for the rounded corners*
1,1,$1+$1,$2,$3*
1,1,$1+$1,$4,$5*
1,1,$1+$1,$6,$7*
1,1,$1+$1,$8,$9*
0 Add four rect primitives between the rounded corners*
20,1,$1+$1,$2,$3,$4,$5,0*
20,1,$1+$1,$4,$5,$6,$7,0*
20,1,$1+$1,$6,$7,$8,$9,0*
20,1,$1+$1,$8,$9,$2,$3,0*%
%AMFreePoly0*
4,1,23,0.550000,-0.750000,0.000000,-0.750000,0.000000,-0.745722,-0.065263,-0.745722,-0.191342,-0.711940,-0.304381,-0.646677,-0.396677,-0.554381,-0.461940,-0.441342,-0.495722,-0.315263,-0.495722,-0.250000,-0.500000,-0.250000,-0.500000,0.250000,-0.495722,0.250000,-0.495722,0.315263,-0.461940,0.441342,-0.396677,0.554381,-0.304381,0.646677,-0.191342,0.711940,-0.065263,0.745722,0.000000,0.745722,
0.000000,0.750000,0.550000,0.750000,0.550000,-0.750000,0.550000,-0.750000,$1*%
%AMFreePoly1*
4,1,23,0.000000,0.745722,0.065263,0.745722,0.191342,0.711940,0.304381,0.646677,0.396677,0.554381,0.461940,0.441342,0.495722,0.315263,0.495722,0.250000,0.500000,0.250000,0.500000,-0.250000,0.495722,-0.250000,0.495722,-0.315263,0.461940,-0.441342,0.396677,-0.554381,0.304381,-0.646677,0.191342,-0.711940,0.065263,-0.745722,0.000000,-0.745722,0.000000,-0.750000,-0.550000,-0.750000,
-0.550000,0.750000,0.000000,0.750000,0.000000,0.745722,0.000000,0.745722,$1*%
G04 Aperture macros list end*
%TA.AperFunction,SMDPad,CuDef*%
%ADD10RoundRect,0.250000X-0.450000X0.262500X-0.450000X-0.262500X0.450000X-0.262500X0.450000X0.262500X0*%
%TD*%
%TA.AperFunction,SMDPad,CuDef*%
%ADD11RoundRect,1.250000X3.750000X-1.250000X3.750000X1.250000X-3.750000X1.250000X-3.750000X-1.250000X0*%
%TD*%
%TA.AperFunction,SMDPad,CuDef*%
%ADD12R,4.550000X4.410000*%
%TD*%
%TA.AperFunction,SMDPad,CuDef*%
%ADD13RoundRect,0.125000X-0.300000X-0.125000X0.300000X-0.125000X0.300000X0.125000X-0.300000X0.125000X0*%
%TD*%
%TA.AperFunction,SMDPad,CuDef*%
%ADD14RoundRect,0.125000X0.300000X0.125000X-0.300000X0.125000X-0.300000X-0.125000X0.300000X-0.125000X0*%
%TD*%
%TA.AperFunction,ComponentPad*%
%ADD15C,1.498600*%
%TD*%
%TA.AperFunction,ComponentPad*%
%ADD16C,2.209800*%
%TD*%
%TA.AperFunction,SMDPad,CuDef*%
%ADD17RoundRect,0.250000X-0.250000X-0.750000X0.250000X-0.750000X0.250000X0.750000X-0.250000X0.750000X0*%
%TD*%
%TA.AperFunction,SMDPad,CuDef*%
%ADD18RoundRect,0.250000X0.750000X-0.250000X0.750000X0.250000X-0.750000X0.250000X-0.750000X-0.250000X0*%
%TD*%
%TA.AperFunction,SMDPad,CuDef*%
%ADD19RoundRect,0.250000X-0.262500X-0.450000X0.262500X-0.450000X0.262500X0.450000X-0.262500X0.450000X0*%
%TD*%
%TA.AperFunction,SMDPad,CuDef*%
%ADD20RoundRect,0.250000X0.262500X0.450000X-0.262500X0.450000X-0.262500X-0.450000X0.262500X-0.450000X0*%
%TD*%
%TA.AperFunction,SMDPad,CuDef*%
%ADD21RoundRect,0.250000X-0.250000X-0.475000X0.250000X-0.475000X0.250000X0.475000X-0.250000X0.475000X0*%
%TD*%
%TA.AperFunction,SMDPad,CuDef*%
%ADD22RoundRect,0.500000X1.500000X-0.500000X1.500000X0.500000X-1.500000X0.500000X-1.500000X-0.500000X0*%
%TD*%
%TA.AperFunction,SMDPad,CuDef*%
%ADD23R,0.600000X1.150000*%
%TD*%
%TA.AperFunction,SMDPad,CuDef*%
%ADD24R,0.300000X1.150000*%
%TD*%
%TA.AperFunction,ComponentPad*%
%ADD25O,1.050000X1.850000*%
%TD*%
%TA.AperFunction,ComponentPad*%
%ADD26O,1.050000X2.150000*%
%TD*%
%TA.AperFunction,SMDPad,CuDef*%
%ADD27RoundRect,0.500000X-1.500000X0.500000X-1.500000X-0.500000X1.500000X-0.500000X1.500000X0.500000X0*%
%TD*%
%TA.AperFunction,SMDPad,CuDef*%
%ADD28RoundRect,0.243750X-0.456250X0.243750X-0.456250X-0.243750X0.456250X-0.243750X0.456250X0.243750X0*%
%TD*%
%TA.AperFunction,ComponentPad*%
%ADD29RoundRect,0.250000X-0.600000X-0.725000X0.600000X-0.725000X0.600000X0.725000X-0.600000X0.725000X0*%
%TD*%
%TA.AperFunction,ComponentPad*%
%ADD30O,1.700000X1.950000*%
%TD*%
%TA.AperFunction,SMDPad,CuDef*%
%ADD31RoundRect,0.250000X-0.475000X0.250000X-0.475000X-0.250000X0.475000X-0.250000X0.475000X0.250000X0*%
%TD*%
%TA.AperFunction,SMDPad,CuDef*%
%ADD32RoundRect,0.500000X-0.500000X-1.500000X0.500000X-1.500000X0.500000X1.500000X-0.500000X1.500000X0*%
%TD*%
%TA.AperFunction,SMDPad,CuDef*%
%ADD33RoundRect,0.250000X0.250000X0.475000X-0.250000X0.475000X-0.250000X-0.475000X0.250000X-0.475000X0*%
%TD*%
%TA.AperFunction,SMDPad,CuDef*%
%ADD34RoundRect,0.125000X-0.125000X0.125000X-0.125000X-0.125000X0.125000X-0.125000X0.125000X0.125000X0*%
%TD*%
%TA.AperFunction,SMDPad,CuDef*%
%ADD35RoundRect,0.249999X-0.450001X-1.850001X0.450001X-1.850001X0.450001X1.850001X-0.450001X1.850001X0*%
%TD*%
%TA.AperFunction,SMDPad,CuDef*%
%ADD36RoundRect,0.250000X1.000000X0.650000X-1.000000X0.650000X-1.000000X-0.650000X1.000000X-0.650000X0*%
%TD*%
%TA.AperFunction,SMDPad,CuDef*%
%ADD37RoundRect,0.250000X0.475000X-0.250000X0.475000X0.250000X-0.475000X0.250000X-0.475000X-0.250000X0*%
%TD*%
%TA.AperFunction,SMDPad,CuDef*%
%ADD38RoundRect,0.237500X-0.237500X0.287500X-0.237500X-0.287500X0.237500X-0.287500X0.237500X0.287500X0*%
%TD*%
%TA.AperFunction,SMDPad,CuDef*%
%ADD39RoundRect,0.150000X0.512500X0.150000X-0.512500X0.150000X-0.512500X-0.150000X0.512500X-0.150000X0*%
%TD*%
%TA.AperFunction,SMDPad,CuDef*%
%ADD40RoundRect,0.250000X0.362500X1.425000X-0.362500X1.425000X-0.362500X-1.425000X0.362500X-1.425000X0*%
%TD*%
%TA.AperFunction,SMDPad,CuDef*%
%ADD41RoundRect,0.250000X0.325000X0.650000X-0.325000X0.650000X-0.325000X-0.650000X0.325000X-0.650000X0*%
%TD*%
%TA.AperFunction,SMDPad,CuDef*%
%ADD42RoundRect,0.125000X0.125000X0.125000X-0.125000X0.125000X-0.125000X-0.125000X0.125000X-0.125000X0*%
%TD*%
%TA.AperFunction,SMDPad,CuDef*%
%ADD43RoundRect,0.250001X-3.499999X1.099999X-3.499999X-1.099999X3.499999X-1.099999X3.499999X1.099999X0*%
%TD*%
%TA.AperFunction,SMDPad,CuDef*%
%ADD44RoundRect,0.375000X-0.375000X0.625000X-0.375000X-0.625000X0.375000X-0.625000X0.375000X0.625000X0*%
%TD*%
%TA.AperFunction,SMDPad,CuDef*%
%ADD45RoundRect,0.500000X-1.400000X0.500000X-1.400000X-0.500000X1.400000X-0.500000X1.400000X0.500000X0*%
%TD*%
%TA.AperFunction,ComponentPad*%
%ADD46C,1.400000*%
%TD*%
%TA.AperFunction,SMDPad,CuDef*%
%ADD47RoundRect,0.075000X-0.700000X-0.075000X0.700000X-0.075000X0.700000X0.075000X-0.700000X0.075000X0*%
%TD*%
%TA.AperFunction,SMDPad,CuDef*%
%ADD48RoundRect,0.075000X-0.075000X-0.700000X0.075000X-0.700000X0.075000X0.700000X-0.075000X0.700000X0*%
%TD*%
%TA.AperFunction,SMDPad,CuDef*%
%ADD49RoundRect,0.250000X-0.325000X-1.100000X0.325000X-1.100000X0.325000X1.100000X-0.325000X1.100000X0*%
%TD*%
%TA.AperFunction,SMDPad,CuDef*%
%ADD50RoundRect,0.150000X-0.825000X-0.150000X0.825000X-0.150000X0.825000X0.150000X-0.825000X0.150000X0*%
%TD*%
%TA.AperFunction,SMDPad,CuDef*%
%ADD51RoundRect,0.243750X0.243750X0.456250X-0.243750X0.456250X-0.243750X-0.456250X0.243750X-0.456250X0*%
%TD*%
%TA.AperFunction,SMDPad,CuDef*%
%ADD52FreePoly0,90.000000*%
%TD*%
%TA.AperFunction,SMDPad,CuDef*%
%ADD53R,1.500000X1.000000*%
%TD*%
%TA.AperFunction,SMDPad,CuDef*%
%ADD54FreePoly1,90.000000*%
%TD*%
%TA.AperFunction,SMDPad,CuDef*%
%ADD55RoundRect,0.032500X-0.097500X0.397500X-0.097500X-0.397500X0.097500X-0.397500X0.097500X0.397500X0*%
%TD*%
%TA.AperFunction,SMDPad,CuDef*%
%ADD56RoundRect,0.032500X-0.397500X0.097500X-0.397500X-0.097500X0.397500X-0.097500X0.397500X0.097500X0*%
%TD*%
%TA.AperFunction,SMDPad,CuDef*%
%ADD57R,4.975000X4.600000*%
%TD*%
%TA.AperFunction,ViaPad*%
%ADD58C,0.600000*%
%TD*%
%TA.AperFunction,Conductor*%
%ADD59C,0.254000*%
%TD*%
%TA.AperFunction,Conductor*%
%ADD60C,0.200000*%
%TD*%
%TA.AperFunction,Conductor*%
%ADD61C,0.600000*%
%TD*%
%TA.AperFunction,Conductor*%
%ADD62C,0.400000*%
%TD*%
%TA.AperFunction,Conductor*%
%ADD63C,1.000000*%
%TD*%
G04 APERTURE END LIST*
D10*
%TO.P,R7,2*%
%TO.N,/MCU/FET_TEMP*%
X102489000Y-124714000D03*
%TO.P,R7,1*%
%TO.N,GND*%
X102489000Y-122889000D03*
%TD*%
D11*
%TO.P,J4,1,Pin_1_1*%
%TO.N,/ThreePhaseBridge and Power/SHA*%
X105500000Y-116500000D03*
%TD*%
%TO.P,J5,1,Pin_1_1*%
%TO.N,/ThreePhaseBridge and Power/SHB*%
X105500000Y-130000000D03*
%TD*%
%TO.P,J6,1,Pin_1_1*%
%TO.N,/ThreePhaseBridge and Power/SHC*%
X105500000Y-143715000D03*
%TD*%
D12*
%TO.P,Q1,5,D_5*%
%TO.N,VBUS*%
X115350000Y-123095000D03*
D13*
%TO.P,Q1,4,G_4*%
%TO.N,/ThreePhaseBridge and Power/GHA*%
X111400000Y-125000000D03*
%TO.P,Q1,3,S_3*%
%TO.N,/ThreePhaseBridge and Power/SHA*%
X111400000Y-123730000D03*
%TO.P,Q1,2,S_2*%
X111400000Y-122460000D03*
%TO.P,Q1,1,S_1*%
X111400000Y-121190000D03*
%TD*%
D12*
%TO.P,Q2,5,D_5*%
%TO.N,/ThreePhaseBridge and Power/SHA*%
X113450000Y-116650000D03*
D14*
%TO.P,Q2,4,G_4*%
%TO.N,/ThreePhaseBridge and Power/GLA*%
X117400000Y-114745000D03*
%TO.P,Q2,3,S_3*%
%TO.N,/ThreePhaseBridge and Power/SPA*%
X117400000Y-116015000D03*
%TO.P,Q2,2,S_2*%
X117400000Y-117285000D03*
%TO.P,Q2,1,S_1*%
X117400000Y-118555000D03*
%TD*%
D12*
%TO.P,Q3,5,D_5*%
%TO.N,VBUS*%
X115550000Y-136635000D03*
D13*
%TO.P,Q3,4,G_4*%
%TO.N,/ThreePhaseBridge and Power/GHB*%
X111600000Y-138540000D03*
%TO.P,Q3,3,S_3*%
%TO.N,/ThreePhaseBridge and Power/SHB*%
X111600000Y-137270000D03*
%TO.P,Q3,2,S_2*%
X111600000Y-136000000D03*
%TO.P,Q3,1,S_1*%
X111600000Y-134730000D03*
%TD*%
D12*
%TO.P,Q4,5,D_5*%
%TO.N,/ThreePhaseBridge and Power/SHB*%
X113450000Y-129825000D03*
D14*
%TO.P,Q4,4,G_4*%
%TO.N,/ThreePhaseBridge and Power/GLB*%
X117400000Y-127920000D03*
%TO.P,Q4,3,S_3*%
%TO.N,/ThreePhaseBridge and Power/SPB*%
X117400000Y-129190000D03*
%TO.P,Q4,2,S_2*%
X117400000Y-130460000D03*
%TO.P,Q4,1,S_1*%
X117400000Y-131730000D03*
%TD*%
D12*
%TO.P,Q5,5,D_5*%
%TO.N,VBUS*%
X115550000Y-150850000D03*
D13*
%TO.P,Q5,4,G_4*%
%TO.N,/ThreePhaseBridge and Power/GHC*%
X111600000Y-152755000D03*
%TO.P,Q5,3,S_3*%
%TO.N,/ThreePhaseBridge and Power/SHC*%
X111600000Y-151485000D03*
%TO.P,Q5,2,S_2*%
X111600000Y-150215000D03*
%TO.P,Q5,1,S_1*%
X111600000Y-148945000D03*
%TD*%
D12*
%TO.P,Q6,5,D_5*%
%TO.N,/ThreePhaseBridge and Power/SHC*%
X113450000Y-143850000D03*
D14*
%TO.P,Q6,4,G_4*%
%TO.N,/ThreePhaseBridge and Power/GLC*%
X117400000Y-141945000D03*
%TO.P,Q6,3,S_3*%
%TO.N,/ThreePhaseBridge and Power/SPC*%
X117400000Y-143215000D03*
%TO.P,Q6,2,S_2*%
X117400000Y-144485000D03*
%TO.P,Q6,1,S_1*%
X117400000Y-145755000D03*
%TD*%
D15*
%TO.P,U6,4*%
%TO.N,N/C*%
X119044752Y-102370076D03*
%TO.P,U6,3*%
X130044750Y-102370076D03*
D16*
%TO.P,U6,2,2_2*%
%TO.N,VBUS*%
X122044751Y-112370076D03*
%TO.P,U6,1,1_1*%
%TO.N,GND*%
X127044751Y-112370076D03*
%TD*%
D17*
%TO.P,J24,1,Pin_1_1*%
%TO.N,/MCU/U1_TX*%
X163830000Y-141224000D03*
%TD*%
%TO.P,J23,1,Pin_1_1*%
%TO.N,/MCU/U1_RX*%
X165735000Y-141224000D03*
%TD*%
D18*
%TO.P,J8,1,Pin_1_1*%
%TO.N,/MCU/TIM2_CH1*%
X172593000Y-115951000D03*
%TD*%
D19*
%TO.P,R19,1*%
%TO.N,GND*%
X129389500Y-126642500D03*
%TO.P,R19,2*%
%TO.N,/MCU/VB*%
X131214500Y-126642500D03*
%TD*%
D20*
%TO.P,R20,1*%
%TO.N,/MCU/VC*%
X119149500Y-156210000D03*
%TO.P,R20,2*%
%TO.N,/ThreePhaseBridge and Power/SHC*%
X117324500Y-156210000D03*
%TD*%
D21*
%TO.P,C40,1*%
%TO.N,GND*%
X129540000Y-119507000D03*
%TO.P,C40,2*%
%TO.N,/ThreePhaseBridge and Power/SPA*%
X131440000Y-119507000D03*
%TD*%
D22*
%TO.P,J10,1,Pin_1_1*%
%TO.N,/MCU/ENC_SDA*%
X177650000Y-118700000D03*
%TD*%
D21*
%TO.P,C8,1*%
%TO.N,+3.3V*%
X156149000Y-109220000D03*
%TO.P,C8,2*%
%TO.N,GND*%
X158049000Y-109220000D03*
%TD*%
%TO.P,C30,1*%
%TO.N,/ThreePhaseBridge and Power/BUCKVCC*%
X158054000Y-147447000D03*
%TO.P,C30,2*%
%TO.N,GND*%
X159954000Y-147447000D03*
%TD*%
D22*
%TO.P,J22,1,Pin_1_1*%
%TO.N,+5V*%
X177650000Y-149150000D03*
%TD*%
D23*
%TO.P,J3,A1B12,GND_A1B12*%
%TO.N,GND*%
X168300000Y-107800000D03*
%TO.P,J3,A4B9,V_A4B9*%
%TO.N,V*%
X167500000Y-107800000D03*
D24*
%TO.P,J3,A5,CC1_A5*%
%TO.N,Net-(J3-CC1)*%
X166350000Y-107800000D03*
%TO.P,J3,A6,DP1_A6*%
%TO.N,/USB_D+*%
X165350000Y-107800000D03*
%TO.P,J3,A7,DN1_A7*%
%TO.N,/USB_D-*%
X164850000Y-107800000D03*
%TO.P,J3,A8,SBU1_A8*%
%TO.N,unconnected-(J3-SBU1-PadA8)*%
X163850000Y-107800000D03*
D23*
%TO.P,J3,A9B4,V_A9B4*%
%TO.N,V*%
X162700000Y-107800000D03*
%TO.P,J3,A12B1,GND_A12B1*%
%TO.N,GND*%
X161900000Y-107800000D03*
D24*
%TO.P,J3,B5,CC2_B5*%
%TO.N,Net-(J3-CC2)*%
X163350000Y-107800000D03*
%TO.P,J3,B6,DP2_B6*%
%TO.N,/USB_D+*%
X164350000Y-107800000D03*
%TO.P,J3,B7,DN2_B7*%
%TO.N,/USB_D-*%
X165850000Y-107800000D03*
%TO.P,J3,B8,SBU2_B8*%
%TO.N,unconnected-(J3-SBU2-PadB8)*%
X166850000Y-107800000D03*
D25*
%TO.P,J3,SH1,SHIELD_SH1*%
%TO.N,GND*%
X169420000Y-103075000D03*
%TO.P,J3,SH2,SHIELD_SH2*%
X160780000Y-103075000D03*
D26*
%TO.P,J3,SH3,SHIELD_SH3*%
X169420000Y-107225000D03*
%TO.P,J3,SH4,SHIELD_SH4*%
X160780000Y-107225000D03*
%TD*%
D27*
%TO.P,J16,1,Pin_1_1*%
%TO.N,/MCU/ENC_CS*%
X177650000Y-137900000D03*
%TD*%
D28*
%TO.P,D4,1,K_1*%
%TO.N,/MCU/LED2*%
X173140000Y-134572500D03*
%TO.P,D4,2,A_2*%
%TO.N,Net-(D4-A)*%
X173140000Y-136447500D03*
%TD*%
D29*
%TO.P,J7,1,Pin_1_1*%
%TO.N,+3.3V*%
X146650000Y-102775000D03*
D30*
%TO.P,J7,2,Pin_2_2*%
%TO.N,/MCU/DEBUG_DIO*%
X149150000Y-102775000D03*
%TO.P,J7,3,Pin_3_3*%
%TO.N,/MCU/DEBUG_CLK*%
X151650000Y-102775000D03*
%TO.P,J7,4,Pin_4_4*%
%TO.N,GND*%
X154150000Y-102775000D03*
%TD*%
D31*
%TO.P,C18,1*%
%TO.N,/MCU/3V3_MCU*%
X158115000Y-136083000D03*
%TO.P,C18,2*%
%TO.N,GND*%
X158115000Y-137983000D03*
%TD*%
%TO.P,C15,1*%
%TO.N,/MCU/3V3_MCU*%
X170800000Y-138240000D03*
%TO.P,C15,2*%
%TO.N,GND*%
X170800000Y-140140000D03*
%TD*%
D27*
%TO.P,J14,1,Pin_1_1*%
%TO.N,/MCU/ENC_MISO*%
X177650000Y-135100000D03*
%TD*%
D10*
%TO.P,R18,1*%
%TO.N,/MCU/VB*%
X133604000Y-127611500D03*
%TO.P,R18,2*%
%TO.N,/ThreePhaseBridge and Power/SHB*%
X133604000Y-129436500D03*
%TD*%
%TO.P,R8,1*%
%TO.N,Net-(JP1-C)*%
X170110000Y-115057500D03*
%TO.P,R8,2*%
%TO.N,Net-(U2-PB8)*%
X170110000Y-116882500D03*
%TD*%
D27*
%TO.P,J12,1,Pin_1_1*%
%TO.N,/MCU/ENC_SCK*%
X177650000Y-129500000D03*
%TD*%
D20*
%TO.P,R15,1*%
%TO.N,Net-(R14-Pad2)*%
X155112500Y-142240400D03*
%TO.P,R15,2*%
%TO.N,Net-(C33-Pad1)*%
X153287500Y-142240400D03*
%TD*%
D32*
%TO.P,J2,1,Pin_1_1*%
%TO.N,Net-(J2-Pin_1)*%
X137022500Y-102430000D03*
%TD*%
D33*
%TO.P,C34,1*%
%TO.N,Net-(U4-FB)*%
X155178800Y-144628000D03*
%TO.P,C34,2*%
%TO.N,Net-(C33-Pad1)*%
X153278800Y-144628000D03*
%TD*%
D21*
%TO.P,C37,1*%
%TO.N,GND*%
X129413000Y-130048000D03*
%TO.P,C37,2*%
%TO.N,/MCU/VB*%
X131313000Y-130048000D03*
%TD*%
%TO.P,C19,1*%
%TO.N,/MCU/3V3_MCU_A*%
X163642000Y-147447000D03*
%TO.P,C19,2*%
%TO.N,GND*%
X165542000Y-147447000D03*
%TD*%
D22*
%TO.P,J18,1,Pin_1_1*%
%TO.N,GND*%
X177650000Y-110100000D03*
%TD*%
D20*
%TO.P,R13,1*%
%TO.N,GND*%
X156106500Y-119126000D03*
%TO.P,R13,2*%
%TO.N,Net-(U4-RCL)*%
X154281500Y-119126000D03*
%TD*%
D21*
%TO.P,C39,1*%
%TO.N,GND*%
X129527900Y-116078000D03*
%TO.P,C39,2*%
%TO.N,/MCU/VA*%
X131427900Y-116078000D03*
%TD*%
D34*
%TO.P,D1,1,K_1*%
%TO.N,+5V*%
X145750000Y-115200000D03*
%TO.P,D1,2,A_2*%
%TO.N,V*%
X145750000Y-117400000D03*
%TD*%
D19*
%TO.P,R16,1*%
%TO.N,GND*%
X153337500Y-146977000D03*
%TO.P,R16,2*%
%TO.N,Net-(U4-FB)*%
X155162500Y-146977000D03*
%TD*%
D35*
%TO.P,L3,1*%
%TO.N,Net-(U1-SW)*%
X156500200Y-157200000D03*
%TO.P,L3,2*%
%TO.N,/5V_BUCK*%
X160200200Y-157200000D03*
%TD*%
D21*
%TO.P,C31,1*%
%TO.N,+3.3V*%
X168341000Y-113157000D03*
%TO.P,C31,2*%
%TO.N,GND*%
X170241000Y-113157000D03*
%TD*%
D19*
%TO.P,R6,1*%
%TO.N,/VbusSense*%
X154916500Y-125730000D03*
%TO.P,R6,2*%
%TO.N,GND*%
X156741500Y-125730000D03*
%TD*%
D36*
%TO.P,D6,1,K_1*%
%TO.N,Net-(D6-K)*%
X132708400Y-144170400D03*
%TO.P,D6,2,A_2*%
%TO.N,GND*%
X128708400Y-144170400D03*
%TD*%
D37*
%TO.P,C35,1*%
%TO.N,GND*%
X148525200Y-151150000D03*
%TO.P,C35,2*%
%TO.N,/+12V*%
X148525200Y-149250000D03*
%TD*%
D21*
%TO.P,C44,1*%
%TO.N,GND*%
X129479000Y-147574000D03*
%TO.P,C44,2*%
%TO.N,/ThreePhaseBridge and Power/SPC*%
X131379000Y-147574000D03*
%TD*%
D20*
%TO.P,R27,1*%
%TO.N,Net-(D7-A)*%
X158022500Y-111480000D03*
%TO.P,R27,2*%
%TO.N,+3.3V*%
X156197500Y-111480000D03*
%TD*%
D33*
%TO.P,C32,1*%
%TO.N,Net-(U4-BST)*%
X155150000Y-137402000D03*
%TO.P,C32,2*%
%TO.N,Net-(D6-K)*%
X153250000Y-137402000D03*
%TD*%
D38*
%TO.P,FB1,1*%
%TO.N,+3.3V*%
X161960000Y-117520000D03*
%TO.P,FB1,2*%
%TO.N,/MCU/3V3_MCU*%
X161960000Y-119270000D03*
%TD*%
D37*
%TO.P,C28,1*%
%TO.N,Net-(U4-VCP)*%
X143891000Y-122997000D03*
%TO.P,C28,2*%
%TO.N,VBUS*%
X143891000Y-121097000D03*
%TD*%
D39*
%TO.P,U1,1,GND_1*%
%TO.N,GND*%
X148037700Y-157050000D03*
%TO.P,U1,2,SW_2*%
%TO.N,Net-(U1-SW)*%
X148037700Y-156100000D03*
%TO.P,U1,3,VIN_3*%
%TO.N,/+12V*%
X148037700Y-155150000D03*
%TO.P,U1,4,VFB_4*%
%TO.N,Net-(U1-VFB)*%
X145762700Y-155150000D03*
%TO.P,U1,5,EN_5*%
%TO.N,/+12V*%
X145762700Y-156100000D03*
%TO.P,U1,6,VBST_6*%
%TO.N,Net-(U1-VBST)*%
X145762700Y-157050000D03*
%TD*%
D40*
%TO.P,R25,1*%
%TO.N,/ThreePhaseBridge and Power/SPB*%
X132925000Y-136900266D03*
%TO.P,R25,2*%
%TO.N,GND*%
X127000000Y-136900266D03*
%TD*%
D27*
%TO.P,J21,1,Pin_1_1*%
%TO.N,+3.3V*%
X177650000Y-121550000D03*
%TD*%
D41*
%TO.P,C45,1*%
%TO.N,GND*%
X126075000Y-144100000D03*
%TO.P,C45,2*%
%TO.N,VBUS*%
X123125000Y-144100000D03*
%TD*%
D31*
%TO.P,C33,1*%
%TO.N,Net-(C33-Pad1)*%
X150825200Y-149250000D03*
%TO.P,C33,2*%
%TO.N,/+12V*%
X150825200Y-151150000D03*
%TD*%
D37*
%TO.P,C21,1*%
%TO.N,/MCU/FET_TEMP*%
X107569000Y-124648000D03*
%TO.P,C21,2*%
%TO.N,GND*%
X107569000Y-122748000D03*
%TD*%
D20*
%TO.P,R21,1*%
%TO.N,GND*%
X122729000Y-156210000D03*
%TO.P,R21,2*%
%TO.N,/MCU/VC*%
X120904000Y-156210000D03*
%TD*%
D41*
%TO.P,C43,1*%
%TO.N,GND*%
X126175000Y-116900000D03*
%TO.P,C43,2*%
%TO.N,VBUS*%
X123225000Y-116900000D03*
%TD*%
D42*
%TO.P,D2,1,K_1*%
%TO.N,+5V*%
X165565000Y-152400000D03*
%TO.P,D2,2,A_2*%
%TO.N,/5V_BUCK*%
X163365000Y-152400000D03*
%TD*%
D21*
%TO.P,C26,1*%
%TO.N,Net-(U4-CPH)*%
X150180000Y-119126000D03*
%TO.P,C26,2*%
%TO.N,Net-(U4-CPL)*%
X152080000Y-119126000D03*
%TD*%
D31*
%TO.P,C24,1*%
%TO.N,VBUS*%
X149225000Y-121097000D03*
%TO.P,C24,2*%
%TO.N,GND*%
X149225000Y-122997000D03*
%TD*%
D43*
%TO.P,L1,1*%
%TO.N,Net-(D6-K)*%
X146863000Y-139917600D03*
%TO.P,L1,2*%
%TO.N,/+12V*%
X146863000Y-145717600D03*
%TD*%
D37*
%TO.P,C17,1*%
%TO.N,/MCU/3V3_MCU*%
X170160000Y-120980000D03*
%TO.P,C17,2*%
%TO.N,GND*%
X170160000Y-119080000D03*
%TD*%
D21*
%TO.P,C12,1*%
%TO.N,/VbusSense*%
X154879000Y-127762000D03*
%TO.P,C12,2*%
%TO.N,GND*%
X156779000Y-127762000D03*
%TD*%
D37*
%TO.P,C16,1*%
%TO.N,/MCU/3V3_MCU*%
X158720000Y-123020000D03*
%TO.P,C16,2*%
%TO.N,GND*%
X158720000Y-121120000D03*
%TD*%
D31*
%TO.P,C10,1*%
%TO.N,/+12V*%
X143730800Y-149230000D03*
%TO.P,C10,2*%
%TO.N,GND*%
X143730800Y-151130000D03*
%TD*%
D32*
%TO.P,J19,1,Pin_1_1*%
%TO.N,GND*%
X139800000Y-102400000D03*
%TD*%
D21*
%TO.P,C20,1*%
%TO.N,/MCU/3V3_MCU_A*%
X163642000Y-149987000D03*
%TO.P,C20,2*%
%TO.N,GND*%
X165542000Y-149987000D03*
%TD*%
D22*
%TO.P,J17,1,Pin_1_1*%
%TO.N,GND*%
X177650000Y-146300000D03*
%TD*%
D44*
%TO.P,U3,1,GND_1*%
%TO.N,GND*%
X153250000Y-110350000D03*
%TO.P,U3,2,VO_2*%
%TO.N,+3.3V*%
X150950000Y-110350000D03*
D45*
X150950000Y-116650000D03*
D44*
%TO.P,U3,3,VI_3*%
%TO.N,+5V*%
X148650000Y-110350000D03*
%TD*%
D20*
%TO.P,R11,1*%
%TO.N,+3.3V*%
X171727500Y-145923000D03*
%TO.P,R11,2*%
%TO.N,/MCU/DRV_MISO*%
X169902500Y-145923000D03*
%TD*%
D21*
%TO.P,C38,1*%
%TO.N,GND*%
X113604000Y-156210000D03*
%TO.P,C38,2*%
%TO.N,/MCU/VC*%
X115504000Y-156210000D03*
%TD*%
D28*
%TO.P,D3,1,K_1*%
%TO.N,/MCU/LED1*%
X173140000Y-119202500D03*
%TO.P,D3,2,A_2*%
%TO.N,Net-(D3-A)*%
X173140000Y-121077500D03*
%TD*%
D40*
%TO.P,R26,1*%
%TO.N,/ThreePhaseBridge and Power/SPC*%
X132925000Y-151400266D03*
%TO.P,R26,2*%
%TO.N,GND*%
X127000000Y-151400266D03*
%TD*%
D33*
%TO.P,C36,1*%
%TO.N,GND*%
X159950000Y-144400000D03*
%TO.P,C36,2*%
%TO.N,/+12V*%
X158050000Y-144400000D03*
%TD*%
D37*
%TO.P,C6,1*%
%TO.N,+5V*%
X138430000Y-137221000D03*
%TO.P,C6,2*%
%TO.N,GND*%
X138430000Y-135321000D03*
%TD*%
D40*
%TO.P,R24,1*%
%TO.N,/ThreePhaseBridge and Power/SPA*%
X132962500Y-122900266D03*
%TO.P,R24,2*%
%TO.N,GND*%
X127037500Y-122900266D03*
%TD*%
D27*
%TO.P,J9,1,Pin_1_1*%
%TO.N,GND*%
X177650000Y-140700000D03*
%TD*%
D19*
%TO.P,R28,1*%
%TO.N,GND*%
X164695500Y-113284000D03*
%TO.P,R28,2*%
%TO.N,Net-(J3-CC1)*%
X166520500Y-113284000D03*
%TD*%
D20*
%TO.P,R17,1*%
%TO.N,Net-(U4-FB)*%
X155162500Y-149352000D03*
%TO.P,R17,2*%
%TO.N,/+12V*%
X153337500Y-149352000D03*
%TD*%
D46*
%TO.P,TH1,1*%
%TO.N,/MCU/FET_TEMP*%
X105000000Y-124605000D03*
%TO.P,TH1,2*%
%TO.N,/MCU/3V3_MCU*%
X105000000Y-122705000D03*
%TD*%
D21*
%TO.P,C11,1*%
%TO.N,Net-(U1-VBST)*%
X145880000Y-158880000D03*
%TO.P,C11,2*%
%TO.N,Net-(U1-SW)*%
X147780000Y-158880000D03*
%TD*%
%TO.P,C14,1*%
%TO.N,+3.3V*%
X156190000Y-114130000D03*
%TO.P,C14,2*%
%TO.N,GND*%
X158090000Y-114130000D03*
%TD*%
D10*
%TO.P,R23,1*%
%TO.N,GND*%
X134747000Y-113641500D03*
%TO.P,R23,2*%
%TO.N,/MCU/VA*%
X134747000Y-115466500D03*
%TD*%
D21*
%TO.P,C29,1*%
%TO.N,Net-(U4-VGLS)*%
X146050000Y-119126000D03*
%TO.P,C29,2*%
%TO.N,GND*%
X147950000Y-119126000D03*
%TD*%
D47*
%TO.P,U2,1,VBAT_1*%
%TO.N,/MCU/3V3_MCU*%
X158825000Y-126400000D03*
%TO.P,U2,2,PC13_2*%
%TO.N,/MCU/PWM_A-*%
X158825000Y-126900000D03*
%TO.P,U2,3,PC14_3*%
%TO.N,/MCU/LED1*%
X158825000Y-127400000D03*
%TO.P,U2,4,PC15_4*%
%TO.N,/MCU/LED2*%
X158825000Y-127900000D03*
%TO.P,U2,5,PF0_5*%
%TO.N,unconnected-(U2-PF0-Pad5)*%
X158825000Y-128400000D03*
%TO.P,U2,6,PF1_6*%
%TO.N,unconnected-(U2-PF1-Pad6)*%
X158825000Y-128900000D03*
%TO.P,U2,7,PG10_7*%
%TO.N,unconnected-(U2-PG10-Pad7)*%
X158825000Y-129400000D03*
%TO.P,U2,8,PC0_8*%
%TO.N,/MCU/VC*%
X158825000Y-129900000D03*
%TO.P,U2,9,PC1_9*%
%TO.N,/MCU/IC*%
X158825000Y-130400000D03*
%TO.P,U2,10,PC2_10*%
%TO.N,/VbusSense*%
X158825000Y-130900000D03*
%TO.P,U2,11,PC3_11*%
%TO.N,unconnected-(U2-PC3-Pad11)*%
X158825000Y-131400000D03*
%TO.P,U2,12,PA0_12*%
%TO.N,/MCU/FET_TEMP*%
X158825000Y-131900000D03*
%TO.P,U2,13,PA1_13*%
%TO.N,unconnected-(U2-PA1-Pad13)*%
X158825000Y-132400000D03*
%TO.P,U2,14,PA2_14*%
%TO.N,unconnected-(U2-PA2-Pad14)*%
X158825000Y-132900000D03*
%TO.P,U2,15,VSS_15*%
%TO.N,GND*%
X158825000Y-133400000D03*
%TO.P,U2,16,VDD_16*%
%TO.N,/MCU/3V3_MCU*%
X158825000Y-133900000D03*
D48*
%TO.P,U2,17,PA3_17*%
%TO.N,/MCU/VA*%
X160750000Y-135825000D03*
%TO.P,U2,18,PA4_18*%
%TO.N,unconnected-(U2-PA4-Pad18)*%
X161250000Y-135825000D03*
%TO.P,U2,19,PA5_19*%
%TO.N,/MCU/DRV_SCK*%
X161750000Y-135825000D03*
%TO.P,U2,20,PA6_20*%
%TO.N,/MCU/DRV_MISO*%
X162250000Y-135825000D03*
%TO.P,U2,21,PA7_21*%
%TO.N,/MCU/IB*%
X162750000Y-135825000D03*
%TO.P,U2,22,PC4_22*%
%TO.N,/MCU/U1_TX*%
X163250000Y-135825000D03*
%TO.P,U2,23,PC5_23*%
%TO.N,/MCU/U1_RX*%
X163750000Y-135825000D03*
%TO.P,U2,24,PB0_24*%
%TO.N,/MCU/PWM_B-*%
X164250000Y-135825000D03*
%TO.P,U2,25,PB1_25*%
%TO.N,/MCU/IA*%
X164750000Y-135825000D03*
%TO.P,U2,26,PB2_26*%
%TO.N,unconnected-(U2-PB2-Pad26)*%
X165250000Y-135825000D03*
%TO.P,U2,27,VSSA_27*%
%TO.N,GND*%
X165750000Y-135825000D03*
%TO.P,U2,28,VREF+_28*%
%TO.N,/MCU/3V3_MCU_A*%
X166250000Y-135825000D03*
%TO.P,U2,29,VDDA_29*%
X166750000Y-135825000D03*
%TO.P,U2,30,PB10_30*%
%TO.N,/MCU/OC*%
X167250000Y-135825000D03*
%TO.P,U2,31,VSS_31*%
%TO.N,GND*%
X167750000Y-135825000D03*
%TO.P,U2,32,VDD_32*%
%TO.N,/MCU/3V3_MCU*%
X168250000Y-135825000D03*
D47*
%TO.P,U2,33,PB11_33*%
%TO.N,unconnected-(U2-PB11-Pad33)*%
X170175000Y-133900000D03*
%TO.P,U2,34,PB12_34*%
%TO.N,/CAN_RX*%
X170175000Y-133400000D03*
%TO.P,U2,35,PB13_35*%
%TO.N,/CAN_TX*%
X170175000Y-132900000D03*
%TO.P,U2,36,PB14_36*%
%TO.N,/MCU/VB*%
X170175000Y-132400000D03*
%TO.P,U2,37,PB15_37*%
%TO.N,/MCU/PWM_C-*%
X170175000Y-131900000D03*
%TO.P,U2,38,PC6_38*%
%TO.N,/MCU/DRV_CS*%
X170175000Y-131400000D03*
%TO.P,U2,39,PC7_39*%
%TO.N,/MCU/DRV_EN*%
X170175000Y-130900000D03*
%TO.P,U2,40,PC8_40*%
%TO.N,/MCU/ENC_SCL*%
X170175000Y-130400000D03*
%TO.P,U2,41,PC9_41*%
%TO.N,/MCU/ENC_SDA*%
X170175000Y-129900000D03*
%TO.P,U2,42,PA8_42*%
%TO.N,/MCU/PWM_A+*%
X170175000Y-129400000D03*
%TO.P,U2,43,PA9_43*%
%TO.N,/MCU/PWM_B+*%
X170175000Y-128900000D03*
%TO.P,U2,44,PA10_44*%
%TO.N,/MCU/PWM_C+*%
X170175000Y-128400000D03*
%TO.P,U2,45,PA11_45*%
%TO.N,/USB_D-*%
X170175000Y-127900000D03*
%TO.P,U2,46,PA12_46*%
%TO.N,/USB_D+*%
X170175000Y-127400000D03*
%TO.P,U2,47,VSS_47*%
%TO.N,GND*%
X170175000Y-126900000D03*
%TO.P,U2,48,VDD_48*%
%TO.N,/MCU/3V3_MCU*%
X170175000Y-126400000D03*
D48*
%TO.P,U2,49,PA13_49*%
%TO.N,/MCU/DEBUG_DIO*%
X168250000Y-124475000D03*
%TO.P,U2,50,PA14_50*%
%TO.N,/MCU/DEBUG_CLK*%
X167750000Y-124475000D03*
%TO.P,U2,51,PA15_51*%
%TO.N,/MCU/TIM2_CH1*%
X167250000Y-124475000D03*
%TO.P,U2,52,PC10_52*%
%TO.N,/MCU/ENC_SCK*%
X166750000Y-124475000D03*
%TO.P,U2,53,PC11_53*%
%TO.N,/MCU/ENC_MISO*%
X166250000Y-124475000D03*
%TO.P,U2,54,PC12_54*%
%TO.N,/MCU/ENC_MOSI*%
X165750000Y-124475000D03*
%TO.P,U2,55,PD2_55*%
%TO.N,unconnected-(U2-PD2-Pad55)*%
X165250000Y-124475000D03*
%TO.P,U2,56,PB3_56*%
%TO.N,unconnected-(U2-PB3-Pad56)*%
X164750000Y-124475000D03*
%TO.P,U2,57,PB4_57*%
%TO.N,unconnected-(U2-PB4-Pad57)*%
X164250000Y-124475000D03*
%TO.P,U2,58,PB5_58*%
%TO.N,/MCU/DRV_MOSI*%
X163750000Y-124475000D03*
%TO.P,U2,59,PB6_59*%
%TO.N,/MCU/ENC_EN*%
X163250000Y-124475000D03*
%TO.P,U2,60,PB7_60*%
%TO.N,/MCU/ENC_CS*%
X162750000Y-124475000D03*
%TO.P,U2,61,PB8_61*%
%TO.N,Net-(U2-PB8)*%
X162250000Y-124475000D03*
%TO.P,U2,62,PB9_62*%
%TO.N,unconnected-(U2-PB9-Pad62)*%
X161750000Y-124475000D03*
%TO.P,U2,63,VSS_63*%
%TO.N,GND*%
X161250000Y-124475000D03*
%TO.P,U2,64,VDD_64*%
%TO.N,/MCU/3V3_MCU*%
X160750000Y-124475000D03*
%TD*%
D19*
%TO.P,R29,1*%
%TO.N,Net-(J3-CC2)*%
X161012500Y-113284000D03*
%TO.P,R29,2*%
%TO.N,GND*%
X162837500Y-113284000D03*
%TD*%
D32*
%TO.P,J1,1,Pin_1_1*%
%TO.N,Net-(J1-Pin_1)*%
X134200000Y-102400000D03*
%TD*%
D22*
%TO.P,J15,1,Pin_1_1*%
%TO.N,/MCU/ENC_EN*%
X177650000Y-112950000D03*
%TD*%
D34*
%TO.P,D5,1,K_1*%
%TO.N,/ThreePhaseBridge and Power/BUCKVCC*%
X158150000Y-139950000D03*
%TO.P,D5,2,A_2*%
%TO.N,/+12V*%
X158150000Y-142150000D03*
%TD*%
D10*
%TO.P,R10,1*%
%TO.N,Net-(D4-A)*%
X173120000Y-138227500D03*
%TO.P,R10,2*%
%TO.N,/MCU/3V3_MCU*%
X173120000Y-140052500D03*
%TD*%
%TO.P,R22,1*%
%TO.N,/MCU/VA*%
X134747000Y-117832500D03*
%TO.P,R22,2*%
%TO.N,/ThreePhaseBridge and Power/SHA*%
X134747000Y-119657500D03*
%TD*%
D21*
%TO.P,C7,1*%
%TO.N,+3.3V*%
X168275000Y-110998000D03*
%TO.P,C7,2*%
%TO.N,GND*%
X170175000Y-110998000D03*
%TD*%
D27*
%TO.P,J13,1,Pin_1_1*%
%TO.N,/MCU/ENC_MOSI*%
X177650000Y-132300000D03*
%TD*%
D10*
%TO.P,R12,1*%
%TO.N,VBUS*%
X152527000Y-121134500D03*
%TO.P,R12,2*%
%TO.N,Net-(U4-RT{slash}SD)*%
X152527000Y-122959500D03*
%TD*%
D41*
%TO.P,C41,1*%
%TO.N,GND*%
X126075000Y-130100000D03*
%TO.P,C41,2*%
%TO.N,VBUS*%
X123125000Y-130100000D03*
%TD*%
D21*
%TO.P,C42,1*%
%TO.N,GND*%
X129352000Y-133477000D03*
%TO.P,C42,2*%
%TO.N,/ThreePhaseBridge and Power/SPB*%
X131252000Y-133477000D03*
%TD*%
D49*
%TO.P,C25,1*%
%TO.N,VBUS*%
X138525000Y-114427000D03*
%TO.P,C25,2*%
%TO.N,GND*%
X141475000Y-114427000D03*
%TD*%
D50*
%TO.P,U5,1,TXD_1*%
%TO.N,/CAN_TX*%
X134481800Y-106603800D03*
%TO.P,U5,2,GND_2*%
%TO.N,GND*%
X134481800Y-107873800D03*
%TO.P,U5,3,VCC_3*%
%TO.N,+5V*%
X134481800Y-109143800D03*
%TO.P,U5,4,RXD_4*%
%TO.N,/CAN_RX*%
X134481800Y-110413800D03*
%TO.P,U5,5,VIO_5*%
%TO.N,+3.3V*%
X139431800Y-110413800D03*
%TO.P,U5,6,CANL_6*%
%TO.N,Net-(J2-Pin_1)*%
X139431800Y-109143800D03*
%TO.P,U5,7,CANH_7*%
%TO.N,Net-(J1-Pin_1)*%
X139431800Y-107873800D03*
%TO.P,U5,8,S_8*%
%TO.N,GND*%
X139431800Y-106603800D03*
%TD*%
D21*
%TO.P,C13,1*%
%TO.N,+3.3V*%
X156230000Y-116770000D03*
%TO.P,C13,2*%
%TO.N,GND*%
X158130000Y-116770000D03*
%TD*%
D10*
%TO.P,R5,1*%
%TO.N,VBUS*%
X155702000Y-121134500D03*
%TO.P,R5,2*%
%TO.N,/VbusSense*%
X155702000Y-122959500D03*
%TD*%
D22*
%TO.P,J11,1,Pin_1_1*%
%TO.N,/MCU/ENC_SCL*%
X177650000Y-115850000D03*
%TD*%
D31*
%TO.P,C9,1*%
%TO.N,/+12V*%
X146220000Y-149230000D03*
%TO.P,C9,2*%
%TO.N,GND*%
X146220000Y-151130000D03*
%TD*%
D27*
%TO.P,J20,1,Pin_1_1*%
%TO.N,+3.3V*%
X177650000Y-126700000D03*
%TD*%
D38*
%TO.P,FB2,1*%
%TO.N,/MCU/3V3_MCU*%
X170750000Y-142125000D03*
%TO.P,FB2,2*%
%TO.N,/MCU/3V3_MCU_A*%
X170750000Y-143875000D03*
%TD*%
D19*
%TO.P,R14,1*%
%TO.N,Net-(D6-K)*%
X153287500Y-139852800D03*
%TO.P,R14,2*%
%TO.N,Net-(R14-Pad2)*%
X155112500Y-139852800D03*
%TD*%
D10*
%TO.P,R9,1*%
%TO.N,Net-(D3-A)*%
X173140000Y-122937500D03*
%TO.P,R9,2*%
%TO.N,/MCU/3V3_MCU*%
X173140000Y-124762500D03*
%TD*%
D19*
%TO.P,R3,1*%
%TO.N,Net-(U1-VFB)*%
X158137700Y-149987000D03*
%TO.P,R3,2*%
%TO.N,GND*%
X159962700Y-149987000D03*
%TD*%
D31*
%TO.P,C5,1*%
%TO.N,+5V*%
X138430000Y-150434000D03*
%TO.P,C5,2*%
%TO.N,GND*%
X138430000Y-152334000D03*
%TD*%
D51*
%TO.P,D7,1,K_1*%
%TO.N,GND*%
X162862500Y-111125000D03*
%TO.P,D7,2,A_2*%
%TO.N,Net-(D7-A)*%
X160987500Y-111125000D03*
%TD*%
D49*
%TO.P,C23,1*%
%TO.N,VBUS*%
X138525000Y-118900000D03*
%TO.P,C23,2*%
%TO.N,GND*%
X141475000Y-118900000D03*
%TD*%
D21*
%TO.P,C27,1*%
%TO.N,Net-(U4-DVDD)*%
X154879000Y-129921000D03*
%TO.P,C27,2*%
%TO.N,GND*%
X156779000Y-129921000D03*
%TD*%
D19*
%TO.P,R4,1*%
%TO.N,Net-(U1-VFB)*%
X158087700Y-152450000D03*
%TO.P,R4,2*%
%TO.N,/5V_BUCK*%
X159912700Y-152450000D03*
%TD*%
D49*
%TO.P,C22,1*%
%TO.N,VBUS*%
X138606000Y-123444000D03*
%TO.P,C22,2*%
%TO.N,GND*%
X141556000Y-123444000D03*
%TD*%
D52*
%TO.P,JP1,1,A_1*%
%TO.N,/MCU/3V3_MCU*%
X166950000Y-119300000D03*
D53*
%TO.P,JP1,2,C_2*%
%TO.N,Net-(JP1-C)*%
X166950000Y-118000000D03*
D54*
%TO.P,JP1,3,B_3*%
%TO.N,GND*%
X166950000Y-116700000D03*
%TD*%
D55*
%TO.P,U4,1,GND_1*%
%TO.N,GND*%
X149750000Y-127065000D03*
%TO.P,U4,2,VGLS_2*%
%TO.N,Net-(U4-VGLS)*%
X149250000Y-127065000D03*
%TO.P,U4,3,CPL_3*%
%TO.N,Net-(U4-CPL)*%
X148750000Y-127065000D03*
%TO.P,U4,4,CPH_4*%
%TO.N,Net-(U4-CPH)*%
X148250000Y-127065000D03*
%TO.P,U4,5,VM_5*%
%TO.N,VBUS*%
X147750000Y-127065000D03*
%TO.P,U4,6,VDRAIN_6*%
X147250000Y-127065000D03*
%TO.P,U4,7,VCP_7*%
%TO.N,Net-(U4-VCP)*%
X146750000Y-127065000D03*
%TO.P,U4,8,GHA_8*%
%TO.N,/ThreePhaseBridge and Power/GHA*%
X146250000Y-127065000D03*
%TO.P,U4,9,SHA_9*%
%TO.N,/ThreePhaseBridge and Power/SHA*%
X145750000Y-127065000D03*
%TO.P,U4,10,GLA_10*%
%TO.N,/ThreePhaseBridge and Power/GLA*%
X145250000Y-127065000D03*
%TO.P,U4,11,SPA_11*%
%TO.N,/ThreePhaseBridge and Power/SPA*%
X144750000Y-127065000D03*
%TO.P,U4,12,SNA_12*%
%TO.N,GND*%
X144250000Y-127065000D03*
D56*
%TO.P,U4,13,SNB_13*%
X143565000Y-127750000D03*
%TO.P,U4,14,SPB_14*%
%TO.N,/ThreePhaseBridge and Power/SPB*%
X143565000Y-128250000D03*
%TO.P,U4,15,GLB_15*%
%TO.N,/ThreePhaseBridge and Power/GLB*%
X143565000Y-128750000D03*
%TO.P,U4,16,SHB_16*%
%TO.N,/ThreePhaseBridge and Power/SHB*%
X143565000Y-129250000D03*
%TO.P,U4,17,GHB_17*%
%TO.N,/ThreePhaseBridge and Power/GHB*%
X143565000Y-129750000D03*
%TO.P,U4,18,GHC_18*%
%TO.N,/ThreePhaseBridge and Power/GHC*%
X143565000Y-130250000D03*
%TO.P,U4,19,SHC_19*%
%TO.N,/ThreePhaseBridge and Power/SHC*%
X143565000Y-130750000D03*
%TO.P,U4,20,GLC_20*%
%TO.N,/ThreePhaseBridge and Power/GLC*%
X143565000Y-131250000D03*
%TO.P,U4,21,SPC_21*%
%TO.N,/ThreePhaseBridge and Power/SPC*%
X143565000Y-131750000D03*
%TO.P,U4,22,SNC_22*%
%TO.N,GND*%
X143565000Y-132250000D03*
%TO.P,U4,23,SOC_23*%
%TO.N,/MCU/IC*%
X143565000Y-132750000D03*
%TO.P,U4,24,SOB_24*%
%TO.N,/MCU/IB*%
X143565000Y-133250000D03*
D55*
%TO.P,U4,25,SOA_25*%
%TO.N,/MCU/IA*%
X144250000Y-133935000D03*
%TO.P,U4,26,VREF_26*%
%TO.N,+3.3V*%
X144750000Y-133935000D03*
%TO.P,U4,27,AGND_27*%
%TO.N,GND*%
X145250000Y-133935000D03*
%TO.P,U4,28,~{FAULT}_28*%
%TO.N,/MCU/OC*%
X145750000Y-133935000D03*
%TO.P,U4,29,SDO_29*%
%TO.N,/MCU/DRV_MOSI*%
X146250000Y-133935000D03*
%TO.P,U4,30,SDI_30*%
%TO.N,/MCU/DRV_MISO*%
X146750000Y-133935000D03*
%TO.P,U4,31,SCLK_31*%
%TO.N,/MCU/DRV_SCK*%
X147250000Y-133935000D03*
%TO.P,U4,32,~{SCS}_32*%
%TO.N,/MCU/DRV_CS*%
X147750000Y-133935000D03*
%TO.P,U4,33,ENABLE_33*%
%TO.N,/MCU/DRV_EN*%
X148250000Y-133935000D03*
%TO.P,U4,34,INHA_34*%
%TO.N,/MCU/PWM_A+*%
X148750000Y-133935000D03*
%TO.P,U4,35,INLA_35*%
%TO.N,/MCU/PWM_A-*%
X149250000Y-133935000D03*
%TO.P,U4,36,INHB_36*%
%TO.N,/MCU/PWM_B+*%
X149750000Y-133935000D03*
D56*
%TO.P,U4,37,INLB_37*%
%TO.N,/MCU/PWM_B-*%
X150435000Y-133250000D03*
%TO.P,U4,38,INHC_38*%
%TO.N,/MCU/PWM_C+*%
X150435000Y-132750000D03*
%TO.P,U4,39,INLC_39*%
%TO.N,/MCU/PWM_C-*%
X150435000Y-132250000D03*
%TO.P,U4,40,DVDD_40*%
%TO.N,Net-(U4-DVDD)*%
X150435000Y-131750000D03*
%TO.P,U4,41,DGND_41*%
%TO.N,GND*%
X150435000Y-131250000D03*
%TO.P,U4,42,SW_42*%
%TO.N,Net-(D6-K)*%
X150435000Y-130750000D03*
%TO.P,U4,43,VIN_43*%
%TO.N,VBUS*%
X150435000Y-130250000D03*
%TO.P,U4,44,VCC_44*%
%TO.N,/ThreePhaseBridge and Power/BUCKVCC*%
X150435000Y-129750000D03*
%TO.P,U4,45,BST_45*%
%TO.N,Net-(U4-BST)*%
X150435000Y-129250000D03*
%TO.P,U4,46,RCL_46*%
%TO.N,Net-(U4-RCL)*%
X150435000Y-128750000D03*
%TO.P,U4,47,RT/SD_47*%
%TO.N,Net-(U4-RT{slash}SD)*%
X150435000Y-128250000D03*
%TO.P,U4,48,FB_48*%
%TO.N,Net-(U4-FB)*%
X150435000Y-127750000D03*
D57*
%TO.P,U4,49,EXP_49*%
%TO.N,GND*%
X147000000Y-130500000D03*
%TD*%
D58*
%TO.N,GND*%
X141605000Y-124460000D03*
X141605000Y-123190000D03*
X141605000Y-123825000D03*
X141605000Y-122555000D03*
X141478000Y-119888000D03*
X141478000Y-118618000D03*
X141478000Y-119253000D03*
X141478000Y-117983000D03*
X141478000Y-115443000D03*
X141478000Y-114173000D03*
X141478000Y-114808000D03*
X141478000Y-113538000D03*
X159950000Y-145542000D03*
X159950000Y-146177000D03*
%TO.N,/MCU/U1_RX*%
X165377000Y-137668000D03*
X163949000Y-134366000D03*
%TO.N,GND*%
X138430000Y-152334000D03*
X138430000Y-135321000D03*
%TO.N,+5V*%
X138430000Y-137221000D03*
%TO.N,GND*%
X126900000Y-110500000D03*
X147900000Y-130100000D03*
X156638000Y-125730000D03*
X129900000Y-109300000D03*
X127416000Y-155508400D03*
X126216000Y-156708400D03*
X146100000Y-130100000D03*
X156652000Y-127762000D03*
X127416000Y-156708400D03*
X125700000Y-109900000D03*
X147950000Y-119126000D03*
X148525200Y-151150000D03*
X128616000Y-155508400D03*
X165542000Y-149987000D03*
X158090000Y-114130000D03*
X149258000Y-123030000D03*
X152908000Y-110871000D03*
X126816000Y-157908400D03*
X177800000Y-146050000D03*
X166950000Y-116700000D03*
X139431800Y-106603800D03*
X147300000Y-129500000D03*
X125616000Y-156108400D03*
X126816000Y-155508400D03*
X147900000Y-131300000D03*
X177327000Y-141062000D03*
X170175000Y-110998000D03*
X165750000Y-134500000D03*
X170241000Y-113157000D03*
X156106500Y-119126000D03*
X158115000Y-137983000D03*
X168300000Y-107800000D03*
X149750000Y-124206000D03*
X150550200Y-157050000D03*
X177327000Y-110455000D03*
X134481800Y-107873800D03*
X150000200Y-157050000D03*
X125700000Y-108100000D03*
X127500000Y-110500000D03*
X128016000Y-156108400D03*
X139700000Y-102108000D03*
X157380000Y-133400000D03*
X129900000Y-108100000D03*
X152888000Y-109731000D03*
X159962700Y-149987000D03*
X129216000Y-156108400D03*
X146700000Y-131300000D03*
X153538000Y-110311000D03*
X129216000Y-156708400D03*
X147900000Y-130700000D03*
X128100000Y-109900000D03*
X126300000Y-108100000D03*
X127416000Y-157908400D03*
X128616000Y-156708400D03*
X127416000Y-157308400D03*
X128100000Y-108100000D03*
X128016000Y-157308400D03*
X125616000Y-156708400D03*
X177200000Y-146650000D03*
X177927000Y-141062000D03*
X126216000Y-157308400D03*
X152750000Y-146019600D03*
X125700000Y-110500000D03*
X129900000Y-110500000D03*
X129300000Y-109900000D03*
X162837500Y-113284000D03*
X126300000Y-109900000D03*
X126816000Y-157308400D03*
X129216000Y-155508400D03*
X134747000Y-113641500D03*
X126300000Y-108700000D03*
X147300000Y-130100000D03*
X128016000Y-156708400D03*
X128016000Y-157908400D03*
X129900000Y-109900000D03*
X122729000Y-156210000D03*
X126900000Y-109300000D03*
X128700000Y-109300000D03*
X126816000Y-156108400D03*
X154000000Y-146019600D03*
X129900000Y-108700000D03*
X161900000Y-107800000D03*
X129816000Y-155508400D03*
X177200000Y-146050000D03*
X129816000Y-157908400D03*
X125700000Y-109300000D03*
X113604000Y-156210000D03*
X140300000Y-102708000D03*
X128700000Y-109900000D03*
X146100000Y-129500000D03*
X149450200Y-157050000D03*
X146700000Y-130100000D03*
X128100000Y-109300000D03*
X127500000Y-109300000D03*
X158049000Y-109220000D03*
X125700000Y-108700000D03*
X146700000Y-130700000D03*
X128700000Y-108700000D03*
X177327000Y-109855000D03*
X127500000Y-108700000D03*
X126900000Y-108100000D03*
X128100000Y-110500000D03*
X125616000Y-155508400D03*
X146100000Y-130700000D03*
X125616000Y-157908400D03*
X139700000Y-102708000D03*
X127500000Y-108100000D03*
X126300000Y-110500000D03*
X129300000Y-108700000D03*
X110363000Y-125857000D03*
X126300000Y-109300000D03*
X165542000Y-147447000D03*
X158720000Y-121120000D03*
X153528000Y-109741000D03*
X128700000Y-110500000D03*
X129300000Y-109300000D03*
X156779000Y-129921000D03*
X177327000Y-140462000D03*
X128616000Y-157308400D03*
X129216000Y-157308400D03*
X129816000Y-157308400D03*
X147900000Y-129500000D03*
X125616000Y-157308400D03*
X147300000Y-130700000D03*
X126216000Y-157908400D03*
X126900000Y-108700000D03*
X127416000Y-156108400D03*
X158130000Y-116770000D03*
X129216000Y-157908400D03*
X126216000Y-156108400D03*
X143730800Y-151130000D03*
X129300000Y-108100000D03*
X170160000Y-119080000D03*
X147300000Y-131300000D03*
X177927000Y-110455000D03*
X162862500Y-111125000D03*
X171740000Y-126890000D03*
X161260000Y-122950000D03*
X170800000Y-140140000D03*
X129300000Y-110500000D03*
X177927000Y-140462000D03*
X146700000Y-129500000D03*
X146100000Y-131300000D03*
X128016000Y-155508400D03*
X127500000Y-109900000D03*
X168470000Y-138130000D03*
X129816000Y-156708400D03*
X128700000Y-108100000D03*
X146220000Y-151130000D03*
X128100000Y-108700000D03*
X177800000Y-146650000D03*
X177927000Y-109855000D03*
X128616000Y-157908400D03*
X153548000Y-110881000D03*
X129816000Y-156108400D03*
X152898000Y-110301000D03*
X126900000Y-109900000D03*
X126816000Y-156708400D03*
X140300000Y-102108000D03*
X128616000Y-156108400D03*
X126216000Y-155508400D03*
%TO.N,/MCU/VB*%
X130425000Y-142027200D03*
X168402000Y-133223000D03*
%TO.N,/MCU/VC*%
X142748000Y-154051000D03*
X159893000Y-137795000D03*
X161417000Y-145161000D03*
X161734644Y-131381356D03*
%TO.N,/ThreePhaseBridge and Power/SHC*%
X139700000Y-130937000D03*
X117856000Y-140970000D03*
%TO.N,/ThreePhaseBridge and Power/SPA*%
X134200000Y-122500000D03*
X134800000Y-121900000D03*
X118900000Y-116400000D03*
X134800000Y-124300000D03*
X134200000Y-123700000D03*
X118300000Y-118200000D03*
X134800000Y-123100000D03*
X118300000Y-117600000D03*
X118900000Y-117000000D03*
X118900000Y-115800000D03*
X118300000Y-117000000D03*
X134200000Y-123100000D03*
X118300000Y-118800000D03*
X134800000Y-122500000D03*
X118300000Y-115800000D03*
X134200000Y-121300000D03*
X118300000Y-119400000D03*
X118900000Y-118200000D03*
X118900000Y-118800000D03*
X134200000Y-124300000D03*
X118300000Y-116400000D03*
X118900000Y-117600000D03*
X134800000Y-123700000D03*
X134800000Y-121300000D03*
X134200000Y-121900000D03*
%TO.N,/MCU/ENC_SDA*%
X173355000Y-127254000D03*
X177650000Y-118700000D03*
%TO.N,+3.3V*%
X153040000Y-113740000D03*
X152390000Y-113170000D03*
X161080000Y-115005000D03*
X153020000Y-112600000D03*
X153030000Y-113170000D03*
X142383000Y-135810000D03*
X178390000Y-124220000D03*
X162880000Y-115625000D03*
X177170000Y-123590000D03*
X153660000Y-114300000D03*
X151750000Y-113160000D03*
X177800000Y-124220000D03*
X176570000Y-123600000D03*
X151130000Y-113190000D03*
X176590000Y-124220000D03*
X160490000Y-116265000D03*
X160500000Y-115625000D03*
X177190000Y-124210000D03*
X151140000Y-114350000D03*
X151750000Y-114930000D03*
X178370000Y-123600000D03*
X153640000Y-112570000D03*
X152400000Y-113740000D03*
X162280000Y-115015000D03*
X161690000Y-115015000D03*
X168275000Y-110998000D03*
X177780000Y-123600000D03*
X163450000Y-115615000D03*
X161710000Y-116275000D03*
X151140000Y-113760000D03*
X162310000Y-115635000D03*
X154280000Y-112580000D03*
X152390000Y-114940000D03*
X153030000Y-114940000D03*
X153040000Y-114330000D03*
X142350000Y-110450000D03*
X162300000Y-116275000D03*
X152380000Y-112600000D03*
X151760000Y-114320000D03*
X151760000Y-113730000D03*
X162870000Y-116265000D03*
X153650000Y-114910000D03*
X160470000Y-115005000D03*
X141700000Y-110450000D03*
X154300000Y-113720000D03*
X153660000Y-113710000D03*
X141050000Y-110450000D03*
X151120000Y-112620000D03*
X163420000Y-114995000D03*
X161100000Y-116265000D03*
X154290000Y-113150000D03*
X152400000Y-114330000D03*
X151740000Y-112590000D03*
X161110000Y-115625000D03*
X168402000Y-113157000D03*
X161720000Y-115635000D03*
X154300000Y-114310000D03*
X151130000Y-114960000D03*
X153650000Y-113140000D03*
X163440000Y-116255000D03*
X175006000Y-144018000D03*
X154290000Y-114920000D03*
X162850000Y-115005000D03*
%TO.N,/ThreePhaseBridge and Power/BUCKVCC*%
X153220000Y-130940000D03*
X153081791Y-129165321D03*
%TO.N,+5V*%
X145750000Y-114250000D03*
X147150000Y-109550000D03*
X132800000Y-109550000D03*
X136050000Y-109550000D03*
X146550000Y-110150000D03*
X132800000Y-108900000D03*
X166751000Y-152400000D03*
X145950000Y-110150000D03*
X147150000Y-110750000D03*
X136050000Y-108900000D03*
X138496000Y-150495000D03*
X145950000Y-110750000D03*
X146550000Y-111350000D03*
X147150000Y-110150000D03*
X177650000Y-149150000D03*
X146550000Y-110750000D03*
X146550000Y-109550000D03*
X145950000Y-111350000D03*
X145950000Y-109550000D03*
X147150000Y-111350000D03*
%TO.N,VBUS*%
X120400000Y-126780800D03*
X138100000Y-126738000D03*
X138100000Y-125738000D03*
X139000000Y-126238000D03*
X121200000Y-126780800D03*
X139300000Y-125738000D03*
X121200000Y-125780800D03*
X122800000Y-126780800D03*
X138700000Y-125738000D03*
X123600000Y-125780800D03*
X122800000Y-125780800D03*
X123600000Y-126780800D03*
X121600000Y-126280800D03*
X137500000Y-126738000D03*
X120800000Y-126280800D03*
X122000000Y-126780800D03*
X139300000Y-126738000D03*
X138400000Y-126238000D03*
X120400000Y-125780800D03*
X122400000Y-126280800D03*
X122000000Y-125780800D03*
X138700000Y-126738000D03*
X123200000Y-126280800D03*
X137500000Y-125738000D03*
X137800000Y-126238000D03*
%TO.N,Net-(J3-CC1)*%
X166370000Y-113133500D03*
X166751000Y-106553000D03*
%TO.N,/USB_D+*%
X165092000Y-126746000D03*
X164127003Y-106431000D03*
%TO.N,/USB_D-*%
X165739942Y-106433230D03*
X166116000Y-128027000D03*
%TO.N,Net-(J3-CC2)*%
X161036000Y-113157000D03*
X163327000Y-106431000D03*
%TO.N,/MCU/ENC_CS*%
X162687000Y-130810000D03*
X170942000Y-136271000D03*
X162687000Y-126619000D03*
X177650000Y-137900000D03*
%TO.N,/MCU/LED2*%
X171770000Y-134560000D03*
X165092000Y-128480000D03*
%TO.N,/MCU/3V3_MCU*%
X160550000Y-121065000D03*
X161160000Y-121065000D03*
X169570000Y-142100000D03*
X162930000Y-121065000D03*
X160430000Y-125570000D03*
X160080000Y-126070000D03*
X162900000Y-120445000D03*
X160150000Y-133890000D03*
X161740000Y-120455000D03*
X168270000Y-134510000D03*
X171930000Y-142160000D03*
X163500000Y-121055000D03*
X162360000Y-121075000D03*
X160520000Y-120445000D03*
X163470000Y-120435000D03*
X162330000Y-120455000D03*
X161130000Y-120445000D03*
X161770000Y-121075000D03*
X168890000Y-126390000D03*
%TO.N,/MCU/DEBUG_DIO*%
X169164000Y-122301000D03*
%TO.N,/MCU/DEBUG_CLK*%
X168148000Y-122174000D03*
%TO.N,/ThreePhaseBridge and Power/SHB*%
X135763000Y-129413000D03*
X110236000Y-138684000D03*
X139573000Y-129150000D03*
%TO.N,/ThreePhaseBridge and Power/GHB*%
X117652800Y-140106400D03*
X138430000Y-129895600D03*
%TO.N,/MCU/ENC_MISO*%
X166119382Y-122939382D03*
X177650000Y-135100000D03*
%TO.N,/MCU/ENC_SCK*%
X177650000Y-129500000D03*
X166685069Y-122373695D03*
%TO.N,/ThreePhaseBridge and Power/SHA*%
X141224000Y-125730000D03*
X136271000Y-120777000D03*
%TO.N,Net-(U4-FB)*%
X151686473Y-127373000D03*
X154178000Y-134874000D03*
%TO.N,Net-(U4-RCL)*%
X153162000Y-125476000D03*
X154281500Y-119126000D03*
%TO.N,/MCU/VA*%
X142748000Y-117856000D03*
X162560000Y-133477000D03*
X133096000Y-117856000D03*
X157861000Y-124283000D03*
%TO.N,Net-(U4-VGLS)*%
X148780500Y-124142500D03*
X146050000Y-119126000D03*
%TO.N,Net-(U4-CPL)*%
X152080000Y-119126000D03*
X148877000Y-125730000D03*
%TO.N,Net-(U4-CPH)*%
X150241000Y-119126000D03*
X148580310Y-124968000D03*
%TO.N,/ThreePhaseBridge and Power/GHA*%
X118414800Y-126492000D03*
X146150000Y-125171200D03*
%TO.N,/ThreePhaseBridge and Power/GLA*%
X118364000Y-114757200D03*
X143383000Y-125003000D03*
%TO.N,/ThreePhaseBridge and Power/SPB*%
X118900000Y-129200000D03*
X134200000Y-137200000D03*
X134200000Y-136000000D03*
X134200000Y-137800000D03*
X134200000Y-136600000D03*
X118900000Y-130400000D03*
X134800000Y-136000000D03*
X118900000Y-131000000D03*
X134800000Y-138400000D03*
X118300000Y-131600000D03*
X118300000Y-132800000D03*
X118300000Y-129800000D03*
X134200000Y-135400000D03*
X118300000Y-132200000D03*
X118300000Y-129200000D03*
X134800000Y-137800000D03*
X118900000Y-129800000D03*
X134200000Y-138400000D03*
X118300000Y-130400000D03*
X134800000Y-136600000D03*
X118300000Y-131000000D03*
X118900000Y-131600000D03*
X134800000Y-137200000D03*
X134800000Y-135400000D03*
X118900000Y-132200000D03*
%TO.N,/ThreePhaseBridge and Power/GLB*%
X118668800Y-128016000D03*
X141480998Y-128643000D03*
%TO.N,/ThreePhaseBridge and Power/GHC*%
X136906000Y-143510000D03*
X122428000Y-154279600D03*
%TO.N,/ThreePhaseBridge and Power/GLC*%
X118872000Y-141427200D03*
X141351000Y-131572000D03*
%TO.N,/ThreePhaseBridge and Power/SPC*%
X119000000Y-143800000D03*
X119000000Y-143200000D03*
X134100000Y-151000000D03*
X118400000Y-145600000D03*
X118400000Y-143200000D03*
X134700000Y-149800000D03*
X134700000Y-151000000D03*
X134100000Y-152200000D03*
X134100000Y-151600000D03*
X119000000Y-145000000D03*
X134700000Y-150400000D03*
X134700000Y-151600000D03*
X119000000Y-146200000D03*
X138176000Y-142994000D03*
X119000000Y-145600000D03*
X118400000Y-146800000D03*
X134700000Y-152200000D03*
X134100000Y-150400000D03*
X119000000Y-144400000D03*
X118400000Y-145000000D03*
X118400000Y-144400000D03*
X134700000Y-152800000D03*
X118400000Y-143800000D03*
X134100000Y-149800000D03*
X134100000Y-152800000D03*
X118400000Y-146200000D03*
%TO.N,/MCU/IC*%
X141605000Y-132842000D03*
X156302000Y-124079000D03*
%TO.N,/MCU/IB*%
X162750000Y-143338000D03*
X142230000Y-136850000D03*
%TO.N,/MCU/IA*%
X164750000Y-142711000D03*
X143548000Y-133935000D03*
%TO.N,/MCU/OC*%
X144350000Y-135810000D03*
X167377000Y-140880000D03*
%TO.N,/MCU/DRV_MOSI*%
X143700000Y-136437000D03*
X163750000Y-126490000D03*
%TO.N,/MCU/DRV_MISO*%
X162560000Y-144780000D03*
X146109110Y-136067602D03*
X169902500Y-145923000D03*
X162070000Y-141003000D03*
%TO.N,/MCU/DRV_SCK*%
X146851335Y-135687000D03*
X161120000Y-141875000D03*
%TO.N,/MCU/DRV_CS*%
X147555000Y-136067600D03*
X167862992Y-131972348D03*
%TO.N,/MCU/DRV_EN*%
X167323198Y-131374956D03*
X148826999Y-135982123D03*
%TO.N,/MCU/PWM_A+*%
X164240000Y-132080000D03*
X150927661Y-136282631D03*
%TO.N,/MCU/PWM_A-*%
X151113000Y-135504394D03*
X160960000Y-126770000D03*
%TO.N,/MCU/PWM_B+*%
X150228356Y-134883000D03*
X165123000Y-131453000D03*
%TO.N,/MCU/PWM_B-*%
X164250000Y-138670000D03*
X151740000Y-136250000D03*
%TO.N,/MCU/PWM_C+*%
X160270000Y-128540000D03*
X152290000Y-133340000D03*
%TO.N,/MCU/PWM_C-*%
X160224644Y-129390000D03*
X152270000Y-132260000D03*
%TO.N,Net-(U4-DVDD)*%
X154432000Y-130302000D03*
X151765000Y-131445000D03*
%TO.N,Net-(U4-BST)*%
X153081791Y-128316791D03*
X155194000Y-131720000D03*
%TO.N,/+12V*%
X153508000Y-151384000D03*
X149463800Y-155150000D03*
X157734000Y-145542000D03*
X146510000Y-147540000D03*
X149510000Y-147540000D03*
X152908000Y-150784000D03*
X148910000Y-147540000D03*
X142270000Y-146930000D03*
X145910000Y-147540000D03*
X153508000Y-150784000D03*
X150613800Y-155150000D03*
X147110000Y-147540000D03*
X142270000Y-143930000D03*
X142270000Y-145730000D03*
X145310000Y-147540000D03*
X143813800Y-156100000D03*
X142270000Y-144530000D03*
X142270000Y-145130000D03*
X152908000Y-151384000D03*
X144463800Y-156100000D03*
X143213800Y-156100000D03*
X150063800Y-155150000D03*
X147710000Y-147540000D03*
X142890000Y-147550000D03*
X142270000Y-146330000D03*
X143510000Y-147540000D03*
X144710000Y-147540000D03*
X148310000Y-147540000D03*
X144110000Y-147540000D03*
X142270000Y-143330000D03*
X142270000Y-147530000D03*
%TO.N,/MCU/FET_TEMP*%
X157353000Y-131953000D03*
X155829000Y-134747000D03*
X156718000Y-144653000D03*
%TO.N,/MCU/LED1*%
X170942000Y-124135500D03*
X167377644Y-126862356D03*
%TO.N,/CAN_TX*%
X172339000Y-132588000D03*
X174625000Y-133350000D03*
%TO.N,/MCU/ENC_SCL*%
X177650000Y-115850000D03*
X172783500Y-129857500D03*
%TO.N,/MCU/ENC_MOSI*%
X165363353Y-123200959D03*
X174625000Y-134239000D03*
%TO.N,/MCU/ENC_EN*%
X165354000Y-121793000D03*
X168529000Y-114681000D03*
X177650000Y-112950000D03*
X162306000Y-122428000D03*
X163250000Y-123385648D03*
X173540000Y-112903000D03*
%TO.N,V*%
X148590000Y-114554000D03*
X153035000Y-106807000D03*
%TD*%
%TO.N,/MCU/ENC_MOSI*%
D59*
X177072000Y-132300000D02*
X177650000Y-132300000D01*
X174625000Y-134239000D02*
X175133000Y-134239000D01*
X175133000Y-134239000D02*
X177072000Y-132300000D01*
%TO.N,/MCU/TIM2_CH1*%
D60*
X167250000Y-124475000D02*
X167300000Y-124425000D01*
X171704000Y-119507000D02*
X171704000Y-116840000D01*
X167300000Y-124425000D02*
X167300000Y-122173471D01*
X171196000Y-120015000D02*
X171704000Y-119507000D01*
X167300000Y-122173471D02*
X169458471Y-120015000D01*
X169458471Y-120015000D02*
X171196000Y-120015000D01*
X171704000Y-116840000D02*
X172593000Y-115951000D01*
%TO.N,/MCU/ENC_SCK*%
D59*
X166750000Y-122810000D02*
X166750000Y-124475000D01*
X166746382Y-122806382D02*
X166750000Y-122810000D01*
X166746382Y-122679670D02*
X166746382Y-122806382D01*
X166685069Y-122373695D02*
X166685069Y-122618357D01*
X166685069Y-122618357D02*
X166746382Y-122679670D01*
%TO.N,/MCU/U1_RX*%
D60*
X163893524Y-134556524D02*
X163750000Y-134700048D01*
X163949000Y-134366000D02*
X163893524Y-134421476D01*
X163893524Y-134421476D02*
X163893524Y-134556524D01*
X163750000Y-134700048D02*
X163750000Y-135825000D01*
X165377000Y-137668000D02*
X165735000Y-138026000D01*
X165735000Y-138026000D02*
X165735000Y-141224000D01*
%TO.N,/MCU/U1_TX*%
X163250000Y-135825000D02*
X163250000Y-139120000D01*
X163250000Y-139120000D02*
X163830000Y-139700000D01*
X163830000Y-139700000D02*
X163830000Y-141224000D01*
%TO.N,/ThreePhaseBridge and Power/SPC*%
D59*
X138176000Y-142994000D02*
X137333000Y-142151000D01*
X137333000Y-142151000D02*
X137333000Y-133431000D01*
X137333000Y-133431000D02*
X138557000Y-132207000D01*
X138557000Y-132207000D02*
X141605000Y-132207000D01*
X141605000Y-132207000D02*
X142062000Y-131750000D01*
X142062000Y-131750000D02*
X143565000Y-131750000D01*
%TO.N,GND*%
X108966000Y-125730000D02*
X108966000Y-123444000D01*
X109093000Y-125857000D02*
X108966000Y-125730000D01*
X110363000Y-125857000D02*
X109093000Y-125857000D01*
X108966000Y-123444000D02*
X108270000Y-122748000D01*
X108270000Y-122748000D02*
X107569000Y-122748000D01*
X168470000Y-138130000D02*
X168470000Y-138030000D01*
D60*
X144250000Y-127065000D02*
X144250000Y-127750000D01*
D59*
X165750000Y-135825000D02*
X165750000Y-134500000D01*
D61*
X149450200Y-157050000D02*
X150000200Y-157050000D01*
D59*
X102489000Y-122889000D02*
X102489000Y-121920000D01*
X170175000Y-126900000D02*
X171730000Y-126900000D01*
D60*
X147000000Y-130241000D02*
X147000000Y-130500000D01*
D62*
X153337500Y-146977000D02*
X153337500Y-146682100D01*
D60*
X143565000Y-132250000D02*
X145250000Y-132250000D01*
D61*
X150550200Y-157050000D02*
X150650200Y-157050000D01*
D59*
X168470000Y-138030000D02*
X167750000Y-137310000D01*
D60*
X164695500Y-113284000D02*
X162837500Y-113284000D01*
X149750000Y-123522000D02*
X149258000Y-123030000D01*
X143565000Y-127750000D02*
X144250000Y-127750000D01*
D61*
X150000200Y-157050000D02*
X150550200Y-157050000D01*
D62*
X153337500Y-146682100D02*
X154000000Y-146019600D01*
D60*
X150241000Y-124697000D02*
X149750000Y-124206000D01*
X149750000Y-124206000D02*
X149750000Y-123522000D01*
D59*
X107569000Y-121539000D02*
X107569000Y-122748000D01*
D60*
X149750000Y-127065000D02*
X150241000Y-126574000D01*
X147750000Y-131250000D02*
X147000000Y-130500000D01*
D59*
X167750000Y-137310000D02*
X167750000Y-135825000D01*
D60*
X145250000Y-133935000D02*
X145250000Y-132250000D01*
X150241000Y-126574000D02*
X150241000Y-124697000D01*
D61*
X148037700Y-157050000D02*
X149450200Y-157050000D01*
D60*
X150435000Y-131250000D02*
X147750000Y-131250000D01*
D59*
X102489000Y-121920000D02*
X103505000Y-120904000D01*
X161260000Y-124465000D02*
X161250000Y-124475000D01*
X106934000Y-120904000D02*
X107569000Y-121539000D01*
X103505000Y-120904000D02*
X106934000Y-120904000D01*
D62*
X153337500Y-146607100D02*
X152750000Y-146019600D01*
D60*
X144250000Y-127750000D02*
X147000000Y-130500000D01*
X170241000Y-111064000D02*
X170175000Y-110998000D01*
D59*
X161260000Y-122950000D02*
X161260000Y-124465000D01*
D62*
X153337500Y-146977000D02*
X153337500Y-146607100D01*
D59*
X157380000Y-133400000D02*
X158825000Y-133400000D01*
D60*
X145250000Y-132250000D02*
X147000000Y-130500000D01*
D59*
X171730000Y-126900000D02*
X171740000Y-126890000D01*
D60*
X149258000Y-123030000D02*
X149225000Y-122997000D01*
X170241000Y-113157000D02*
X170241000Y-111064000D01*
%TO.N,/MCU/VB*%
D59*
X131214500Y-126642500D02*
X132635000Y-126642500D01*
X130425000Y-130936000D02*
X131313000Y-130048000D01*
X169225000Y-132400000D02*
X168402000Y-133223000D01*
X131214500Y-126642500D02*
X131214500Y-129949500D01*
X170175000Y-132400000D02*
X169225000Y-132400000D01*
X130425000Y-142027200D02*
X130425000Y-130936000D01*
X131214500Y-129949500D02*
X131313000Y-130048000D01*
X132635000Y-126642500D02*
X133604000Y-127611500D01*
%TO.N,/MCU/VC*%
X161226356Y-131381356D02*
X159745000Y-129900000D01*
X120904000Y-156210000D02*
X124067000Y-159373000D01*
X161734644Y-131381356D02*
X161226356Y-131381356D01*
X159745000Y-129900000D02*
X158825000Y-129900000D01*
X118685600Y-154706600D02*
X119149500Y-155170500D01*
X137426000Y-159373000D02*
X142748000Y-154051000D01*
X116057400Y-154706600D02*
X118685600Y-154706600D01*
X115504000Y-156210000D02*
X115504000Y-155260000D01*
X115504000Y-155260000D02*
X116057400Y-154706600D01*
X159893000Y-142494000D02*
X159893000Y-137795000D01*
X161417000Y-145161000D02*
X161417000Y-144018000D01*
X124067000Y-159373000D02*
X137426000Y-159373000D01*
X119149500Y-155170500D02*
X119149500Y-156210000D01*
X161417000Y-144018000D02*
X159893000Y-142494000D01*
X119149500Y-156210000D02*
X120904000Y-156210000D01*
%TO.N,/ThreePhaseBridge and Power/SHC*%
X139887000Y-130750000D02*
X143565000Y-130750000D01*
X111760000Y-158242000D02*
X116967000Y-158242000D01*
X139700000Y-130937000D02*
X139887000Y-130750000D01*
X110770000Y-151485000D02*
X110490000Y-151765000D01*
X116967000Y-158242000D02*
X117324500Y-157884500D01*
X117324500Y-157884500D02*
X117324500Y-156210000D01*
X110490000Y-151765000D02*
X110490000Y-156972000D01*
X111600000Y-151485000D02*
X110770000Y-151485000D01*
X116330000Y-140970000D02*
X117856000Y-140970000D01*
X110490000Y-156972000D02*
X111760000Y-158242000D01*
X113450000Y-143850000D02*
X116330000Y-140970000D01*
%TO.N,/ThreePhaseBridge and Power/SPA*%
X132962500Y-124575266D02*
X132962500Y-122900266D01*
X131440000Y-121377766D02*
X131440000Y-119253000D01*
X144750000Y-126208000D02*
X144526000Y-125984000D01*
X144526000Y-125984000D02*
X142748000Y-125984000D01*
X142748000Y-125984000D02*
X141224000Y-127508000D01*
X135895234Y-127508000D02*
X132962500Y-124575266D01*
X132962500Y-122900266D02*
X131440000Y-121377766D01*
X144750000Y-127065000D02*
X144750000Y-126208000D01*
X141224000Y-127508000D02*
X135895234Y-127508000D01*
%TO.N,/MCU/ENC_SDA*%
X173355000Y-128397000D02*
X171852000Y-129900000D01*
X171852000Y-129900000D02*
X170175000Y-129900000D01*
X173355000Y-127254000D02*
X173355000Y-128397000D01*
%TO.N,+3.3V*%
X144750000Y-134470000D02*
X144750000Y-133935000D01*
X143410000Y-135810000D02*
X144750000Y-134470000D01*
X173101000Y-145923000D02*
X175006000Y-144018000D01*
X171727500Y-145923000D02*
X173101000Y-145923000D01*
X142383000Y-135810000D02*
X143410000Y-135810000D01*
X168341000Y-113157000D02*
X168402000Y-113157000D01*
%TO.N,/ThreePhaseBridge and Power/BUCKVCC*%
D60*
X156547000Y-132197000D02*
X156547000Y-139047000D01*
X153220000Y-130940000D02*
X153292000Y-130940000D01*
X155414000Y-131064000D02*
X156547000Y-132197000D01*
X154432000Y-131064000D02*
X155414000Y-131064000D01*
X154178000Y-131318000D02*
X154432000Y-131064000D01*
X153670000Y-131318000D02*
X154178000Y-131318000D01*
X153081791Y-129165321D02*
X152497112Y-129750000D01*
X156547000Y-139047000D02*
X157400000Y-139900000D01*
D59*
X158877000Y-146624000D02*
X158877000Y-140677000D01*
X158877000Y-140677000D02*
X158150000Y-139950000D01*
D60*
X157400000Y-139900000D02*
X158100000Y-139900000D01*
D59*
X158054000Y-147447000D02*
X158877000Y-146624000D01*
D60*
X158100000Y-139900000D02*
X158150000Y-139950000D01*
X152497112Y-129750000D02*
X150435000Y-129750000D01*
X153292000Y-130940000D02*
X153670000Y-131318000D01*
%TO.N,+5V*%
D59*
X177650000Y-149150000D02*
X177650000Y-149121000D01*
X177650000Y-149121000D02*
X177673000Y-149098000D01*
D61*
X165565000Y-152400000D02*
X166751000Y-152400000D01*
%TO.N,VBUS*%
D59*
X147250000Y-127065000D02*
X147250000Y-121285000D01*
X153518800Y-130250000D02*
X153924000Y-129844800D01*
X144973000Y-121097000D02*
X143891000Y-121097000D01*
X147750000Y-121097000D02*
X144973000Y-121097000D01*
X150435000Y-130250000D02*
X153518800Y-130250000D01*
X153924000Y-129844800D02*
X153924000Y-121285000D01*
X153924000Y-121285000D02*
X154051000Y-121158000D01*
X145161000Y-121285000D02*
X144973000Y-121097000D01*
X147750000Y-127065000D02*
X147750000Y-121097000D01*
X147250000Y-121285000D02*
X145161000Y-121285000D01*
%TO.N,Net-(J3-CC1)*%
X166370000Y-113133500D02*
X166624000Y-113387500D01*
X166624000Y-113387500D02*
X166624000Y-113411000D01*
X166751000Y-106553000D02*
X166375000Y-106553000D01*
X166350000Y-106578000D02*
X166350000Y-107800000D01*
X166375000Y-106553000D02*
X166350000Y-106578000D01*
%TO.N,/USB_D+*%
X167115288Y-126238000D02*
X167117932Y-126235356D01*
X164591000Y-106680000D02*
X165100000Y-106680000D01*
X164350000Y-106921000D02*
X164591000Y-106680000D01*
X167117932Y-126235356D02*
X167637356Y-126235356D01*
X164350000Y-107800000D02*
X164350000Y-106921000D01*
X165600000Y-126238000D02*
X167115288Y-126238000D01*
X165100000Y-106680000D02*
X165350000Y-106930000D01*
X164350000Y-106653997D02*
X164127003Y-106431000D01*
X168802000Y-127400000D02*
X170175000Y-127400000D01*
X165092000Y-126746000D02*
X165600000Y-126238000D01*
X167637356Y-126235356D02*
X168802000Y-127400000D01*
X164350000Y-107800000D02*
X164350000Y-106653997D01*
X165350000Y-106930000D02*
X165350000Y-107800000D01*
%TO.N,/USB_D-*%
X165850000Y-108597000D02*
X165850000Y-107800000D01*
X166116000Y-128027000D02*
X166994000Y-128027000D01*
X165010000Y-108839000D02*
X165608000Y-108839000D01*
X166994000Y-128027000D02*
X167121000Y-127900000D01*
X165850000Y-107800000D02*
X165850000Y-106543288D01*
X165850000Y-106543288D02*
X165739942Y-106433230D01*
X164850000Y-107800000D02*
X164850000Y-108679000D01*
X167121000Y-127900000D02*
X170175000Y-127900000D01*
X164850000Y-108679000D02*
X165010000Y-108839000D01*
X165608000Y-108839000D02*
X165850000Y-108597000D01*
%TO.N,Net-(J3-CC2)*%
X161012500Y-113180500D02*
X161036000Y-113157000D01*
X163327000Y-107777000D02*
X163350000Y-107800000D01*
X161012500Y-113284000D02*
X161012500Y-113180500D01*
X163327000Y-106431000D02*
X163327000Y-107777000D01*
%TO.N,/MCU/ENC_CS*%
X162687000Y-130810000D02*
X162687000Y-132089052D01*
X162687000Y-132089052D02*
X164470948Y-133873000D01*
X162750000Y-124475000D02*
X162750000Y-126556000D01*
X168544000Y-133873000D02*
X170942000Y-136271000D01*
X164470948Y-133873000D02*
X168544000Y-133873000D01*
X162750000Y-126556000D02*
X162687000Y-126619000D01*
%TO.N,/MCU/LED2*%
X172177500Y-134572500D02*
X173140000Y-134572500D01*
X171770000Y-134560000D02*
X172165000Y-134560000D01*
X172165000Y-134560000D02*
X172177500Y-134572500D01*
X163530000Y-127900000D02*
X158825000Y-127900000D01*
X164110000Y-128480000D02*
X163530000Y-127900000D01*
X165092000Y-128480000D02*
X164110000Y-128480000D01*
%TO.N,Net-(D4-A)*%
X173120000Y-138227500D02*
X173120000Y-136467500D01*
X173120000Y-136467500D02*
X173140000Y-136447500D01*
%TO.N,/MCU/3V3_MCU*%
X169560000Y-138230000D02*
X168250000Y-136920000D01*
X158825000Y-133900000D02*
X160140000Y-133900000D01*
X160410000Y-123020000D02*
X158720000Y-123020000D01*
X166950000Y-119300000D02*
X166950000Y-120580000D01*
X160430000Y-125570000D02*
X160760000Y-125240000D01*
X170160000Y-120980000D02*
X170140000Y-121000000D01*
X168890000Y-126390000D02*
X170165000Y-126390000D01*
X170140000Y-126365000D02*
X170175000Y-126400000D01*
X168250000Y-136920000D02*
X168250000Y-135825000D01*
X160140000Y-133900000D02*
X160150000Y-133890000D01*
X160760000Y-124485000D02*
X160750000Y-124475000D01*
X170667500Y-124762500D02*
X173140000Y-124762500D01*
X159780000Y-126370000D02*
X158855000Y-126370000D01*
X168270000Y-134510000D02*
X168270000Y-135805000D01*
X158640000Y-134090000D02*
X158650000Y-134080000D01*
X173120000Y-140970000D02*
X173120000Y-140052500D01*
X158855000Y-126370000D02*
X158825000Y-126400000D01*
X170140000Y-121000000D02*
X170140000Y-126365000D01*
X171930000Y-142160000D02*
X173120000Y-140970000D01*
X158130000Y-136420000D02*
X158640000Y-135910000D01*
X158640000Y-135910000D02*
X158640000Y-134090000D01*
X171320000Y-138230000D02*
X169560000Y-138230000D01*
X166950000Y-120580000D02*
X166372000Y-121158000D01*
X170175000Y-126400000D02*
X170175000Y-125255000D01*
X160760000Y-124485000D02*
X160760000Y-123370000D01*
X160760000Y-123370000D02*
X160410000Y-123020000D01*
X160080000Y-126070000D02*
X159780000Y-126370000D01*
X166372000Y-121158000D02*
X163490000Y-121158000D01*
X160760000Y-125240000D02*
X160760000Y-124485000D01*
X168270000Y-135805000D02*
X168250000Y-135825000D01*
X170175000Y-125255000D02*
X170667500Y-124762500D01*
X170165000Y-126390000D02*
X170175000Y-126400000D01*
%TO.N,/MCU/DEBUG_DIO*%
X168275000Y-123190000D02*
X168275000Y-124450000D01*
X169164000Y-122301000D02*
X168275000Y-123190000D01*
X168275000Y-124450000D02*
X168250000Y-124475000D01*
%TO.N,/MCU/DEBUG_CLK*%
X168148000Y-122174000D02*
X167750000Y-122572000D01*
X167750000Y-122572000D02*
X167750000Y-124475000D01*
%TO.N,/ThreePhaseBridge and Power/SHB*%
X110236000Y-138684000D02*
X110236000Y-133039000D01*
X143545000Y-129270000D02*
X143565000Y-129250000D01*
X139693000Y-129270000D02*
X143545000Y-129270000D01*
X135739500Y-129436500D02*
X135763000Y-129413000D01*
X133604000Y-129436500D02*
X135739500Y-129436500D01*
X139573000Y-129150000D02*
X139693000Y-129270000D01*
X110236000Y-133039000D02*
X113450000Y-129825000D01*
%TO.N,/ThreePhaseBridge and Power/GHB*%
D60*
X138430000Y-129895600D02*
X138575600Y-129750000D01*
X113166400Y-140106400D02*
X117652800Y-140106400D01*
X138575600Y-129750000D02*
X143565000Y-129750000D01*
X111600000Y-138540000D02*
X113166400Y-140106400D01*
%TO.N,/MCU/ENC_MISO*%
D59*
X166250000Y-123070000D02*
X166250000Y-124475000D01*
X166119382Y-122939382D02*
X166250000Y-123070000D01*
%TO.N,Net-(JP1-C)*%
X166950000Y-118000000D02*
X168130000Y-118000000D01*
X169282500Y-115057500D02*
X170110000Y-115057500D01*
X168630000Y-117500000D02*
X168630000Y-115710000D01*
X168130000Y-118000000D02*
X168630000Y-117500000D01*
X168630000Y-115710000D02*
X169282500Y-115057500D01*
%TO.N,Net-(U2-PB8)*%
X165617052Y-122555000D02*
X163068000Y-122555000D01*
X168620000Y-119552052D02*
X165617052Y-122555000D01*
X170110000Y-116882500D02*
X168620000Y-118372500D01*
X168620000Y-118372500D02*
X168620000Y-119552052D01*
X162250000Y-123373000D02*
X162250000Y-124475000D01*
X163068000Y-122555000D02*
X162250000Y-123373000D01*
%TO.N,Net-(R14-Pad2)*%
D63*
X155112500Y-142240400D02*
X155112500Y-139932400D01*
%TO.N,Net-(C33-Pad1)*%
X153278800Y-144628000D02*
X153278800Y-143519600D01*
X153278800Y-143519600D02*
X153278800Y-142328700D01*
D62*
X152019000Y-148056200D02*
X150825200Y-149250000D01*
X153278800Y-143519600D02*
X152019000Y-144779400D01*
X152019000Y-144779400D02*
X152019000Y-148056200D01*
%TO.N,Net-(J2-Pin_1)*%
X138430000Y-105283000D02*
X137022500Y-103875500D01*
X141173200Y-109143800D02*
X142367000Y-107950000D01*
X142367000Y-107950000D02*
X142367000Y-106045000D01*
X141605000Y-105283000D02*
X138430000Y-105283000D01*
X139431800Y-109143800D02*
X141173200Y-109143800D01*
X137022500Y-103875500D02*
X137022500Y-102430000D01*
X142367000Y-106045000D02*
X141605000Y-105283000D01*
%TO.N,/ThreePhaseBridge and Power/SHA*%
D59*
X132461000Y-112014000D02*
X131699000Y-111252000D01*
X141224000Y-125730000D02*
X141732000Y-125222000D01*
X135612500Y-119657500D02*
X136271000Y-118999000D01*
X142277288Y-125222000D02*
X143123288Y-124376000D01*
X113450000Y-107530000D02*
X115316000Y-105664000D01*
X131699000Y-107061000D02*
X131699000Y-111252000D01*
X130302000Y-105664000D02*
X131699000Y-107061000D01*
X141732000Y-125222000D02*
X142277288Y-125222000D01*
X143123288Y-124376000D02*
X144188000Y-124376000D01*
X135382000Y-112014000D02*
X132461000Y-112014000D01*
X136271000Y-120777000D02*
X136271000Y-118999000D01*
X145750000Y-125938000D02*
X145750000Y-127065000D01*
D60*
X109120300Y-114653700D02*
X107274000Y-116500000D01*
D59*
X144188000Y-124376000D02*
X145750000Y-125938000D01*
X113450000Y-116650000D02*
X113450000Y-107530000D01*
X136271000Y-118999000D02*
X136271000Y-112903000D01*
X115316000Y-105664000D02*
X130302000Y-105664000D01*
X136271000Y-112903000D02*
X135382000Y-112014000D01*
X134747000Y-119657500D02*
X135612500Y-119657500D01*
D60*
X107274000Y-116500000D02*
X105500000Y-116500000D01*
%TO.N,Net-(U4-FB)*%
D59*
X151686473Y-127373000D02*
X151297473Y-127762000D01*
D63*
X155178800Y-144628000D02*
X155178800Y-149285700D01*
D59*
X151297473Y-127762000D02*
X150447000Y-127762000D01*
D60*
X155178800Y-144628000D02*
X154178000Y-143627200D01*
D59*
X150447000Y-127762000D02*
X150435000Y-127750000D01*
D60*
X154178000Y-143627200D02*
X154178000Y-134874000D01*
%TO.N,/MCU/3V3_MCU_A*%
D59*
X163642000Y-149987000D02*
X163642000Y-147447000D01*
X164862000Y-143875000D02*
X170750000Y-143875000D01*
X170750000Y-143875000D02*
X170740000Y-143885000D01*
X167370000Y-143875000D02*
X166750000Y-143255000D01*
X163642000Y-147574000D02*
X163642000Y-145095000D01*
X170750000Y-143875000D02*
X167370000Y-143875000D01*
X166750000Y-143255000D02*
X166750000Y-135825000D01*
X163642000Y-145095000D02*
X164862000Y-143875000D01*
%TO.N,Net-(U4-RCL)*%
X151761869Y-128750000D02*
X150435000Y-128750000D01*
X153162000Y-127349869D02*
X151761869Y-128750000D01*
X153162000Y-125476000D02*
X153162000Y-127349869D01*
%TO.N,/MCU/VA*%
X134747000Y-115466500D02*
X134747000Y-117832500D01*
X142748000Y-117856000D02*
X142875000Y-117983000D01*
X156972000Y-117983000D02*
X157226000Y-118237000D01*
X162560000Y-133477000D02*
X161544000Y-133477000D01*
X131427900Y-116078000D02*
X132039400Y-115466500D01*
X157226000Y-123648000D02*
X157861000Y-124283000D01*
X134747000Y-117832500D02*
X133119500Y-117832500D01*
X157226000Y-118237000D02*
X157226000Y-123648000D01*
X132039400Y-115466500D02*
X134747000Y-115466500D01*
X160750000Y-134271000D02*
X160750000Y-135825000D01*
X142875000Y-117983000D02*
X156972000Y-117983000D01*
X133119500Y-117832500D02*
X133096000Y-117856000D01*
X161544000Y-133477000D02*
X160750000Y-134271000D01*
%TO.N,Net-(U4-VGLS)*%
X149250000Y-126243712D02*
X149250000Y-127065000D01*
X149504000Y-125989712D02*
X149250000Y-126243712D01*
X149504000Y-124866000D02*
X149504000Y-125989712D01*
X148780500Y-124142500D02*
X149504000Y-124866000D01*
%TO.N,Net-(U4-CPL)*%
X148750000Y-125857000D02*
X148750000Y-127065000D01*
X148877000Y-125730000D02*
X148750000Y-125857000D01*
%TO.N,Net-(U4-CPH)*%
X150180000Y-119126000D02*
X150241000Y-119126000D01*
X148250000Y-125095000D02*
X148250000Y-127065000D01*
X148377000Y-124968000D02*
X148250000Y-125095000D01*
X148580310Y-124968000D02*
X148377000Y-124968000D01*
%TO.N,Net-(U4-VCP)*%
D60*
X145984000Y-122997000D02*
X143891000Y-122997000D01*
X146750000Y-127065000D02*
X146750000Y-123763000D01*
X146750000Y-123763000D02*
X145984000Y-122997000D01*
%TO.N,/ThreePhaseBridge and Power/GHA*%
X111400000Y-125000000D02*
X112892000Y-126492000D01*
X146212000Y-127027000D02*
X146250000Y-127065000D01*
X146212000Y-125180800D02*
X146212000Y-127027000D01*
X112892000Y-126492000D02*
X118414800Y-126492000D01*
X146202400Y-125171200D02*
X146212000Y-125180800D01*
X146150000Y-125171200D02*
X146202400Y-125171200D01*
%TO.N,/ThreePhaseBridge and Power/GLA*%
X118351800Y-114745000D02*
X118364000Y-114757200D01*
X117400000Y-114745000D02*
X118351800Y-114745000D01*
X145250000Y-126104130D02*
X145250000Y-127065000D01*
X143383000Y-125003000D02*
X144148870Y-125003000D01*
X144148870Y-125003000D02*
X145250000Y-126104130D01*
%TO.N,/ThreePhaseBridge and Power/SPB*%
D59*
X139324002Y-128016000D02*
X141961310Y-128016000D01*
X142195310Y-128250000D02*
X143565000Y-128250000D01*
X131252000Y-133670000D02*
X131252000Y-135227266D01*
X131252000Y-133477000D02*
X133157000Y-131572000D01*
X141961310Y-128016000D02*
X142195310Y-128250000D01*
X133157000Y-131572000D02*
X135768002Y-131572000D01*
X135768002Y-131572000D02*
X139324002Y-128016000D01*
X131252000Y-135227266D02*
X132925000Y-136900266D01*
%TO.N,/ThreePhaseBridge and Power/GLB*%
D60*
X141480998Y-128643000D02*
X141613000Y-128775002D01*
X118572800Y-127920000D02*
X118668800Y-128016000D01*
X117400000Y-127920000D02*
X118572800Y-127920000D01*
X143539998Y-128775002D02*
X143565000Y-128750000D01*
X141613000Y-128775002D02*
X143539998Y-128775002D01*
%TO.N,/ThreePhaseBridge and Power/GHC*%
X136906000Y-143510000D02*
X136906000Y-132689600D01*
X139345600Y-130250000D02*
X143565000Y-130250000D01*
X136906000Y-132689600D02*
X139345600Y-130250000D01*
X111600000Y-153637000D02*
X112242600Y-154279600D01*
X112242600Y-154279600D02*
X122428000Y-154279600D01*
X111600000Y-152755000D02*
X111600000Y-153637000D01*
%TO.N,/ThreePhaseBridge and Power/GLC*%
X141351000Y-131572000D02*
X141706600Y-131216400D01*
X141706600Y-131216400D02*
X143531400Y-131216400D01*
X117400000Y-141945000D02*
X118354200Y-141945000D01*
X118354200Y-141945000D02*
X118872000Y-141427200D01*
X143531400Y-131216400D02*
X143565000Y-131250000D01*
%TO.N,/ThreePhaseBridge and Power/SPC*%
D59*
X132925000Y-151400266D02*
X132925000Y-149120000D01*
X132925000Y-149120000D02*
X131379000Y-147574000D01*
%TO.N,/MCU/IC*%
X141605000Y-132842000D02*
X141697000Y-132750000D01*
X157723000Y-125084000D02*
X157723000Y-130164000D01*
X156302000Y-124079000D02*
X156718000Y-124079000D01*
X157959000Y-130400000D02*
X158825000Y-130400000D01*
X141697000Y-132750000D02*
X143565000Y-132750000D01*
X157723000Y-130164000D02*
X157959000Y-130400000D01*
X156718000Y-124079000D02*
X157723000Y-125084000D01*
%TO.N,/MCU/IB*%
X141560000Y-136320000D02*
X142090000Y-136850000D01*
X143135001Y-133250000D02*
X141560000Y-134825001D01*
X143565000Y-133250000D02*
X143135001Y-133250000D01*
X141560000Y-134825001D02*
X141560000Y-136320000D01*
X162750000Y-143338000D02*
X162750000Y-135825000D01*
X142090000Y-136850000D02*
X142230000Y-136850000D01*
%TO.N,/MCU/IA*%
X164750000Y-142711000D02*
X164750000Y-139056712D01*
X164877000Y-138929712D02*
X164877000Y-138410288D01*
X164750000Y-139056712D02*
X164877000Y-138929712D01*
X164877000Y-138410288D02*
X164750000Y-138283288D01*
X164750000Y-138283288D02*
X164750000Y-135825000D01*
X143548000Y-133935000D02*
X144250000Y-133935000D01*
%TO.N,/MCU/OC*%
X167250000Y-140533000D02*
X167250000Y-135825000D01*
X144379310Y-135810000D02*
X144350000Y-135810000D01*
X167377000Y-140880000D02*
X167377000Y-140660000D01*
X145750000Y-133935000D02*
X145750000Y-134439310D01*
X145750000Y-134439310D02*
X144379310Y-135810000D01*
X167377000Y-140660000D02*
X167250000Y-140533000D01*
%TO.N,/MCU/DRV_MOSI*%
X143700000Y-136437000D02*
X144793000Y-136437000D01*
X145655110Y-135574890D02*
X145655110Y-135204890D01*
X145655110Y-135204890D02*
X146250000Y-134610000D01*
X144793000Y-136437000D02*
X145655110Y-135574890D01*
X146250000Y-134610000D02*
X146250000Y-133935000D01*
X163750000Y-126490000D02*
X163750000Y-124475000D01*
%TO.N,/MCU/DRV_MISO*%
X146109110Y-136067602D02*
X146109110Y-135392942D01*
X162240000Y-140763000D02*
X162250000Y-140753000D01*
X146704000Y-134776000D02*
X146750000Y-134730000D01*
X146704000Y-134798052D02*
X146704000Y-134776000D01*
X162070000Y-144290000D02*
X162560000Y-144780000D01*
X162070000Y-141003000D02*
X162240000Y-140833000D01*
X146109110Y-135392942D02*
X146704000Y-134798052D01*
X162070000Y-141003000D02*
X162070000Y-144290000D01*
X162240000Y-140833000D02*
X162240000Y-140763000D01*
X162250000Y-140753000D02*
X162250000Y-135825000D01*
X146750000Y-134730000D02*
X146750000Y-133935000D01*
%TO.N,/MCU/DRV_SCK*%
X161750000Y-140310000D02*
X161750000Y-135825000D01*
X161120000Y-141875000D02*
X161120000Y-140940000D01*
X161120000Y-140940000D02*
X161750000Y-140310000D01*
X147250000Y-133935000D02*
X147250000Y-135288335D01*
X147250000Y-135288335D02*
X146851335Y-135687000D01*
%TO.N,/MCU/DRV_CS*%
X147750000Y-135540000D02*
X147750000Y-133935000D01*
X147573000Y-136049600D02*
X147573000Y-135717000D01*
X168680000Y-131400000D02*
X170175000Y-131400000D01*
X167862992Y-131972348D02*
X167894000Y-132003356D01*
X147555000Y-136067600D02*
X147573000Y-136049600D01*
X147573000Y-135717000D02*
X147750000Y-135540000D01*
X168076644Y-132003356D02*
X168680000Y-131400000D01*
X167894000Y-132003356D02*
X168076644Y-132003356D01*
%TO.N,/MCU/DRV_EN*%
X167798154Y-130900000D02*
X170175000Y-130900000D01*
X148826999Y-135982123D02*
X148250000Y-135405124D01*
X148250000Y-135405124D02*
X148250000Y-133935000D01*
X167323198Y-131374956D02*
X167798154Y-130900000D01*
%TO.N,/MCU/PWM_A+*%
X167063486Y-130747956D02*
X167067044Y-130747956D01*
X167067044Y-130747956D02*
X168415000Y-129400000D01*
X149971588Y-136240000D02*
X148750000Y-135018412D01*
X164240000Y-132080000D02*
X165735000Y-132080000D01*
X166696198Y-131118802D02*
X166696198Y-131115244D01*
X150885030Y-136240000D02*
X149971588Y-136240000D01*
X165735000Y-132080000D02*
X166696198Y-131118802D01*
X148750000Y-135018412D02*
X148750000Y-133935000D01*
X166696198Y-131115244D02*
X167063486Y-130747956D01*
X150927661Y-136282631D02*
X150885030Y-136240000D01*
X168415000Y-129400000D02*
X170175000Y-129400000D01*
%TO.N,/MCU/PWM_A-*%
X158825000Y-126900000D02*
X160830000Y-126900000D01*
X149930000Y-135510000D02*
X149250000Y-134830000D01*
X160830000Y-126900000D02*
X160960000Y-126770000D01*
X151107394Y-135510000D02*
X149930000Y-135510000D01*
X149250000Y-134830000D02*
X149250000Y-133935000D01*
X151113000Y-135504394D02*
X151107394Y-135510000D01*
%TO.N,/MCU/PWM_B+*%
X168234000Y-128946000D02*
X168280000Y-128900000D01*
X165123000Y-131453000D02*
X165120000Y-131450000D01*
X166875434Y-130293956D02*
X166878992Y-130293956D01*
X149750000Y-133935000D02*
X149750000Y-134404644D01*
X166242198Y-130927192D02*
X166875434Y-130293956D01*
X165120000Y-131450000D02*
X165722948Y-131450000D01*
X165722948Y-131450000D02*
X166242198Y-130930750D01*
X168280000Y-128900000D02*
X170175000Y-128900000D01*
X166242198Y-130930750D02*
X166242198Y-130927192D01*
X168226948Y-128946000D02*
X168234000Y-128946000D01*
X166878992Y-130293956D02*
X168226948Y-128946000D01*
X149750000Y-134404644D02*
X150228356Y-134883000D01*
%TO.N,/MCU/PWM_B-*%
X151180000Y-133250000D02*
X151740000Y-133810000D01*
X151740000Y-133810000D02*
X151740000Y-136250000D01*
X150435000Y-133250000D02*
X151180000Y-133250000D01*
X164250000Y-138670000D02*
X164250000Y-135825000D01*
%TO.N,/MCU/PWM_C+*%
X161041053Y-129159000D02*
X167371896Y-129159000D01*
X168226000Y-128446000D02*
X168272000Y-128400000D01*
X168038896Y-128492000D02*
X168045947Y-128492000D01*
X168045947Y-128492000D02*
X168091948Y-128446000D01*
X151700000Y-132750000D02*
X152290000Y-133340000D01*
X160270000Y-128540000D02*
X160860000Y-129130000D01*
X160860000Y-129130000D02*
X161012052Y-129130000D01*
X168272000Y-128400000D02*
X170175000Y-128400000D01*
X161012052Y-129130000D02*
X161041053Y-129159000D01*
X168091948Y-128446000D02*
X168226000Y-128446000D01*
X167371896Y-129159000D02*
X168038896Y-128492000D01*
X150435000Y-132750000D02*
X151700000Y-132750000D01*
%TO.N,/MCU/PWM_C-*%
X160224644Y-129390000D02*
X160628644Y-129794000D01*
X164000000Y-132760000D02*
X167962052Y-132760000D01*
X168822052Y-131900000D02*
X170175000Y-131900000D01*
X167962052Y-132760000D02*
X168822052Y-131900000D01*
X150435000Y-132250000D02*
X152260000Y-132250000D01*
X152260000Y-132250000D02*
X152270000Y-132260000D01*
X163448000Y-132208000D02*
X164000000Y-132760000D01*
X162687000Y-129794000D02*
X163448000Y-130555000D01*
X160628644Y-129794000D02*
X162687000Y-129794000D01*
X163448000Y-130555000D02*
X163448000Y-132208000D01*
%TO.N,Net-(U4-DVDD)*%
X154432000Y-130302000D02*
X154470001Y-130340001D01*
X154470001Y-130340001D02*
X154586999Y-130340001D01*
X151460000Y-131750000D02*
X151765000Y-131445000D01*
X150435000Y-131750000D02*
X151460000Y-131750000D01*
X154586999Y-130340001D02*
X155006000Y-129921000D01*
%TO.N,Net-(D6-K)*%
X150435000Y-130750000D02*
X152035200Y-130750000D01*
D60*
X144282400Y-139917600D02*
X146863000Y-139917600D01*
D62*
X153367100Y-137401100D02*
X153329600Y-137363600D01*
D60*
X152920000Y-137773200D02*
X153329600Y-137363600D01*
D63*
X153287500Y-138302000D02*
X153287500Y-137405700D01*
D59*
X153314400Y-132029200D02*
X153314400Y-137917600D01*
X152035200Y-130750000D02*
X153314400Y-132029200D01*
D63*
X153287500Y-139852800D02*
X153287500Y-138302000D01*
D60*
X132708400Y-144170400D02*
X140029600Y-144170400D01*
X140029600Y-144170400D02*
X144282400Y-139917600D01*
%TO.N,Net-(U4-BST)*%
X152148582Y-129250000D02*
X150435000Y-129250000D01*
X155194000Y-131720000D02*
X155194000Y-137358000D01*
X155194000Y-137358000D02*
X155150000Y-137402000D01*
X153081791Y-128316791D02*
X152148582Y-129250000D01*
X155194000Y-137328000D02*
X155229600Y-137363600D01*
%TO.N,Net-(U4-RT{slash}SD)*%
X151658000Y-128250000D02*
X152527000Y-127381000D01*
X152527000Y-127381000D02*
X152527000Y-122959500D01*
X150435000Y-128250000D02*
X151658000Y-128250000D01*
%TO.N,/5V_BUCK*%
D59*
X163288000Y-152323000D02*
X163365000Y-152400000D01*
D61*
X159912700Y-152450000D02*
X163288000Y-152450000D01*
%TO.N,/VbusSense*%
D60*
X155829000Y-130719000D02*
X155829000Y-125984000D01*
D59*
X154813000Y-125730000D02*
X154940000Y-125603000D01*
D60*
X155829000Y-125984000D02*
X155702000Y-125857000D01*
X156248256Y-130900000D02*
X156010000Y-130900000D01*
X158825000Y-130900000D02*
X157309744Y-130900000D01*
D59*
X154752000Y-125791000D02*
X154813000Y-125730000D01*
X154940000Y-125603000D02*
X155702000Y-125603000D01*
D60*
X157309744Y-130900000D02*
X157263744Y-130946000D01*
X155702000Y-125857000D02*
X155702000Y-125603000D01*
X156010000Y-130900000D02*
X155829000Y-130719000D01*
D59*
X154752000Y-127762000D02*
X154752000Y-125791000D01*
D60*
X155702000Y-125603000D02*
X155702000Y-122959500D01*
X156294256Y-130946000D02*
X156248256Y-130900000D01*
X157263744Y-130946000D02*
X156294256Y-130946000D01*
%TO.N,/+12V*%
D62*
X157734000Y-145542000D02*
X158100000Y-145176000D01*
X158100000Y-145176000D02*
X158100000Y-142100000D01*
D61*
X150613800Y-155150000D02*
X148037700Y-155150000D01*
D60*
X146073400Y-144928000D02*
X146149600Y-145004200D01*
D61*
X143213800Y-156100000D02*
X145813250Y-156100000D01*
%TO.N,Net-(D7-A)*%
D59*
X160872500Y-111460000D02*
X160892500Y-111440000D01*
X158022500Y-111480000D02*
X158042500Y-111460000D01*
X158042500Y-111460000D02*
X160872500Y-111460000D01*
%TO.N,Net-(U1-VBST)*%
D62*
X145762700Y-159350000D02*
X145900200Y-159487500D01*
X145762700Y-157050000D02*
X145762700Y-159350000D01*
%TO.N,/MCU/FET_TEMP*%
D59*
X156120000Y-144055000D02*
X156718000Y-144653000D01*
X157406000Y-131900000D02*
X157353000Y-131953000D01*
X104891000Y-124714000D02*
X105000000Y-124605000D01*
X155829000Y-134747000D02*
X156120000Y-135038000D01*
X107569000Y-124648000D02*
X105043000Y-124648000D01*
X102489000Y-124714000D02*
X104891000Y-124714000D01*
X105043000Y-124648000D02*
X105000000Y-124605000D01*
X158825000Y-131900000D02*
X157406000Y-131900000D01*
X156120000Y-135038000D02*
X156120000Y-144055000D01*
%TO.N,/MCU/LED1*%
X166859000Y-127400000D02*
X158825000Y-127400000D01*
X167377644Y-126862356D02*
X167377644Y-126881356D01*
X170942000Y-124135500D02*
X171620000Y-123457500D01*
X167377644Y-126881356D02*
X166859000Y-127400000D01*
X171620000Y-123457500D02*
X171620000Y-120722500D01*
X171620000Y-120722500D02*
X173140000Y-119202500D01*
%TO.N,Net-(D3-A)*%
X173140000Y-121077500D02*
X173140000Y-122937500D01*
%TO.N,/CAN_RX*%
X171831000Y-109855000D02*
X174167000Y-112191000D01*
X144018000Y-109093000D02*
X145088000Y-108023000D01*
X174167000Y-112191000D02*
X174167000Y-132665000D01*
X160647948Y-109855000D02*
X171831000Y-109855000D01*
X145088000Y-108023000D02*
X158815948Y-108023000D01*
X134481800Y-110413800D02*
X136209000Y-112141000D01*
X158815948Y-108023000D02*
X160647948Y-109855000D01*
X144018000Y-111252000D02*
X144018000Y-109093000D01*
X143129001Y-112141000D02*
X144018000Y-111252000D01*
X136209000Y-112141000D02*
X143129001Y-112141000D01*
X174167000Y-132665000D02*
X173432000Y-133400000D01*
X173432000Y-133400000D02*
X170175000Y-133400000D01*
%TO.N,/CAN_TX*%
X143506474Y-108962474D02*
X144899948Y-107569000D01*
X137160000Y-110744000D02*
X138103000Y-111687000D01*
X160836000Y-109401000D02*
X172019053Y-109401000D01*
X172027000Y-132900000D02*
X170175000Y-132900000D01*
X137160000Y-108678136D02*
X137160000Y-110744000D01*
X134481800Y-106603800D02*
X135085664Y-106603800D01*
X143506474Y-111121474D02*
X143506474Y-108962474D01*
X138103000Y-111687000D02*
X142940948Y-111687000D01*
X135085664Y-106603800D02*
X137160000Y-108678136D01*
X159004000Y-107569000D02*
X160836000Y-109401000D01*
X144899948Y-107569000D02*
X159004000Y-107569000D01*
X142940948Y-111687000D02*
X143506474Y-111121474D01*
X172019053Y-109401000D02*
X174625000Y-112006948D01*
X172339000Y-132588000D02*
X172027000Y-132900000D01*
X174625000Y-112006948D02*
X174625000Y-133350000D01*
%TO.N,/MCU/ENC_SCL*%
X172783500Y-129857500D02*
X172241000Y-130400000D01*
X172241000Y-130400000D02*
X170175000Y-130400000D01*
%TO.N,/MCU/ENC_MOSI*%
X165472962Y-123200959D02*
X165750000Y-123477997D01*
X165363353Y-123200959D02*
X165472962Y-123200959D01*
X165750000Y-123477997D02*
X165750000Y-124475000D01*
%TO.N,/MCU/ENC_EN*%
X162306000Y-122428000D02*
X162941000Y-121793000D01*
X162941000Y-121793000D02*
X165354000Y-121793000D01*
X168529000Y-114681000D02*
X169001000Y-114209000D01*
X163250000Y-123385648D02*
X163250000Y-124475000D01*
X172234000Y-114209000D02*
X173540000Y-112903000D01*
X169001000Y-114209000D02*
X172234000Y-114209000D01*
%TO.N,Net-(J1-Pin_1)*%
D62*
X134200000Y-103466000D02*
X138607800Y-107873800D01*
X134200000Y-102400000D02*
X134200000Y-103466000D01*
X138607800Y-107873800D02*
X139431800Y-107873800D01*
%TO.N,V*%
D59*
X148590000Y-114560000D02*
X148590000Y-114554000D01*
X166497000Y-105410000D02*
X167513000Y-106426000D01*
X162700000Y-105804000D02*
X162700000Y-107800000D01*
X167513000Y-106426000D02*
X167500000Y-106439000D01*
X162700000Y-105804000D02*
X163094000Y-105410000D01*
X163094000Y-105410000D02*
X166497000Y-105410000D01*
X154432000Y-105410000D02*
X162306000Y-105410000D01*
X145750000Y-117400000D02*
X148590000Y-114560000D01*
X162306000Y-105410000D02*
X162700000Y-105804000D01*
X153035000Y-106807000D02*
X154432000Y-105410000D01*
X167500000Y-106439000D02*
X167500000Y-107800000D01*
%TO.N,GND*%
D60*
X159950000Y-146177000D02*
X159950000Y-147443000D01*
X159950000Y-147443000D02*
X159954000Y-147447000D01*
X159950000Y-145542000D02*
X159950000Y-146177000D01*
X159950000Y-144400000D02*
X159950000Y-145542000D01*
%TD*%
%TA.AperFunction,Conductor*%
%TO.N,/ThreePhaseBridge and Power/SHA*%
G36*
X111000000Y-124000000D02*
G01*
X109717500Y-124000000D01*
X109650461Y-123980315D01*
X109604706Y-123927511D01*
X109593500Y-123876000D01*
X109593500Y-123382196D01*
X109593499Y-123382192D01*
X109569387Y-123260973D01*
X109569386Y-123260966D01*
X109522083Y-123146768D01*
X109522083Y-123146767D01*
X109517098Y-123139307D01*
X109513950Y-123133243D01*
X109508497Y-123105388D01*
X109500020Y-123078310D01*
X109500000Y-123076102D01*
X109500000Y-121749999D01*
X109500000Y-121500000D01*
X111000000Y-124000000D01*
G37*
%TD.AperFunction*%
%TD*%
%TA.AperFunction,Conductor*%
%TO.N,+3.3V*%
G36*
X142843039Y-109919685D02*
G01*
X142888794Y-109972489D01*
X142900000Y-110024000D01*
X142900000Y-110826000D01*
X142880315Y-110893039D01*
X142827511Y-110938794D01*
X142776000Y-110950000D01*
X138374000Y-110950000D01*
X138306961Y-110930315D01*
X138261206Y-110877511D01*
X138250000Y-110826000D01*
X138250000Y-110024000D01*
X138269685Y-109956961D01*
X138322489Y-109911206D01*
X138374000Y-109900000D01*
X142776000Y-109900000D01*
X142843039Y-109919685D01*
G37*
%TD.AperFunction*%
%TD*%
%TA.AperFunction,Conductor*%
%TO.N,+5V*%
G36*
X146143039Y-113919685D02*
G01*
X146188794Y-113972489D01*
X146200000Y-114024000D01*
X146200000Y-115326000D01*
X146180315Y-115393039D01*
X146127511Y-115438794D01*
X146076000Y-115450000D01*
X145424000Y-115450000D01*
X145356961Y-115430315D01*
X145311206Y-115377511D01*
X145300000Y-115326000D01*
X145300000Y-114024000D01*
X145319685Y-113956961D01*
X145372489Y-113911206D01*
X145424000Y-113900000D01*
X146076000Y-113900000D01*
X146143039Y-113919685D01*
G37*
%TD.AperFunction*%
%TD*%
%TA.AperFunction,Conductor*%
%TO.N,GND*%
G36*
X129900000Y-154664409D02*
G01*
X130700000Y-154664409D01*
X130575193Y-154508400D01*
X130592000Y-154508400D01*
X130659039Y-154528085D01*
X130704794Y-154580889D01*
X130716000Y-154632400D01*
X130716000Y-158384400D01*
X130696315Y-158451439D01*
X130643511Y-158497194D01*
X130592000Y-158508400D01*
X124840000Y-158508400D01*
X124772961Y-158488715D01*
X124727206Y-158435911D01*
X124716000Y-158384400D01*
X124716000Y-154635200D01*
X125489202Y-154635200D01*
X125489202Y-154508400D01*
X129900000Y-154508400D01*
X129900000Y-154664409D01*
G37*
%TD.AperFunction*%
%TA.AperFunction,Conductor*%
G36*
X124725722Y-154594114D02*
G01*
X124735685Y-154560186D01*
X124788489Y-154514431D01*
X124789205Y-154514106D01*
X124801911Y-154508400D01*
X124801913Y-154508400D01*
X124725722Y-154594114D01*
G37*
%TD.AperFunction*%
%TD*%
%TA.AperFunction,Conductor*%
%TO.N,GND*%
G36*
X130443039Y-107719685D02*
G01*
X130488794Y-107772489D01*
X130500000Y-107824000D01*
X130500000Y-110876000D01*
X130480315Y-110943039D01*
X130427511Y-110988794D01*
X130376000Y-111000000D01*
X125106910Y-111000000D01*
X125100000Y-110970728D01*
X125100000Y-107824000D01*
X125119685Y-107756961D01*
X125172489Y-107711206D01*
X125224000Y-107700000D01*
X130376000Y-107700000D01*
X130443039Y-107719685D01*
G37*
%TD.AperFunction*%
%TD*%
%TA.AperFunction,Conductor*%
%TO.N,+3.3V*%
G36*
X163773106Y-114600023D02*
G01*
X163788104Y-114604427D01*
X163803094Y-114614057D01*
X163820175Y-114619067D01*
X163846855Y-114642172D01*
X163848042Y-114643541D01*
X163875518Y-114698402D01*
X163877163Y-114705960D01*
X163880000Y-114732331D01*
X163880000Y-117852841D01*
X163874975Y-117887785D01*
X163870570Y-117902783D01*
X163860933Y-117917776D01*
X163855917Y-117934869D01*
X163832806Y-117961544D01*
X163831501Y-117962675D01*
X163776493Y-117990170D01*
X163768791Y-117991835D01*
X163742262Y-117994635D01*
X160231500Y-117985373D01*
X160196574Y-117980256D01*
X160190268Y-117978386D01*
X160181587Y-117975812D01*
X160166619Y-117966138D01*
X160149545Y-117961079D01*
X160122929Y-117937901D01*
X160121690Y-117936464D01*
X160094399Y-117881681D01*
X160092795Y-117874259D01*
X160090000Y-117848077D01*
X160090000Y-114736829D01*
X160095023Y-114701893D01*
X160099427Y-114686895D01*
X160109057Y-114671904D01*
X160114067Y-114654824D01*
X160137172Y-114628144D01*
X160138541Y-114626957D01*
X160193420Y-114599477D01*
X160200979Y-114597833D01*
X160227332Y-114595000D01*
X163738170Y-114595000D01*
X163773106Y-114600023D01*
G37*
%TD.AperFunction*%
%TD*%
%TA.AperFunction,Conductor*%
%TO.N,VBUS*%
G36*
X120100000Y-140000000D02*
G01*
X120068506Y-139968506D01*
X120068506Y-139968505D01*
X119100000Y-139000000D01*
X120100000Y-139000000D01*
X120100000Y-140000000D01*
G37*
%TD.AperFunction*%
%TD*%
%TA.AperFunction,Conductor*%
%TO.N,/+12V*%
G36*
X153943239Y-148019685D02*
G01*
X153988994Y-148072489D01*
X154000200Y-148124000D01*
X154000200Y-151576000D01*
X153980515Y-151643039D01*
X153927711Y-151688794D01*
X153876200Y-151700000D01*
X150224200Y-151700000D01*
X150157161Y-151680315D01*
X150111406Y-151627511D01*
X150100200Y-151576000D01*
X150100200Y-150524000D01*
X150119885Y-150456961D01*
X150172689Y-150411206D01*
X150224200Y-150400000D01*
X152700200Y-150400000D01*
X152700200Y-148124000D01*
X152719885Y-148056961D01*
X152772689Y-148011206D01*
X152824200Y-148000000D01*
X153876200Y-148000000D01*
X153943239Y-148019685D01*
G37*
%TD.AperFunction*%
%TD*%
%TA.AperFunction,Conductor*%
%TO.N,GND*%
G36*
X125401638Y-153942818D02*
G01*
X125459934Y-153981333D01*
X125488153Y-154045250D01*
X125489202Y-154061344D01*
X125489202Y-154635200D01*
X124716000Y-154635200D01*
X124716000Y-154627225D01*
X124725722Y-154594114D01*
X125272524Y-153978961D01*
X125331774Y-153941935D01*
X125401638Y-153942818D01*
G37*
%TD.AperFunction*%
%TD*%
%TA.AperFunction,Conductor*%
%TO.N,+3.3V*%
G36*
X156727295Y-108467246D02*
G01*
X156794258Y-108487186D01*
X156839811Y-108540164D01*
X156850808Y-108593049D01*
X156721428Y-117483304D01*
X156700770Y-117550050D01*
X156647306Y-117595032D01*
X156597441Y-117605500D01*
X148777956Y-117605500D01*
X148710917Y-117585815D01*
X148665162Y-117533011D01*
X148653961Y-117480433D01*
X148669712Y-115653312D01*
X148686942Y-115591318D01*
X150200000Y-113030000D01*
X150182228Y-109661829D01*
X152249500Y-109661829D01*
X152249500Y-111038150D01*
X152249501Y-111038175D01*
X152252291Y-111073627D01*
X152296380Y-111225385D01*
X152296382Y-111225390D01*
X152376827Y-111361416D01*
X152376834Y-111361425D01*
X152488574Y-111473165D01*
X152488578Y-111473168D01*
X152488580Y-111473170D01*
X152624610Y-111553618D01*
X152776373Y-111597709D01*
X152811837Y-111600500D01*
X153688162Y-111600499D01*
X153723627Y-111597709D01*
X153875390Y-111553618D01*
X154011420Y-111473170D01*
X154123170Y-111361420D01*
X154203618Y-111225390D01*
X154247709Y-111073627D01*
X154250500Y-111038163D01*
X154250499Y-109661838D01*
X154247709Y-109626373D01*
X154203618Y-109474610D01*
X154123170Y-109338580D01*
X154123168Y-109338578D01*
X154123165Y-109338574D01*
X154011425Y-109226834D01*
X154011416Y-109226827D01*
X153875390Y-109146382D01*
X153875385Y-109146380D01*
X153723633Y-109102292D01*
X153723620Y-109102290D01*
X153688163Y-109099500D01*
X152811849Y-109099500D01*
X152811824Y-109099501D01*
X152776372Y-109102291D01*
X152624614Y-109146380D01*
X152624609Y-109146382D01*
X152488583Y-109226827D01*
X152488574Y-109226834D01*
X152376834Y-109338574D01*
X152376827Y-109338583D01*
X152296382Y-109474609D01*
X152296380Y-109474614D01*
X152252292Y-109626366D01*
X152252290Y-109626379D01*
X152249500Y-109661829D01*
X150182228Y-109661829D01*
X150176688Y-108611922D01*
X150196018Y-108544783D01*
X150248580Y-108498750D01*
X150299946Y-108487273D01*
X151701975Y-108478927D01*
X151701974Y-108478926D01*
X151707241Y-108478895D01*
X151756753Y-108451401D01*
X151784439Y-108448377D01*
X156727295Y-108467246D01*
G37*
%TD.AperFunction*%
%TD*%
%TA.AperFunction,Conductor*%
%TO.N,/ThreePhaseBridge and Power/SHB*%
G36*
X112000000Y-133999999D02*
G01*
X112000000Y-137376000D01*
X111980315Y-137443039D01*
X111927511Y-137488794D01*
X111876000Y-137500000D01*
X111000000Y-137500000D01*
X109500000Y-135000000D01*
X109500000Y-135249999D01*
X108000000Y-133000000D01*
X112000000Y-133000000D01*
X112000000Y-133999999D01*
G37*
%TD.AperFunction*%
%TD*%
%TA.AperFunction,Conductor*%
%TO.N,VBUS*%
G36*
X139643039Y-112795685D02*
G01*
X139688794Y-112848489D01*
X139700000Y-112900000D01*
X139700000Y-120777000D01*
X139622547Y-120777000D01*
X139622547Y-121412000D01*
X139700000Y-121412000D01*
X139700000Y-126756500D01*
X139680315Y-126823539D01*
X139627511Y-126869294D01*
X139576000Y-126880500D01*
X137124000Y-126880500D01*
X137056961Y-126860815D01*
X137011206Y-126808011D01*
X137000000Y-126756500D01*
X137000000Y-121133510D01*
X137009439Y-121086057D01*
X137040737Y-121010497D01*
X137071500Y-120855842D01*
X137071500Y-120698158D01*
X137071500Y-120698155D01*
X137071499Y-120698153D01*
X137040739Y-120543511D01*
X137040736Y-120543501D01*
X137009439Y-120467942D01*
X137000000Y-120420490D01*
X137000000Y-112900000D01*
X137019685Y-112832961D01*
X137072489Y-112787206D01*
X137124000Y-112776000D01*
X139576000Y-112776000D01*
X139643039Y-112795685D01*
G37*
%TD.AperFunction*%
%TD*%
%TA.AperFunction,Conductor*%
%TO.N,/ThreePhaseBridge and Power/SHB*%
G36*
X112000000Y-133999999D02*
G01*
X112000000Y-133000000D01*
X112999999Y-133000000D01*
X112000000Y-133999999D01*
G37*
%TD.AperFunction*%
%TD*%
%TA.AperFunction,Conductor*%
%TO.N,/ThreePhaseBridge and Power/SPC*%
G36*
X135020239Y-149422485D02*
G01*
X135065994Y-149475289D01*
X135077200Y-149526800D01*
X135077200Y-153292000D01*
X135057515Y-153359039D01*
X135004711Y-153404794D01*
X134953200Y-153416000D01*
X132102400Y-153416000D01*
X132035361Y-153396315D01*
X131989606Y-153343511D01*
X131978400Y-153292000D01*
X131978400Y-149526800D01*
X131998085Y-149459761D01*
X132050889Y-149414006D01*
X132102400Y-149402800D01*
X134953200Y-149402800D01*
X135020239Y-149422485D01*
G37*
%TD.AperFunction*%
%TD*%
%TA.AperFunction,Conductor*%
%TO.N,/ThreePhaseBridge and Power/SHB*%
G36*
X111000000Y-137500000D02*
G01*
X109624000Y-137500000D01*
X109556961Y-137480315D01*
X109511206Y-137427511D01*
X109500000Y-137376000D01*
X109500000Y-135249999D01*
X109500000Y-135000000D01*
X111000000Y-137500000D01*
G37*
%TD.AperFunction*%
%TD*%
%TA.AperFunction,Conductor*%
%TO.N,/+12V*%
G36*
X150943239Y-143019685D02*
G01*
X150988994Y-143072489D01*
X151000200Y-143124000D01*
X151000200Y-147073504D01*
X150980515Y-147140543D01*
X150944983Y-147176678D01*
X149250200Y-148306534D01*
X149250200Y-149876000D01*
X149230515Y-149943039D01*
X149177711Y-149988794D01*
X149126200Y-150000000D01*
X141954000Y-150000000D01*
X141886961Y-149980315D01*
X141841206Y-149927511D01*
X141830000Y-149876000D01*
X141830000Y-143270597D01*
X141838644Y-143241156D01*
X141845168Y-143211170D01*
X141848922Y-143206154D01*
X141849685Y-143203558D01*
X141866319Y-143182916D01*
X142012916Y-143036319D01*
X142074239Y-143002834D01*
X142100597Y-143000000D01*
X150876200Y-143000000D01*
X150943239Y-143019685D01*
G37*
%TD.AperFunction*%
%TD*%
%TA.AperFunction,Conductor*%
%TO.N,/ThreePhaseBridge and Power/SHA*%
G36*
X115943039Y-113303685D02*
G01*
X115988794Y-113356489D01*
X116000000Y-113408000D01*
X116000000Y-119621000D01*
X115980315Y-119688039D01*
X115927511Y-119733794D01*
X115876000Y-119745000D01*
X112000000Y-119745000D01*
X112000000Y-119500000D01*
X108000000Y-119500000D01*
X108163333Y-119745000D01*
X100624000Y-119745000D01*
X100556961Y-119725315D01*
X100511206Y-119672511D01*
X100500000Y-119621000D01*
X100500000Y-113408000D01*
X100519685Y-113340961D01*
X100572489Y-113295206D01*
X100624000Y-113284000D01*
X115876000Y-113284000D01*
X115943039Y-113303685D01*
G37*
%TD.AperFunction*%
%TD*%
%TA.AperFunction,Conductor*%
%TO.N,+5V*%
G36*
X149340987Y-109105023D02*
G01*
X149355985Y-109109427D01*
X149370980Y-109119062D01*
X149388070Y-109124077D01*
X149414748Y-109147185D01*
X149415568Y-109148131D01*
X149443252Y-109204007D01*
X149445029Y-109212522D01*
X149447628Y-109239962D01*
X149401521Y-111960274D01*
X149395907Y-111995120D01*
X149391249Y-112010043D01*
X149381361Y-112024872D01*
X149376057Y-112041876D01*
X149352500Y-112068158D01*
X149350684Y-112069679D01*
X149296398Y-112096001D01*
X149289766Y-112097385D01*
X149264438Y-112100000D01*
X145641830Y-112100000D01*
X145606889Y-112094975D01*
X145591890Y-112090570D01*
X145576902Y-112080940D01*
X145559824Y-112075932D01*
X145533144Y-112052827D01*
X145531957Y-112051458D01*
X145504477Y-111996583D01*
X145502832Y-111989021D01*
X145500000Y-111962668D01*
X145500000Y-109241829D01*
X145505023Y-109206893D01*
X145505871Y-109204007D01*
X145509427Y-109191894D01*
X145519057Y-109176904D01*
X145524067Y-109159824D01*
X145547172Y-109133144D01*
X145548541Y-109131957D01*
X145603420Y-109104477D01*
X145610979Y-109102833D01*
X145637332Y-109100000D01*
X149306051Y-109100000D01*
X149340987Y-109105023D01*
G37*
%TD.AperFunction*%
%TD*%
%TA.AperFunction,Conductor*%
%TO.N,+5V*%
G36*
X136443039Y-108569685D02*
G01*
X136488794Y-108622489D01*
X136500000Y-108674000D01*
X136500000Y-109726000D01*
X136480315Y-109793039D01*
X136427511Y-109838794D01*
X136376000Y-109850000D01*
X132524000Y-109850000D01*
X132456961Y-109830315D01*
X132411206Y-109777511D01*
X132400000Y-109726000D01*
X132400000Y-108674000D01*
X132419685Y-108606961D01*
X132472489Y-108561206D01*
X132524000Y-108550000D01*
X136376000Y-108550000D01*
X136443039Y-108569685D01*
G37*
%TD.AperFunction*%
%TD*%
%TA.AperFunction,Conductor*%
%TO.N,/ThreePhaseBridge and Power/SPC*%
G36*
X119243039Y-142819685D02*
G01*
X119288794Y-142872489D01*
X119300000Y-142924000D01*
X119300000Y-146648638D01*
X119280315Y-146715677D01*
X119263681Y-146736319D01*
X118436319Y-147563681D01*
X118374996Y-147597166D01*
X118348638Y-147600000D01*
X116924000Y-147600000D01*
X116856961Y-147580315D01*
X116811206Y-147527511D01*
X116800000Y-147476000D01*
X116800000Y-142924000D01*
X116819685Y-142856961D01*
X116872489Y-142811206D01*
X116924000Y-142800000D01*
X119176000Y-142800000D01*
X119243039Y-142819685D01*
G37*
%TD.AperFunction*%
%TD*%
%TA.AperFunction,Conductor*%
%TO.N,VBUS*%
G36*
X120019334Y-120283180D02*
G01*
X120075267Y-120325052D01*
X120099684Y-120390516D01*
X120100000Y-120399362D01*
X120100000Y-120976000D01*
X120080315Y-121043039D01*
X120027511Y-121088794D01*
X119976000Y-121100000D01*
X119399362Y-121100000D01*
X119332323Y-121080315D01*
X119286568Y-121027511D01*
X119276624Y-120958353D01*
X119305649Y-120894797D01*
X119311681Y-120888319D01*
X119888319Y-120311681D01*
X119949642Y-120278196D01*
X120019334Y-120283180D01*
G37*
%TD.AperFunction*%
%TD*%
%TA.AperFunction,Conductor*%
%TO.N,/ThreePhaseBridge and Power/SPA*%
G36*
X118088258Y-115509439D02*
G01*
X118112995Y-115519685D01*
X118130503Y-115526937D01*
X118281443Y-115556961D01*
X118285153Y-115557699D01*
X118285156Y-115557700D01*
X118285158Y-115557700D01*
X118442844Y-115557700D01*
X118442845Y-115557699D01*
X118597497Y-115526937D01*
X118619408Y-115517860D01*
X118639742Y-115509439D01*
X118687194Y-115500000D01*
X119376000Y-115500000D01*
X119443039Y-115519685D01*
X119488794Y-115572489D01*
X119500000Y-115624000D01*
X119500000Y-118948638D01*
X119480315Y-119015677D01*
X119463681Y-119036319D01*
X118536319Y-119963681D01*
X118474996Y-119997166D01*
X118448638Y-120000000D01*
X117124000Y-120000000D01*
X117056961Y-119980315D01*
X117011206Y-119927511D01*
X117000000Y-119876000D01*
X117000000Y-115624000D01*
X117019685Y-115556961D01*
X117072489Y-115511206D01*
X117124000Y-115500000D01*
X118040806Y-115500000D01*
X118088258Y-115509439D01*
G37*
%TD.AperFunction*%
%TD*%
%TA.AperFunction,Conductor*%
%TO.N,VBUS*%
G36*
X119196378Y-134203622D02*
G01*
X120196378Y-134203622D01*
X120196378Y-134000000D01*
X122876000Y-134000000D01*
X122943039Y-134019685D01*
X122988794Y-134072489D01*
X123000000Y-134124000D01*
X123000000Y-138876000D01*
X122980315Y-138943039D01*
X122927511Y-138988794D01*
X122876000Y-139000000D01*
X115141830Y-139000000D01*
X115141825Y-138999999D01*
X115141823Y-139000000D01*
X115106889Y-138994975D01*
X115091890Y-138990570D01*
X115033144Y-138952827D01*
X115033115Y-138952793D01*
X115033114Y-138952793D01*
X115033113Y-138952791D01*
X115031957Y-138951458D01*
X115004477Y-138896583D01*
X115002832Y-138889021D01*
X115000000Y-138862668D01*
X115000000Y-134141829D01*
X115005023Y-134106893D01*
X115009427Y-134091895D01*
X115047172Y-134033144D01*
X115047200Y-134033119D01*
X115047199Y-134033119D01*
X115048541Y-134031956D01*
X115103420Y-134004477D01*
X115110979Y-134002833D01*
X115137332Y-134000000D01*
X119400000Y-134000000D01*
X119196378Y-134203622D01*
G37*
%TD.AperFunction*%
%TD*%
%TA.AperFunction,Conductor*%
%TO.N,VBUS*%
G36*
X119200000Y-148400000D02*
G01*
X120100000Y-148400000D01*
X120100000Y-153076362D01*
X120080315Y-153143401D01*
X120027511Y-153189156D01*
X119976365Y-153200361D01*
X115142196Y-153214580D01*
X115142196Y-153214581D01*
X115142195Y-153214580D01*
X115142193Y-153214581D01*
X115107246Y-153209662D01*
X115102045Y-153208151D01*
X115092235Y-153205302D01*
X115066946Y-153189156D01*
X115033347Y-153167704D01*
X115032219Y-153166410D01*
X115004561Y-153111456D01*
X115002869Y-153103734D01*
X115000000Y-153077211D01*
X115000000Y-148356464D01*
X115005023Y-148321528D01*
X115009427Y-148306530D01*
X115047178Y-148247773D01*
X115048623Y-148246520D01*
X115103311Y-148219088D01*
X115110708Y-148217467D01*
X115136872Y-148214597D01*
X119397935Y-148202064D01*
X119200000Y-148400000D01*
G37*
%TD.AperFunction*%
%TD*%
%TA.AperFunction,Conductor*%
%TO.N,GND*%
G36*
X129980965Y-130441373D02*
G01*
X129961215Y-130508393D01*
X129959788Y-130510559D01*
X129953100Y-130520480D01*
X129937589Y-130535992D01*
X129868917Y-130638767D01*
X129868917Y-130638768D01*
X129861818Y-130655904D01*
X129861815Y-130655910D01*
X129821614Y-130752964D01*
X129821612Y-130752972D01*
X129803837Y-130842335D01*
X129797500Y-130874192D01*
X129797500Y-141487842D01*
X129777815Y-141554881D01*
X129776602Y-141556733D01*
X129715609Y-141648014D01*
X129715602Y-141648027D01*
X129655264Y-141793698D01*
X129655261Y-141793710D01*
X129624500Y-141948353D01*
X129624500Y-142106046D01*
X129655261Y-142260689D01*
X129655264Y-142260701D01*
X129715602Y-142406372D01*
X129715609Y-142406385D01*
X129803210Y-142537488D01*
X129803213Y-142537492D01*
X129914704Y-142648983D01*
X129919413Y-142652847D01*
X129918497Y-142653963D01*
X129958673Y-142702041D01*
X129968975Y-142751647D01*
X129958275Y-153737252D01*
X129900000Y-153664409D01*
X129900000Y-154508400D01*
X125500000Y-154508400D01*
X125500000Y-111000000D01*
X129999903Y-111000000D01*
X129980965Y-130441373D01*
G37*
%TD.AperFunction*%
%TD*%
%TA.AperFunction,Conductor*%
%TO.N,GND*%
G36*
X125500000Y-111799999D02*
G01*
X125113091Y-111026181D01*
X125110119Y-111013591D01*
X125105023Y-111005662D01*
X125104209Y-111000000D01*
X125500000Y-111000000D01*
X125500000Y-111799999D01*
G37*
%TD.AperFunction*%
%TD*%
%TA.AperFunction,Conductor*%
%TO.N,/ThreePhaseBridge and Power/SHC*%
G36*
X111000000Y-152000000D02*
G01*
X109624000Y-152000000D01*
X109556961Y-151980315D01*
X109511206Y-151927511D01*
X109500000Y-151876000D01*
X109500000Y-149499999D01*
X109500000Y-149375000D01*
X111000000Y-152000000D01*
G37*
%TD.AperFunction*%
%TD*%
%TA.AperFunction,Conductor*%
%TO.N,/ThreePhaseBridge and Power/SHC*%
G36*
X112500000Y-148214999D02*
G01*
X112500000Y-147215000D01*
X113499999Y-147215000D01*
X112500000Y-148214999D01*
G37*
%TD.AperFunction*%
%TD*%
%TA.AperFunction,Conductor*%
%TO.N,/MCU/3V3_MCU_A*%
G36*
X166792539Y-135069685D02*
G01*
X166838294Y-135122489D01*
X166849500Y-135174000D01*
X166849501Y-136476000D01*
X166829816Y-136543039D01*
X166777013Y-136588794D01*
X166725501Y-136600000D01*
X166274500Y-136600000D01*
X166207461Y-136580315D01*
X166161706Y-136527511D01*
X166150500Y-136476000D01*
X166150499Y-135174000D01*
X166170184Y-135106961D01*
X166222987Y-135061206D01*
X166274499Y-135050000D01*
X166725500Y-135050000D01*
X166792539Y-135069685D01*
G37*
%TD.AperFunction*%
%TD*%
%TA.AperFunction,Conductor*%
%TO.N,Net-(D6-K)*%
G36*
X153740039Y-136671685D02*
G01*
X153785794Y-136724489D01*
X153797000Y-136776000D01*
X153797000Y-140499625D01*
X153777315Y-140566664D01*
X153724511Y-140612419D01*
X153712212Y-140617262D01*
X150768096Y-141598634D01*
X150728869Y-141604997D01*
X142688093Y-141604008D01*
X142621056Y-141584315D01*
X142575307Y-141531506D01*
X142564126Y-141482147D01*
X142496174Y-137540135D01*
X142514701Y-137472768D01*
X142566708Y-137426110D01*
X142620156Y-137414000D01*
X150068642Y-137414000D01*
X150068643Y-137414000D01*
X152390360Y-136658092D01*
X152428749Y-136652000D01*
X153673000Y-136652000D01*
X153740039Y-136671685D01*
G37*
%TD.AperFunction*%
%TD*%
%TA.AperFunction,Conductor*%
%TO.N,/MCU/3V3_MCU*%
G36*
X163793163Y-118754838D02*
G01*
X163839060Y-118807519D01*
X163850403Y-118858929D01*
X163858326Y-121291096D01*
X163838860Y-121358199D01*
X163786206Y-121404126D01*
X163734327Y-121415500D01*
X162891301Y-121415500D01*
X162795290Y-121441226D01*
X162795283Y-121441229D01*
X162709216Y-121490919D01*
X162709208Y-121490925D01*
X162697453Y-121502681D01*
X162636130Y-121536166D01*
X162609772Y-121539000D01*
X160262729Y-121539000D01*
X160195690Y-121519315D01*
X160149935Y-121466511D01*
X160138730Y-121415404D01*
X160138693Y-121404126D01*
X160130436Y-118869068D01*
X160149902Y-118801966D01*
X160202556Y-118756039D01*
X160254099Y-118744665D01*
X163726071Y-118735333D01*
X163793163Y-118754838D01*
G37*
%TD.AperFunction*%
%TD*%
%TA.AperFunction,Conductor*%
%TO.N,/5V_BUCK*%
G36*
X160979039Y-151784685D02*
G01*
X161024794Y-151837489D01*
X161036000Y-151889000D01*
X161036000Y-159134000D01*
X161016315Y-159201039D01*
X160963511Y-159246794D01*
X160912000Y-159258000D01*
X159509000Y-159258000D01*
X159441961Y-159238315D01*
X159396206Y-159185511D01*
X159385000Y-159134000D01*
X159385000Y-151889000D01*
X159404685Y-151821961D01*
X159457489Y-151776206D01*
X159509000Y-151765000D01*
X160912000Y-151765000D01*
X160979039Y-151784685D01*
G37*
%TD.AperFunction*%
%TD*%
%TA.AperFunction,Conductor*%
%TO.N,/ThreePhaseBridge and Power/SPB*%
G36*
X135043039Y-134919685D02*
G01*
X135088794Y-134972489D01*
X135100000Y-135024000D01*
X135100000Y-138776000D01*
X135080315Y-138843039D01*
X135027511Y-138888794D01*
X134976000Y-138900000D01*
X132124000Y-138900000D01*
X132056961Y-138880315D01*
X132011206Y-138827511D01*
X132000000Y-138776000D01*
X132000000Y-135024000D01*
X132019685Y-134956961D01*
X132072489Y-134911206D01*
X132124000Y-134900000D01*
X134976000Y-134900000D01*
X135043039Y-134919685D01*
G37*
%TD.AperFunction*%
%TD*%
%TA.AperFunction,Conductor*%
%TO.N,/ThreePhaseBridge and Power/SHC*%
G36*
X112500000Y-148214999D02*
G01*
X112500000Y-151876000D01*
X112480315Y-151943039D01*
X112427511Y-151988794D01*
X112376000Y-152000000D01*
X111000000Y-152000000D01*
X109500000Y-149375000D01*
X109500000Y-149499999D01*
X108129000Y-147215000D01*
X108000000Y-147000000D01*
X112500000Y-147000000D01*
X112500000Y-148214999D01*
G37*
%TD.AperFunction*%
%TD*%
%TA.AperFunction,Conductor*%
%TO.N,VBUS*%
G36*
X119100000Y-121100000D02*
G01*
X120100000Y-121100000D01*
X120100000Y-120745000D01*
X122876000Y-120745000D01*
X122943039Y-120764685D01*
X122988794Y-120817489D01*
X123000000Y-120869000D01*
X123000000Y-125121000D01*
X122980315Y-125188039D01*
X122927511Y-125233794D01*
X122876000Y-125245000D01*
X120100000Y-125245000D01*
X120100000Y-125100000D01*
X119100000Y-125100000D01*
X119245000Y-125245000D01*
X115141830Y-125245000D01*
X115141825Y-125244999D01*
X115141823Y-125245000D01*
X115106889Y-125239975D01*
X115091890Y-125235570D01*
X115033144Y-125197827D01*
X115033115Y-125197793D01*
X115033114Y-125197793D01*
X115033113Y-125197791D01*
X115031957Y-125196458D01*
X115004477Y-125141583D01*
X115002832Y-125134021D01*
X115000000Y-125107668D01*
X115000000Y-120886829D01*
X115005023Y-120851893D01*
X115009427Y-120836895D01*
X115047172Y-120778144D01*
X115047200Y-120778119D01*
X115047199Y-120778119D01*
X115048541Y-120776956D01*
X115103420Y-120749477D01*
X115110979Y-120747833D01*
X115137332Y-120745000D01*
X119455000Y-120745000D01*
X119100000Y-121100000D01*
G37*
%TD.AperFunction*%
%TD*%
%TA.AperFunction,Conductor*%
%TO.N,/ThreePhaseBridge and Power/SHC*%
G36*
X115893106Y-140720023D02*
G01*
X115908104Y-140724427D01*
X115923094Y-140734057D01*
X115940175Y-140739067D01*
X115966855Y-140762172D01*
X115968042Y-140763541D01*
X115995518Y-140818402D01*
X115997163Y-140825960D01*
X116000000Y-140852331D01*
X116000000Y-147073170D01*
X115994975Y-147108114D01*
X115990570Y-147123112D01*
X115980939Y-147138101D01*
X115975932Y-147155175D01*
X115952827Y-147181855D01*
X115951458Y-147183042D01*
X115896597Y-147210518D01*
X115889039Y-147212163D01*
X115862668Y-147215000D01*
X112500000Y-147215000D01*
X112500000Y-147000000D01*
X108000000Y-147000000D01*
X108129000Y-147215000D01*
X100641830Y-147215000D01*
X100606889Y-147209975D01*
X100591890Y-147205570D01*
X100576902Y-147195940D01*
X100559824Y-147190932D01*
X100533144Y-147167827D01*
X100531957Y-147166458D01*
X100504477Y-147111583D01*
X100502832Y-147104021D01*
X100500000Y-147077668D01*
X100500000Y-140856829D01*
X100505023Y-140821893D01*
X100509427Y-140806895D01*
X100519057Y-140791904D01*
X100524067Y-140774824D01*
X100547172Y-140748144D01*
X100548541Y-140746957D01*
X100603420Y-140719477D01*
X100610979Y-140717833D01*
X100637332Y-140715000D01*
X115858170Y-140715000D01*
X115893106Y-140720023D01*
G37*
%TD.AperFunction*%
%TD*%
%TA.AperFunction,Conductor*%
%TO.N,VBUS*%
G36*
X123891495Y-110755023D02*
G01*
X123906493Y-110759427D01*
X123921482Y-110769054D01*
X123938545Y-110774056D01*
X123965230Y-110797155D01*
X123966139Y-110798203D01*
X123993801Y-110853884D01*
X123995546Y-110862165D01*
X123998201Y-110889333D01*
X123500816Y-149436626D01*
X123495343Y-149471491D01*
X123486993Y-149498630D01*
X123461944Y-149543650D01*
X120316694Y-153151437D01*
X120257802Y-153189034D01*
X120187933Y-153188823D01*
X120129269Y-153150872D01*
X120100436Y-153087229D01*
X120100000Y-153081112D01*
X120100000Y-148400000D01*
X120200000Y-148400000D01*
X120200000Y-147400000D01*
X120086197Y-147513802D01*
X120068506Y-139968506D01*
X120100000Y-140000000D01*
X120100000Y-139000000D01*
X123000000Y-139000000D01*
X123000000Y-134000000D01*
X120196378Y-134000000D01*
X120196378Y-133203622D01*
X120052981Y-133347018D01*
X120035839Y-126035839D01*
X120100000Y-126100000D01*
X120100000Y-125245000D01*
X123000000Y-125245000D01*
X123000000Y-120745000D01*
X120100000Y-120745000D01*
X120100000Y-120100000D01*
X120022104Y-120177895D01*
X120000332Y-110892105D01*
X120005274Y-110857170D01*
X120009644Y-110842157D01*
X120047273Y-110783303D01*
X120048585Y-110782160D01*
X120103518Y-110754544D01*
X120111209Y-110752862D01*
X120137696Y-110750000D01*
X123856559Y-110750000D01*
X123891495Y-110755023D01*
G37*
%TD.AperFunction*%
%TD*%
%TA.AperFunction,Conductor*%
%TO.N,/ThreePhaseBridge and Power/SHA*%
G36*
X112000000Y-120681444D02*
G01*
X112000000Y-120681445D01*
X111936445Y-120745000D01*
X111936445Y-119745000D01*
X112936444Y-119745000D01*
X112000000Y-120681444D01*
G37*
%TD.AperFunction*%
%TD*%
%TA.AperFunction,Conductor*%
%TO.N,+3.3V*%
G36*
X179640879Y-120372522D02*
G01*
X179687465Y-120424595D01*
X179699500Y-120477886D01*
X179699500Y-127836000D01*
X179679815Y-127903039D01*
X179627011Y-127948794D01*
X179575500Y-127960000D01*
X175553512Y-127960000D01*
X175486473Y-127940315D01*
X175440718Y-127887511D01*
X175429513Y-127836489D01*
X175400758Y-120542527D01*
X175420178Y-120475410D01*
X175472801Y-120429448D01*
X175522789Y-120418054D01*
X179573539Y-120353902D01*
X179640879Y-120372522D01*
G37*
%TD.AperFunction*%
%TD*%
%TA.AperFunction,Conductor*%
%TO.N,Net-(U1-SW)*%
G36*
X157143306Y-154955023D02*
G01*
X157158304Y-154959427D01*
X157173294Y-154969057D01*
X157190375Y-154974067D01*
X157217055Y-154997172D01*
X157218242Y-154998541D01*
X157245718Y-155053402D01*
X157247363Y-155060960D01*
X157250200Y-155087331D01*
X157250200Y-159557670D01*
X157245175Y-159592614D01*
X157240770Y-159607612D01*
X157231139Y-159622601D01*
X157226132Y-159639675D01*
X157203027Y-159666355D01*
X157201658Y-159667542D01*
X157146797Y-159695018D01*
X157139239Y-159696663D01*
X157112868Y-159699500D01*
X147429230Y-159699500D01*
X147394289Y-159694475D01*
X147379290Y-159690070D01*
X147364299Y-159680438D01*
X147347213Y-159675425D01*
X147320535Y-159652317D01*
X147319135Y-159650702D01*
X147291797Y-159596438D01*
X147290237Y-159589434D01*
X147287277Y-159563704D01*
X147269204Y-157729144D01*
X147273883Y-157694164D01*
X147277661Y-157680813D01*
X147287151Y-157665720D01*
X147292005Y-157648569D01*
X147305363Y-157636761D01*
X147314856Y-157621666D01*
X147330999Y-157614100D01*
X147344355Y-157602295D01*
X147378112Y-157592019D01*
X147390447Y-157590122D01*
X147428691Y-157590206D01*
X147493380Y-157600452D01*
X147493658Y-157600497D01*
X147493665Y-157600497D01*
X147493675Y-157600499D01*
X147493681Y-157600500D01*
X147947682Y-157600499D01*
X147947722Y-157600500D01*
X147950792Y-157600500D01*
X147965225Y-157600500D01*
X150722672Y-157600500D01*
X150722675Y-157600500D01*
X150862685Y-157562984D01*
X150988215Y-157490509D01*
X151090709Y-157388015D01*
X151163184Y-157262485D01*
X151200700Y-157122475D01*
X151200700Y-156977525D01*
X151163184Y-156837515D01*
X151126915Y-156774696D01*
X151126915Y-156774695D01*
X151090713Y-156711992D01*
X151090708Y-156711984D01*
X151090693Y-156711968D01*
X150988230Y-156609505D01*
X150988214Y-156609490D01*
X150988206Y-156609485D01*
X150934443Y-156578445D01*
X150906008Y-156548624D01*
X150851207Y-156533939D01*
X150851207Y-156533940D01*
X150778383Y-156514427D01*
X150722675Y-156499500D01*
X150722674Y-156499500D01*
X147493675Y-156499500D01*
X147417044Y-156511636D01*
X147417042Y-156511638D01*
X147381751Y-156512141D01*
X147367987Y-156510362D01*
X147304024Y-156482246D01*
X147265417Y-156424017D01*
X147265415Y-156424013D01*
X147265414Y-156424010D01*
X147261398Y-156411020D01*
X147255869Y-156375615D01*
X147251610Y-155943283D01*
X147256287Y-155908312D01*
X147260546Y-155893260D01*
X147270034Y-155878172D01*
X147274886Y-155861025D01*
X147297729Y-155834129D01*
X147298616Y-155833345D01*
X147354358Y-155805092D01*
X147362988Y-155803213D01*
X147390533Y-155800380D01*
X151771265Y-155841708D01*
X152650199Y-155850000D01*
X152650199Y-155849999D01*
X152650200Y-155850000D01*
X152650203Y-155849999D01*
X152665609Y-155850144D01*
X152680792Y-155841259D01*
X155366200Y-155074000D01*
X155775197Y-154957143D01*
X155792049Y-154953573D01*
X155809019Y-154951197D01*
X155826205Y-154950000D01*
X157108370Y-154950000D01*
X157143306Y-154955023D01*
G37*
%TD.AperFunction*%
%TD*%
%TA.AperFunction,Conductor*%
%TO.N,/ThreePhaseBridge and Power/SPA*%
G36*
X135143039Y-120919685D02*
G01*
X135188794Y-120972489D01*
X135200000Y-121024000D01*
X135200000Y-124576000D01*
X135180315Y-124643039D01*
X135127511Y-124688794D01*
X135076000Y-124700000D01*
X132124000Y-124700000D01*
X132056961Y-124680315D01*
X132011206Y-124627511D01*
X132000000Y-124576000D01*
X132000000Y-121024000D01*
X132019685Y-120956961D01*
X132072489Y-120911206D01*
X132124000Y-120900000D01*
X135076000Y-120900000D01*
X135143039Y-120919685D01*
G37*
%TD.AperFunction*%
%TD*%
%TA.AperFunction,Conductor*%
%TO.N,/ThreePhaseBridge and Power/SHB*%
G36*
X112553420Y-127004223D02*
G01*
X112583889Y-127012387D01*
X112613790Y-127024773D01*
X112660214Y-127051576D01*
X112660215Y-127051576D01*
X112660216Y-127051577D01*
X112812943Y-127092501D01*
X112812945Y-127092501D01*
X112978654Y-127092501D01*
X112980558Y-127092501D01*
X112980621Y-127092500D01*
X115858171Y-127092500D01*
X115893106Y-127097523D01*
X115908104Y-127101927D01*
X115966855Y-127139672D01*
X115966879Y-127139700D01*
X115966882Y-127139702D01*
X115966883Y-127139704D01*
X115968042Y-127141041D01*
X115995518Y-127195902D01*
X115997163Y-127203460D01*
X116000000Y-127229831D01*
X116000000Y-132858170D01*
X115999999Y-132858176D01*
X116000000Y-132858179D01*
X115994975Y-132893114D01*
X115990570Y-132908112D01*
X115952827Y-132966855D01*
X115952792Y-132966885D01*
X115952791Y-132966887D01*
X115952789Y-132966887D01*
X115951458Y-132968042D01*
X115896597Y-132995518D01*
X115889039Y-132997163D01*
X115862668Y-133000000D01*
X100641830Y-133000000D01*
X100641825Y-132999999D01*
X100641823Y-133000000D01*
X100606889Y-132994975D01*
X100591890Y-132990570D01*
X100533144Y-132952827D01*
X100533115Y-132952793D01*
X100533114Y-132952793D01*
X100533113Y-132952791D01*
X100531957Y-132951458D01*
X100504477Y-132896583D01*
X100502832Y-132889021D01*
X100500000Y-132862668D01*
X100500000Y-127141829D01*
X100505023Y-127106893D01*
X100507775Y-127097523D01*
X100509427Y-127091894D01*
X100509719Y-127091440D01*
X100547172Y-127033144D01*
X100547200Y-127033119D01*
X100547199Y-127033119D01*
X100548541Y-127031956D01*
X100603420Y-127004477D01*
X100610979Y-127002833D01*
X100637332Y-127000000D01*
X112521332Y-127000000D01*
X112553420Y-127004223D01*
G37*
%TD.AperFunction*%
%TD*%
%TA.AperFunction,Conductor*%
%TO.N,Net-(U1-VFB)*%
G36*
X158593306Y-149305023D02*
G01*
X158608304Y-149309427D01*
X158623294Y-149319057D01*
X158640375Y-149324067D01*
X158667055Y-149347172D01*
X158668242Y-149348541D01*
X158695718Y-149403402D01*
X158697363Y-149410960D01*
X158700200Y-149437331D01*
X158700200Y-152865948D01*
X158695176Y-152900888D01*
X158687951Y-152925490D01*
X158653784Y-152981013D01*
X157348978Y-154204270D01*
X157320056Y-154224498D01*
X157295907Y-154236691D01*
X157240020Y-154250000D01*
X147226823Y-154250000D01*
X146397466Y-155432601D01*
X146397463Y-155432603D01*
X146397464Y-155432603D01*
X146373292Y-155458321D01*
X146356314Y-155471871D01*
X146302892Y-155496623D01*
X146299044Y-155497379D01*
X146297565Y-155497670D01*
X146291819Y-155498229D01*
X146291638Y-155498304D01*
X146291437Y-155498266D01*
X146273641Y-155500000D01*
X145142030Y-155500000D01*
X145107089Y-155494975D01*
X145092090Y-155490570D01*
X145077102Y-155480940D01*
X145060024Y-155475932D01*
X145033344Y-155452827D01*
X145032157Y-155451458D01*
X145004677Y-155396583D01*
X145003032Y-155389021D01*
X145000200Y-155362668D01*
X145000200Y-153738452D01*
X145005223Y-153703518D01*
X145013216Y-153676296D01*
X145037760Y-153630866D01*
X145951438Y-152557293D01*
X145977898Y-152533951D01*
X145998588Y-152520394D01*
X146049010Y-152501359D01*
X146049073Y-152501350D01*
X146065096Y-152500223D01*
X146065446Y-152500118D01*
X146065675Y-152500183D01*
X146066797Y-152500104D01*
X156498585Y-152516489D01*
X157500200Y-151485175D01*
X157500200Y-149441829D01*
X157505223Y-149406893D01*
X157509627Y-149391895D01*
X157547372Y-149333144D01*
X157547400Y-149333119D01*
X157547399Y-149333119D01*
X157548741Y-149331956D01*
X157603620Y-149304477D01*
X157611179Y-149302833D01*
X157637532Y-149300000D01*
X158558370Y-149300000D01*
X158593306Y-149305023D01*
G37*
%TD.AperFunction*%
%TD*%
%TA.AperFunction,Conductor*%
%TO.N,/ThreePhaseBridge and Power/SPB*%
G36*
X118518988Y-128802383D02*
G01*
X118589956Y-128816500D01*
X118589958Y-128816500D01*
X118747643Y-128816500D01*
X118818612Y-128802383D01*
X118842804Y-128800000D01*
X119276000Y-128800000D01*
X119343039Y-128819685D01*
X119388794Y-128872489D01*
X119400000Y-128924000D01*
X119400000Y-132348638D01*
X119380315Y-132415677D01*
X119363681Y-132436319D01*
X118636319Y-133163681D01*
X118574996Y-133197166D01*
X118548638Y-133200000D01*
X116924000Y-133200000D01*
X116856961Y-133180315D01*
X116811206Y-133127511D01*
X116800000Y-133076000D01*
X116800000Y-128924000D01*
X116819685Y-128856961D01*
X116872489Y-128811206D01*
X116924000Y-128800000D01*
X118494796Y-128800000D01*
X118518988Y-128802383D01*
G37*
%TD.AperFunction*%
%TD*%
%TA.AperFunction,Conductor*%
%TO.N,/MCU/3V3_MCU*%
G36*
X172296140Y-141488890D02*
G01*
X172362999Y-141509174D01*
X172408279Y-141562386D01*
X172419024Y-141613861D01*
X172410969Y-142636976D01*
X172390757Y-142703859D01*
X172337595Y-142749196D01*
X172286973Y-142760000D01*
X169184957Y-142760000D01*
X169117918Y-142740315D01*
X169072163Y-142687511D01*
X169060961Y-142635046D01*
X169069045Y-141584148D01*
X169089243Y-141517266D01*
X169142398Y-141471919D01*
X169194146Y-141461111D01*
X172296140Y-141488890D01*
G37*
%TD.AperFunction*%
%TD*%
%TA.AperFunction,Conductor*%
%TO.N,VBUS*%
G36*
X120196378Y-134203622D02*
G01*
X119196378Y-134203622D01*
X120196378Y-133203622D01*
X120196378Y-134203622D01*
G37*
%TD.AperFunction*%
%TD*%
%TA.AperFunction,Conductor*%
%TO.N,VBUS*%
G36*
X120100000Y-126100000D02*
G01*
X120035839Y-126035839D01*
X120035839Y-126035838D01*
X119245000Y-125245000D01*
X119100000Y-125100000D01*
X120100000Y-125100000D01*
X120100000Y-126100000D01*
G37*
%TD.AperFunction*%
%TD*%
%TA.AperFunction,Conductor*%
%TO.N,VBUS*%
G36*
X120200000Y-148400000D02*
G01*
X119200000Y-148400000D01*
X120200000Y-147400000D01*
X120200000Y-148400000D01*
G37*
%TD.AperFunction*%
%TD*%
%TA.AperFunction,Conductor*%
%TO.N,GND*%
G36*
X130700000Y-154664409D02*
G01*
X129900000Y-154664409D01*
X129900000Y-153664409D01*
X130700000Y-154664409D01*
G37*
%TD.AperFunction*%
%TD*%
%TA.AperFunction,Conductor*%
%TO.N,VBUS*%
G36*
X156407039Y-120796685D02*
G01*
X156452794Y-120849489D01*
X156464000Y-120901000D01*
X156464000Y-121288000D01*
X156444315Y-121355039D01*
X156391511Y-121400794D01*
X156340000Y-121412000D01*
X139622547Y-121412000D01*
X139622547Y-120777000D01*
X139700000Y-120777000D01*
X156340000Y-120777000D01*
X156407039Y-120796685D01*
G37*
%TD.AperFunction*%
%TD*%
%TA.AperFunction,Conductor*%
%TO.N,/ThreePhaseBridge and Power/SHA*%
G36*
X112000000Y-119745000D02*
G01*
X111936445Y-119745000D01*
X111936445Y-120745000D01*
X112000000Y-120681445D01*
X112000000Y-123876000D01*
X111980315Y-123943039D01*
X111927511Y-123988794D01*
X111876000Y-124000000D01*
X111000000Y-124000000D01*
X109500000Y-121500000D01*
X109500000Y-121749999D01*
X108163333Y-119745000D01*
X108000000Y-119500000D01*
X112000000Y-119500000D01*
X112000000Y-119745000D01*
G37*
%TD.AperFunction*%
%TD*%
M02*
