M48
; DRILL file KiCad 10.0.4-10.0.4~ubuntu24.04.1 date 2026-07-24T11:01:07
; FORMAT={-:-/ absolute / metric / decimal}
; #@! TF.CreationDate,2026-07-24T11:01:07+07:00
; #@! TF.GenerationSoftware,Kicad,Pcbnew,10.0.4-10.0.4~ubuntu24.04.1
; #@! TF.FileFunction,Plated,1,4,PTH
FMAT,2
METRIC
; #@! TA.AperFunction,Plated,PTH,ViaDrill
T1C0.300
; #@! TA.AperFunction,Plated,PTH,ComponentDrill
T2C0.650
; #@! TA.AperFunction,Plated,PTH,ComponentDrill
T3C0.700
; #@! TA.AperFunction,Plated,PTH,ComponentDrill
T4C0.950
; #@! TA.AperFunction,Plated,PTH,ComponentDrill
T5C0.991
; #@! TA.AperFunction,Plated,PTH,ComponentDrill
T6C1.702
%
G90
G05
T1
X110.236Y-138.684
X110.363Y-125.857
X113.604Y-156.21
X117.653Y-140.106
X117.856Y-140.97
X118.3Y-115.8
X118.3Y-116.4
X118.3Y-117.0
X118.3Y-117.6
X118.3Y-118.2
X118.3Y-118.8
X118.3Y-119.4
X118.3Y-129.2
X118.3Y-129.8
X118.3Y-130.4
X118.3Y-131.0
X118.3Y-131.6
X118.3Y-132.2
X118.3Y-132.8
X118.364Y-114.757
X118.4Y-143.2
X118.4Y-143.8
X118.4Y-144.4
X118.4Y-145.0
X118.4Y-145.6
X118.4Y-146.2
X118.4Y-146.8
X118.415Y-126.492
X118.669Y-128.016
X118.872Y-141.427
X118.9Y-115.8
X118.9Y-116.4
X118.9Y-117.0
X118.9Y-117.6
X118.9Y-118.2
X118.9Y-118.8
X118.9Y-129.2
X118.9Y-129.8
X118.9Y-130.4
X118.9Y-131.0
X118.9Y-131.6
X118.9Y-132.2
X119.0Y-143.2
X119.0Y-143.8
X119.0Y-144.4
X119.0Y-145.0
X119.0Y-145.6
X119.0Y-146.2
X120.4Y-125.781
X120.4Y-126.781
X120.8Y-126.281
X121.2Y-125.781
X121.2Y-126.781
X121.6Y-126.281
X122.0Y-125.781
X122.0Y-126.781
X122.4Y-126.281
X122.428Y-154.28
X122.729Y-156.21
X122.8Y-125.781
X122.8Y-126.781
X123.2Y-126.281
X123.6Y-125.781
X123.6Y-126.781
X125.616Y-155.508
X125.616Y-156.108
X125.616Y-156.708
X125.616Y-157.308
X125.616Y-157.908
X125.7Y-108.1
X125.7Y-108.7
X125.7Y-109.3
X125.7Y-109.9
X125.7Y-110.5
X126.216Y-155.508
X126.216Y-156.108
X126.216Y-156.708
X126.216Y-157.308
X126.216Y-157.908
X126.3Y-108.1
X126.3Y-108.7
X126.3Y-109.3
X126.3Y-109.9
X126.3Y-110.5
X126.816Y-155.508
X126.816Y-156.108
X126.816Y-156.708
X126.816Y-157.308
X126.816Y-157.908
X126.9Y-108.1
X126.9Y-108.7
X126.9Y-109.3
X126.9Y-109.9
X126.9Y-110.5
X127.416Y-155.508
X127.416Y-156.108
X127.416Y-156.708
X127.416Y-157.308
X127.416Y-157.908
X127.5Y-108.1
X127.5Y-108.7
X127.5Y-109.3
X127.5Y-109.9
X127.5Y-110.5
X128.016Y-155.508
X128.016Y-156.108
X128.016Y-156.708
X128.016Y-157.308
X128.016Y-157.908
X128.1Y-108.1
X128.1Y-108.7
X128.1Y-109.3
X128.1Y-109.9
X128.1Y-110.5
X128.616Y-155.508
X128.616Y-156.108
X128.616Y-156.708
X128.616Y-157.308
X128.616Y-157.908
X128.7Y-108.1
X128.7Y-108.7
X128.7Y-109.3
X128.7Y-109.9
X128.7Y-110.5
X129.216Y-155.508
X129.216Y-156.108
X129.216Y-156.708
X129.216Y-157.308
X129.216Y-157.908
X129.3Y-108.1
X129.3Y-108.7
X129.3Y-109.3
X129.3Y-109.9
X129.3Y-110.5
X129.816Y-155.508
X129.816Y-156.108
X129.816Y-156.708
X129.816Y-157.308
X129.816Y-157.908
X129.9Y-108.1
X129.9Y-108.7
X129.9Y-109.3
X129.9Y-109.9
X129.9Y-110.5
X130.425Y-142.027
X132.8Y-108.9
X132.8Y-109.55
X133.096Y-117.856
X134.1Y-149.8
X134.1Y-150.4
X134.1Y-151.0
X134.1Y-151.6
X134.1Y-152.2
X134.1Y-152.8
X134.2Y-121.3
X134.2Y-121.9
X134.2Y-122.5
X134.2Y-123.1
X134.2Y-123.7
X134.2Y-124.3
X134.2Y-135.4
X134.2Y-136.0
X134.2Y-136.6
X134.2Y-137.2
X134.2Y-137.8
X134.2Y-138.4
X134.482Y-107.874
X134.7Y-149.8
X134.7Y-150.4
X134.7Y-151.0
X134.7Y-151.6
X134.7Y-152.2
X134.7Y-152.8
X134.747Y-113.641
X134.8Y-121.3
X134.8Y-121.9
X134.8Y-122.5
X134.8Y-123.1
X134.8Y-123.7
X134.8Y-124.3
X134.8Y-135.4
X134.8Y-136.0
X134.8Y-136.6
X134.8Y-137.2
X134.8Y-137.8
X134.8Y-138.4
X135.763Y-129.413
X136.05Y-108.9
X136.05Y-109.55
X136.271Y-120.777
X136.906Y-143.51
X137.5Y-125.738
X137.5Y-126.738
X137.8Y-126.238
X138.1Y-125.738
X138.1Y-126.738
X138.176Y-142.994
X138.4Y-126.238
X138.43Y-129.896
X138.43Y-135.321
X138.43Y-137.221
X138.43Y-152.334
X138.496Y-150.495
X138.7Y-125.738
X138.7Y-126.738
X139.0Y-126.238
X139.3Y-125.738
X139.3Y-126.738
X139.432Y-106.604
X139.573Y-129.15
X139.7Y-102.108
X139.7Y-102.708
X139.7Y-130.937
X140.3Y-102.108
X140.3Y-102.708
X141.05Y-110.45
X141.224Y-125.73
X141.351Y-131.572
X141.478Y-113.538
X141.478Y-114.173
X141.478Y-114.808
X141.478Y-115.443
X141.478Y-117.983
X141.478Y-118.618
X141.478Y-119.253
X141.478Y-119.888
X141.481Y-128.643
X141.605Y-122.555
X141.605Y-123.19
X141.605Y-123.825
X141.605Y-124.46
X141.605Y-132.842
X141.7Y-110.45
X142.23Y-136.85
X142.27Y-143.33
X142.27Y-143.93
X142.27Y-144.53
X142.27Y-145.13
X142.27Y-145.73
X142.27Y-146.33
X142.27Y-146.93
X142.27Y-147.53
X142.35Y-110.45
X142.383Y-135.81
X142.748Y-117.856
X142.748Y-154.051
X142.89Y-147.55
X143.214Y-156.1
X143.383Y-125.003
X143.51Y-147.54
X143.548Y-133.935
X143.7Y-136.437
X143.731Y-151.13
X143.814Y-156.1
X144.11Y-147.54
X144.35Y-135.81
X144.464Y-156.1
X144.71Y-147.54
X145.31Y-147.54
X145.75Y-114.25
X145.91Y-147.54
X145.95Y-109.55
X145.95Y-110.15
X145.95Y-110.75
X145.95Y-111.35
X146.05Y-119.126
X146.1Y-129.5
X146.1Y-130.1
X146.1Y-130.7
X146.1Y-131.3
X146.109Y-136.068
X146.15Y-125.171
X146.22Y-151.13
X146.51Y-147.54
X146.55Y-109.55
X146.55Y-110.15
X146.55Y-110.75
X146.55Y-111.35
X146.7Y-129.5
X146.7Y-130.1
X146.7Y-130.7
X146.7Y-131.3
X146.851Y-135.687
X147.11Y-147.54
X147.15Y-109.55
X147.15Y-110.15
X147.15Y-110.75
X147.15Y-111.35
X147.3Y-129.5
X147.3Y-130.1
X147.3Y-130.7
X147.3Y-131.3
X147.555Y-136.068
X147.71Y-147.54
X147.9Y-129.5
X147.9Y-130.1
X147.9Y-130.7
X147.9Y-131.3
X147.95Y-119.126
X148.31Y-147.54
X148.525Y-151.15
X148.58Y-124.968
X148.59Y-114.554
X148.78Y-124.142
X148.827Y-135.982
X148.877Y-125.73
X148.91Y-147.54
X149.258Y-123.03
X149.45Y-157.05
X149.464Y-155.15
X149.51Y-147.54
X149.75Y-124.206
X150.0Y-157.05
X150.064Y-155.15
X150.228Y-134.883
X150.241Y-119.126
X150.55Y-157.05
X150.614Y-155.15
X150.928Y-136.283
X151.113Y-135.504
X151.12Y-112.62
X151.13Y-113.19
X151.13Y-114.96
X151.14Y-113.76
X151.14Y-114.35
X151.686Y-127.373
X151.74Y-112.59
X151.74Y-136.25
X151.75Y-113.16
X151.75Y-114.93
X151.76Y-113.73
X151.76Y-114.32
X151.765Y-131.445
X152.08Y-119.126
X152.27Y-132.26
X152.29Y-133.34
X152.38Y-112.6
X152.39Y-113.17
X152.39Y-114.94
X152.4Y-113.74
X152.4Y-114.33
X152.75Y-146.02
X152.888Y-109.731
X152.898Y-110.301
X152.908Y-110.871
X152.908Y-150.784
X152.908Y-151.384
X153.02Y-112.6
X153.03Y-113.17
X153.03Y-114.94
X153.035Y-106.807
X153.04Y-113.74
X153.04Y-114.33
X153.082Y-128.317
X153.082Y-129.165
X153.162Y-125.476
X153.22Y-130.94
X153.508Y-150.784
X153.508Y-151.384
X153.528Y-109.741
X153.538Y-110.311
X153.548Y-110.881
X153.64Y-112.57
X153.65Y-113.14
X153.65Y-114.91
X153.66Y-113.71
X153.66Y-114.3
X154.0Y-146.02
X154.178Y-134.874
X154.28Y-112.58
X154.281Y-119.126
X154.29Y-113.15
X154.29Y-114.92
X154.3Y-113.72
X154.3Y-114.31
X154.432Y-130.302
X155.194Y-131.72
X155.829Y-134.747
X156.106Y-119.126
X156.302Y-124.079
X156.638Y-125.73
X156.652Y-127.762
X156.718Y-144.653
X156.779Y-129.921
X157.353Y-131.953
X157.38Y-133.4
X157.734Y-145.542
X157.861Y-124.283
X158.049Y-109.22
X158.09Y-114.13
X158.115Y-137.983
X158.13Y-116.77
X158.72Y-121.12
X159.893Y-137.795
X159.95Y-145.542
X159.95Y-146.177
X159.963Y-149.987
X160.08Y-126.07
X160.15Y-133.89
X160.225Y-129.39
X160.27Y-128.54
X160.43Y-125.57
X160.47Y-115.005
X160.49Y-116.265
X160.5Y-115.625
X160.52Y-120.445
X160.55Y-121.065
X160.96Y-126.77
X161.036Y-113.157
X161.08Y-115.005
X161.1Y-116.265
X161.11Y-115.625
X161.12Y-141.875
X161.13Y-120.445
X161.16Y-121.065
X161.26Y-122.95
X161.417Y-145.161
X161.69Y-115.015
X161.71Y-116.275
X161.72Y-115.635
X161.735Y-131.381
X161.74Y-120.455
X161.77Y-121.075
X161.9Y-107.8
X162.07Y-141.003
X162.28Y-115.015
X162.3Y-116.275
X162.306Y-122.428
X162.31Y-115.635
X162.33Y-120.455
X162.36Y-121.075
X162.56Y-133.477
X162.56Y-144.78
X162.687Y-126.619
X162.687Y-130.81
X162.75Y-143.338
X162.838Y-113.284
X162.85Y-115.005
X162.862Y-111.125
X162.87Y-116.265
X162.88Y-115.625
X162.9Y-120.445
X162.93Y-121.065
X163.25Y-123.386
X163.327Y-106.431
X163.42Y-114.995
X163.44Y-116.255
X163.45Y-115.615
X163.47Y-120.435
X163.5Y-121.055
X163.75Y-126.49
X163.949Y-134.366
X164.127Y-106.431
X164.24Y-132.08
X164.25Y-138.67
X164.75Y-142.711
X165.092Y-126.746
X165.092Y-128.48
X165.123Y-131.453
X165.354Y-121.793
X165.363Y-123.201
X165.377Y-137.668
X165.542Y-147.447
X165.542Y-149.987
X165.74Y-106.433
X165.75Y-134.5
X166.116Y-128.027
X166.119Y-122.939
X166.37Y-113.133
X166.685Y-122.374
X166.751Y-106.553
X166.751Y-152.4
X166.95Y-116.7
X167.323Y-131.375
X167.377Y-140.88
X167.378Y-126.862
X167.863Y-131.972
X168.148Y-122.174
X168.27Y-134.51
X168.275Y-110.998
X168.3Y-107.8
X168.402Y-113.157
X168.402Y-133.223
X168.47Y-138.13
X168.529Y-114.681
X168.89Y-126.39
X169.164Y-122.301
X169.57Y-142.1
X169.903Y-145.923
X170.16Y-119.08
X170.175Y-110.998
X170.241Y-113.157
X170.8Y-140.14
X170.942Y-124.135
X170.942Y-136.271
X171.74Y-126.89
X171.77Y-134.56
X171.93Y-142.16
X172.339Y-132.588
X172.784Y-129.857
X173.355Y-127.254
X173.54Y-112.903
X174.625Y-133.35
X174.625Y-134.239
X175.006Y-144.018
X176.57Y-123.6
X176.59Y-124.22
X177.17Y-123.59
X177.19Y-124.21
X177.2Y-146.05
X177.2Y-146.65
X177.327Y-109.855
X177.327Y-110.455
X177.327Y-140.462
X177.327Y-141.062
X177.65Y-112.95
X177.65Y-115.85
X177.65Y-118.7
X177.65Y-129.5
X177.65Y-135.1
X177.65Y-137.9
X177.65Y-149.15
X177.78Y-123.6
X177.8Y-124.22
X177.8Y-146.05
X177.8Y-146.65
X177.927Y-109.855
X177.927Y-110.455
X177.927Y-140.462
X177.927Y-141.062
X178.37Y-123.6
X178.39Y-124.22
T3
X105.0Y-122.705
X105.0Y-124.605
T4
X146.65Y-102.775
X149.15Y-102.775
X151.65Y-102.775
X154.15Y-102.775
T5
X119.045Y-102.37
X130.045Y-102.37
T6
X122.045Y-112.37
X127.045Y-112.37
T2
G00X160.78Y-103.475
M15
G01X160.78Y-102.675
M16
G05
G00X160.78Y-107.775
M15
G01X160.78Y-106.675
M16
G05
G00X169.42Y-103.475
M15
G01X169.42Y-102.675
M16
G05
G00X169.42Y-107.775
M15
G01X169.42Y-106.675
M16
G05
M30
