%TF.GenerationSoftware,KiCad,Pcbnew,10.0.4-10.0.4~ubuntu24.04.1*%
%TF.CreationDate,2026-07-24T11:00:08+07:00*%
%TF.ProjectId,driver-bldc-foc,64726976-6572-42d6-926c-64632d666f63,rev?*%
%TF.SameCoordinates,Original*%
%TF.FileFunction,Paste,Top*%
%TF.FilePolarity,Positive*%
%FSLAX46Y46*%
G04 Gerber Fmt 4.6, Leading zero omitted, Abs format (unit mm)*
G04 Created by KiCad (PCBNEW 10.0.4-10.0.4~ubuntu24.04.1) date 2026-07-24 11:00:08*
%MOMM*%
%LPD*%
G01*
G04 APERTURE LIST*
G04 Aperture macros list*
%AMRoundRect*
0 Rectangle with rounded corners*
0 $1 Rounding radius*
0 $2 $3 $4 $5 $6 $7 $8 $9 X,Y pos of 4 corners*
0 Add a 4 corners polygon primitive as box body*
4,1,4,$2,$3,$4,$5,$6,$7,$8,$9,$2,$3,0*
0 Add four circle primitives for the rounded corners*
1,1,$1+$1,$2,$3*
1,1,$1+$1,$4,$5*
1,1,$1+$1,$6,$7*
1,1,$1+$1,$8,$9*
0 Add four rect primitives between the rounded corners*
20,1,$1+$1,$2,$3,$4,$5,0*
20,1,$1+$1,$4,$5,$6,$7,0*
20,1,$1+$1,$6,$7,$8,$9,0*
20,1,$1+$1,$8,$9,$2,$3,0*%
G04 Aperture macros list end*
%ADD10C,0.010000*%
%ADD11RoundRect,0.250000X-0.450000X0.262500X-0.450000X-0.262500X0.450000X-0.262500X0.450000X0.262500X0*%
%ADD12RoundRect,0.075000X-0.300000X-0.125000X0.300000X-0.125000X0.300000X0.125000X-0.300000X0.125000X0*%
%ADD13RoundRect,0.125000X-0.250000X-0.125000X0.250000X-0.125000X0.250000X0.125000X-0.250000X0.125000X0*%
%ADD14RoundRect,0.375000X-0.375000X-0.375000X0.375000X-0.375000X0.375000X0.375000X-0.375000X0.375000X0*%
%ADD15RoundRect,0.075000X0.300000X0.125000X-0.300000X0.125000X-0.300000X-0.125000X0.300000X-0.125000X0*%
%ADD16RoundRect,0.125000X0.250000X0.125000X-0.250000X0.125000X-0.250000X-0.125000X0.250000X-0.125000X0*%
%ADD17RoundRect,0.375000X0.375000X0.375000X-0.375000X0.375000X-0.375000X-0.375000X0.375000X-0.375000X0*%
%ADD18RoundRect,0.250000X-0.262500X-0.450000X0.262500X-0.450000X0.262500X0.450000X-0.262500X0.450000X0*%
%ADD19RoundRect,0.250000X0.262500X0.450000X-0.262500X0.450000X-0.262500X-0.450000X0.262500X-0.450000X0*%
%ADD20RoundRect,0.250000X-0.250000X-0.475000X0.250000X-0.475000X0.250000X0.475000X-0.250000X0.475000X0*%
%ADD21R,0.600000X1.150000*%
%ADD22R,0.300000X1.150000*%
%ADD23RoundRect,0.243750X-0.456250X0.243750X-0.456250X-0.243750X0.456250X-0.243750X0.456250X0.243750X0*%
%ADD24RoundRect,0.250000X-0.475000X0.250000X-0.475000X-0.250000X0.475000X-0.250000X0.475000X0.250000X0*%
%ADD25RoundRect,0.250000X0.250000X0.475000X-0.250000X0.475000X-0.250000X-0.475000X0.250000X-0.475000X0*%
%ADD26RoundRect,0.125000X-0.125000X0.125000X-0.125000X-0.125000X0.125000X-0.125000X0.125000X0.125000X0*%
%ADD27RoundRect,0.249999X-0.450001X-1.850001X0.450001X-1.850001X0.450001X1.850001X-0.450001X1.850001X0*%
%ADD28RoundRect,0.250000X1.000000X0.650000X-1.000000X0.650000X-1.000000X-0.650000X1.000000X-0.650000X0*%
%ADD29RoundRect,0.250000X0.475000X-0.250000X0.475000X0.250000X-0.475000X0.250000X-0.475000X-0.250000X0*%
%ADD30RoundRect,0.237500X-0.237500X0.287500X-0.237500X-0.287500X0.237500X-0.287500X0.237500X0.287500X0*%
%ADD31RoundRect,0.150000X0.512500X0.150000X-0.512500X0.150000X-0.512500X-0.150000X0.512500X-0.150000X0*%
%ADD32RoundRect,0.250000X0.362500X1.425000X-0.362500X1.425000X-0.362500X-1.425000X0.362500X-1.425000X0*%
%ADD33RoundRect,0.250000X0.325000X0.650000X-0.325000X0.650000X-0.325000X-0.650000X0.325000X-0.650000X0*%
%ADD34RoundRect,0.125000X0.125000X0.125000X-0.125000X0.125000X-0.125000X-0.125000X0.125000X-0.125000X0*%
%ADD35RoundRect,0.250001X-3.499999X1.099999X-3.499999X-1.099999X3.499999X-1.099999X3.499999X1.099999X0*%
%ADD36RoundRect,0.375000X-0.375000X0.625000X-0.375000X-0.625000X0.375000X-0.625000X0.375000X0.625000X0*%
%ADD37RoundRect,0.500000X-1.400000X0.500000X-1.400000X-0.500000X1.400000X-0.500000X1.400000X0.500000X0*%
%ADD38RoundRect,0.075000X-0.700000X-0.075000X0.700000X-0.075000X0.700000X0.075000X-0.700000X0.075000X0*%
%ADD39RoundRect,0.075000X-0.075000X-0.700000X0.075000X-0.700000X0.075000X0.700000X-0.075000X0.700000X0*%
%ADD40RoundRect,0.250000X-0.325000X-1.100000X0.325000X-1.100000X0.325000X1.100000X-0.325000X1.100000X0*%
%ADD41RoundRect,0.150000X-0.825000X-0.150000X0.825000X-0.150000X0.825000X0.150000X-0.825000X0.150000X0*%
%ADD42RoundRect,0.243750X0.243750X0.456250X-0.243750X0.456250X-0.243750X-0.456250X0.243750X-0.456250X0*%
%ADD43RoundRect,0.032500X-0.097500X0.397500X-0.097500X-0.397500X0.097500X-0.397500X0.097500X0.397500X0*%
%ADD44RoundRect,0.032500X-0.397500X0.097500X-0.397500X-0.097500X0.397500X-0.097500X0.397500X0.097500X0*%
G04 APERTURE END LIST*
D10*
%TO.C,U4*%
X146542500Y-128620000D02*
X146542500Y-130080000D01*
X144962500Y-130080000D01*
X144962500Y-128620000D01*
X146542500Y-128620000D01*
G36*
X146542500Y-130080000D02*
G01*
X144962500Y-130080000D01*
X144962500Y-128620000D01*
X146542500Y-128620000D01*
X146542500Y-130080000D01*
G37*
X146542500Y-130920000D02*
X146542500Y-132380000D01*
X144962500Y-132380000D01*
X144962500Y-130920000D01*
X146542500Y-130920000D01*
G36*
X146542500Y-132380000D02*
G01*
X144962500Y-132380000D01*
X144962500Y-130920000D01*
X146542500Y-130920000D01*
X146542500Y-132380000D01*
G37*
X149032500Y-128620000D02*
X149032500Y-130080000D01*
X147452500Y-130080000D01*
X147452500Y-128620000D01*
X149032500Y-128620000D01*
G36*
X149032500Y-130080000D02*
G01*
X147452500Y-130080000D01*
X147452500Y-128620000D01*
X149032500Y-128620000D01*
X149032500Y-130080000D01*
G37*
X149032500Y-130920000D02*
X149032500Y-132380000D01*
X147452500Y-132380000D01*
X147452500Y-130920000D01*
X149032500Y-130920000D01*
G36*
X149032500Y-132380000D02*
G01*
X147452500Y-132380000D01*
X147452500Y-130920000D01*
X149032500Y-130920000D01*
X149032500Y-132380000D01*
G37*
%TD*%
D11*
%TO.C,R7*%
X102489000Y-124714000D03*
X102489000Y-122889000D03*
%TD*%
D12*
%TO.C,Q1*%
X111400000Y-125000000D03*
X111400000Y-123730000D03*
X111400000Y-122460000D03*
X111400000Y-121190000D03*
D13*
X117205000Y-125000000D03*
X117205000Y-123730000D03*
X117205000Y-122460000D03*
X117205000Y-121190000D03*
D14*
X115800000Y-123945000D03*
X115800000Y-122245000D03*
X114100000Y-123945000D03*
X114100000Y-122245000D03*
%TD*%
D15*
%TO.C,Q2*%
X117400000Y-114745000D03*
X117400000Y-116015000D03*
X117400000Y-117285000D03*
X117400000Y-118555000D03*
D16*
X111595000Y-114745000D03*
X111595000Y-116015000D03*
X111595000Y-117285000D03*
X111595000Y-118555000D03*
D17*
X113000000Y-115800000D03*
X113000000Y-117500000D03*
X114700000Y-115800000D03*
X114700000Y-117500000D03*
%TD*%
D12*
%TO.C,Q3*%
X111600000Y-138540000D03*
X111600000Y-137270000D03*
X111600000Y-136000000D03*
X111600000Y-134730000D03*
D13*
X117405000Y-138540000D03*
X117405000Y-137270000D03*
X117405000Y-136000000D03*
X117405000Y-134730000D03*
D14*
X116000000Y-137485000D03*
X116000000Y-135785000D03*
X114300000Y-137485000D03*
X114300000Y-135785000D03*
%TD*%
D15*
%TO.C,Q4*%
X117400000Y-127920000D03*
X117400000Y-129190000D03*
X117400000Y-130460000D03*
X117400000Y-131730000D03*
D16*
X111595000Y-127920000D03*
X111595000Y-129190000D03*
X111595000Y-130460000D03*
X111595000Y-131730000D03*
D17*
X113000000Y-128975000D03*
X113000000Y-130675000D03*
X114700000Y-128975000D03*
X114700000Y-130675000D03*
%TD*%
D12*
%TO.C,Q5*%
X111600000Y-152755000D03*
X111600000Y-151485000D03*
X111600000Y-150215000D03*
X111600000Y-148945000D03*
D13*
X117405000Y-152755000D03*
X117405000Y-151485000D03*
X117405000Y-150215000D03*
X117405000Y-148945000D03*
D14*
X116000000Y-151700000D03*
X116000000Y-150000000D03*
X114300000Y-151700000D03*
X114300000Y-150000000D03*
%TD*%
D15*
%TO.C,Q6*%
X117400000Y-141945000D03*
X117400000Y-143215000D03*
X117400000Y-144485000D03*
X117400000Y-145755000D03*
D16*
X111595000Y-141945000D03*
X111595000Y-143215000D03*
X111595000Y-144485000D03*
X111595000Y-145755000D03*
D17*
X113000000Y-143000000D03*
X113000000Y-144700000D03*
X114700000Y-143000000D03*
X114700000Y-144700000D03*
%TD*%
D18*
%TO.C,R19*%
X129389500Y-126642500D03*
X131214500Y-126642500D03*
%TD*%
D19*
%TO.C,R20*%
X119149500Y-156210000D03*
X117324500Y-156210000D03*
%TD*%
D20*
%TO.C,C40*%
X129540000Y-119507000D03*
X131440000Y-119507000D03*
%TD*%
%TO.C,C8*%
X156149000Y-109220000D03*
X158049000Y-109220000D03*
%TD*%
%TO.C,C30*%
X158054000Y-147447000D03*
X159954000Y-147447000D03*
%TD*%
D21*
%TO.C,J3*%
X168300000Y-107800000D03*
X167500000Y-107800000D03*
D22*
X166350000Y-107800000D03*
X165350000Y-107800000D03*
X164850000Y-107800000D03*
X163850000Y-107800000D03*
D21*
X162700000Y-107800000D03*
X161900000Y-107800000D03*
D22*
X163350000Y-107800000D03*
X164350000Y-107800000D03*
X165850000Y-107800000D03*
X166850000Y-107800000D03*
%TD*%
D23*
%TO.C,D4*%
X173140000Y-134572500D03*
X173140000Y-136447500D03*
%TD*%
D24*
%TO.C,C18*%
X158115000Y-136083000D03*
X158115000Y-137983000D03*
%TD*%
%TO.C,C15*%
X170800000Y-138240000D03*
X170800000Y-140140000D03*
%TD*%
D11*
%TO.C,R18*%
X133604000Y-127611500D03*
X133604000Y-129436500D03*
%TD*%
%TO.C,R8*%
X170110000Y-115057500D03*
X170110000Y-116882500D03*
%TD*%
D19*
%TO.C,R15*%
X155112500Y-142240400D03*
X153287500Y-142240400D03*
%TD*%
D25*
%TO.C,C34*%
X155178800Y-144628000D03*
X153278800Y-144628000D03*
%TD*%
D20*
%TO.C,C37*%
X129413000Y-130048000D03*
X131313000Y-130048000D03*
%TD*%
%TO.C,C19*%
X163642000Y-147447000D03*
X165542000Y-147447000D03*
%TD*%
D19*
%TO.C,R13*%
X156106500Y-119126000D03*
X154281500Y-119126000D03*
%TD*%
D20*
%TO.C,C39*%
X129527900Y-116078000D03*
X131427900Y-116078000D03*
%TD*%
D26*
%TO.C,D1*%
X145750000Y-115200000D03*
X145750000Y-117400000D03*
%TD*%
D18*
%TO.C,R16*%
X153337500Y-146977000D03*
X155162500Y-146977000D03*
%TD*%
D27*
%TO.C,L3*%
X156500200Y-157200000D03*
X160200200Y-157200000D03*
%TD*%
D20*
%TO.C,C31*%
X168341000Y-113157000D03*
X170241000Y-113157000D03*
%TD*%
D18*
%TO.C,R6*%
X154916500Y-125730000D03*
X156741500Y-125730000D03*
%TD*%
D28*
%TO.C,D6*%
X132708400Y-144170400D03*
X128708400Y-144170400D03*
%TD*%
D29*
%TO.C,C35*%
X148525200Y-151150000D03*
X148525200Y-149250000D03*
%TD*%
D20*
%TO.C,C44*%
X129479000Y-147574000D03*
X131379000Y-147574000D03*
%TD*%
D19*
%TO.C,R27*%
X158022500Y-111480000D03*
X156197500Y-111480000D03*
%TD*%
D25*
%TO.C,C32*%
X155150000Y-137402000D03*
X153250000Y-137402000D03*
%TD*%
D30*
%TO.C,FB1*%
X161960000Y-117520000D03*
X161960000Y-119270000D03*
%TD*%
D29*
%TO.C,C28*%
X143891000Y-122997000D03*
X143891000Y-121097000D03*
%TD*%
D31*
%TO.C,U1*%
X148037700Y-157050000D03*
X148037700Y-156100000D03*
X148037700Y-155150000D03*
X145762700Y-155150000D03*
X145762700Y-156100000D03*
X145762700Y-157050000D03*
%TD*%
D32*
%TO.C,R25*%
X132925000Y-136900266D03*
X127000000Y-136900266D03*
%TD*%
D33*
%TO.C,C45*%
X126075000Y-144100000D03*
X123125000Y-144100000D03*
%TD*%
D24*
%TO.C,C33*%
X150825200Y-149250000D03*
X150825200Y-151150000D03*
%TD*%
D29*
%TO.C,C21*%
X107569000Y-124648000D03*
X107569000Y-122748000D03*
%TD*%
D19*
%TO.C,R21*%
X122729000Y-156210000D03*
X120904000Y-156210000D03*
%TD*%
D33*
%TO.C,C43*%
X126175000Y-116900000D03*
X123225000Y-116900000D03*
%TD*%
D34*
%TO.C,D2*%
X165565000Y-152400000D03*
X163365000Y-152400000D03*
%TD*%
D20*
%TO.C,C26*%
X150180000Y-119126000D03*
X152080000Y-119126000D03*
%TD*%
D24*
%TO.C,C24*%
X149225000Y-121097000D03*
X149225000Y-122997000D03*
%TD*%
D35*
%TO.C,L1*%
X146863000Y-139917600D03*
X146863000Y-145717600D03*
%TD*%
D29*
%TO.C,C17*%
X170160000Y-120980000D03*
X170160000Y-119080000D03*
%TD*%
D20*
%TO.C,C12*%
X154879000Y-127762000D03*
X156779000Y-127762000D03*
%TD*%
D29*
%TO.C,C16*%
X158720000Y-123020000D03*
X158720000Y-121120000D03*
%TD*%
D24*
%TO.C,C10*%
X143730800Y-149230000D03*
X143730800Y-151130000D03*
%TD*%
D20*
%TO.C,C20*%
X163642000Y-149987000D03*
X165542000Y-149987000D03*
%TD*%
D36*
%TO.C,U3*%
X153250000Y-110350000D03*
X150950000Y-110350000D03*
D37*
X150950000Y-116650000D03*
D36*
X148650000Y-110350000D03*
%TD*%
D19*
%TO.C,R11*%
X171727500Y-145923000D03*
X169902500Y-145923000D03*
%TD*%
D20*
%TO.C,C38*%
X113604000Y-156210000D03*
X115504000Y-156210000D03*
%TD*%
D23*
%TO.C,D3*%
X173140000Y-119202500D03*
X173140000Y-121077500D03*
%TD*%
D32*
%TO.C,R26*%
X132925000Y-151400266D03*
X127000000Y-151400266D03*
%TD*%
D25*
%TO.C,C36*%
X159950000Y-144400000D03*
X158050000Y-144400000D03*
%TD*%
D29*
%TO.C,C6*%
X138430000Y-137221000D03*
X138430000Y-135321000D03*
%TD*%
D32*
%TO.C,R24*%
X132962500Y-122900266D03*
X127037500Y-122900266D03*
%TD*%
D18*
%TO.C,R28*%
X164695500Y-113284000D03*
X166520500Y-113284000D03*
%TD*%
D19*
%TO.C,R17*%
X155162500Y-149352000D03*
X153337500Y-149352000D03*
%TD*%
D20*
%TO.C,C11*%
X145880000Y-158880000D03*
X147780000Y-158880000D03*
%TD*%
%TO.C,C14*%
X156190000Y-114130000D03*
X158090000Y-114130000D03*
%TD*%
D11*
%TO.C,R23*%
X134747000Y-113641500D03*
X134747000Y-115466500D03*
%TD*%
D20*
%TO.C,C29*%
X146050000Y-119126000D03*
X147950000Y-119126000D03*
%TD*%
D38*
%TO.C,U2*%
X158825000Y-126400000D03*
X158825000Y-126900000D03*
X158825000Y-127400000D03*
X158825000Y-127900000D03*
X158825000Y-128400000D03*
X158825000Y-128900000D03*
X158825000Y-129400000D03*
X158825000Y-129900000D03*
X158825000Y-130400000D03*
X158825000Y-130900000D03*
X158825000Y-131400000D03*
X158825000Y-131900000D03*
X158825000Y-132400000D03*
X158825000Y-132900000D03*
X158825000Y-133400000D03*
X158825000Y-133900000D03*
D39*
X160750000Y-135825000D03*
X161250000Y-135825000D03*
X161750000Y-135825000D03*
X162250000Y-135825000D03*
X162750000Y-135825000D03*
X163250000Y-135825000D03*
X163750000Y-135825000D03*
X164250000Y-135825000D03*
X164750000Y-135825000D03*
X165250000Y-135825000D03*
X165750000Y-135825000D03*
X166250000Y-135825000D03*
X166750000Y-135825000D03*
X167250000Y-135825000D03*
X167750000Y-135825000D03*
X168250000Y-135825000D03*
D38*
X170175000Y-133900000D03*
X170175000Y-133400000D03*
X170175000Y-132900000D03*
X170175000Y-132400000D03*
X170175000Y-131900000D03*
X170175000Y-131400000D03*
X170175000Y-130900000D03*
X170175000Y-130400000D03*
X170175000Y-129900000D03*
X170175000Y-129400000D03*
X170175000Y-128900000D03*
X170175000Y-128400000D03*
X170175000Y-127900000D03*
X170175000Y-127400000D03*
X170175000Y-126900000D03*
X170175000Y-126400000D03*
D39*
X168250000Y-124475000D03*
X167750000Y-124475000D03*
X167250000Y-124475000D03*
X166750000Y-124475000D03*
X166250000Y-124475000D03*
X165750000Y-124475000D03*
X165250000Y-124475000D03*
X164750000Y-124475000D03*
X164250000Y-124475000D03*
X163750000Y-124475000D03*
X163250000Y-124475000D03*
X162750000Y-124475000D03*
X162250000Y-124475000D03*
X161750000Y-124475000D03*
X161250000Y-124475000D03*
X160750000Y-124475000D03*
%TD*%
D18*
%TO.C,R29*%
X161012500Y-113284000D03*
X162837500Y-113284000D03*
%TD*%
D26*
%TO.C,D5*%
X158150000Y-139950000D03*
X158150000Y-142150000D03*
%TD*%
D11*
%TO.C,R10*%
X173120000Y-138227500D03*
X173120000Y-140052500D03*
%TD*%
%TO.C,R22*%
X134747000Y-117832500D03*
X134747000Y-119657500D03*
%TD*%
D20*
%TO.C,C7*%
X168275000Y-110998000D03*
X170175000Y-110998000D03*
%TD*%
D11*
%TO.C,R12*%
X152527000Y-121134500D03*
X152527000Y-122959500D03*
%TD*%
D33*
%TO.C,C41*%
X126075000Y-130100000D03*
X123125000Y-130100000D03*
%TD*%
D20*
%TO.C,C42*%
X129352000Y-133477000D03*
X131252000Y-133477000D03*
%TD*%
D40*
%TO.C,C25*%
X138525000Y-114427000D03*
X141475000Y-114427000D03*
%TD*%
D41*
%TO.C,U5*%
X134481800Y-106603800D03*
X134481800Y-107873800D03*
X134481800Y-109143800D03*
X134481800Y-110413800D03*
X139431800Y-110413800D03*
X139431800Y-109143800D03*
X139431800Y-107873800D03*
X139431800Y-106603800D03*
%TD*%
D20*
%TO.C,C13*%
X156230000Y-116770000D03*
X158130000Y-116770000D03*
%TD*%
D11*
%TO.C,R5*%
X155702000Y-121134500D03*
X155702000Y-122959500D03*
%TD*%
D24*
%TO.C,C9*%
X146220000Y-149230000D03*
X146220000Y-151130000D03*
%TD*%
D30*
%TO.C,FB2*%
X170750000Y-142125000D03*
X170750000Y-143875000D03*
%TD*%
D18*
%TO.C,R14*%
X153287500Y-139852800D03*
X155112500Y-139852800D03*
%TD*%
D11*
%TO.C,R9*%
X173140000Y-122937500D03*
X173140000Y-124762500D03*
%TD*%
D18*
%TO.C,R3*%
X158137700Y-149987000D03*
X159962700Y-149987000D03*
%TD*%
D24*
%TO.C,C5*%
X138430000Y-150434000D03*
X138430000Y-152334000D03*
%TD*%
D42*
%TO.C,D7*%
X162862500Y-111125000D03*
X160987500Y-111125000D03*
%TD*%
D40*
%TO.C,C23*%
X138525000Y-118900000D03*
X141475000Y-118900000D03*
%TD*%
D20*
%TO.C,C27*%
X154879000Y-129921000D03*
X156779000Y-129921000D03*
%TD*%
D18*
%TO.C,R4*%
X158087700Y-152450000D03*
X159912700Y-152450000D03*
%TD*%
D40*
%TO.C,C22*%
X138606000Y-123444000D03*
X141556000Y-123444000D03*
%TD*%
D43*
%TO.C,U4*%
X149750000Y-127065000D03*
X149250000Y-127065000D03*
X148750000Y-127065000D03*
X148250000Y-127065000D03*
X147750000Y-127065000D03*
X147250000Y-127065000D03*
X146750000Y-127065000D03*
X146250000Y-127065000D03*
X145750000Y-127065000D03*
X145250000Y-127065000D03*
X144750000Y-127065000D03*
X144250000Y-127065000D03*
D44*
X143565000Y-127750000D03*
X143565000Y-128250000D03*
X143565000Y-128750000D03*
X143565000Y-129250000D03*
X143565000Y-129750000D03*
X143565000Y-130250000D03*
X143565000Y-130750000D03*
X143565000Y-131250000D03*
X143565000Y-131750000D03*
X143565000Y-132250000D03*
X143565000Y-132750000D03*
X143565000Y-133250000D03*
D43*
X144250000Y-133935000D03*
X144750000Y-133935000D03*
X145250000Y-133935000D03*
X145750000Y-133935000D03*
X146250000Y-133935000D03*
X146750000Y-133935000D03*
X147250000Y-133935000D03*
X147750000Y-133935000D03*
X148250000Y-133935000D03*
X148750000Y-133935000D03*
X149250000Y-133935000D03*
X149750000Y-133935000D03*
D44*
X150435000Y-133250000D03*
X150435000Y-132750000D03*
X150435000Y-132250000D03*
X150435000Y-131750000D03*
X150435000Y-131250000D03*
X150435000Y-130750000D03*
X150435000Y-130250000D03*
X150435000Y-129750000D03*
X150435000Y-129250000D03*
X150435000Y-128750000D03*
X150435000Y-128250000D03*
X150435000Y-127750000D03*
%TD*%
M02*
