%TF.GenerationSoftware,KiCad,Pcbnew,10.0.4-10.0.4~ubuntu24.04.1*%
%TF.CreationDate,2026-07-24T11:00:09+07:00*%
%TF.ProjectId,driver-bldc-foc,64726976-6572-42d6-926c-64632d666f63,rev?*%
%TF.SameCoordinates,Original*%
%TF.FileFunction,Legend,Top*%
%TF.FilePolarity,Positive*%
%FSLAX46Y46*%
G04 Gerber Fmt 4.6, Leading zero omitted, Abs format (unit mm)*
G04 Created by KiCad (PCBNEW 10.0.4-10.0.4~ubuntu24.04.1) date 2026-07-24 11:00:09*
%MOMM*%
%LPD*%
G01*
G04 APERTURE LIST*
%ADD10C,0.100000*%
%ADD11C,0.150000*%
%ADD12C,0.120000*%
%ADD13C,0.508000*%
%ADD14C,0.152400*%
%ADD15C,0.127000*%
%ADD16C,0.200000*%
G04 APERTURE END LIST*
D10*
X164480419Y-119980972D02*
X165480419Y-119647639D01*
X165480419Y-119647639D02*
X164480419Y-119314306D01*
X164956609Y-117885734D02*
X165004228Y-117742877D01*
X165004228Y-117742877D02*
X165051847Y-117695258D01*
X165051847Y-117695258D02*
X165147085Y-117647639D01*
X165147085Y-117647639D02*
X165289942Y-117647639D01*
X165289942Y-117647639D02*
X165385180Y-117695258D01*
X165385180Y-117695258D02*
X165432800Y-117742877D01*
X165432800Y-117742877D02*
X165480419Y-117838115D01*
X165480419Y-117838115D02*
X165480419Y-118219067D01*
X165480419Y-118219067D02*
X164480419Y-118219067D01*
X164480419Y-118219067D02*
X164480419Y-117885734D01*
X164480419Y-117885734D02*
X164528038Y-117790496D01*
X164528038Y-117790496D02*
X164575657Y-117742877D01*
X164575657Y-117742877D02*
X164670895Y-117695258D01*
X164670895Y-117695258D02*
X164766133Y-117695258D01*
X164766133Y-117695258D02*
X164861371Y-117742877D01*
X164861371Y-117742877D02*
X164908990Y-117790496D01*
X164908990Y-117790496D02*
X164956609Y-117885734D01*
X164956609Y-117885734D02*
X164956609Y-118219067D01*
X164528038Y-115933353D02*
X164480419Y-116028591D01*
X164480419Y-116028591D02*
X164480419Y-116171448D01*
X164480419Y-116171448D02*
X164528038Y-116314305D01*
X164528038Y-116314305D02*
X164623276Y-116409543D01*
X164623276Y-116409543D02*
X164718514Y-116457162D01*
X164718514Y-116457162D02*
X164908990Y-116504781D01*
X164908990Y-116504781D02*
X165051847Y-116504781D01*
X165051847Y-116504781D02*
X165242323Y-116457162D01*
X165242323Y-116457162D02*
X165337561Y-116409543D01*
X165337561Y-116409543D02*
X165432800Y-116314305D01*
X165432800Y-116314305D02*
X165480419Y-116171448D01*
X165480419Y-116171448D02*
X165480419Y-116076210D01*
X165480419Y-116076210D02*
X165432800Y-115933353D01*
X165432800Y-115933353D02*
X165385180Y-115885734D01*
X165385180Y-115885734D02*
X165051847Y-115885734D01*
X165051847Y-115885734D02*
X165051847Y-116076210D01*
X166102312Y-143636419D02*
X165768979Y-143160228D01*
X165530884Y-143636419D02*
X165530884Y-142636419D01*
X165530884Y-142636419D02*
X165911836Y-142636419D01*
X165911836Y-142636419D02*
X166007074Y-142684038D01*
X166007074Y-142684038D02*
X166054693Y-142731657D01*
X166054693Y-142731657D02*
X166102312Y-142826895D01*
X166102312Y-142826895D02*
X166102312Y-142969752D01*
X166102312Y-142969752D02*
X166054693Y-143064990D01*
X166054693Y-143064990D02*
X166007074Y-143112609D01*
X166007074Y-143112609D02*
X165911836Y-143160228D01*
X165911836Y-143160228D02*
X165530884Y-143160228D01*
X163610027Y-142636419D02*
X164181455Y-142636419D01*
X163895741Y-143636419D02*
X163895741Y-142636419D01*
D11*
X174256819Y-127901458D02*
X174256819Y-127282411D01*
X174256819Y-127282411D02*
X174637771Y-127615744D01*
X174637771Y-127615744D02*
X174637771Y-127472887D01*
X174637771Y-127472887D02*
X174685390Y-127377649D01*
X174685390Y-127377649D02*
X174733009Y-127330030D01*
X174733009Y-127330030D02*
X174828247Y-127282411D01*
X174828247Y-127282411D02*
X175066342Y-127282411D01*
X175066342Y-127282411D02*
X175161580Y-127330030D01*
X175161580Y-127330030D02*
X175209200Y-127377649D01*
X175209200Y-127377649D02*
X175256819Y-127472887D01*
X175256819Y-127472887D02*
X175256819Y-127758601D01*
X175256819Y-127758601D02*
X175209200Y-127853839D01*
X175209200Y-127853839D02*
X175161580Y-127901458D01*
X174256819Y-126996696D02*
X175256819Y-126663363D01*
X175256819Y-126663363D02*
X174256819Y-126330030D01*
X174256819Y-126091934D02*
X174256819Y-125472887D01*
X174256819Y-125472887D02*
X174637771Y-125806220D01*
X174637771Y-125806220D02*
X174637771Y-125663363D01*
X174637771Y-125663363D02*
X174685390Y-125568125D01*
X174685390Y-125568125D02*
X174733009Y-125520506D01*
X174733009Y-125520506D02*
X174828247Y-125472887D01*
X174828247Y-125472887D02*
X175066342Y-125472887D01*
X175066342Y-125472887D02*
X175161580Y-125520506D01*
X175161580Y-125520506D02*
X175209200Y-125568125D01*
X175209200Y-125568125D02*
X175256819Y-125663363D01*
X175256819Y-125663363D02*
X175256819Y-125949077D01*
X175256819Y-125949077D02*
X175209200Y-126044315D01*
X175209200Y-126044315D02*
X175161580Y-126091934D01*
X174256819Y-149301030D02*
X174256819Y-149777220D01*
X174256819Y-149777220D02*
X174733009Y-149824839D01*
X174733009Y-149824839D02*
X174685390Y-149777220D01*
X174685390Y-149777220D02*
X174637771Y-149681982D01*
X174637771Y-149681982D02*
X174637771Y-149443887D01*
X174637771Y-149443887D02*
X174685390Y-149348649D01*
X174685390Y-149348649D02*
X174733009Y-149301030D01*
X174733009Y-149301030D02*
X174828247Y-149253411D01*
X174828247Y-149253411D02*
X175066342Y-149253411D01*
X175066342Y-149253411D02*
X175161580Y-149301030D01*
X175161580Y-149301030D02*
X175209200Y-149348649D01*
X175209200Y-149348649D02*
X175256819Y-149443887D01*
X175256819Y-149443887D02*
X175256819Y-149681982D01*
X175256819Y-149681982D02*
X175209200Y-149777220D01*
X175209200Y-149777220D02*
X175161580Y-149824839D01*
X174256819Y-148967696D02*
X175256819Y-148634363D01*
X175256819Y-148634363D02*
X174256819Y-148301030D01*
X174304438Y-146078411D02*
X174256819Y-146173649D01*
X174256819Y-146173649D02*
X174256819Y-146316506D01*
X174256819Y-146316506D02*
X174304438Y-146459363D01*
X174304438Y-146459363D02*
X174399676Y-146554601D01*
X174399676Y-146554601D02*
X174494914Y-146602220D01*
X174494914Y-146602220D02*
X174685390Y-146649839D01*
X174685390Y-146649839D02*
X174828247Y-146649839D01*
X174828247Y-146649839D02*
X175018723Y-146602220D01*
X175018723Y-146602220D02*
X175113961Y-146554601D01*
X175113961Y-146554601D02*
X175209200Y-146459363D01*
X175209200Y-146459363D02*
X175256819Y-146316506D01*
X175256819Y-146316506D02*
X175256819Y-146221268D01*
X175256819Y-146221268D02*
X175209200Y-146078411D01*
X175209200Y-146078411D02*
X175161580Y-146030792D01*
X175161580Y-146030792D02*
X174828247Y-146030792D01*
X174828247Y-146030792D02*
X174828247Y-146221268D01*
X174304438Y-140363411D02*
X174256819Y-140458649D01*
X174256819Y-140458649D02*
X174256819Y-140601506D01*
X174256819Y-140601506D02*
X174304438Y-140744363D01*
X174304438Y-140744363D02*
X174399676Y-140839601D01*
X174399676Y-140839601D02*
X174494914Y-140887220D01*
X174494914Y-140887220D02*
X174685390Y-140934839D01*
X174685390Y-140934839D02*
X174828247Y-140934839D01*
X174828247Y-140934839D02*
X175018723Y-140887220D01*
X175018723Y-140887220D02*
X175113961Y-140839601D01*
X175113961Y-140839601D02*
X175209200Y-140744363D01*
X175209200Y-140744363D02*
X175256819Y-140601506D01*
X175256819Y-140601506D02*
X175256819Y-140506268D01*
X175256819Y-140506268D02*
X175209200Y-140363411D01*
X175209200Y-140363411D02*
X175161580Y-140315792D01*
X175161580Y-140315792D02*
X174828247Y-140315792D01*
X174828247Y-140315792D02*
X174828247Y-140506268D01*
X175161580Y-138029792D02*
X175209200Y-138077411D01*
X175209200Y-138077411D02*
X175256819Y-138220268D01*
X175256819Y-138220268D02*
X175256819Y-138315506D01*
X175256819Y-138315506D02*
X175209200Y-138458363D01*
X175209200Y-138458363D02*
X175113961Y-138553601D01*
X175113961Y-138553601D02*
X175018723Y-138601220D01*
X175018723Y-138601220D02*
X174828247Y-138648839D01*
X174828247Y-138648839D02*
X174685390Y-138648839D01*
X174685390Y-138648839D02*
X174494914Y-138601220D01*
X174494914Y-138601220D02*
X174399676Y-138553601D01*
X174399676Y-138553601D02*
X174304438Y-138458363D01*
X174304438Y-138458363D02*
X174256819Y-138315506D01*
X174256819Y-138315506D02*
X174256819Y-138220268D01*
X174256819Y-138220268D02*
X174304438Y-138077411D01*
X174304438Y-138077411D02*
X174352057Y-138029792D01*
X175209200Y-137648839D02*
X175256819Y-137505982D01*
X175256819Y-137505982D02*
X175256819Y-137267887D01*
X175256819Y-137267887D02*
X175209200Y-137172649D01*
X175209200Y-137172649D02*
X175161580Y-137125030D01*
X175161580Y-137125030D02*
X175066342Y-137077411D01*
X175066342Y-137077411D02*
X174971104Y-137077411D01*
X174971104Y-137077411D02*
X174875866Y-137125030D01*
X174875866Y-137125030D02*
X174828247Y-137172649D01*
X174828247Y-137172649D02*
X174780628Y-137267887D01*
X174780628Y-137267887D02*
X174733009Y-137458363D01*
X174733009Y-137458363D02*
X174685390Y-137553601D01*
X174685390Y-137553601D02*
X174637771Y-137601220D01*
X174637771Y-137601220D02*
X174542533Y-137648839D01*
X174542533Y-137648839D02*
X174447295Y-137648839D01*
X174447295Y-137648839D02*
X174352057Y-137601220D01*
X174352057Y-137601220D02*
X174304438Y-137553601D01*
X174304438Y-137553601D02*
X174256819Y-137458363D01*
X174256819Y-137458363D02*
X174256819Y-137220268D01*
X174256819Y-137220268D02*
X174304438Y-137077411D01*
X175256819Y-135680220D02*
X174256819Y-135680220D01*
X174256819Y-135680220D02*
X174971104Y-135346887D01*
X174971104Y-135346887D02*
X174256819Y-135013554D01*
X174256819Y-135013554D02*
X175256819Y-135013554D01*
X175256819Y-134537363D02*
X174256819Y-134537363D01*
X175256819Y-133140220D02*
X174256819Y-133140220D01*
X174256819Y-133140220D02*
X174971104Y-132806887D01*
X174971104Y-132806887D02*
X174256819Y-132473554D01*
X174256819Y-132473554D02*
X175256819Y-132473554D01*
X174256819Y-131806887D02*
X174256819Y-131616411D01*
X174256819Y-131616411D02*
X174304438Y-131521173D01*
X174304438Y-131521173D02*
X174399676Y-131425935D01*
X174399676Y-131425935D02*
X174590152Y-131378316D01*
X174590152Y-131378316D02*
X174923485Y-131378316D01*
X174923485Y-131378316D02*
X175113961Y-131425935D01*
X175113961Y-131425935D02*
X175209200Y-131521173D01*
X175209200Y-131521173D02*
X175256819Y-131616411D01*
X175256819Y-131616411D02*
X175256819Y-131806887D01*
X175256819Y-131806887D02*
X175209200Y-131902125D01*
X175209200Y-131902125D02*
X175113961Y-131997363D01*
X175113961Y-131997363D02*
X174923485Y-132044982D01*
X174923485Y-132044982D02*
X174590152Y-132044982D01*
X174590152Y-132044982D02*
X174399676Y-131997363D01*
X174399676Y-131997363D02*
X174304438Y-131902125D01*
X174304438Y-131902125D02*
X174256819Y-131806887D01*
X175161580Y-129647792D02*
X175209200Y-129695411D01*
X175209200Y-129695411D02*
X175256819Y-129838268D01*
X175256819Y-129838268D02*
X175256819Y-129933506D01*
X175256819Y-129933506D02*
X175209200Y-130076363D01*
X175209200Y-130076363D02*
X175113961Y-130171601D01*
X175113961Y-130171601D02*
X175018723Y-130219220D01*
X175018723Y-130219220D02*
X174828247Y-130266839D01*
X174828247Y-130266839D02*
X174685390Y-130266839D01*
X174685390Y-130266839D02*
X174494914Y-130219220D01*
X174494914Y-130219220D02*
X174399676Y-130171601D01*
X174399676Y-130171601D02*
X174304438Y-130076363D01*
X174304438Y-130076363D02*
X174256819Y-129933506D01*
X174256819Y-129933506D02*
X174256819Y-129838268D01*
X174256819Y-129838268D02*
X174304438Y-129695411D01*
X174304438Y-129695411D02*
X174352057Y-129647792D01*
X175256819Y-129219220D02*
X174256819Y-129219220D01*
X175256819Y-128647792D02*
X174685390Y-129076363D01*
X174256819Y-128647792D02*
X174828247Y-129219220D01*
X174256819Y-122694458D02*
X174256819Y-122075411D01*
X174256819Y-122075411D02*
X174637771Y-122408744D01*
X174637771Y-122408744D02*
X174637771Y-122265887D01*
X174637771Y-122265887D02*
X174685390Y-122170649D01*
X174685390Y-122170649D02*
X174733009Y-122123030D01*
X174733009Y-122123030D02*
X174828247Y-122075411D01*
X174828247Y-122075411D02*
X175066342Y-122075411D01*
X175066342Y-122075411D02*
X175161580Y-122123030D01*
X175161580Y-122123030D02*
X175209200Y-122170649D01*
X175209200Y-122170649D02*
X175256819Y-122265887D01*
X175256819Y-122265887D02*
X175256819Y-122551601D01*
X175256819Y-122551601D02*
X175209200Y-122646839D01*
X175209200Y-122646839D02*
X175161580Y-122694458D01*
X174256819Y-121789696D02*
X175256819Y-121456363D01*
X175256819Y-121456363D02*
X174256819Y-121123030D01*
X174256819Y-120884934D02*
X174256819Y-120265887D01*
X174256819Y-120265887D02*
X174637771Y-120599220D01*
X174637771Y-120599220D02*
X174637771Y-120456363D01*
X174637771Y-120456363D02*
X174685390Y-120361125D01*
X174685390Y-120361125D02*
X174733009Y-120313506D01*
X174733009Y-120313506D02*
X174828247Y-120265887D01*
X174828247Y-120265887D02*
X175066342Y-120265887D01*
X175066342Y-120265887D02*
X175161580Y-120313506D01*
X175161580Y-120313506D02*
X175209200Y-120361125D01*
X175209200Y-120361125D02*
X175256819Y-120456363D01*
X175256819Y-120456363D02*
X175256819Y-120742077D01*
X175256819Y-120742077D02*
X175209200Y-120837315D01*
X175209200Y-120837315D02*
X175161580Y-120884934D01*
X175256819Y-119424220D02*
X174256819Y-119424220D01*
X174256819Y-119424220D02*
X174256819Y-119186125D01*
X174256819Y-119186125D02*
X174304438Y-119043268D01*
X174304438Y-119043268D02*
X174399676Y-118948030D01*
X174399676Y-118948030D02*
X174494914Y-118900411D01*
X174494914Y-118900411D02*
X174685390Y-118852792D01*
X174685390Y-118852792D02*
X174828247Y-118852792D01*
X174828247Y-118852792D02*
X175018723Y-118900411D01*
X175018723Y-118900411D02*
X175113961Y-118948030D01*
X175113961Y-118948030D02*
X175209200Y-119043268D01*
X175209200Y-119043268D02*
X175256819Y-119186125D01*
X175256819Y-119186125D02*
X175256819Y-119424220D01*
X174971104Y-118471839D02*
X174971104Y-117995649D01*
X175256819Y-118567077D02*
X174256819Y-118233744D01*
X174256819Y-118233744D02*
X175256819Y-117900411D01*
X175161580Y-115931792D02*
X175209200Y-115979411D01*
X175209200Y-115979411D02*
X175256819Y-116122268D01*
X175256819Y-116122268D02*
X175256819Y-116217506D01*
X175256819Y-116217506D02*
X175209200Y-116360363D01*
X175209200Y-116360363D02*
X175113961Y-116455601D01*
X175113961Y-116455601D02*
X175018723Y-116503220D01*
X175018723Y-116503220D02*
X174828247Y-116550839D01*
X174828247Y-116550839D02*
X174685390Y-116550839D01*
X174685390Y-116550839D02*
X174494914Y-116503220D01*
X174494914Y-116503220D02*
X174399676Y-116455601D01*
X174399676Y-116455601D02*
X174304438Y-116360363D01*
X174304438Y-116360363D02*
X174256819Y-116217506D01*
X174256819Y-116217506D02*
X174256819Y-116122268D01*
X174256819Y-116122268D02*
X174304438Y-115979411D01*
X174304438Y-115979411D02*
X174352057Y-115931792D01*
X175256819Y-115027030D02*
X175256819Y-115503220D01*
X175256819Y-115503220D02*
X174256819Y-115503220D01*
X174733009Y-113709220D02*
X174733009Y-113375887D01*
X175256819Y-113233030D02*
X175256819Y-113709220D01*
X175256819Y-113709220D02*
X174256819Y-113709220D01*
X174256819Y-113709220D02*
X174256819Y-113233030D01*
X175256819Y-112804458D02*
X174256819Y-112804458D01*
X174256819Y-112804458D02*
X175256819Y-112233030D01*
X175256819Y-112233030D02*
X174256819Y-112233030D01*
X174304438Y-109883411D02*
X174256819Y-109978649D01*
X174256819Y-109978649D02*
X174256819Y-110121506D01*
X174256819Y-110121506D02*
X174304438Y-110264363D01*
X174304438Y-110264363D02*
X174399676Y-110359601D01*
X174399676Y-110359601D02*
X174494914Y-110407220D01*
X174494914Y-110407220D02*
X174685390Y-110454839D01*
X174685390Y-110454839D02*
X174828247Y-110454839D01*
X174828247Y-110454839D02*
X175018723Y-110407220D01*
X175018723Y-110407220D02*
X175113961Y-110359601D01*
X175113961Y-110359601D02*
X175209200Y-110264363D01*
X175209200Y-110264363D02*
X175256819Y-110121506D01*
X175256819Y-110121506D02*
X175256819Y-110026268D01*
X175256819Y-110026268D02*
X175209200Y-109883411D01*
X175209200Y-109883411D02*
X175161580Y-109835792D01*
X175161580Y-109835792D02*
X174828247Y-109835792D01*
X174828247Y-109835792D02*
X174828247Y-110026268D01*
D12*
X147421947Y-107031093D02*
X147567780Y-107731093D01*
X147567780Y-107731093D02*
X147888613Y-107031093D01*
X148567780Y-107731093D02*
X148655280Y-107031093D01*
X148655280Y-107031093D02*
X148821946Y-107031093D01*
X148821946Y-107031093D02*
X148917780Y-107064426D01*
X148917780Y-107064426D02*
X148976113Y-107131093D01*
X148976113Y-107131093D02*
X149001113Y-107197760D01*
X149001113Y-107197760D02*
X149017780Y-107331093D01*
X149017780Y-107331093D02*
X149005280Y-107431093D01*
X149005280Y-107431093D02*
X148955280Y-107564426D01*
X148955280Y-107564426D02*
X148913613Y-107631093D01*
X148913613Y-107631093D02*
X148838613Y-107697760D01*
X148838613Y-107697760D02*
X148734446Y-107731093D01*
X148734446Y-107731093D02*
X148567780Y-107731093D01*
X149267780Y-107731093D02*
X149355280Y-107031093D01*
X149821946Y-107031093D02*
X149955279Y-107031093D01*
X149955279Y-107031093D02*
X150017779Y-107064426D01*
X150017779Y-107064426D02*
X150076113Y-107131093D01*
X150076113Y-107131093D02*
X150092779Y-107264426D01*
X150092779Y-107264426D02*
X150063613Y-107497760D01*
X150063613Y-107497760D02*
X150013613Y-107631093D01*
X150013613Y-107631093D02*
X149938613Y-107697760D01*
X149938613Y-107697760D02*
X149867779Y-107731093D01*
X149867779Y-107731093D02*
X149734446Y-107731093D01*
X149734446Y-107731093D02*
X149671946Y-107697760D01*
X149671946Y-107697760D02*
X149613613Y-107631093D01*
X149613613Y-107631093D02*
X149596946Y-107497760D01*
X149596946Y-107497760D02*
X149626113Y-107264426D01*
X149626113Y-107264426D02*
X149676113Y-107131093D01*
X149676113Y-107131093D02*
X149751113Y-107064426D01*
X149751113Y-107064426D02*
X149821946Y-107031093D01*
X151276112Y-107664426D02*
X151238612Y-107697760D01*
X151238612Y-107697760D02*
X151134445Y-107731093D01*
X151134445Y-107731093D02*
X151067779Y-107731093D01*
X151067779Y-107731093D02*
X150971945Y-107697760D01*
X150971945Y-107697760D02*
X150913612Y-107631093D01*
X150913612Y-107631093D02*
X150888612Y-107564426D01*
X150888612Y-107564426D02*
X150871945Y-107431093D01*
X150871945Y-107431093D02*
X150884445Y-107331093D01*
X150884445Y-107331093D02*
X150934445Y-107197760D01*
X150934445Y-107197760D02*
X150976112Y-107131093D01*
X150976112Y-107131093D02*
X151051112Y-107064426D01*
X151051112Y-107064426D02*
X151155279Y-107031093D01*
X151155279Y-107031093D02*
X151221945Y-107031093D01*
X151221945Y-107031093D02*
X151317779Y-107064426D01*
X151317779Y-107064426D02*
X151346945Y-107097760D01*
X151901112Y-107731093D02*
X151567779Y-107731093D01*
X151567779Y-107731093D02*
X151655279Y-107031093D01*
X152134446Y-107731093D02*
X152221946Y-107031093D01*
X152534446Y-107731093D02*
X152284446Y-107331093D01*
X152621946Y-107031093D02*
X152171946Y-107431093D01*
X153817779Y-107064426D02*
X153755279Y-107031093D01*
X153755279Y-107031093D02*
X153655279Y-107031093D01*
X153655279Y-107031093D02*
X153551112Y-107064426D01*
X153551112Y-107064426D02*
X153476112Y-107131093D01*
X153476112Y-107131093D02*
X153434445Y-107197760D01*
X153434445Y-107197760D02*
X153384445Y-107331093D01*
X153384445Y-107331093D02*
X153371945Y-107431093D01*
X153371945Y-107431093D02*
X153388612Y-107564426D01*
X153388612Y-107564426D02*
X153413612Y-107631093D01*
X153413612Y-107631093D02*
X153471945Y-107697760D01*
X153471945Y-107697760D02*
X153567779Y-107731093D01*
X153567779Y-107731093D02*
X153634445Y-107731093D01*
X153634445Y-107731093D02*
X153738612Y-107697760D01*
X153738612Y-107697760D02*
X153776112Y-107664426D01*
X153776112Y-107664426D02*
X153805279Y-107431093D01*
X153805279Y-107431093D02*
X153671945Y-107431093D01*
X141354426Y-102813553D02*
X141321093Y-102876053D01*
X141321093Y-102876053D02*
X141321093Y-102976053D01*
X141321093Y-102976053D02*
X141354426Y-103080219D01*
X141354426Y-103080219D02*
X141421093Y-103155219D01*
X141421093Y-103155219D02*
X141487760Y-103196886D01*
X141487760Y-103196886D02*
X141621093Y-103246886D01*
X141621093Y-103246886D02*
X141721093Y-103259386D01*
X141721093Y-103259386D02*
X141854426Y-103242719D01*
X141854426Y-103242719D02*
X141921093Y-103217719D01*
X141921093Y-103217719D02*
X141987760Y-103159386D01*
X141987760Y-103159386D02*
X142021093Y-103063553D01*
X142021093Y-103063553D02*
X142021093Y-102996886D01*
X142021093Y-102996886D02*
X141987760Y-102892719D01*
X141987760Y-102892719D02*
X141954426Y-102855219D01*
X141954426Y-102855219D02*
X141721093Y-102826053D01*
X141721093Y-102826053D02*
X141721093Y-102959386D01*
X142021093Y-102563553D02*
X141321093Y-102476053D01*
X141321093Y-102476053D02*
X142021093Y-102163553D01*
X142021093Y-102163553D02*
X141321093Y-102076053D01*
X142021093Y-101830220D02*
X141321093Y-101742720D01*
X141321093Y-101742720D02*
X141321093Y-101576053D01*
X141321093Y-101576053D02*
X141354426Y-101480220D01*
X141354426Y-101480220D02*
X141421093Y-101421886D01*
X141421093Y-101421886D02*
X141487760Y-101396886D01*
X141487760Y-101396886D02*
X141621093Y-101380220D01*
X141621093Y-101380220D02*
X141721093Y-101392720D01*
X141721093Y-101392720D02*
X141854426Y-101442720D01*
X141854426Y-101442720D02*
X141921093Y-101484386D01*
X141921093Y-101484386D02*
X141987760Y-101559386D01*
X141987760Y-101559386D02*
X142021093Y-101663553D01*
X142021093Y-101663553D02*
X142021093Y-101830220D01*
X132556426Y-103363219D02*
X132589760Y-103400719D01*
X132589760Y-103400719D02*
X132623093Y-103504886D01*
X132623093Y-103504886D02*
X132623093Y-103571553D01*
X132623093Y-103571553D02*
X132589760Y-103667386D01*
X132589760Y-103667386D02*
X132523093Y-103725719D01*
X132523093Y-103725719D02*
X132456426Y-103750719D01*
X132456426Y-103750719D02*
X132323093Y-103767386D01*
X132323093Y-103767386D02*
X132223093Y-103754886D01*
X132223093Y-103754886D02*
X132089760Y-103704886D01*
X132089760Y-103704886D02*
X132023093Y-103663219D01*
X132023093Y-103663219D02*
X131956426Y-103588219D01*
X131956426Y-103588219D02*
X131923093Y-103484053D01*
X131923093Y-103484053D02*
X131923093Y-103417386D01*
X131923093Y-103417386D02*
X131956426Y-103321553D01*
X131956426Y-103321553D02*
X131989760Y-103292386D01*
X132423093Y-103079886D02*
X132423093Y-102746553D01*
X132623093Y-103171553D02*
X131923093Y-102850719D01*
X131923093Y-102850719D02*
X132623093Y-102704886D01*
X132623093Y-102471553D02*
X131923093Y-102384053D01*
X131923093Y-102384053D02*
X132623093Y-102071553D01*
X132623093Y-102071553D02*
X131923093Y-101984053D01*
X132689760Y-101913220D02*
X132689760Y-101379886D01*
X132623093Y-101204887D02*
X131923093Y-101117387D01*
X132256426Y-101159053D02*
X132256426Y-100759053D01*
X132623093Y-100804887D02*
X131923093Y-100717387D01*
X118588093Y-114198053D02*
X119288093Y-114052219D01*
X119288093Y-114052219D02*
X118588093Y-113731386D01*
X118921426Y-113306386D02*
X118954760Y-113210553D01*
X118954760Y-113210553D02*
X118988093Y-113181386D01*
X118988093Y-113181386D02*
X119054760Y-113156386D01*
X119054760Y-113156386D02*
X119154760Y-113168886D01*
X119154760Y-113168886D02*
X119221426Y-113210553D01*
X119221426Y-113210553D02*
X119254760Y-113248053D01*
X119254760Y-113248053D02*
X119288093Y-113318886D01*
X119288093Y-113318886D02*
X119288093Y-113585553D01*
X119288093Y-113585553D02*
X118588093Y-113498053D01*
X118588093Y-113498053D02*
X118588093Y-113264719D01*
X118588093Y-113264719D02*
X118621426Y-113202219D01*
X118621426Y-113202219D02*
X118654760Y-113173053D01*
X118654760Y-113173053D02*
X118721426Y-113148053D01*
X118721426Y-113148053D02*
X118788093Y-113156386D01*
X118788093Y-113156386D02*
X118854760Y-113198053D01*
X118854760Y-113198053D02*
X118888093Y-113235553D01*
X118888093Y-113235553D02*
X118921426Y-113306386D01*
X118921426Y-113306386D02*
X118921426Y-113539719D01*
X118588093Y-112798053D02*
X119154760Y-112868886D01*
X119154760Y-112868886D02*
X119221426Y-112843886D01*
X119221426Y-112843886D02*
X119254760Y-112814719D01*
X119254760Y-112814719D02*
X119288093Y-112752219D01*
X119288093Y-112752219D02*
X119288093Y-112618886D01*
X119288093Y-112618886D02*
X119254760Y-112548053D01*
X119254760Y-112548053D02*
X119221426Y-112510553D01*
X119221426Y-112510553D02*
X119154760Y-112468886D01*
X119154760Y-112468886D02*
X118588093Y-112398053D01*
X119254760Y-112181386D02*
X119288093Y-112085553D01*
X119288093Y-112085553D02*
X119288093Y-111918886D01*
X119288093Y-111918886D02*
X119254760Y-111848053D01*
X119254760Y-111848053D02*
X119221426Y-111810553D01*
X119221426Y-111810553D02*
X119154760Y-111768886D01*
X119154760Y-111768886D02*
X119088093Y-111760553D01*
X119088093Y-111760553D02*
X119021426Y-111785553D01*
X119021426Y-111785553D02*
X118988093Y-111814720D01*
X118988093Y-111814720D02*
X118954760Y-111877220D01*
X118954760Y-111877220D02*
X118921426Y-112006386D01*
X118921426Y-112006386D02*
X118888093Y-112068886D01*
X118888093Y-112068886D02*
X118854760Y-112098053D01*
X118854760Y-112098053D02*
X118788093Y-112123053D01*
X118788093Y-112123053D02*
X118721426Y-112114720D01*
X118721426Y-112114720D02*
X118654760Y-112073053D01*
X118654760Y-112073053D02*
X118621426Y-112035553D01*
X118621426Y-112035553D02*
X118588093Y-111964720D01*
X118588093Y-111964720D02*
X118588093Y-111798053D01*
X118588093Y-111798053D02*
X118621426Y-111702220D01*
X103619447Y-147990093D02*
X103706947Y-147290093D01*
X103706947Y-147290093D02*
X103973613Y-147290093D01*
X103973613Y-147290093D02*
X104036113Y-147323426D01*
X104036113Y-147323426D02*
X104065280Y-147356760D01*
X104065280Y-147356760D02*
X104090280Y-147423426D01*
X104090280Y-147423426D02*
X104077780Y-147523426D01*
X104077780Y-147523426D02*
X104036113Y-147590093D01*
X104036113Y-147590093D02*
X103998613Y-147623426D01*
X103998613Y-147623426D02*
X103927780Y-147656760D01*
X103927780Y-147656760D02*
X103661113Y-147656760D01*
X104319447Y-147990093D02*
X104406947Y-147290093D01*
X104365280Y-147623426D02*
X104765280Y-147623426D01*
X104719447Y-147990093D02*
X104806947Y-147290093D01*
X105044446Y-147790093D02*
X105377780Y-147790093D01*
X104952780Y-147990093D02*
X105273613Y-147290093D01*
X105273613Y-147290093D02*
X105419446Y-147990093D01*
X105623613Y-147956760D02*
X105719446Y-147990093D01*
X105719446Y-147990093D02*
X105886113Y-147990093D01*
X105886113Y-147990093D02*
X105956946Y-147956760D01*
X105956946Y-147956760D02*
X105994446Y-147923426D01*
X105994446Y-147923426D02*
X106036113Y-147856760D01*
X106036113Y-147856760D02*
X106044446Y-147790093D01*
X106044446Y-147790093D02*
X106019446Y-147723426D01*
X106019446Y-147723426D02*
X105990280Y-147690093D01*
X105990280Y-147690093D02*
X105927780Y-147656760D01*
X105927780Y-147656760D02*
X105798613Y-147623426D01*
X105798613Y-147623426D02*
X105736113Y-147590093D01*
X105736113Y-147590093D02*
X105706946Y-147556760D01*
X105706946Y-147556760D02*
X105681946Y-147490093D01*
X105681946Y-147490093D02*
X105690280Y-147423426D01*
X105690280Y-147423426D02*
X105731946Y-147356760D01*
X105731946Y-147356760D02*
X105769446Y-147323426D01*
X105769446Y-147323426D02*
X105840280Y-147290093D01*
X105840280Y-147290093D02*
X106006946Y-147290093D01*
X106006946Y-147290093D02*
X106102780Y-147323426D01*
X106365280Y-147623426D02*
X106598613Y-147623426D01*
X106652780Y-147990093D02*
X106319447Y-147990093D01*
X106319447Y-147990093D02*
X106406947Y-147290093D01*
X106406947Y-147290093D02*
X106740280Y-147290093D01*
X106777780Y-148056760D02*
X107311113Y-148056760D01*
X107894446Y-147923426D02*
X107856946Y-147956760D01*
X107856946Y-147956760D02*
X107752779Y-147990093D01*
X107752779Y-147990093D02*
X107686113Y-147990093D01*
X107686113Y-147990093D02*
X107590279Y-147956760D01*
X107590279Y-147956760D02*
X107531946Y-147890093D01*
X107531946Y-147890093D02*
X107506946Y-147823426D01*
X107506946Y-147823426D02*
X107490279Y-147690093D01*
X107490279Y-147690093D02*
X107502779Y-147590093D01*
X107502779Y-147590093D02*
X107552779Y-147456760D01*
X107552779Y-147456760D02*
X107594446Y-147390093D01*
X107594446Y-147390093D02*
X107669446Y-147323426D01*
X107669446Y-147323426D02*
X107773613Y-147290093D01*
X107773613Y-147290093D02*
X107840279Y-147290093D01*
X107840279Y-147290093D02*
X107936113Y-147323426D01*
X107936113Y-147323426D02*
X107965279Y-147356760D01*
X103365447Y-134401093D02*
X103452947Y-133701093D01*
X103452947Y-133701093D02*
X103719613Y-133701093D01*
X103719613Y-133701093D02*
X103782113Y-133734426D01*
X103782113Y-133734426D02*
X103811280Y-133767760D01*
X103811280Y-133767760D02*
X103836280Y-133834426D01*
X103836280Y-133834426D02*
X103823780Y-133934426D01*
X103823780Y-133934426D02*
X103782113Y-134001093D01*
X103782113Y-134001093D02*
X103744613Y-134034426D01*
X103744613Y-134034426D02*
X103673780Y-134067760D01*
X103673780Y-134067760D02*
X103407113Y-134067760D01*
X104065447Y-134401093D02*
X104152947Y-133701093D01*
X104111280Y-134034426D02*
X104511280Y-134034426D01*
X104465447Y-134401093D02*
X104552947Y-133701093D01*
X104790446Y-134201093D02*
X105123780Y-134201093D01*
X104698780Y-134401093D02*
X105019613Y-133701093D01*
X105019613Y-133701093D02*
X105165446Y-134401093D01*
X105369613Y-134367760D02*
X105465446Y-134401093D01*
X105465446Y-134401093D02*
X105632113Y-134401093D01*
X105632113Y-134401093D02*
X105702946Y-134367760D01*
X105702946Y-134367760D02*
X105740446Y-134334426D01*
X105740446Y-134334426D02*
X105782113Y-134267760D01*
X105782113Y-134267760D02*
X105790446Y-134201093D01*
X105790446Y-134201093D02*
X105765446Y-134134426D01*
X105765446Y-134134426D02*
X105736280Y-134101093D01*
X105736280Y-134101093D02*
X105673780Y-134067760D01*
X105673780Y-134067760D02*
X105544613Y-134034426D01*
X105544613Y-134034426D02*
X105482113Y-134001093D01*
X105482113Y-134001093D02*
X105452946Y-133967760D01*
X105452946Y-133967760D02*
X105427946Y-133901093D01*
X105427946Y-133901093D02*
X105436280Y-133834426D01*
X105436280Y-133834426D02*
X105477946Y-133767760D01*
X105477946Y-133767760D02*
X105515446Y-133734426D01*
X105515446Y-133734426D02*
X105586280Y-133701093D01*
X105586280Y-133701093D02*
X105752946Y-133701093D01*
X105752946Y-133701093D02*
X105848780Y-133734426D01*
X106111280Y-134034426D02*
X106344613Y-134034426D01*
X106398780Y-134401093D02*
X106065447Y-134401093D01*
X106065447Y-134401093D02*
X106152947Y-133701093D01*
X106152947Y-133701093D02*
X106486280Y-133701093D01*
X106523780Y-134467760D02*
X107057113Y-134467760D01*
X107511279Y-134034426D02*
X107607113Y-134067760D01*
X107607113Y-134067760D02*
X107636279Y-134101093D01*
X107636279Y-134101093D02*
X107661279Y-134167760D01*
X107661279Y-134167760D02*
X107648779Y-134267760D01*
X107648779Y-134267760D02*
X107607113Y-134334426D01*
X107607113Y-134334426D02*
X107569613Y-134367760D01*
X107569613Y-134367760D02*
X107498779Y-134401093D01*
X107498779Y-134401093D02*
X107232113Y-134401093D01*
X107232113Y-134401093D02*
X107319613Y-133701093D01*
X107319613Y-133701093D02*
X107552946Y-133701093D01*
X107552946Y-133701093D02*
X107615446Y-133734426D01*
X107615446Y-133734426D02*
X107644613Y-133767760D01*
X107644613Y-133767760D02*
X107669613Y-133834426D01*
X107669613Y-133834426D02*
X107661279Y-133901093D01*
X107661279Y-133901093D02*
X107619613Y-133967760D01*
X107619613Y-133967760D02*
X107582113Y-134001093D01*
X107582113Y-134001093D02*
X107511279Y-134034426D01*
X107511279Y-134034426D02*
X107277946Y-134034426D01*
X103238447Y-113192093D02*
X103325947Y-112492093D01*
X103325947Y-112492093D02*
X103592613Y-112492093D01*
X103592613Y-112492093D02*
X103655113Y-112525426D01*
X103655113Y-112525426D02*
X103684280Y-112558760D01*
X103684280Y-112558760D02*
X103709280Y-112625426D01*
X103709280Y-112625426D02*
X103696780Y-112725426D01*
X103696780Y-112725426D02*
X103655113Y-112792093D01*
X103655113Y-112792093D02*
X103617613Y-112825426D01*
X103617613Y-112825426D02*
X103546780Y-112858760D01*
X103546780Y-112858760D02*
X103280113Y-112858760D01*
X103938447Y-113192093D02*
X104025947Y-112492093D01*
X103984280Y-112825426D02*
X104384280Y-112825426D01*
X104338447Y-113192093D02*
X104425947Y-112492093D01*
X104663446Y-112992093D02*
X104996780Y-112992093D01*
X104571780Y-113192093D02*
X104892613Y-112492093D01*
X104892613Y-112492093D02*
X105038446Y-113192093D01*
X105242613Y-113158760D02*
X105338446Y-113192093D01*
X105338446Y-113192093D02*
X105505113Y-113192093D01*
X105505113Y-113192093D02*
X105575946Y-113158760D01*
X105575946Y-113158760D02*
X105613446Y-113125426D01*
X105613446Y-113125426D02*
X105655113Y-113058760D01*
X105655113Y-113058760D02*
X105663446Y-112992093D01*
X105663446Y-112992093D02*
X105638446Y-112925426D01*
X105638446Y-112925426D02*
X105609280Y-112892093D01*
X105609280Y-112892093D02*
X105546780Y-112858760D01*
X105546780Y-112858760D02*
X105417613Y-112825426D01*
X105417613Y-112825426D02*
X105355113Y-112792093D01*
X105355113Y-112792093D02*
X105325946Y-112758760D01*
X105325946Y-112758760D02*
X105300946Y-112692093D01*
X105300946Y-112692093D02*
X105309280Y-112625426D01*
X105309280Y-112625426D02*
X105350946Y-112558760D01*
X105350946Y-112558760D02*
X105388446Y-112525426D01*
X105388446Y-112525426D02*
X105459280Y-112492093D01*
X105459280Y-112492093D02*
X105625946Y-112492093D01*
X105625946Y-112492093D02*
X105721780Y-112525426D01*
X105984280Y-112825426D02*
X106217613Y-112825426D01*
X106271780Y-113192093D02*
X105938447Y-113192093D01*
X105938447Y-113192093D02*
X106025947Y-112492093D01*
X106025947Y-112492093D02*
X106359280Y-112492093D01*
X106396780Y-113258760D02*
X106930113Y-113258760D01*
X107096779Y-112992093D02*
X107430113Y-112992093D01*
X107005113Y-113192093D02*
X107325946Y-112492093D01*
X107325946Y-112492093D02*
X107471779Y-113192093D01*
D10*
X177000000Y-154000000D02*
G75*
G02*
X171000000Y-154000000I-3000000J0D01*
G01*
X171000000Y-154000000D02*
G75*
G02*
X177000000Y-154000000I3000000J0D01*
G01*
X109000000Y-154000000D02*
G75*
G02*
X103000000Y-154000000I-3000000J0D01*
G01*
X103000000Y-154000000D02*
G75*
G02*
X109000000Y-154000000I3000000J0D01*
G01*
X177000000Y-106000000D02*
G75*
G02*
X171000000Y-106000000I-3000000J0D01*
G01*
X171000000Y-106000000D02*
G75*
G02*
X177000000Y-106000000I3000000J0D01*
G01*
X109000000Y-106000000D02*
G75*
G02*
X103000000Y-106000000I-3000000J0D01*
G01*
X103000000Y-106000000D02*
G75*
G02*
X109000000Y-106000000I3000000J0D01*
G01*
D12*
X102245333Y-121856593D02*
X102012000Y-121523260D01*
X101845333Y-121856593D02*
X101845333Y-121156593D01*
X101845333Y-121156593D02*
X102112000Y-121156593D01*
X102112000Y-121156593D02*
X102178667Y-121189926D01*
X102178667Y-121189926D02*
X102212000Y-121223260D01*
X102212000Y-121223260D02*
X102245333Y-121289926D01*
X102245333Y-121289926D02*
X102245333Y-121389926D01*
X102245333Y-121389926D02*
X102212000Y-121456593D01*
X102212000Y-121456593D02*
X102178667Y-121489926D01*
X102178667Y-121489926D02*
X102112000Y-121523260D01*
X102112000Y-121523260D02*
X101845333Y-121523260D01*
X102478667Y-121156593D02*
X102945333Y-121156593D01*
X102945333Y-121156593D02*
X102645333Y-121856593D01*
X100731666Y-119505593D02*
X100731666Y-120005593D01*
X100731666Y-120005593D02*
X100698333Y-120105593D01*
X100698333Y-120105593D02*
X100631666Y-120172260D01*
X100631666Y-120172260D02*
X100531666Y-120205593D01*
X100531666Y-120205593D02*
X100465000Y-120205593D01*
X101364999Y-119738926D02*
X101364999Y-120205593D01*
X101198333Y-119472260D02*
X101031666Y-119972260D01*
X101031666Y-119972260D02*
X101464999Y-119972260D01*
X100604666Y-126490593D02*
X100604666Y-126990593D01*
X100604666Y-126990593D02*
X100571333Y-127090593D01*
X100571333Y-127090593D02*
X100504666Y-127157260D01*
X100504666Y-127157260D02*
X100404666Y-127190593D01*
X100404666Y-127190593D02*
X100338000Y-127190593D01*
X101271333Y-126490593D02*
X100937999Y-126490593D01*
X100937999Y-126490593D02*
X100904666Y-126823926D01*
X100904666Y-126823926D02*
X100937999Y-126790593D01*
X100937999Y-126790593D02*
X101004666Y-126757260D01*
X101004666Y-126757260D02*
X101171333Y-126757260D01*
X101171333Y-126757260D02*
X101237999Y-126790593D01*
X101237999Y-126790593D02*
X101271333Y-126823926D01*
X101271333Y-126823926D02*
X101304666Y-126890593D01*
X101304666Y-126890593D02*
X101304666Y-127057260D01*
X101304666Y-127057260D02*
X101271333Y-127123926D01*
X101271333Y-127123926D02*
X101237999Y-127157260D01*
X101237999Y-127157260D02*
X101171333Y-127190593D01*
X101171333Y-127190593D02*
X101004666Y-127190593D01*
X101004666Y-127190593D02*
X100937999Y-127157260D01*
X100937999Y-127157260D02*
X100904666Y-127123926D01*
X100604666Y-140079593D02*
X100604666Y-140579593D01*
X100604666Y-140579593D02*
X100571333Y-140679593D01*
X100571333Y-140679593D02*
X100504666Y-140746260D01*
X100504666Y-140746260D02*
X100404666Y-140779593D01*
X100404666Y-140779593D02*
X100338000Y-140779593D01*
X101237999Y-140079593D02*
X101104666Y-140079593D01*
X101104666Y-140079593D02*
X101037999Y-140112926D01*
X101037999Y-140112926D02*
X101004666Y-140146260D01*
X101004666Y-140146260D02*
X100937999Y-140246260D01*
X100937999Y-140246260D02*
X100904666Y-140379593D01*
X100904666Y-140379593D02*
X100904666Y-140646260D01*
X100904666Y-140646260D02*
X100937999Y-140712926D01*
X100937999Y-140712926D02*
X100971333Y-140746260D01*
X100971333Y-140746260D02*
X101037999Y-140779593D01*
X101037999Y-140779593D02*
X101171333Y-140779593D01*
X101171333Y-140779593D02*
X101237999Y-140746260D01*
X101237999Y-140746260D02*
X101271333Y-140712926D01*
X101271333Y-140712926D02*
X101304666Y-140646260D01*
X101304666Y-140646260D02*
X101304666Y-140479593D01*
X101304666Y-140479593D02*
X101271333Y-140412926D01*
X101271333Y-140412926D02*
X101237999Y-140379593D01*
X101237999Y-140379593D02*
X101171333Y-140346260D01*
X101171333Y-140346260D02*
X101037999Y-140346260D01*
X101037999Y-140346260D02*
X100971333Y-140379593D01*
X100971333Y-140379593D02*
X100937999Y-140412926D01*
X100937999Y-140412926D02*
X100904666Y-140479593D01*
X172359666Y-114298593D02*
X172359666Y-114798593D01*
X172359666Y-114798593D02*
X172326333Y-114898593D01*
X172326333Y-114898593D02*
X172259666Y-114965260D01*
X172259666Y-114965260D02*
X172159666Y-114998593D01*
X172159666Y-114998593D02*
X172093000Y-114998593D01*
X172792999Y-114598593D02*
X172726333Y-114565260D01*
X172726333Y-114565260D02*
X172692999Y-114531926D01*
X172692999Y-114531926D02*
X172659666Y-114465260D01*
X172659666Y-114465260D02*
X172659666Y-114431926D01*
X172659666Y-114431926D02*
X172692999Y-114365260D01*
X172692999Y-114365260D02*
X172726333Y-114331926D01*
X172726333Y-114331926D02*
X172792999Y-114298593D01*
X172792999Y-114298593D02*
X172926333Y-114298593D01*
X172926333Y-114298593D02*
X172992999Y-114331926D01*
X172992999Y-114331926D02*
X173026333Y-114365260D01*
X173026333Y-114365260D02*
X173059666Y-114431926D01*
X173059666Y-114431926D02*
X173059666Y-114465260D01*
X173059666Y-114465260D02*
X173026333Y-114531926D01*
X173026333Y-114531926D02*
X172992999Y-114565260D01*
X172992999Y-114565260D02*
X172926333Y-114598593D01*
X172926333Y-114598593D02*
X172792999Y-114598593D01*
X172792999Y-114598593D02*
X172726333Y-114631926D01*
X172726333Y-114631926D02*
X172692999Y-114665260D01*
X172692999Y-114665260D02*
X172659666Y-114731926D01*
X172659666Y-114731926D02*
X172659666Y-114865260D01*
X172659666Y-114865260D02*
X172692999Y-114931926D01*
X172692999Y-114931926D02*
X172726333Y-114965260D01*
X172726333Y-114965260D02*
X172792999Y-114998593D01*
X172792999Y-114998593D02*
X172926333Y-114998593D01*
X172926333Y-114998593D02*
X172992999Y-114965260D01*
X172992999Y-114965260D02*
X173026333Y-114931926D01*
X173026333Y-114931926D02*
X173059666Y-114865260D01*
X173059666Y-114865260D02*
X173059666Y-114731926D01*
X173059666Y-114731926D02*
X173026333Y-114665260D01*
X173026333Y-114665260D02*
X172992999Y-114631926D01*
X172992999Y-114631926D02*
X172926333Y-114598593D01*
X128206593Y-127092500D02*
X127873260Y-127325833D01*
X128206593Y-127492500D02*
X127506593Y-127492500D01*
X127506593Y-127492500D02*
X127506593Y-127225833D01*
X127506593Y-127225833D02*
X127539926Y-127159167D01*
X127539926Y-127159167D02*
X127573260Y-127125833D01*
X127573260Y-127125833D02*
X127639926Y-127092500D01*
X127639926Y-127092500D02*
X127739926Y-127092500D01*
X127739926Y-127092500D02*
X127806593Y-127125833D01*
X127806593Y-127125833D02*
X127839926Y-127159167D01*
X127839926Y-127159167D02*
X127873260Y-127225833D01*
X127873260Y-127225833D02*
X127873260Y-127492500D01*
X128206593Y-126425833D02*
X128206593Y-126825833D01*
X128206593Y-126625833D02*
X127506593Y-126625833D01*
X127506593Y-126625833D02*
X127606593Y-126692500D01*
X127606593Y-126692500D02*
X127673260Y-126759167D01*
X127673260Y-126759167D02*
X127706593Y-126825833D01*
X128206593Y-126092500D02*
X128206593Y-125959166D01*
X128206593Y-125959166D02*
X128173260Y-125892500D01*
X128173260Y-125892500D02*
X128139926Y-125859166D01*
X128139926Y-125859166D02*
X128039926Y-125792500D01*
X128039926Y-125792500D02*
X127906593Y-125759166D01*
X127906593Y-125759166D02*
X127639926Y-125759166D01*
X127639926Y-125759166D02*
X127573260Y-125792500D01*
X127573260Y-125792500D02*
X127539926Y-125825833D01*
X127539926Y-125825833D02*
X127506593Y-125892500D01*
X127506593Y-125892500D02*
X127506593Y-126025833D01*
X127506593Y-126025833D02*
X127539926Y-126092500D01*
X127539926Y-126092500D02*
X127573260Y-126125833D01*
X127573260Y-126125833D02*
X127639926Y-126159166D01*
X127639926Y-126159166D02*
X127806593Y-126159166D01*
X127806593Y-126159166D02*
X127873260Y-126125833D01*
X127873260Y-126125833D02*
X127906593Y-126092500D01*
X127906593Y-126092500D02*
X127939926Y-126025833D01*
X127939926Y-126025833D02*
X127939926Y-125892500D01*
X127939926Y-125892500D02*
X127906593Y-125825833D01*
X127906593Y-125825833D02*
X127873260Y-125792500D01*
X127873260Y-125792500D02*
X127806593Y-125759166D01*
X117786999Y-158305593D02*
X117553666Y-157972260D01*
X117386999Y-158305593D02*
X117386999Y-157605593D01*
X117386999Y-157605593D02*
X117653666Y-157605593D01*
X117653666Y-157605593D02*
X117720333Y-157638926D01*
X117720333Y-157638926D02*
X117753666Y-157672260D01*
X117753666Y-157672260D02*
X117786999Y-157738926D01*
X117786999Y-157738926D02*
X117786999Y-157838926D01*
X117786999Y-157838926D02*
X117753666Y-157905593D01*
X117753666Y-157905593D02*
X117720333Y-157938926D01*
X117720333Y-157938926D02*
X117653666Y-157972260D01*
X117653666Y-157972260D02*
X117386999Y-157972260D01*
X118053666Y-157672260D02*
X118086999Y-157638926D01*
X118086999Y-157638926D02*
X118153666Y-157605593D01*
X118153666Y-157605593D02*
X118320333Y-157605593D01*
X118320333Y-157605593D02*
X118386999Y-157638926D01*
X118386999Y-157638926D02*
X118420333Y-157672260D01*
X118420333Y-157672260D02*
X118453666Y-157738926D01*
X118453666Y-157738926D02*
X118453666Y-157805593D01*
X118453666Y-157805593D02*
X118420333Y-157905593D01*
X118420333Y-157905593D02*
X118020333Y-158305593D01*
X118020333Y-158305593D02*
X118453666Y-158305593D01*
X118887000Y-157605593D02*
X118953666Y-157605593D01*
X118953666Y-157605593D02*
X119020333Y-157638926D01*
X119020333Y-157638926D02*
X119053666Y-157672260D01*
X119053666Y-157672260D02*
X119087000Y-157738926D01*
X119087000Y-157738926D02*
X119120333Y-157872260D01*
X119120333Y-157872260D02*
X119120333Y-158038926D01*
X119120333Y-158038926D02*
X119087000Y-158172260D01*
X119087000Y-158172260D02*
X119053666Y-158238926D01*
X119053666Y-158238926D02*
X119020333Y-158272260D01*
X119020333Y-158272260D02*
X118953666Y-158305593D01*
X118953666Y-158305593D02*
X118887000Y-158305593D01*
X118887000Y-158305593D02*
X118820333Y-158272260D01*
X118820333Y-158272260D02*
X118787000Y-158238926D01*
X118787000Y-158238926D02*
X118753666Y-158172260D01*
X118753666Y-158172260D02*
X118720333Y-158038926D01*
X118720333Y-158038926D02*
X118720333Y-157872260D01*
X118720333Y-157872260D02*
X118753666Y-157738926D01*
X118753666Y-157738926D02*
X118787000Y-157672260D01*
X118787000Y-157672260D02*
X118820333Y-157638926D01*
X118820333Y-157638926D02*
X118887000Y-157605593D01*
X128393926Y-119830000D02*
X128427260Y-119863333D01*
X128427260Y-119863333D02*
X128460593Y-119963333D01*
X128460593Y-119963333D02*
X128460593Y-120030000D01*
X128460593Y-120030000D02*
X128427260Y-120130000D01*
X128427260Y-120130000D02*
X128360593Y-120196667D01*
X128360593Y-120196667D02*
X128293926Y-120230000D01*
X128293926Y-120230000D02*
X128160593Y-120263333D01*
X128160593Y-120263333D02*
X128060593Y-120263333D01*
X128060593Y-120263333D02*
X127927260Y-120230000D01*
X127927260Y-120230000D02*
X127860593Y-120196667D01*
X127860593Y-120196667D02*
X127793926Y-120130000D01*
X127793926Y-120130000D02*
X127760593Y-120030000D01*
X127760593Y-120030000D02*
X127760593Y-119963333D01*
X127760593Y-119963333D02*
X127793926Y-119863333D01*
X127793926Y-119863333D02*
X127827260Y-119830000D01*
X127993926Y-119230000D02*
X128460593Y-119230000D01*
X127727260Y-119396667D02*
X128227260Y-119563333D01*
X128227260Y-119563333D02*
X128227260Y-119130000D01*
X127760593Y-118730000D02*
X127760593Y-118663333D01*
X127760593Y-118663333D02*
X127793926Y-118596666D01*
X127793926Y-118596666D02*
X127827260Y-118563333D01*
X127827260Y-118563333D02*
X127893926Y-118530000D01*
X127893926Y-118530000D02*
X128027260Y-118496666D01*
X128027260Y-118496666D02*
X128193926Y-118496666D01*
X128193926Y-118496666D02*
X128327260Y-118530000D01*
X128327260Y-118530000D02*
X128393926Y-118563333D01*
X128393926Y-118563333D02*
X128427260Y-118596666D01*
X128427260Y-118596666D02*
X128460593Y-118663333D01*
X128460593Y-118663333D02*
X128460593Y-118730000D01*
X128460593Y-118730000D02*
X128427260Y-118796666D01*
X128427260Y-118796666D02*
X128393926Y-118830000D01*
X128393926Y-118830000D02*
X128327260Y-118863333D01*
X128327260Y-118863333D02*
X128193926Y-118896666D01*
X128193926Y-118896666D02*
X128027260Y-118896666D01*
X128027260Y-118896666D02*
X127893926Y-118863333D01*
X127893926Y-118863333D02*
X127827260Y-118830000D01*
X127827260Y-118830000D02*
X127793926Y-118796666D01*
X127793926Y-118796666D02*
X127760593Y-118730000D01*
X159762926Y-109336666D02*
X159796260Y-109369999D01*
X159796260Y-109369999D02*
X159829593Y-109469999D01*
X159829593Y-109469999D02*
X159829593Y-109536666D01*
X159829593Y-109536666D02*
X159796260Y-109636666D01*
X159796260Y-109636666D02*
X159729593Y-109703333D01*
X159729593Y-109703333D02*
X159662926Y-109736666D01*
X159662926Y-109736666D02*
X159529593Y-109769999D01*
X159529593Y-109769999D02*
X159429593Y-109769999D01*
X159429593Y-109769999D02*
X159296260Y-109736666D01*
X159296260Y-109736666D02*
X159229593Y-109703333D01*
X159229593Y-109703333D02*
X159162926Y-109636666D01*
X159162926Y-109636666D02*
X159129593Y-109536666D01*
X159129593Y-109536666D02*
X159129593Y-109469999D01*
X159129593Y-109469999D02*
X159162926Y-109369999D01*
X159162926Y-109369999D02*
X159196260Y-109336666D01*
X159429593Y-108936666D02*
X159396260Y-109003333D01*
X159396260Y-109003333D02*
X159362926Y-109036666D01*
X159362926Y-109036666D02*
X159296260Y-109069999D01*
X159296260Y-109069999D02*
X159262926Y-109069999D01*
X159262926Y-109069999D02*
X159196260Y-109036666D01*
X159196260Y-109036666D02*
X159162926Y-109003333D01*
X159162926Y-109003333D02*
X159129593Y-108936666D01*
X159129593Y-108936666D02*
X159129593Y-108803333D01*
X159129593Y-108803333D02*
X159162926Y-108736666D01*
X159162926Y-108736666D02*
X159196260Y-108703333D01*
X159196260Y-108703333D02*
X159262926Y-108669999D01*
X159262926Y-108669999D02*
X159296260Y-108669999D01*
X159296260Y-108669999D02*
X159362926Y-108703333D01*
X159362926Y-108703333D02*
X159396260Y-108736666D01*
X159396260Y-108736666D02*
X159429593Y-108803333D01*
X159429593Y-108803333D02*
X159429593Y-108936666D01*
X159429593Y-108936666D02*
X159462926Y-109003333D01*
X159462926Y-109003333D02*
X159496260Y-109036666D01*
X159496260Y-109036666D02*
X159562926Y-109069999D01*
X159562926Y-109069999D02*
X159696260Y-109069999D01*
X159696260Y-109069999D02*
X159762926Y-109036666D01*
X159762926Y-109036666D02*
X159796260Y-109003333D01*
X159796260Y-109003333D02*
X159829593Y-108936666D01*
X159829593Y-108936666D02*
X159829593Y-108803333D01*
X159829593Y-108803333D02*
X159796260Y-108736666D01*
X159796260Y-108736666D02*
X159762926Y-108703333D01*
X159762926Y-108703333D02*
X159696260Y-108669999D01*
X159696260Y-108669999D02*
X159562926Y-108669999D01*
X159562926Y-108669999D02*
X159496260Y-108703333D01*
X159496260Y-108703333D02*
X159462926Y-108736666D01*
X159462926Y-108736666D02*
X159429593Y-108803333D01*
X161540926Y-147897000D02*
X161574260Y-147930333D01*
X161574260Y-147930333D02*
X161607593Y-148030333D01*
X161607593Y-148030333D02*
X161607593Y-148097000D01*
X161607593Y-148097000D02*
X161574260Y-148197000D01*
X161574260Y-148197000D02*
X161507593Y-148263667D01*
X161507593Y-148263667D02*
X161440926Y-148297000D01*
X161440926Y-148297000D02*
X161307593Y-148330333D01*
X161307593Y-148330333D02*
X161207593Y-148330333D01*
X161207593Y-148330333D02*
X161074260Y-148297000D01*
X161074260Y-148297000D02*
X161007593Y-148263667D01*
X161007593Y-148263667D02*
X160940926Y-148197000D01*
X160940926Y-148197000D02*
X160907593Y-148097000D01*
X160907593Y-148097000D02*
X160907593Y-148030333D01*
X160907593Y-148030333D02*
X160940926Y-147930333D01*
X160940926Y-147930333D02*
X160974260Y-147897000D01*
X160907593Y-147663667D02*
X160907593Y-147230333D01*
X160907593Y-147230333D02*
X161174260Y-147463667D01*
X161174260Y-147463667D02*
X161174260Y-147363667D01*
X161174260Y-147363667D02*
X161207593Y-147297000D01*
X161207593Y-147297000D02*
X161240926Y-147263667D01*
X161240926Y-147263667D02*
X161307593Y-147230333D01*
X161307593Y-147230333D02*
X161474260Y-147230333D01*
X161474260Y-147230333D02*
X161540926Y-147263667D01*
X161540926Y-147263667D02*
X161574260Y-147297000D01*
X161574260Y-147297000D02*
X161607593Y-147363667D01*
X161607593Y-147363667D02*
X161607593Y-147563667D01*
X161607593Y-147563667D02*
X161574260Y-147630333D01*
X161574260Y-147630333D02*
X161540926Y-147663667D01*
X160907593Y-146797000D02*
X160907593Y-146730333D01*
X160907593Y-146730333D02*
X160940926Y-146663666D01*
X160940926Y-146663666D02*
X160974260Y-146630333D01*
X160974260Y-146630333D02*
X161040926Y-146597000D01*
X161040926Y-146597000D02*
X161174260Y-146563666D01*
X161174260Y-146563666D02*
X161340926Y-146563666D01*
X161340926Y-146563666D02*
X161474260Y-146597000D01*
X161474260Y-146597000D02*
X161540926Y-146630333D01*
X161540926Y-146630333D02*
X161574260Y-146663666D01*
X161574260Y-146663666D02*
X161607593Y-146730333D01*
X161607593Y-146730333D02*
X161607593Y-146797000D01*
X161607593Y-146797000D02*
X161574260Y-146863666D01*
X161574260Y-146863666D02*
X161540926Y-146897000D01*
X161540926Y-146897000D02*
X161474260Y-146930333D01*
X161474260Y-146930333D02*
X161340926Y-146963666D01*
X161340926Y-146963666D02*
X161174260Y-146963666D01*
X161174260Y-146963666D02*
X161040926Y-146930333D01*
X161040926Y-146930333D02*
X160974260Y-146897000D01*
X160974260Y-146897000D02*
X160940926Y-146863666D01*
X160940926Y-146863666D02*
X160907593Y-146797000D01*
X172021593Y-136026666D02*
X171321593Y-136026666D01*
X171321593Y-136026666D02*
X171321593Y-135859999D01*
X171321593Y-135859999D02*
X171354926Y-135759999D01*
X171354926Y-135759999D02*
X171421593Y-135693333D01*
X171421593Y-135693333D02*
X171488260Y-135659999D01*
X171488260Y-135659999D02*
X171621593Y-135626666D01*
X171621593Y-135626666D02*
X171721593Y-135626666D01*
X171721593Y-135626666D02*
X171854926Y-135659999D01*
X171854926Y-135659999D02*
X171921593Y-135693333D01*
X171921593Y-135693333D02*
X171988260Y-135759999D01*
X171988260Y-135759999D02*
X172021593Y-135859999D01*
X172021593Y-135859999D02*
X172021593Y-136026666D01*
X171554926Y-135026666D02*
X172021593Y-135026666D01*
X171288260Y-135193333D02*
X171788260Y-135359999D01*
X171788260Y-135359999D02*
X171788260Y-134926666D01*
X156968926Y-137483000D02*
X157002260Y-137516333D01*
X157002260Y-137516333D02*
X157035593Y-137616333D01*
X157035593Y-137616333D02*
X157035593Y-137683000D01*
X157035593Y-137683000D02*
X157002260Y-137783000D01*
X157002260Y-137783000D02*
X156935593Y-137849667D01*
X156935593Y-137849667D02*
X156868926Y-137883000D01*
X156868926Y-137883000D02*
X156735593Y-137916333D01*
X156735593Y-137916333D02*
X156635593Y-137916333D01*
X156635593Y-137916333D02*
X156502260Y-137883000D01*
X156502260Y-137883000D02*
X156435593Y-137849667D01*
X156435593Y-137849667D02*
X156368926Y-137783000D01*
X156368926Y-137783000D02*
X156335593Y-137683000D01*
X156335593Y-137683000D02*
X156335593Y-137616333D01*
X156335593Y-137616333D02*
X156368926Y-137516333D01*
X156368926Y-137516333D02*
X156402260Y-137483000D01*
X157035593Y-136816333D02*
X157035593Y-137216333D01*
X157035593Y-137016333D02*
X156335593Y-137016333D01*
X156335593Y-137016333D02*
X156435593Y-137083000D01*
X156435593Y-137083000D02*
X156502260Y-137149667D01*
X156502260Y-137149667D02*
X156535593Y-137216333D01*
X156635593Y-136416333D02*
X156602260Y-136483000D01*
X156602260Y-136483000D02*
X156568926Y-136516333D01*
X156568926Y-136516333D02*
X156502260Y-136549666D01*
X156502260Y-136549666D02*
X156468926Y-136549666D01*
X156468926Y-136549666D02*
X156402260Y-136516333D01*
X156402260Y-136516333D02*
X156368926Y-136483000D01*
X156368926Y-136483000D02*
X156335593Y-136416333D01*
X156335593Y-136416333D02*
X156335593Y-136283000D01*
X156335593Y-136283000D02*
X156368926Y-136216333D01*
X156368926Y-136216333D02*
X156402260Y-136183000D01*
X156402260Y-136183000D02*
X156468926Y-136149666D01*
X156468926Y-136149666D02*
X156502260Y-136149666D01*
X156502260Y-136149666D02*
X156568926Y-136183000D01*
X156568926Y-136183000D02*
X156602260Y-136216333D01*
X156602260Y-136216333D02*
X156635593Y-136283000D01*
X156635593Y-136283000D02*
X156635593Y-136416333D01*
X156635593Y-136416333D02*
X156668926Y-136483000D01*
X156668926Y-136483000D02*
X156702260Y-136516333D01*
X156702260Y-136516333D02*
X156768926Y-136549666D01*
X156768926Y-136549666D02*
X156902260Y-136549666D01*
X156902260Y-136549666D02*
X156968926Y-136516333D01*
X156968926Y-136516333D02*
X157002260Y-136483000D01*
X157002260Y-136483000D02*
X157035593Y-136416333D01*
X157035593Y-136416333D02*
X157035593Y-136283000D01*
X157035593Y-136283000D02*
X157002260Y-136216333D01*
X157002260Y-136216333D02*
X156968926Y-136183000D01*
X156968926Y-136183000D02*
X156902260Y-136149666D01*
X156902260Y-136149666D02*
X156768926Y-136149666D01*
X156768926Y-136149666D02*
X156702260Y-136183000D01*
X156702260Y-136183000D02*
X156668926Y-136216333D01*
X156668926Y-136216333D02*
X156635593Y-136283000D01*
X169668926Y-139642000D02*
X169702260Y-139675333D01*
X169702260Y-139675333D02*
X169735593Y-139775333D01*
X169735593Y-139775333D02*
X169735593Y-139842000D01*
X169735593Y-139842000D02*
X169702260Y-139942000D01*
X169702260Y-139942000D02*
X169635593Y-140008667D01*
X169635593Y-140008667D02*
X169568926Y-140042000D01*
X169568926Y-140042000D02*
X169435593Y-140075333D01*
X169435593Y-140075333D02*
X169335593Y-140075333D01*
X169335593Y-140075333D02*
X169202260Y-140042000D01*
X169202260Y-140042000D02*
X169135593Y-140008667D01*
X169135593Y-140008667D02*
X169068926Y-139942000D01*
X169068926Y-139942000D02*
X169035593Y-139842000D01*
X169035593Y-139842000D02*
X169035593Y-139775333D01*
X169035593Y-139775333D02*
X169068926Y-139675333D01*
X169068926Y-139675333D02*
X169102260Y-139642000D01*
X169735593Y-138975333D02*
X169735593Y-139375333D01*
X169735593Y-139175333D02*
X169035593Y-139175333D01*
X169035593Y-139175333D02*
X169135593Y-139242000D01*
X169135593Y-139242000D02*
X169202260Y-139308667D01*
X169202260Y-139308667D02*
X169235593Y-139375333D01*
X169035593Y-138342000D02*
X169035593Y-138675333D01*
X169035593Y-138675333D02*
X169368926Y-138708666D01*
X169368926Y-138708666D02*
X169335593Y-138675333D01*
X169335593Y-138675333D02*
X169302260Y-138608666D01*
X169302260Y-138608666D02*
X169302260Y-138442000D01*
X169302260Y-138442000D02*
X169335593Y-138375333D01*
X169335593Y-138375333D02*
X169368926Y-138342000D01*
X169368926Y-138342000D02*
X169435593Y-138308666D01*
X169435593Y-138308666D02*
X169602260Y-138308666D01*
X169602260Y-138308666D02*
X169668926Y-138342000D01*
X169668926Y-138342000D02*
X169702260Y-138375333D01*
X169702260Y-138375333D02*
X169735593Y-138442000D01*
X169735593Y-138442000D02*
X169735593Y-138608666D01*
X169735593Y-138608666D02*
X169702260Y-138675333D01*
X169702260Y-138675333D02*
X169668926Y-138708666D01*
X135445593Y-128974000D02*
X135112260Y-129207333D01*
X135445593Y-129374000D02*
X134745593Y-129374000D01*
X134745593Y-129374000D02*
X134745593Y-129107333D01*
X134745593Y-129107333D02*
X134778926Y-129040667D01*
X134778926Y-129040667D02*
X134812260Y-129007333D01*
X134812260Y-129007333D02*
X134878926Y-128974000D01*
X134878926Y-128974000D02*
X134978926Y-128974000D01*
X134978926Y-128974000D02*
X135045593Y-129007333D01*
X135045593Y-129007333D02*
X135078926Y-129040667D01*
X135078926Y-129040667D02*
X135112260Y-129107333D01*
X135112260Y-129107333D02*
X135112260Y-129374000D01*
X135445593Y-128307333D02*
X135445593Y-128707333D01*
X135445593Y-128507333D02*
X134745593Y-128507333D01*
X134745593Y-128507333D02*
X134845593Y-128574000D01*
X134845593Y-128574000D02*
X134912260Y-128640667D01*
X134912260Y-128640667D02*
X134945593Y-128707333D01*
X135045593Y-127907333D02*
X135012260Y-127974000D01*
X135012260Y-127974000D02*
X134978926Y-128007333D01*
X134978926Y-128007333D02*
X134912260Y-128040666D01*
X134912260Y-128040666D02*
X134878926Y-128040666D01*
X134878926Y-128040666D02*
X134812260Y-128007333D01*
X134812260Y-128007333D02*
X134778926Y-127974000D01*
X134778926Y-127974000D02*
X134745593Y-127907333D01*
X134745593Y-127907333D02*
X134745593Y-127774000D01*
X134745593Y-127774000D02*
X134778926Y-127707333D01*
X134778926Y-127707333D02*
X134812260Y-127674000D01*
X134812260Y-127674000D02*
X134878926Y-127640666D01*
X134878926Y-127640666D02*
X134912260Y-127640666D01*
X134912260Y-127640666D02*
X134978926Y-127674000D01*
X134978926Y-127674000D02*
X135012260Y-127707333D01*
X135012260Y-127707333D02*
X135045593Y-127774000D01*
X135045593Y-127774000D02*
X135045593Y-127907333D01*
X135045593Y-127907333D02*
X135078926Y-127974000D01*
X135078926Y-127974000D02*
X135112260Y-128007333D01*
X135112260Y-128007333D02*
X135178926Y-128040666D01*
X135178926Y-128040666D02*
X135312260Y-128040666D01*
X135312260Y-128040666D02*
X135378926Y-128007333D01*
X135378926Y-128007333D02*
X135412260Y-127974000D01*
X135412260Y-127974000D02*
X135445593Y-127907333D01*
X135445593Y-127907333D02*
X135445593Y-127774000D01*
X135445593Y-127774000D02*
X135412260Y-127707333D01*
X135412260Y-127707333D02*
X135378926Y-127674000D01*
X135378926Y-127674000D02*
X135312260Y-127640666D01*
X135312260Y-127640666D02*
X135178926Y-127640666D01*
X135178926Y-127640666D02*
X135112260Y-127674000D01*
X135112260Y-127674000D02*
X135078926Y-127707333D01*
X135078926Y-127707333D02*
X135045593Y-127774000D01*
X169100593Y-116067666D02*
X168767260Y-116300999D01*
X169100593Y-116467666D02*
X168400593Y-116467666D01*
X168400593Y-116467666D02*
X168400593Y-116200999D01*
X168400593Y-116200999D02*
X168433926Y-116134333D01*
X168433926Y-116134333D02*
X168467260Y-116100999D01*
X168467260Y-116100999D02*
X168533926Y-116067666D01*
X168533926Y-116067666D02*
X168633926Y-116067666D01*
X168633926Y-116067666D02*
X168700593Y-116100999D01*
X168700593Y-116100999D02*
X168733926Y-116134333D01*
X168733926Y-116134333D02*
X168767260Y-116200999D01*
X168767260Y-116200999D02*
X168767260Y-116467666D01*
X168700593Y-115667666D02*
X168667260Y-115734333D01*
X168667260Y-115734333D02*
X168633926Y-115767666D01*
X168633926Y-115767666D02*
X168567260Y-115800999D01*
X168567260Y-115800999D02*
X168533926Y-115800999D01*
X168533926Y-115800999D02*
X168467260Y-115767666D01*
X168467260Y-115767666D02*
X168433926Y-115734333D01*
X168433926Y-115734333D02*
X168400593Y-115667666D01*
X168400593Y-115667666D02*
X168400593Y-115534333D01*
X168400593Y-115534333D02*
X168433926Y-115467666D01*
X168433926Y-115467666D02*
X168467260Y-115434333D01*
X168467260Y-115434333D02*
X168533926Y-115400999D01*
X168533926Y-115400999D02*
X168567260Y-115400999D01*
X168567260Y-115400999D02*
X168633926Y-115434333D01*
X168633926Y-115434333D02*
X168667260Y-115467666D01*
X168667260Y-115467666D02*
X168700593Y-115534333D01*
X168700593Y-115534333D02*
X168700593Y-115667666D01*
X168700593Y-115667666D02*
X168733926Y-115734333D01*
X168733926Y-115734333D02*
X168767260Y-115767666D01*
X168767260Y-115767666D02*
X168833926Y-115800999D01*
X168833926Y-115800999D02*
X168967260Y-115800999D01*
X168967260Y-115800999D02*
X169033926Y-115767666D01*
X169033926Y-115767666D02*
X169067260Y-115734333D01*
X169067260Y-115734333D02*
X169100593Y-115667666D01*
X169100593Y-115667666D02*
X169100593Y-115534333D01*
X169100593Y-115534333D02*
X169067260Y-115467666D01*
X169067260Y-115467666D02*
X169033926Y-115434333D01*
X169033926Y-115434333D02*
X168967260Y-115400999D01*
X168967260Y-115400999D02*
X168833926Y-115400999D01*
X168833926Y-115400999D02*
X168767260Y-115434333D01*
X168767260Y-115434333D02*
X168733926Y-115467666D01*
X168733926Y-115467666D02*
X168700593Y-115534333D01*
X152209593Y-142690000D02*
X151876260Y-142923333D01*
X152209593Y-143090000D02*
X151509593Y-143090000D01*
X151509593Y-143090000D02*
X151509593Y-142823333D01*
X151509593Y-142823333D02*
X151542926Y-142756667D01*
X151542926Y-142756667D02*
X151576260Y-142723333D01*
X151576260Y-142723333D02*
X151642926Y-142690000D01*
X151642926Y-142690000D02*
X151742926Y-142690000D01*
X151742926Y-142690000D02*
X151809593Y-142723333D01*
X151809593Y-142723333D02*
X151842926Y-142756667D01*
X151842926Y-142756667D02*
X151876260Y-142823333D01*
X151876260Y-142823333D02*
X151876260Y-143090000D01*
X152209593Y-142023333D02*
X152209593Y-142423333D01*
X152209593Y-142223333D02*
X151509593Y-142223333D01*
X151509593Y-142223333D02*
X151609593Y-142290000D01*
X151609593Y-142290000D02*
X151676260Y-142356667D01*
X151676260Y-142356667D02*
X151709593Y-142423333D01*
X151509593Y-141390000D02*
X151509593Y-141723333D01*
X151509593Y-141723333D02*
X151842926Y-141756666D01*
X151842926Y-141756666D02*
X151809593Y-141723333D01*
X151809593Y-141723333D02*
X151776260Y-141656666D01*
X151776260Y-141656666D02*
X151776260Y-141490000D01*
X151776260Y-141490000D02*
X151809593Y-141423333D01*
X151809593Y-141423333D02*
X151842926Y-141390000D01*
X151842926Y-141390000D02*
X151909593Y-141356666D01*
X151909593Y-141356666D02*
X152076260Y-141356666D01*
X152076260Y-141356666D02*
X152142926Y-141390000D01*
X152142926Y-141390000D02*
X152176260Y-141423333D01*
X152176260Y-141423333D02*
X152209593Y-141490000D01*
X152209593Y-141490000D02*
X152209593Y-141656666D01*
X152209593Y-141656666D02*
X152176260Y-141723333D01*
X152176260Y-141723333D02*
X152142926Y-141756666D01*
X152142926Y-144976000D02*
X152176260Y-145009333D01*
X152176260Y-145009333D02*
X152209593Y-145109333D01*
X152209593Y-145109333D02*
X152209593Y-145176000D01*
X152209593Y-145176000D02*
X152176260Y-145276000D01*
X152176260Y-145276000D02*
X152109593Y-145342667D01*
X152109593Y-145342667D02*
X152042926Y-145376000D01*
X152042926Y-145376000D02*
X151909593Y-145409333D01*
X151909593Y-145409333D02*
X151809593Y-145409333D01*
X151809593Y-145409333D02*
X151676260Y-145376000D01*
X151676260Y-145376000D02*
X151609593Y-145342667D01*
X151609593Y-145342667D02*
X151542926Y-145276000D01*
X151542926Y-145276000D02*
X151509593Y-145176000D01*
X151509593Y-145176000D02*
X151509593Y-145109333D01*
X151509593Y-145109333D02*
X151542926Y-145009333D01*
X151542926Y-145009333D02*
X151576260Y-144976000D01*
X151509593Y-144742667D02*
X151509593Y-144309333D01*
X151509593Y-144309333D02*
X151776260Y-144542667D01*
X151776260Y-144542667D02*
X151776260Y-144442667D01*
X151776260Y-144442667D02*
X151809593Y-144376000D01*
X151809593Y-144376000D02*
X151842926Y-144342667D01*
X151842926Y-144342667D02*
X151909593Y-144309333D01*
X151909593Y-144309333D02*
X152076260Y-144309333D01*
X152076260Y-144309333D02*
X152142926Y-144342667D01*
X152142926Y-144342667D02*
X152176260Y-144376000D01*
X152176260Y-144376000D02*
X152209593Y-144442667D01*
X152209593Y-144442667D02*
X152209593Y-144642667D01*
X152209593Y-144642667D02*
X152176260Y-144709333D01*
X152176260Y-144709333D02*
X152142926Y-144742667D01*
X151742926Y-143709333D02*
X152209593Y-143709333D01*
X151476260Y-143876000D02*
X151976260Y-144042666D01*
X151976260Y-144042666D02*
X151976260Y-143609333D01*
X128266926Y-130498000D02*
X128300260Y-130531333D01*
X128300260Y-130531333D02*
X128333593Y-130631333D01*
X128333593Y-130631333D02*
X128333593Y-130698000D01*
X128333593Y-130698000D02*
X128300260Y-130798000D01*
X128300260Y-130798000D02*
X128233593Y-130864667D01*
X128233593Y-130864667D02*
X128166926Y-130898000D01*
X128166926Y-130898000D02*
X128033593Y-130931333D01*
X128033593Y-130931333D02*
X127933593Y-130931333D01*
X127933593Y-130931333D02*
X127800260Y-130898000D01*
X127800260Y-130898000D02*
X127733593Y-130864667D01*
X127733593Y-130864667D02*
X127666926Y-130798000D01*
X127666926Y-130798000D02*
X127633593Y-130698000D01*
X127633593Y-130698000D02*
X127633593Y-130631333D01*
X127633593Y-130631333D02*
X127666926Y-130531333D01*
X127666926Y-130531333D02*
X127700260Y-130498000D01*
X127633593Y-130264667D02*
X127633593Y-129831333D01*
X127633593Y-129831333D02*
X127900260Y-130064667D01*
X127900260Y-130064667D02*
X127900260Y-129964667D01*
X127900260Y-129964667D02*
X127933593Y-129898000D01*
X127933593Y-129898000D02*
X127966926Y-129864667D01*
X127966926Y-129864667D02*
X128033593Y-129831333D01*
X128033593Y-129831333D02*
X128200260Y-129831333D01*
X128200260Y-129831333D02*
X128266926Y-129864667D01*
X128266926Y-129864667D02*
X128300260Y-129898000D01*
X128300260Y-129898000D02*
X128333593Y-129964667D01*
X128333593Y-129964667D02*
X128333593Y-130164667D01*
X128333593Y-130164667D02*
X128300260Y-130231333D01*
X128300260Y-130231333D02*
X128266926Y-130264667D01*
X127633593Y-129598000D02*
X127633593Y-129131333D01*
X127633593Y-129131333D02*
X128333593Y-129431333D01*
X167255926Y-147897000D02*
X167289260Y-147930333D01*
X167289260Y-147930333D02*
X167322593Y-148030333D01*
X167322593Y-148030333D02*
X167322593Y-148097000D01*
X167322593Y-148097000D02*
X167289260Y-148197000D01*
X167289260Y-148197000D02*
X167222593Y-148263667D01*
X167222593Y-148263667D02*
X167155926Y-148297000D01*
X167155926Y-148297000D02*
X167022593Y-148330333D01*
X167022593Y-148330333D02*
X166922593Y-148330333D01*
X166922593Y-148330333D02*
X166789260Y-148297000D01*
X166789260Y-148297000D02*
X166722593Y-148263667D01*
X166722593Y-148263667D02*
X166655926Y-148197000D01*
X166655926Y-148197000D02*
X166622593Y-148097000D01*
X166622593Y-148097000D02*
X166622593Y-148030333D01*
X166622593Y-148030333D02*
X166655926Y-147930333D01*
X166655926Y-147930333D02*
X166689260Y-147897000D01*
X167322593Y-147230333D02*
X167322593Y-147630333D01*
X167322593Y-147430333D02*
X166622593Y-147430333D01*
X166622593Y-147430333D02*
X166722593Y-147497000D01*
X166722593Y-147497000D02*
X166789260Y-147563667D01*
X166789260Y-147563667D02*
X166822593Y-147630333D01*
X167322593Y-146897000D02*
X167322593Y-146763666D01*
X167322593Y-146763666D02*
X167289260Y-146697000D01*
X167289260Y-146697000D02*
X167255926Y-146663666D01*
X167255926Y-146663666D02*
X167155926Y-146597000D01*
X167155926Y-146597000D02*
X167022593Y-146563666D01*
X167022593Y-146563666D02*
X166755926Y-146563666D01*
X166755926Y-146563666D02*
X166689260Y-146597000D01*
X166689260Y-146597000D02*
X166655926Y-146630333D01*
X166655926Y-146630333D02*
X166622593Y-146697000D01*
X166622593Y-146697000D02*
X166622593Y-146830333D01*
X166622593Y-146830333D02*
X166655926Y-146897000D01*
X166655926Y-146897000D02*
X166689260Y-146930333D01*
X166689260Y-146930333D02*
X166755926Y-146963666D01*
X166755926Y-146963666D02*
X166922593Y-146963666D01*
X166922593Y-146963666D02*
X166989260Y-146930333D01*
X166989260Y-146930333D02*
X167022593Y-146897000D01*
X167022593Y-146897000D02*
X167055926Y-146830333D01*
X167055926Y-146830333D02*
X167055926Y-146697000D01*
X167055926Y-146697000D02*
X167022593Y-146630333D01*
X167022593Y-146630333D02*
X166989260Y-146597000D01*
X166989260Y-146597000D02*
X166922593Y-146563666D01*
X157537999Y-119062593D02*
X157304666Y-118729260D01*
X157137999Y-119062593D02*
X157137999Y-118362593D01*
X157137999Y-118362593D02*
X157404666Y-118362593D01*
X157404666Y-118362593D02*
X157471333Y-118395926D01*
X157471333Y-118395926D02*
X157504666Y-118429260D01*
X157504666Y-118429260D02*
X157537999Y-118495926D01*
X157537999Y-118495926D02*
X157537999Y-118595926D01*
X157537999Y-118595926D02*
X157504666Y-118662593D01*
X157504666Y-118662593D02*
X157471333Y-118695926D01*
X157471333Y-118695926D02*
X157404666Y-118729260D01*
X157404666Y-118729260D02*
X157137999Y-118729260D01*
X158204666Y-119062593D02*
X157804666Y-119062593D01*
X158004666Y-119062593D02*
X158004666Y-118362593D01*
X158004666Y-118362593D02*
X157937999Y-118462593D01*
X157937999Y-118462593D02*
X157871333Y-118529260D01*
X157871333Y-118529260D02*
X157804666Y-118562593D01*
X158438000Y-118362593D02*
X158871333Y-118362593D01*
X158871333Y-118362593D02*
X158638000Y-118629260D01*
X158638000Y-118629260D02*
X158738000Y-118629260D01*
X158738000Y-118629260D02*
X158804666Y-118662593D01*
X158804666Y-118662593D02*
X158838000Y-118695926D01*
X158838000Y-118695926D02*
X158871333Y-118762593D01*
X158871333Y-118762593D02*
X158871333Y-118929260D01*
X158871333Y-118929260D02*
X158838000Y-118995926D01*
X158838000Y-118995926D02*
X158804666Y-119029260D01*
X158804666Y-119029260D02*
X158738000Y-119062593D01*
X158738000Y-119062593D02*
X158538000Y-119062593D01*
X158538000Y-119062593D02*
X158471333Y-119029260D01*
X158471333Y-119029260D02*
X158438000Y-118995926D01*
X128393926Y-116401000D02*
X128427260Y-116434333D01*
X128427260Y-116434333D02*
X128460593Y-116534333D01*
X128460593Y-116534333D02*
X128460593Y-116601000D01*
X128460593Y-116601000D02*
X128427260Y-116701000D01*
X128427260Y-116701000D02*
X128360593Y-116767667D01*
X128360593Y-116767667D02*
X128293926Y-116801000D01*
X128293926Y-116801000D02*
X128160593Y-116834333D01*
X128160593Y-116834333D02*
X128060593Y-116834333D01*
X128060593Y-116834333D02*
X127927260Y-116801000D01*
X127927260Y-116801000D02*
X127860593Y-116767667D01*
X127860593Y-116767667D02*
X127793926Y-116701000D01*
X127793926Y-116701000D02*
X127760593Y-116601000D01*
X127760593Y-116601000D02*
X127760593Y-116534333D01*
X127760593Y-116534333D02*
X127793926Y-116434333D01*
X127793926Y-116434333D02*
X127827260Y-116401000D01*
X127760593Y-116167667D02*
X127760593Y-115734333D01*
X127760593Y-115734333D02*
X128027260Y-115967667D01*
X128027260Y-115967667D02*
X128027260Y-115867667D01*
X128027260Y-115867667D02*
X128060593Y-115801000D01*
X128060593Y-115801000D02*
X128093926Y-115767667D01*
X128093926Y-115767667D02*
X128160593Y-115734333D01*
X128160593Y-115734333D02*
X128327260Y-115734333D01*
X128327260Y-115734333D02*
X128393926Y-115767667D01*
X128393926Y-115767667D02*
X128427260Y-115801000D01*
X128427260Y-115801000D02*
X128460593Y-115867667D01*
X128460593Y-115867667D02*
X128460593Y-116067667D01*
X128460593Y-116067667D02*
X128427260Y-116134333D01*
X128427260Y-116134333D02*
X128393926Y-116167667D01*
X128460593Y-115401000D02*
X128460593Y-115267666D01*
X128460593Y-115267666D02*
X128427260Y-115201000D01*
X128427260Y-115201000D02*
X128393926Y-115167666D01*
X128393926Y-115167666D02*
X128293926Y-115101000D01*
X128293926Y-115101000D02*
X128160593Y-115067666D01*
X128160593Y-115067666D02*
X127893926Y-115067666D01*
X127893926Y-115067666D02*
X127827260Y-115101000D01*
X127827260Y-115101000D02*
X127793926Y-115134333D01*
X127793926Y-115134333D02*
X127760593Y-115201000D01*
X127760593Y-115201000D02*
X127760593Y-115334333D01*
X127760593Y-115334333D02*
X127793926Y-115401000D01*
X127793926Y-115401000D02*
X127827260Y-115434333D01*
X127827260Y-115434333D02*
X127893926Y-115467666D01*
X127893926Y-115467666D02*
X128060593Y-115467666D01*
X128060593Y-115467666D02*
X128127260Y-115434333D01*
X128127260Y-115434333D02*
X128160593Y-115401000D01*
X128160593Y-115401000D02*
X128193926Y-115334333D01*
X128193926Y-115334333D02*
X128193926Y-115201000D01*
X128193926Y-115201000D02*
X128160593Y-115134333D01*
X128160593Y-115134333D02*
X128127260Y-115101000D01*
X128127260Y-115101000D02*
X128060593Y-115067666D01*
X144335593Y-116816666D02*
X143635593Y-116816666D01*
X143635593Y-116816666D02*
X143635593Y-116649999D01*
X143635593Y-116649999D02*
X143668926Y-116549999D01*
X143668926Y-116549999D02*
X143735593Y-116483333D01*
X143735593Y-116483333D02*
X143802260Y-116449999D01*
X143802260Y-116449999D02*
X143935593Y-116416666D01*
X143935593Y-116416666D02*
X144035593Y-116416666D01*
X144035593Y-116416666D02*
X144168926Y-116449999D01*
X144168926Y-116449999D02*
X144235593Y-116483333D01*
X144235593Y-116483333D02*
X144302260Y-116549999D01*
X144302260Y-116549999D02*
X144335593Y-116649999D01*
X144335593Y-116649999D02*
X144335593Y-116816666D01*
X144335593Y-115749999D02*
X144335593Y-116149999D01*
X144335593Y-115949999D02*
X143635593Y-115949999D01*
X143635593Y-115949999D02*
X143735593Y-116016666D01*
X143735593Y-116016666D02*
X143802260Y-116083333D01*
X143802260Y-116083333D02*
X143835593Y-116149999D01*
X152209593Y-147389000D02*
X151876260Y-147622333D01*
X152209593Y-147789000D02*
X151509593Y-147789000D01*
X151509593Y-147789000D02*
X151509593Y-147522333D01*
X151509593Y-147522333D02*
X151542926Y-147455667D01*
X151542926Y-147455667D02*
X151576260Y-147422333D01*
X151576260Y-147422333D02*
X151642926Y-147389000D01*
X151642926Y-147389000D02*
X151742926Y-147389000D01*
X151742926Y-147389000D02*
X151809593Y-147422333D01*
X151809593Y-147422333D02*
X151842926Y-147455667D01*
X151842926Y-147455667D02*
X151876260Y-147522333D01*
X151876260Y-147522333D02*
X151876260Y-147789000D01*
X152209593Y-146722333D02*
X152209593Y-147122333D01*
X152209593Y-146922333D02*
X151509593Y-146922333D01*
X151509593Y-146922333D02*
X151609593Y-146989000D01*
X151609593Y-146989000D02*
X151676260Y-147055667D01*
X151676260Y-147055667D02*
X151709593Y-147122333D01*
X151509593Y-146122333D02*
X151509593Y-146255666D01*
X151509593Y-146255666D02*
X151542926Y-146322333D01*
X151542926Y-146322333D02*
X151576260Y-146355666D01*
X151576260Y-146355666D02*
X151676260Y-146422333D01*
X151676260Y-146422333D02*
X151809593Y-146455666D01*
X151809593Y-146455666D02*
X152076260Y-146455666D01*
X152076260Y-146455666D02*
X152142926Y-146422333D01*
X152142926Y-146422333D02*
X152176260Y-146389000D01*
X152176260Y-146389000D02*
X152209593Y-146322333D01*
X152209593Y-146322333D02*
X152209593Y-146189000D01*
X152209593Y-146189000D02*
X152176260Y-146122333D01*
X152176260Y-146122333D02*
X152142926Y-146089000D01*
X152142926Y-146089000D02*
X152076260Y-146055666D01*
X152076260Y-146055666D02*
X151909593Y-146055666D01*
X151909593Y-146055666D02*
X151842926Y-146089000D01*
X151842926Y-146089000D02*
X151809593Y-146122333D01*
X151809593Y-146122333D02*
X151776260Y-146189000D01*
X151776260Y-146189000D02*
X151776260Y-146322333D01*
X151776260Y-146322333D02*
X151809593Y-146389000D01*
X151809593Y-146389000D02*
X151842926Y-146422333D01*
X151842926Y-146422333D02*
X151909593Y-146455666D01*
X171827926Y-113480000D02*
X171861260Y-113513333D01*
X171861260Y-113513333D02*
X171894593Y-113613333D01*
X171894593Y-113613333D02*
X171894593Y-113680000D01*
X171894593Y-113680000D02*
X171861260Y-113780000D01*
X171861260Y-113780000D02*
X171794593Y-113846667D01*
X171794593Y-113846667D02*
X171727926Y-113880000D01*
X171727926Y-113880000D02*
X171594593Y-113913333D01*
X171594593Y-113913333D02*
X171494593Y-113913333D01*
X171494593Y-113913333D02*
X171361260Y-113880000D01*
X171361260Y-113880000D02*
X171294593Y-113846667D01*
X171294593Y-113846667D02*
X171227926Y-113780000D01*
X171227926Y-113780000D02*
X171194593Y-113680000D01*
X171194593Y-113680000D02*
X171194593Y-113613333D01*
X171194593Y-113613333D02*
X171227926Y-113513333D01*
X171227926Y-113513333D02*
X171261260Y-113480000D01*
X171194593Y-113246667D02*
X171194593Y-112813333D01*
X171194593Y-112813333D02*
X171461260Y-113046667D01*
X171461260Y-113046667D02*
X171461260Y-112946667D01*
X171461260Y-112946667D02*
X171494593Y-112880000D01*
X171494593Y-112880000D02*
X171527926Y-112846667D01*
X171527926Y-112846667D02*
X171594593Y-112813333D01*
X171594593Y-112813333D02*
X171761260Y-112813333D01*
X171761260Y-112813333D02*
X171827926Y-112846667D01*
X171827926Y-112846667D02*
X171861260Y-112880000D01*
X171861260Y-112880000D02*
X171894593Y-112946667D01*
X171894593Y-112946667D02*
X171894593Y-113146667D01*
X171894593Y-113146667D02*
X171861260Y-113213333D01*
X171861260Y-113213333D02*
X171827926Y-113246667D01*
X171894593Y-112146666D02*
X171894593Y-112546666D01*
X171894593Y-112346666D02*
X171194593Y-112346666D01*
X171194593Y-112346666D02*
X171294593Y-112413333D01*
X171294593Y-112413333D02*
X171361260Y-112480000D01*
X171361260Y-112480000D02*
X171394593Y-112546666D01*
X153987593Y-125719666D02*
X153654260Y-125952999D01*
X153987593Y-126119666D02*
X153287593Y-126119666D01*
X153287593Y-126119666D02*
X153287593Y-125852999D01*
X153287593Y-125852999D02*
X153320926Y-125786333D01*
X153320926Y-125786333D02*
X153354260Y-125752999D01*
X153354260Y-125752999D02*
X153420926Y-125719666D01*
X153420926Y-125719666D02*
X153520926Y-125719666D01*
X153520926Y-125719666D02*
X153587593Y-125752999D01*
X153587593Y-125752999D02*
X153620926Y-125786333D01*
X153620926Y-125786333D02*
X153654260Y-125852999D01*
X153654260Y-125852999D02*
X153654260Y-126119666D01*
X153287593Y-125119666D02*
X153287593Y-125252999D01*
X153287593Y-125252999D02*
X153320926Y-125319666D01*
X153320926Y-125319666D02*
X153354260Y-125352999D01*
X153354260Y-125352999D02*
X153454260Y-125419666D01*
X153454260Y-125419666D02*
X153587593Y-125452999D01*
X153587593Y-125452999D02*
X153854260Y-125452999D01*
X153854260Y-125452999D02*
X153920926Y-125419666D01*
X153920926Y-125419666D02*
X153954260Y-125386333D01*
X153954260Y-125386333D02*
X153987593Y-125319666D01*
X153987593Y-125319666D02*
X153987593Y-125186333D01*
X153987593Y-125186333D02*
X153954260Y-125119666D01*
X153954260Y-125119666D02*
X153920926Y-125086333D01*
X153920926Y-125086333D02*
X153854260Y-125052999D01*
X153854260Y-125052999D02*
X153687593Y-125052999D01*
X153687593Y-125052999D02*
X153620926Y-125086333D01*
X153620926Y-125086333D02*
X153587593Y-125119666D01*
X153587593Y-125119666D02*
X153554260Y-125186333D01*
X153554260Y-125186333D02*
X153554260Y-125319666D01*
X153554260Y-125319666D02*
X153587593Y-125386333D01*
X153587593Y-125386333D02*
X153620926Y-125419666D01*
X153620926Y-125419666D02*
X153687593Y-125452999D01*
X135445593Y-144534666D02*
X134745593Y-144534666D01*
X134745593Y-144534666D02*
X134745593Y-144367999D01*
X134745593Y-144367999D02*
X134778926Y-144267999D01*
X134778926Y-144267999D02*
X134845593Y-144201333D01*
X134845593Y-144201333D02*
X134912260Y-144167999D01*
X134912260Y-144167999D02*
X135045593Y-144134666D01*
X135045593Y-144134666D02*
X135145593Y-144134666D01*
X135145593Y-144134666D02*
X135278926Y-144167999D01*
X135278926Y-144167999D02*
X135345593Y-144201333D01*
X135345593Y-144201333D02*
X135412260Y-144267999D01*
X135412260Y-144267999D02*
X135445593Y-144367999D01*
X135445593Y-144367999D02*
X135445593Y-144534666D01*
X134745593Y-143534666D02*
X134745593Y-143667999D01*
X134745593Y-143667999D02*
X134778926Y-143734666D01*
X134778926Y-143734666D02*
X134812260Y-143767999D01*
X134812260Y-143767999D02*
X134912260Y-143834666D01*
X134912260Y-143834666D02*
X135045593Y-143867999D01*
X135045593Y-143867999D02*
X135312260Y-143867999D01*
X135312260Y-143867999D02*
X135378926Y-143834666D01*
X135378926Y-143834666D02*
X135412260Y-143801333D01*
X135412260Y-143801333D02*
X135445593Y-143734666D01*
X135445593Y-143734666D02*
X135445593Y-143601333D01*
X135445593Y-143601333D02*
X135412260Y-143534666D01*
X135412260Y-143534666D02*
X135378926Y-143501333D01*
X135378926Y-143501333D02*
X135312260Y-143467999D01*
X135312260Y-143467999D02*
X135145593Y-143467999D01*
X135145593Y-143467999D02*
X135078926Y-143501333D01*
X135078926Y-143501333D02*
X135045593Y-143534666D01*
X135045593Y-143534666D02*
X135012260Y-143601333D01*
X135012260Y-143601333D02*
X135012260Y-143734666D01*
X135012260Y-143734666D02*
X135045593Y-143801333D01*
X135045593Y-143801333D02*
X135078926Y-143834666D01*
X135078926Y-143834666D02*
X135145593Y-143867999D01*
X148012999Y-152904926D02*
X147979666Y-152938260D01*
X147979666Y-152938260D02*
X147879666Y-152971593D01*
X147879666Y-152971593D02*
X147812999Y-152971593D01*
X147812999Y-152971593D02*
X147712999Y-152938260D01*
X147712999Y-152938260D02*
X147646333Y-152871593D01*
X147646333Y-152871593D02*
X147612999Y-152804926D01*
X147612999Y-152804926D02*
X147579666Y-152671593D01*
X147579666Y-152671593D02*
X147579666Y-152571593D01*
X147579666Y-152571593D02*
X147612999Y-152438260D01*
X147612999Y-152438260D02*
X147646333Y-152371593D01*
X147646333Y-152371593D02*
X147712999Y-152304926D01*
X147712999Y-152304926D02*
X147812999Y-152271593D01*
X147812999Y-152271593D02*
X147879666Y-152271593D01*
X147879666Y-152271593D02*
X147979666Y-152304926D01*
X147979666Y-152304926D02*
X148012999Y-152338260D01*
X148246333Y-152271593D02*
X148679666Y-152271593D01*
X148679666Y-152271593D02*
X148446333Y-152538260D01*
X148446333Y-152538260D02*
X148546333Y-152538260D01*
X148546333Y-152538260D02*
X148612999Y-152571593D01*
X148612999Y-152571593D02*
X148646333Y-152604926D01*
X148646333Y-152604926D02*
X148679666Y-152671593D01*
X148679666Y-152671593D02*
X148679666Y-152838260D01*
X148679666Y-152838260D02*
X148646333Y-152904926D01*
X148646333Y-152904926D02*
X148612999Y-152938260D01*
X148612999Y-152938260D02*
X148546333Y-152971593D01*
X148546333Y-152971593D02*
X148346333Y-152971593D01*
X148346333Y-152971593D02*
X148279666Y-152938260D01*
X148279666Y-152938260D02*
X148246333Y-152904926D01*
X149313000Y-152271593D02*
X148979666Y-152271593D01*
X148979666Y-152271593D02*
X148946333Y-152604926D01*
X148946333Y-152604926D02*
X148979666Y-152571593D01*
X148979666Y-152571593D02*
X149046333Y-152538260D01*
X149046333Y-152538260D02*
X149213000Y-152538260D01*
X149213000Y-152538260D02*
X149279666Y-152571593D01*
X149279666Y-152571593D02*
X149313000Y-152604926D01*
X149313000Y-152604926D02*
X149346333Y-152671593D01*
X149346333Y-152671593D02*
X149346333Y-152838260D01*
X149346333Y-152838260D02*
X149313000Y-152904926D01*
X149313000Y-152904926D02*
X149279666Y-152938260D01*
X149279666Y-152938260D02*
X149213000Y-152971593D01*
X149213000Y-152971593D02*
X149046333Y-152971593D01*
X149046333Y-152971593D02*
X148979666Y-152938260D01*
X148979666Y-152938260D02*
X148946333Y-152904926D01*
X133219926Y-148024000D02*
X133253260Y-148057333D01*
X133253260Y-148057333D02*
X133286593Y-148157333D01*
X133286593Y-148157333D02*
X133286593Y-148224000D01*
X133286593Y-148224000D02*
X133253260Y-148324000D01*
X133253260Y-148324000D02*
X133186593Y-148390667D01*
X133186593Y-148390667D02*
X133119926Y-148424000D01*
X133119926Y-148424000D02*
X132986593Y-148457333D01*
X132986593Y-148457333D02*
X132886593Y-148457333D01*
X132886593Y-148457333D02*
X132753260Y-148424000D01*
X132753260Y-148424000D02*
X132686593Y-148390667D01*
X132686593Y-148390667D02*
X132619926Y-148324000D01*
X132619926Y-148324000D02*
X132586593Y-148224000D01*
X132586593Y-148224000D02*
X132586593Y-148157333D01*
X132586593Y-148157333D02*
X132619926Y-148057333D01*
X132619926Y-148057333D02*
X132653260Y-148024000D01*
X132819926Y-147424000D02*
X133286593Y-147424000D01*
X132553260Y-147590667D02*
X133053260Y-147757333D01*
X133053260Y-147757333D02*
X133053260Y-147324000D01*
X132819926Y-146757333D02*
X133286593Y-146757333D01*
X132553260Y-146924000D02*
X133053260Y-147090666D01*
X133053260Y-147090666D02*
X133053260Y-146657333D01*
X159702593Y-111930000D02*
X159369260Y-112163333D01*
X159702593Y-112330000D02*
X159002593Y-112330000D01*
X159002593Y-112330000D02*
X159002593Y-112063333D01*
X159002593Y-112063333D02*
X159035926Y-111996667D01*
X159035926Y-111996667D02*
X159069260Y-111963333D01*
X159069260Y-111963333D02*
X159135926Y-111930000D01*
X159135926Y-111930000D02*
X159235926Y-111930000D01*
X159235926Y-111930000D02*
X159302593Y-111963333D01*
X159302593Y-111963333D02*
X159335926Y-111996667D01*
X159335926Y-111996667D02*
X159369260Y-112063333D01*
X159369260Y-112063333D02*
X159369260Y-112330000D01*
X159069260Y-111663333D02*
X159035926Y-111630000D01*
X159035926Y-111630000D02*
X159002593Y-111563333D01*
X159002593Y-111563333D02*
X159002593Y-111396667D01*
X159002593Y-111396667D02*
X159035926Y-111330000D01*
X159035926Y-111330000D02*
X159069260Y-111296667D01*
X159069260Y-111296667D02*
X159135926Y-111263333D01*
X159135926Y-111263333D02*
X159202593Y-111263333D01*
X159202593Y-111263333D02*
X159302593Y-111296667D01*
X159302593Y-111296667D02*
X159702593Y-111696667D01*
X159702593Y-111696667D02*
X159702593Y-111263333D01*
X159002593Y-111030000D02*
X159002593Y-110563333D01*
X159002593Y-110563333D02*
X159702593Y-110863333D01*
X152142926Y-137864000D02*
X152176260Y-137897333D01*
X152176260Y-137897333D02*
X152209593Y-137997333D01*
X152209593Y-137997333D02*
X152209593Y-138064000D01*
X152209593Y-138064000D02*
X152176260Y-138164000D01*
X152176260Y-138164000D02*
X152109593Y-138230667D01*
X152109593Y-138230667D02*
X152042926Y-138264000D01*
X152042926Y-138264000D02*
X151909593Y-138297333D01*
X151909593Y-138297333D02*
X151809593Y-138297333D01*
X151809593Y-138297333D02*
X151676260Y-138264000D01*
X151676260Y-138264000D02*
X151609593Y-138230667D01*
X151609593Y-138230667D02*
X151542926Y-138164000D01*
X151542926Y-138164000D02*
X151509593Y-138064000D01*
X151509593Y-138064000D02*
X151509593Y-137997333D01*
X151509593Y-137997333D02*
X151542926Y-137897333D01*
X151542926Y-137897333D02*
X151576260Y-137864000D01*
X151509593Y-137630667D02*
X151509593Y-137197333D01*
X151509593Y-137197333D02*
X151776260Y-137430667D01*
X151776260Y-137430667D02*
X151776260Y-137330667D01*
X151776260Y-137330667D02*
X151809593Y-137264000D01*
X151809593Y-137264000D02*
X151842926Y-137230667D01*
X151842926Y-137230667D02*
X151909593Y-137197333D01*
X151909593Y-137197333D02*
X152076260Y-137197333D01*
X152076260Y-137197333D02*
X152142926Y-137230667D01*
X152142926Y-137230667D02*
X152176260Y-137264000D01*
X152176260Y-137264000D02*
X152209593Y-137330667D01*
X152209593Y-137330667D02*
X152209593Y-137530667D01*
X152209593Y-137530667D02*
X152176260Y-137597333D01*
X152176260Y-137597333D02*
X152142926Y-137630667D01*
X151576260Y-136930666D02*
X151542926Y-136897333D01*
X151542926Y-136897333D02*
X151509593Y-136830666D01*
X151509593Y-136830666D02*
X151509593Y-136664000D01*
X151509593Y-136664000D02*
X151542926Y-136597333D01*
X151542926Y-136597333D02*
X151576260Y-136564000D01*
X151576260Y-136564000D02*
X151642926Y-136530666D01*
X151642926Y-136530666D02*
X151709593Y-136530666D01*
X151709593Y-136530666D02*
X151809593Y-136564000D01*
X151809593Y-136564000D02*
X152209593Y-136964000D01*
X152209593Y-136964000D02*
X152209593Y-136530666D01*
X163272926Y-118947333D02*
X163272926Y-119180666D01*
X163639593Y-119180666D02*
X162939593Y-119180666D01*
X162939593Y-119180666D02*
X162939593Y-118847333D01*
X163272926Y-118347333D02*
X163306260Y-118247333D01*
X163306260Y-118247333D02*
X163339593Y-118213999D01*
X163339593Y-118213999D02*
X163406260Y-118180666D01*
X163406260Y-118180666D02*
X163506260Y-118180666D01*
X163506260Y-118180666D02*
X163572926Y-118213999D01*
X163572926Y-118213999D02*
X163606260Y-118247333D01*
X163606260Y-118247333D02*
X163639593Y-118313999D01*
X163639593Y-118313999D02*
X163639593Y-118580666D01*
X163639593Y-118580666D02*
X162939593Y-118580666D01*
X162939593Y-118580666D02*
X162939593Y-118347333D01*
X162939593Y-118347333D02*
X162972926Y-118280666D01*
X162972926Y-118280666D02*
X163006260Y-118247333D01*
X163006260Y-118247333D02*
X163072926Y-118213999D01*
X163072926Y-118213999D02*
X163139593Y-118213999D01*
X163139593Y-118213999D02*
X163206260Y-118247333D01*
X163206260Y-118247333D02*
X163239593Y-118280666D01*
X163239593Y-118280666D02*
X163272926Y-118347333D01*
X163272926Y-118347333D02*
X163272926Y-118580666D01*
X163639593Y-117513999D02*
X163639593Y-117913999D01*
X163639593Y-117713999D02*
X162939593Y-117713999D01*
X162939593Y-117713999D02*
X163039593Y-117780666D01*
X163039593Y-117780666D02*
X163106260Y-117847333D01*
X163106260Y-117847333D02*
X163139593Y-117913999D01*
X145665926Y-122497000D02*
X145699260Y-122530333D01*
X145699260Y-122530333D02*
X145732593Y-122630333D01*
X145732593Y-122630333D02*
X145732593Y-122697000D01*
X145732593Y-122697000D02*
X145699260Y-122797000D01*
X145699260Y-122797000D02*
X145632593Y-122863667D01*
X145632593Y-122863667D02*
X145565926Y-122897000D01*
X145565926Y-122897000D02*
X145432593Y-122930333D01*
X145432593Y-122930333D02*
X145332593Y-122930333D01*
X145332593Y-122930333D02*
X145199260Y-122897000D01*
X145199260Y-122897000D02*
X145132593Y-122863667D01*
X145132593Y-122863667D02*
X145065926Y-122797000D01*
X145065926Y-122797000D02*
X145032593Y-122697000D01*
X145032593Y-122697000D02*
X145032593Y-122630333D01*
X145032593Y-122630333D02*
X145065926Y-122530333D01*
X145065926Y-122530333D02*
X145099260Y-122497000D01*
X145099260Y-122230333D02*
X145065926Y-122197000D01*
X145065926Y-122197000D02*
X145032593Y-122130333D01*
X145032593Y-122130333D02*
X145032593Y-121963667D01*
X145032593Y-121963667D02*
X145065926Y-121897000D01*
X145065926Y-121897000D02*
X145099260Y-121863667D01*
X145099260Y-121863667D02*
X145165926Y-121830333D01*
X145165926Y-121830333D02*
X145232593Y-121830333D01*
X145232593Y-121830333D02*
X145332593Y-121863667D01*
X145332593Y-121863667D02*
X145732593Y-122263667D01*
X145732593Y-122263667D02*
X145732593Y-121830333D01*
X145332593Y-121430333D02*
X145299260Y-121497000D01*
X145299260Y-121497000D02*
X145265926Y-121530333D01*
X145265926Y-121530333D02*
X145199260Y-121563666D01*
X145199260Y-121563666D02*
X145165926Y-121563666D01*
X145165926Y-121563666D02*
X145099260Y-121530333D01*
X145099260Y-121530333D02*
X145065926Y-121497000D01*
X145065926Y-121497000D02*
X145032593Y-121430333D01*
X145032593Y-121430333D02*
X145032593Y-121297000D01*
X145032593Y-121297000D02*
X145065926Y-121230333D01*
X145065926Y-121230333D02*
X145099260Y-121197000D01*
X145099260Y-121197000D02*
X145165926Y-121163666D01*
X145165926Y-121163666D02*
X145199260Y-121163666D01*
X145199260Y-121163666D02*
X145265926Y-121197000D01*
X145265926Y-121197000D02*
X145299260Y-121230333D01*
X145299260Y-121230333D02*
X145332593Y-121297000D01*
X145332593Y-121297000D02*
X145332593Y-121430333D01*
X145332593Y-121430333D02*
X145365926Y-121497000D01*
X145365926Y-121497000D02*
X145399260Y-121530333D01*
X145399260Y-121530333D02*
X145465926Y-121563666D01*
X145465926Y-121563666D02*
X145599260Y-121563666D01*
X145599260Y-121563666D02*
X145665926Y-121530333D01*
X145665926Y-121530333D02*
X145699260Y-121497000D01*
X145699260Y-121497000D02*
X145732593Y-121430333D01*
X145732593Y-121430333D02*
X145732593Y-121297000D01*
X145732593Y-121297000D02*
X145699260Y-121230333D01*
X145699260Y-121230333D02*
X145665926Y-121197000D01*
X145665926Y-121197000D02*
X145599260Y-121163666D01*
X145599260Y-121163666D02*
X145465926Y-121163666D01*
X145465926Y-121163666D02*
X145399260Y-121197000D01*
X145399260Y-121197000D02*
X145365926Y-121230333D01*
X145365926Y-121230333D02*
X145332593Y-121297000D01*
X125285593Y-137356000D02*
X124952260Y-137589333D01*
X125285593Y-137756000D02*
X124585593Y-137756000D01*
X124585593Y-137756000D02*
X124585593Y-137489333D01*
X124585593Y-137489333D02*
X124618926Y-137422667D01*
X124618926Y-137422667D02*
X124652260Y-137389333D01*
X124652260Y-137389333D02*
X124718926Y-137356000D01*
X124718926Y-137356000D02*
X124818926Y-137356000D01*
X124818926Y-137356000D02*
X124885593Y-137389333D01*
X124885593Y-137389333D02*
X124918926Y-137422667D01*
X124918926Y-137422667D02*
X124952260Y-137489333D01*
X124952260Y-137489333D02*
X124952260Y-137756000D01*
X124652260Y-137089333D02*
X124618926Y-137056000D01*
X124618926Y-137056000D02*
X124585593Y-136989333D01*
X124585593Y-136989333D02*
X124585593Y-136822667D01*
X124585593Y-136822667D02*
X124618926Y-136756000D01*
X124618926Y-136756000D02*
X124652260Y-136722667D01*
X124652260Y-136722667D02*
X124718926Y-136689333D01*
X124718926Y-136689333D02*
X124785593Y-136689333D01*
X124785593Y-136689333D02*
X124885593Y-136722667D01*
X124885593Y-136722667D02*
X125285593Y-137122667D01*
X125285593Y-137122667D02*
X125285593Y-136689333D01*
X124585593Y-136056000D02*
X124585593Y-136389333D01*
X124585593Y-136389333D02*
X124918926Y-136422666D01*
X124918926Y-136422666D02*
X124885593Y-136389333D01*
X124885593Y-136389333D02*
X124852260Y-136322666D01*
X124852260Y-136322666D02*
X124852260Y-136156000D01*
X124852260Y-136156000D02*
X124885593Y-136089333D01*
X124885593Y-136089333D02*
X124918926Y-136056000D01*
X124918926Y-136056000D02*
X124985593Y-136022666D01*
X124985593Y-136022666D02*
X125152260Y-136022666D01*
X125152260Y-136022666D02*
X125218926Y-136056000D01*
X125218926Y-136056000D02*
X125252260Y-136089333D01*
X125252260Y-136089333D02*
X125285593Y-136156000D01*
X125285593Y-136156000D02*
X125285593Y-136322666D01*
X125285593Y-136322666D02*
X125252260Y-136389333D01*
X125252260Y-136389333D02*
X125218926Y-136422666D01*
X124136999Y-146427926D02*
X124103666Y-146461260D01*
X124103666Y-146461260D02*
X124003666Y-146494593D01*
X124003666Y-146494593D02*
X123936999Y-146494593D01*
X123936999Y-146494593D02*
X123836999Y-146461260D01*
X123836999Y-146461260D02*
X123770333Y-146394593D01*
X123770333Y-146394593D02*
X123736999Y-146327926D01*
X123736999Y-146327926D02*
X123703666Y-146194593D01*
X123703666Y-146194593D02*
X123703666Y-146094593D01*
X123703666Y-146094593D02*
X123736999Y-145961260D01*
X123736999Y-145961260D02*
X123770333Y-145894593D01*
X123770333Y-145894593D02*
X123836999Y-145827926D01*
X123836999Y-145827926D02*
X123936999Y-145794593D01*
X123936999Y-145794593D02*
X124003666Y-145794593D01*
X124003666Y-145794593D02*
X124103666Y-145827926D01*
X124103666Y-145827926D02*
X124136999Y-145861260D01*
X124736999Y-146027926D02*
X124736999Y-146494593D01*
X124570333Y-145761260D02*
X124403666Y-146261260D01*
X124403666Y-146261260D02*
X124836999Y-146261260D01*
X125437000Y-145794593D02*
X125103666Y-145794593D01*
X125103666Y-145794593D02*
X125070333Y-146127926D01*
X125070333Y-146127926D02*
X125103666Y-146094593D01*
X125103666Y-146094593D02*
X125170333Y-146061260D01*
X125170333Y-146061260D02*
X125337000Y-146061260D01*
X125337000Y-146061260D02*
X125403666Y-146094593D01*
X125403666Y-146094593D02*
X125437000Y-146127926D01*
X125437000Y-146127926D02*
X125470333Y-146194593D01*
X125470333Y-146194593D02*
X125470333Y-146361260D01*
X125470333Y-146361260D02*
X125437000Y-146427926D01*
X125437000Y-146427926D02*
X125403666Y-146461260D01*
X125403666Y-146461260D02*
X125337000Y-146494593D01*
X125337000Y-146494593D02*
X125170333Y-146494593D01*
X125170333Y-146494593D02*
X125103666Y-146461260D01*
X125103666Y-146461260D02*
X125070333Y-146427926D01*
X150298999Y-152904926D02*
X150265666Y-152938260D01*
X150265666Y-152938260D02*
X150165666Y-152971593D01*
X150165666Y-152971593D02*
X150098999Y-152971593D01*
X150098999Y-152971593D02*
X149998999Y-152938260D01*
X149998999Y-152938260D02*
X149932333Y-152871593D01*
X149932333Y-152871593D02*
X149898999Y-152804926D01*
X149898999Y-152804926D02*
X149865666Y-152671593D01*
X149865666Y-152671593D02*
X149865666Y-152571593D01*
X149865666Y-152571593D02*
X149898999Y-152438260D01*
X149898999Y-152438260D02*
X149932333Y-152371593D01*
X149932333Y-152371593D02*
X149998999Y-152304926D01*
X149998999Y-152304926D02*
X150098999Y-152271593D01*
X150098999Y-152271593D02*
X150165666Y-152271593D01*
X150165666Y-152271593D02*
X150265666Y-152304926D01*
X150265666Y-152304926D02*
X150298999Y-152338260D01*
X150532333Y-152271593D02*
X150965666Y-152271593D01*
X150965666Y-152271593D02*
X150732333Y-152538260D01*
X150732333Y-152538260D02*
X150832333Y-152538260D01*
X150832333Y-152538260D02*
X150898999Y-152571593D01*
X150898999Y-152571593D02*
X150932333Y-152604926D01*
X150932333Y-152604926D02*
X150965666Y-152671593D01*
X150965666Y-152671593D02*
X150965666Y-152838260D01*
X150965666Y-152838260D02*
X150932333Y-152904926D01*
X150932333Y-152904926D02*
X150898999Y-152938260D01*
X150898999Y-152938260D02*
X150832333Y-152971593D01*
X150832333Y-152971593D02*
X150632333Y-152971593D01*
X150632333Y-152971593D02*
X150565666Y-152938260D01*
X150565666Y-152938260D02*
X150532333Y-152904926D01*
X151199000Y-152271593D02*
X151632333Y-152271593D01*
X151632333Y-152271593D02*
X151399000Y-152538260D01*
X151399000Y-152538260D02*
X151499000Y-152538260D01*
X151499000Y-152538260D02*
X151565666Y-152571593D01*
X151565666Y-152571593D02*
X151599000Y-152604926D01*
X151599000Y-152604926D02*
X151632333Y-152671593D01*
X151632333Y-152671593D02*
X151632333Y-152838260D01*
X151632333Y-152838260D02*
X151599000Y-152904926D01*
X151599000Y-152904926D02*
X151565666Y-152938260D01*
X151565666Y-152938260D02*
X151499000Y-152971593D01*
X151499000Y-152971593D02*
X151299000Y-152971593D01*
X151299000Y-152971593D02*
X151232333Y-152938260D01*
X151232333Y-152938260D02*
X151199000Y-152904926D01*
X107118999Y-121662926D02*
X107085666Y-121696260D01*
X107085666Y-121696260D02*
X106985666Y-121729593D01*
X106985666Y-121729593D02*
X106918999Y-121729593D01*
X106918999Y-121729593D02*
X106818999Y-121696260D01*
X106818999Y-121696260D02*
X106752333Y-121629593D01*
X106752333Y-121629593D02*
X106718999Y-121562926D01*
X106718999Y-121562926D02*
X106685666Y-121429593D01*
X106685666Y-121429593D02*
X106685666Y-121329593D01*
X106685666Y-121329593D02*
X106718999Y-121196260D01*
X106718999Y-121196260D02*
X106752333Y-121129593D01*
X106752333Y-121129593D02*
X106818999Y-121062926D01*
X106818999Y-121062926D02*
X106918999Y-121029593D01*
X106918999Y-121029593D02*
X106985666Y-121029593D01*
X106985666Y-121029593D02*
X107085666Y-121062926D01*
X107085666Y-121062926D02*
X107118999Y-121096260D01*
X107385666Y-121096260D02*
X107418999Y-121062926D01*
X107418999Y-121062926D02*
X107485666Y-121029593D01*
X107485666Y-121029593D02*
X107652333Y-121029593D01*
X107652333Y-121029593D02*
X107718999Y-121062926D01*
X107718999Y-121062926D02*
X107752333Y-121096260D01*
X107752333Y-121096260D02*
X107785666Y-121162926D01*
X107785666Y-121162926D02*
X107785666Y-121229593D01*
X107785666Y-121229593D02*
X107752333Y-121329593D01*
X107752333Y-121329593D02*
X107352333Y-121729593D01*
X107352333Y-121729593D02*
X107785666Y-121729593D01*
X108452333Y-121729593D02*
X108052333Y-121729593D01*
X108252333Y-121729593D02*
X108252333Y-121029593D01*
X108252333Y-121029593D02*
X108185666Y-121129593D01*
X108185666Y-121129593D02*
X108119000Y-121196260D01*
X108119000Y-121196260D02*
X108052333Y-121229593D01*
X121469999Y-158305593D02*
X121236666Y-157972260D01*
X121069999Y-158305593D02*
X121069999Y-157605593D01*
X121069999Y-157605593D02*
X121336666Y-157605593D01*
X121336666Y-157605593D02*
X121403333Y-157638926D01*
X121403333Y-157638926D02*
X121436666Y-157672260D01*
X121436666Y-157672260D02*
X121469999Y-157738926D01*
X121469999Y-157738926D02*
X121469999Y-157838926D01*
X121469999Y-157838926D02*
X121436666Y-157905593D01*
X121436666Y-157905593D02*
X121403333Y-157938926D01*
X121403333Y-157938926D02*
X121336666Y-157972260D01*
X121336666Y-157972260D02*
X121069999Y-157972260D01*
X121736666Y-157672260D02*
X121769999Y-157638926D01*
X121769999Y-157638926D02*
X121836666Y-157605593D01*
X121836666Y-157605593D02*
X122003333Y-157605593D01*
X122003333Y-157605593D02*
X122069999Y-157638926D01*
X122069999Y-157638926D02*
X122103333Y-157672260D01*
X122103333Y-157672260D02*
X122136666Y-157738926D01*
X122136666Y-157738926D02*
X122136666Y-157805593D01*
X122136666Y-157805593D02*
X122103333Y-157905593D01*
X122103333Y-157905593D02*
X121703333Y-158305593D01*
X121703333Y-158305593D02*
X122136666Y-158305593D01*
X122803333Y-158305593D02*
X122403333Y-158305593D01*
X122603333Y-158305593D02*
X122603333Y-157605593D01*
X122603333Y-157605593D02*
X122536666Y-157705593D01*
X122536666Y-157705593D02*
X122470000Y-157772260D01*
X122470000Y-157772260D02*
X122403333Y-157805593D01*
X124136999Y-119249926D02*
X124103666Y-119283260D01*
X124103666Y-119283260D02*
X124003666Y-119316593D01*
X124003666Y-119316593D02*
X123936999Y-119316593D01*
X123936999Y-119316593D02*
X123836999Y-119283260D01*
X123836999Y-119283260D02*
X123770333Y-119216593D01*
X123770333Y-119216593D02*
X123736999Y-119149926D01*
X123736999Y-119149926D02*
X123703666Y-119016593D01*
X123703666Y-119016593D02*
X123703666Y-118916593D01*
X123703666Y-118916593D02*
X123736999Y-118783260D01*
X123736999Y-118783260D02*
X123770333Y-118716593D01*
X123770333Y-118716593D02*
X123836999Y-118649926D01*
X123836999Y-118649926D02*
X123936999Y-118616593D01*
X123936999Y-118616593D02*
X124003666Y-118616593D01*
X124003666Y-118616593D02*
X124103666Y-118649926D01*
X124103666Y-118649926D02*
X124136999Y-118683260D01*
X124736999Y-118849926D02*
X124736999Y-119316593D01*
X124570333Y-118583260D02*
X124403666Y-119083260D01*
X124403666Y-119083260D02*
X124836999Y-119083260D01*
X125037000Y-118616593D02*
X125470333Y-118616593D01*
X125470333Y-118616593D02*
X125237000Y-118883260D01*
X125237000Y-118883260D02*
X125337000Y-118883260D01*
X125337000Y-118883260D02*
X125403666Y-118916593D01*
X125403666Y-118916593D02*
X125437000Y-118949926D01*
X125437000Y-118949926D02*
X125470333Y-119016593D01*
X125470333Y-119016593D02*
X125470333Y-119183260D01*
X125470333Y-119183260D02*
X125437000Y-119249926D01*
X125437000Y-119249926D02*
X125403666Y-119283260D01*
X125403666Y-119283260D02*
X125337000Y-119316593D01*
X125337000Y-119316593D02*
X125137000Y-119316593D01*
X125137000Y-119316593D02*
X125070333Y-119283260D01*
X125070333Y-119283260D02*
X125037000Y-119249926D01*
X163948333Y-154241593D02*
X163948333Y-153541593D01*
X163948333Y-153541593D02*
X164115000Y-153541593D01*
X164115000Y-153541593D02*
X164215000Y-153574926D01*
X164215000Y-153574926D02*
X164281667Y-153641593D01*
X164281667Y-153641593D02*
X164315000Y-153708260D01*
X164315000Y-153708260D02*
X164348333Y-153841593D01*
X164348333Y-153841593D02*
X164348333Y-153941593D01*
X164348333Y-153941593D02*
X164315000Y-154074926D01*
X164315000Y-154074926D02*
X164281667Y-154141593D01*
X164281667Y-154141593D02*
X164215000Y-154208260D01*
X164215000Y-154208260D02*
X164115000Y-154241593D01*
X164115000Y-154241593D02*
X163948333Y-154241593D01*
X164615000Y-153608260D02*
X164648333Y-153574926D01*
X164648333Y-153574926D02*
X164715000Y-153541593D01*
X164715000Y-153541593D02*
X164881667Y-153541593D01*
X164881667Y-153541593D02*
X164948333Y-153574926D01*
X164948333Y-153574926D02*
X164981667Y-153608260D01*
X164981667Y-153608260D02*
X165015000Y-153674926D01*
X165015000Y-153674926D02*
X165015000Y-153741593D01*
X165015000Y-153741593D02*
X164981667Y-153841593D01*
X164981667Y-153841593D02*
X164581667Y-154241593D01*
X164581667Y-154241593D02*
X165015000Y-154241593D01*
X150425999Y-120900926D02*
X150392666Y-120934260D01*
X150392666Y-120934260D02*
X150292666Y-120967593D01*
X150292666Y-120967593D02*
X150225999Y-120967593D01*
X150225999Y-120967593D02*
X150125999Y-120934260D01*
X150125999Y-120934260D02*
X150059333Y-120867593D01*
X150059333Y-120867593D02*
X150025999Y-120800926D01*
X150025999Y-120800926D02*
X149992666Y-120667593D01*
X149992666Y-120667593D02*
X149992666Y-120567593D01*
X149992666Y-120567593D02*
X150025999Y-120434260D01*
X150025999Y-120434260D02*
X150059333Y-120367593D01*
X150059333Y-120367593D02*
X150125999Y-120300926D01*
X150125999Y-120300926D02*
X150225999Y-120267593D01*
X150225999Y-120267593D02*
X150292666Y-120267593D01*
X150292666Y-120267593D02*
X150392666Y-120300926D01*
X150392666Y-120300926D02*
X150425999Y-120334260D01*
X150692666Y-120334260D02*
X150725999Y-120300926D01*
X150725999Y-120300926D02*
X150792666Y-120267593D01*
X150792666Y-120267593D02*
X150959333Y-120267593D01*
X150959333Y-120267593D02*
X151025999Y-120300926D01*
X151025999Y-120300926D02*
X151059333Y-120334260D01*
X151059333Y-120334260D02*
X151092666Y-120400926D01*
X151092666Y-120400926D02*
X151092666Y-120467593D01*
X151092666Y-120467593D02*
X151059333Y-120567593D01*
X151059333Y-120567593D02*
X150659333Y-120967593D01*
X150659333Y-120967593D02*
X151092666Y-120967593D01*
X151692666Y-120267593D02*
X151559333Y-120267593D01*
X151559333Y-120267593D02*
X151492666Y-120300926D01*
X151492666Y-120300926D02*
X151459333Y-120334260D01*
X151459333Y-120334260D02*
X151392666Y-120434260D01*
X151392666Y-120434260D02*
X151359333Y-120567593D01*
X151359333Y-120567593D02*
X151359333Y-120834260D01*
X151359333Y-120834260D02*
X151392666Y-120900926D01*
X151392666Y-120900926D02*
X151426000Y-120934260D01*
X151426000Y-120934260D02*
X151492666Y-120967593D01*
X151492666Y-120967593D02*
X151626000Y-120967593D01*
X151626000Y-120967593D02*
X151692666Y-120934260D01*
X151692666Y-120934260D02*
X151726000Y-120900926D01*
X151726000Y-120900926D02*
X151759333Y-120834260D01*
X151759333Y-120834260D02*
X151759333Y-120667593D01*
X151759333Y-120667593D02*
X151726000Y-120600926D01*
X151726000Y-120600926D02*
X151692666Y-120567593D01*
X151692666Y-120567593D02*
X151626000Y-120534260D01*
X151626000Y-120534260D02*
X151492666Y-120534260D01*
X151492666Y-120534260D02*
X151426000Y-120567593D01*
X151426000Y-120567593D02*
X151392666Y-120600926D01*
X151392666Y-120600926D02*
X151359333Y-120667593D01*
X147951926Y-122497000D02*
X147985260Y-122530333D01*
X147985260Y-122530333D02*
X148018593Y-122630333D01*
X148018593Y-122630333D02*
X148018593Y-122697000D01*
X148018593Y-122697000D02*
X147985260Y-122797000D01*
X147985260Y-122797000D02*
X147918593Y-122863667D01*
X147918593Y-122863667D02*
X147851926Y-122897000D01*
X147851926Y-122897000D02*
X147718593Y-122930333D01*
X147718593Y-122930333D02*
X147618593Y-122930333D01*
X147618593Y-122930333D02*
X147485260Y-122897000D01*
X147485260Y-122897000D02*
X147418593Y-122863667D01*
X147418593Y-122863667D02*
X147351926Y-122797000D01*
X147351926Y-122797000D02*
X147318593Y-122697000D01*
X147318593Y-122697000D02*
X147318593Y-122630333D01*
X147318593Y-122630333D02*
X147351926Y-122530333D01*
X147351926Y-122530333D02*
X147385260Y-122497000D01*
X147385260Y-122230333D02*
X147351926Y-122197000D01*
X147351926Y-122197000D02*
X147318593Y-122130333D01*
X147318593Y-122130333D02*
X147318593Y-121963667D01*
X147318593Y-121963667D02*
X147351926Y-121897000D01*
X147351926Y-121897000D02*
X147385260Y-121863667D01*
X147385260Y-121863667D02*
X147451926Y-121830333D01*
X147451926Y-121830333D02*
X147518593Y-121830333D01*
X147518593Y-121830333D02*
X147618593Y-121863667D01*
X147618593Y-121863667D02*
X148018593Y-122263667D01*
X148018593Y-122263667D02*
X148018593Y-121830333D01*
X147551926Y-121230333D02*
X148018593Y-121230333D01*
X147285260Y-121397000D02*
X147785260Y-121563666D01*
X147785260Y-121563666D02*
X147785260Y-121130333D01*
X169160926Y-120480000D02*
X169194260Y-120513333D01*
X169194260Y-120513333D02*
X169227593Y-120613333D01*
X169227593Y-120613333D02*
X169227593Y-120680000D01*
X169227593Y-120680000D02*
X169194260Y-120780000D01*
X169194260Y-120780000D02*
X169127593Y-120846667D01*
X169127593Y-120846667D02*
X169060926Y-120880000D01*
X169060926Y-120880000D02*
X168927593Y-120913333D01*
X168927593Y-120913333D02*
X168827593Y-120913333D01*
X168827593Y-120913333D02*
X168694260Y-120880000D01*
X168694260Y-120880000D02*
X168627593Y-120846667D01*
X168627593Y-120846667D02*
X168560926Y-120780000D01*
X168560926Y-120780000D02*
X168527593Y-120680000D01*
X168527593Y-120680000D02*
X168527593Y-120613333D01*
X168527593Y-120613333D02*
X168560926Y-120513333D01*
X168560926Y-120513333D02*
X168594260Y-120480000D01*
X169227593Y-119813333D02*
X169227593Y-120213333D01*
X169227593Y-120013333D02*
X168527593Y-120013333D01*
X168527593Y-120013333D02*
X168627593Y-120080000D01*
X168627593Y-120080000D02*
X168694260Y-120146667D01*
X168694260Y-120146667D02*
X168727593Y-120213333D01*
X168527593Y-119580000D02*
X168527593Y-119113333D01*
X168527593Y-119113333D02*
X169227593Y-119413333D01*
X153920926Y-128212000D02*
X153954260Y-128245333D01*
X153954260Y-128245333D02*
X153987593Y-128345333D01*
X153987593Y-128345333D02*
X153987593Y-128412000D01*
X153987593Y-128412000D02*
X153954260Y-128512000D01*
X153954260Y-128512000D02*
X153887593Y-128578667D01*
X153887593Y-128578667D02*
X153820926Y-128612000D01*
X153820926Y-128612000D02*
X153687593Y-128645333D01*
X153687593Y-128645333D02*
X153587593Y-128645333D01*
X153587593Y-128645333D02*
X153454260Y-128612000D01*
X153454260Y-128612000D02*
X153387593Y-128578667D01*
X153387593Y-128578667D02*
X153320926Y-128512000D01*
X153320926Y-128512000D02*
X153287593Y-128412000D01*
X153287593Y-128412000D02*
X153287593Y-128345333D01*
X153287593Y-128345333D02*
X153320926Y-128245333D01*
X153320926Y-128245333D02*
X153354260Y-128212000D01*
X153987593Y-127545333D02*
X153987593Y-127945333D01*
X153987593Y-127745333D02*
X153287593Y-127745333D01*
X153287593Y-127745333D02*
X153387593Y-127812000D01*
X153387593Y-127812000D02*
X153454260Y-127878667D01*
X153454260Y-127878667D02*
X153487593Y-127945333D01*
X153354260Y-127278666D02*
X153320926Y-127245333D01*
X153320926Y-127245333D02*
X153287593Y-127178666D01*
X153287593Y-127178666D02*
X153287593Y-127012000D01*
X153287593Y-127012000D02*
X153320926Y-126945333D01*
X153320926Y-126945333D02*
X153354260Y-126912000D01*
X153354260Y-126912000D02*
X153420926Y-126878666D01*
X153420926Y-126878666D02*
X153487593Y-126878666D01*
X153487593Y-126878666D02*
X153587593Y-126912000D01*
X153587593Y-126912000D02*
X153987593Y-127312000D01*
X153987593Y-127312000D02*
X153987593Y-126878666D01*
X158172999Y-120011926D02*
X158139666Y-120045260D01*
X158139666Y-120045260D02*
X158039666Y-120078593D01*
X158039666Y-120078593D02*
X157972999Y-120078593D01*
X157972999Y-120078593D02*
X157872999Y-120045260D01*
X157872999Y-120045260D02*
X157806333Y-119978593D01*
X157806333Y-119978593D02*
X157772999Y-119911926D01*
X157772999Y-119911926D02*
X157739666Y-119778593D01*
X157739666Y-119778593D02*
X157739666Y-119678593D01*
X157739666Y-119678593D02*
X157772999Y-119545260D01*
X157772999Y-119545260D02*
X157806333Y-119478593D01*
X157806333Y-119478593D02*
X157872999Y-119411926D01*
X157872999Y-119411926D02*
X157972999Y-119378593D01*
X157972999Y-119378593D02*
X158039666Y-119378593D01*
X158039666Y-119378593D02*
X158139666Y-119411926D01*
X158139666Y-119411926D02*
X158172999Y-119445260D01*
X158839666Y-120078593D02*
X158439666Y-120078593D01*
X158639666Y-120078593D02*
X158639666Y-119378593D01*
X158639666Y-119378593D02*
X158572999Y-119478593D01*
X158572999Y-119478593D02*
X158506333Y-119545260D01*
X158506333Y-119545260D02*
X158439666Y-119578593D01*
X159439666Y-119378593D02*
X159306333Y-119378593D01*
X159306333Y-119378593D02*
X159239666Y-119411926D01*
X159239666Y-119411926D02*
X159206333Y-119445260D01*
X159206333Y-119445260D02*
X159139666Y-119545260D01*
X159139666Y-119545260D02*
X159106333Y-119678593D01*
X159106333Y-119678593D02*
X159106333Y-119945260D01*
X159106333Y-119945260D02*
X159139666Y-120011926D01*
X159139666Y-120011926D02*
X159173000Y-120045260D01*
X159173000Y-120045260D02*
X159239666Y-120078593D01*
X159239666Y-120078593D02*
X159373000Y-120078593D01*
X159373000Y-120078593D02*
X159439666Y-120045260D01*
X159439666Y-120045260D02*
X159473000Y-120011926D01*
X159473000Y-120011926D02*
X159506333Y-119945260D01*
X159506333Y-119945260D02*
X159506333Y-119778593D01*
X159506333Y-119778593D02*
X159473000Y-119711926D01*
X159473000Y-119711926D02*
X159439666Y-119678593D01*
X159439666Y-119678593D02*
X159373000Y-119645260D01*
X159373000Y-119645260D02*
X159239666Y-119645260D01*
X159239666Y-119645260D02*
X159173000Y-119678593D01*
X159173000Y-119678593D02*
X159139666Y-119711926D01*
X159139666Y-119711926D02*
X159106333Y-119778593D01*
X143313999Y-152777926D02*
X143280666Y-152811260D01*
X143280666Y-152811260D02*
X143180666Y-152844593D01*
X143180666Y-152844593D02*
X143113999Y-152844593D01*
X143113999Y-152844593D02*
X143013999Y-152811260D01*
X143013999Y-152811260D02*
X142947333Y-152744593D01*
X142947333Y-152744593D02*
X142913999Y-152677926D01*
X142913999Y-152677926D02*
X142880666Y-152544593D01*
X142880666Y-152544593D02*
X142880666Y-152444593D01*
X142880666Y-152444593D02*
X142913999Y-152311260D01*
X142913999Y-152311260D02*
X142947333Y-152244593D01*
X142947333Y-152244593D02*
X143013999Y-152177926D01*
X143013999Y-152177926D02*
X143113999Y-152144593D01*
X143113999Y-152144593D02*
X143180666Y-152144593D01*
X143180666Y-152144593D02*
X143280666Y-152177926D01*
X143280666Y-152177926D02*
X143313999Y-152211260D01*
X143980666Y-152844593D02*
X143580666Y-152844593D01*
X143780666Y-152844593D02*
X143780666Y-152144593D01*
X143780666Y-152144593D02*
X143713999Y-152244593D01*
X143713999Y-152244593D02*
X143647333Y-152311260D01*
X143647333Y-152311260D02*
X143580666Y-152344593D01*
X144414000Y-152144593D02*
X144480666Y-152144593D01*
X144480666Y-152144593D02*
X144547333Y-152177926D01*
X144547333Y-152177926D02*
X144580666Y-152211260D01*
X144580666Y-152211260D02*
X144614000Y-152277926D01*
X144614000Y-152277926D02*
X144647333Y-152411260D01*
X144647333Y-152411260D02*
X144647333Y-152577926D01*
X144647333Y-152577926D02*
X144614000Y-152711260D01*
X144614000Y-152711260D02*
X144580666Y-152777926D01*
X144580666Y-152777926D02*
X144547333Y-152811260D01*
X144547333Y-152811260D02*
X144480666Y-152844593D01*
X144480666Y-152844593D02*
X144414000Y-152844593D01*
X144414000Y-152844593D02*
X144347333Y-152811260D01*
X144347333Y-152811260D02*
X144314000Y-152777926D01*
X144314000Y-152777926D02*
X144280666Y-152711260D01*
X144280666Y-152711260D02*
X144247333Y-152577926D01*
X144247333Y-152577926D02*
X144247333Y-152411260D01*
X144247333Y-152411260D02*
X144280666Y-152277926D01*
X144280666Y-152277926D02*
X144314000Y-152211260D01*
X144314000Y-152211260D02*
X144347333Y-152177926D01*
X144347333Y-152177926D02*
X144414000Y-152144593D01*
X167255926Y-150310000D02*
X167289260Y-150343333D01*
X167289260Y-150343333D02*
X167322593Y-150443333D01*
X167322593Y-150443333D02*
X167322593Y-150510000D01*
X167322593Y-150510000D02*
X167289260Y-150610000D01*
X167289260Y-150610000D02*
X167222593Y-150676667D01*
X167222593Y-150676667D02*
X167155926Y-150710000D01*
X167155926Y-150710000D02*
X167022593Y-150743333D01*
X167022593Y-150743333D02*
X166922593Y-150743333D01*
X166922593Y-150743333D02*
X166789260Y-150710000D01*
X166789260Y-150710000D02*
X166722593Y-150676667D01*
X166722593Y-150676667D02*
X166655926Y-150610000D01*
X166655926Y-150610000D02*
X166622593Y-150510000D01*
X166622593Y-150510000D02*
X166622593Y-150443333D01*
X166622593Y-150443333D02*
X166655926Y-150343333D01*
X166655926Y-150343333D02*
X166689260Y-150310000D01*
X166689260Y-150043333D02*
X166655926Y-150010000D01*
X166655926Y-150010000D02*
X166622593Y-149943333D01*
X166622593Y-149943333D02*
X166622593Y-149776667D01*
X166622593Y-149776667D02*
X166655926Y-149710000D01*
X166655926Y-149710000D02*
X166689260Y-149676667D01*
X166689260Y-149676667D02*
X166755926Y-149643333D01*
X166755926Y-149643333D02*
X166822593Y-149643333D01*
X166822593Y-149643333D02*
X166922593Y-149676667D01*
X166922593Y-149676667D02*
X167322593Y-150076667D01*
X167322593Y-150076667D02*
X167322593Y-149643333D01*
X166622593Y-149210000D02*
X166622593Y-149143333D01*
X166622593Y-149143333D02*
X166655926Y-149076666D01*
X166655926Y-149076666D02*
X166689260Y-149043333D01*
X166689260Y-149043333D02*
X166755926Y-149010000D01*
X166755926Y-149010000D02*
X166889260Y-148976666D01*
X166889260Y-148976666D02*
X167055926Y-148976666D01*
X167055926Y-148976666D02*
X167189260Y-149010000D01*
X167189260Y-149010000D02*
X167255926Y-149043333D01*
X167255926Y-149043333D02*
X167289260Y-149076666D01*
X167289260Y-149076666D02*
X167322593Y-149143333D01*
X167322593Y-149143333D02*
X167322593Y-149210000D01*
X167322593Y-149210000D02*
X167289260Y-149276666D01*
X167289260Y-149276666D02*
X167255926Y-149310000D01*
X167255926Y-149310000D02*
X167189260Y-149343333D01*
X167189260Y-149343333D02*
X167055926Y-149376666D01*
X167055926Y-149376666D02*
X166889260Y-149376666D01*
X166889260Y-149376666D02*
X166755926Y-149343333D01*
X166755926Y-149343333D02*
X166689260Y-149310000D01*
X166689260Y-149310000D02*
X166655926Y-149276666D01*
X166655926Y-149276666D02*
X166622593Y-149210000D01*
X150416666Y-113117593D02*
X150416666Y-113684260D01*
X150416666Y-113684260D02*
X150450000Y-113750926D01*
X150450000Y-113750926D02*
X150483333Y-113784260D01*
X150483333Y-113784260D02*
X150550000Y-113817593D01*
X150550000Y-113817593D02*
X150683333Y-113817593D01*
X150683333Y-113817593D02*
X150750000Y-113784260D01*
X150750000Y-113784260D02*
X150783333Y-113750926D01*
X150783333Y-113750926D02*
X150816666Y-113684260D01*
X150816666Y-113684260D02*
X150816666Y-113117593D01*
X151083333Y-113117593D02*
X151516666Y-113117593D01*
X151516666Y-113117593D02*
X151283333Y-113384260D01*
X151283333Y-113384260D02*
X151383333Y-113384260D01*
X151383333Y-113384260D02*
X151449999Y-113417593D01*
X151449999Y-113417593D02*
X151483333Y-113450926D01*
X151483333Y-113450926D02*
X151516666Y-113517593D01*
X151516666Y-113517593D02*
X151516666Y-113684260D01*
X151516666Y-113684260D02*
X151483333Y-113750926D01*
X151483333Y-113750926D02*
X151449999Y-113784260D01*
X151449999Y-113784260D02*
X151383333Y-113817593D01*
X151383333Y-113817593D02*
X151183333Y-113817593D01*
X151183333Y-113817593D02*
X151116666Y-113784260D01*
X151116666Y-113784260D02*
X151083333Y-113750926D01*
X170364999Y-147764593D02*
X170131666Y-147431260D01*
X169964999Y-147764593D02*
X169964999Y-147064593D01*
X169964999Y-147064593D02*
X170231666Y-147064593D01*
X170231666Y-147064593D02*
X170298333Y-147097926D01*
X170298333Y-147097926D02*
X170331666Y-147131260D01*
X170331666Y-147131260D02*
X170364999Y-147197926D01*
X170364999Y-147197926D02*
X170364999Y-147297926D01*
X170364999Y-147297926D02*
X170331666Y-147364593D01*
X170331666Y-147364593D02*
X170298333Y-147397926D01*
X170298333Y-147397926D02*
X170231666Y-147431260D01*
X170231666Y-147431260D02*
X169964999Y-147431260D01*
X171031666Y-147764593D02*
X170631666Y-147764593D01*
X170831666Y-147764593D02*
X170831666Y-147064593D01*
X170831666Y-147064593D02*
X170764999Y-147164593D01*
X170764999Y-147164593D02*
X170698333Y-147231260D01*
X170698333Y-147231260D02*
X170631666Y-147264593D01*
X171698333Y-147764593D02*
X171298333Y-147764593D01*
X171498333Y-147764593D02*
X171498333Y-147064593D01*
X171498333Y-147064593D02*
X171431666Y-147164593D01*
X171431666Y-147164593D02*
X171365000Y-147231260D01*
X171365000Y-147231260D02*
X171298333Y-147264593D01*
X114103999Y-158238926D02*
X114070666Y-158272260D01*
X114070666Y-158272260D02*
X113970666Y-158305593D01*
X113970666Y-158305593D02*
X113903999Y-158305593D01*
X113903999Y-158305593D02*
X113803999Y-158272260D01*
X113803999Y-158272260D02*
X113737333Y-158205593D01*
X113737333Y-158205593D02*
X113703999Y-158138926D01*
X113703999Y-158138926D02*
X113670666Y-158005593D01*
X113670666Y-158005593D02*
X113670666Y-157905593D01*
X113670666Y-157905593D02*
X113703999Y-157772260D01*
X113703999Y-157772260D02*
X113737333Y-157705593D01*
X113737333Y-157705593D02*
X113803999Y-157638926D01*
X113803999Y-157638926D02*
X113903999Y-157605593D01*
X113903999Y-157605593D02*
X113970666Y-157605593D01*
X113970666Y-157605593D02*
X114070666Y-157638926D01*
X114070666Y-157638926D02*
X114103999Y-157672260D01*
X114337333Y-157605593D02*
X114770666Y-157605593D01*
X114770666Y-157605593D02*
X114537333Y-157872260D01*
X114537333Y-157872260D02*
X114637333Y-157872260D01*
X114637333Y-157872260D02*
X114703999Y-157905593D01*
X114703999Y-157905593D02*
X114737333Y-157938926D01*
X114737333Y-157938926D02*
X114770666Y-158005593D01*
X114770666Y-158005593D02*
X114770666Y-158172260D01*
X114770666Y-158172260D02*
X114737333Y-158238926D01*
X114737333Y-158238926D02*
X114703999Y-158272260D01*
X114703999Y-158272260D02*
X114637333Y-158305593D01*
X114637333Y-158305593D02*
X114437333Y-158305593D01*
X114437333Y-158305593D02*
X114370666Y-158272260D01*
X114370666Y-158272260D02*
X114337333Y-158238926D01*
X115170666Y-157905593D02*
X115104000Y-157872260D01*
X115104000Y-157872260D02*
X115070666Y-157838926D01*
X115070666Y-157838926D02*
X115037333Y-157772260D01*
X115037333Y-157772260D02*
X115037333Y-157738926D01*
X115037333Y-157738926D02*
X115070666Y-157672260D01*
X115070666Y-157672260D02*
X115104000Y-157638926D01*
X115104000Y-157638926D02*
X115170666Y-157605593D01*
X115170666Y-157605593D02*
X115304000Y-157605593D01*
X115304000Y-157605593D02*
X115370666Y-157638926D01*
X115370666Y-157638926D02*
X115404000Y-157672260D01*
X115404000Y-157672260D02*
X115437333Y-157738926D01*
X115437333Y-157738926D02*
X115437333Y-157772260D01*
X115437333Y-157772260D02*
X115404000Y-157838926D01*
X115404000Y-157838926D02*
X115370666Y-157872260D01*
X115370666Y-157872260D02*
X115304000Y-157905593D01*
X115304000Y-157905593D02*
X115170666Y-157905593D01*
X115170666Y-157905593D02*
X115104000Y-157938926D01*
X115104000Y-157938926D02*
X115070666Y-157972260D01*
X115070666Y-157972260D02*
X115037333Y-158038926D01*
X115037333Y-158038926D02*
X115037333Y-158172260D01*
X115037333Y-158172260D02*
X115070666Y-158238926D01*
X115070666Y-158238926D02*
X115104000Y-158272260D01*
X115104000Y-158272260D02*
X115170666Y-158305593D01*
X115170666Y-158305593D02*
X115304000Y-158305593D01*
X115304000Y-158305593D02*
X115370666Y-158272260D01*
X115370666Y-158272260D02*
X115404000Y-158238926D01*
X115404000Y-158238926D02*
X115437333Y-158172260D01*
X115437333Y-158172260D02*
X115437333Y-158038926D01*
X115437333Y-158038926D02*
X115404000Y-157972260D01*
X115404000Y-157972260D02*
X115370666Y-157938926D01*
X115370666Y-157938926D02*
X115304000Y-157905593D01*
X172711333Y-118173593D02*
X172711333Y-117473593D01*
X172711333Y-117473593D02*
X172878000Y-117473593D01*
X172878000Y-117473593D02*
X172978000Y-117506926D01*
X172978000Y-117506926D02*
X173044667Y-117573593D01*
X173044667Y-117573593D02*
X173078000Y-117640260D01*
X173078000Y-117640260D02*
X173111333Y-117773593D01*
X173111333Y-117773593D02*
X173111333Y-117873593D01*
X173111333Y-117873593D02*
X173078000Y-118006926D01*
X173078000Y-118006926D02*
X173044667Y-118073593D01*
X173044667Y-118073593D02*
X172978000Y-118140260D01*
X172978000Y-118140260D02*
X172878000Y-118173593D01*
X172878000Y-118173593D02*
X172711333Y-118173593D01*
X173344667Y-117473593D02*
X173778000Y-117473593D01*
X173778000Y-117473593D02*
X173544667Y-117740260D01*
X173544667Y-117740260D02*
X173644667Y-117740260D01*
X173644667Y-117740260D02*
X173711333Y-117773593D01*
X173711333Y-117773593D02*
X173744667Y-117806926D01*
X173744667Y-117806926D02*
X173778000Y-117873593D01*
X173778000Y-117873593D02*
X173778000Y-118040260D01*
X173778000Y-118040260D02*
X173744667Y-118106926D01*
X173744667Y-118106926D02*
X173711333Y-118140260D01*
X173711333Y-118140260D02*
X173644667Y-118173593D01*
X173644667Y-118173593D02*
X173444667Y-118173593D01*
X173444667Y-118173593D02*
X173378000Y-118140260D01*
X173378000Y-118140260D02*
X173344667Y-118106926D01*
X125285593Y-151834000D02*
X124952260Y-152067333D01*
X125285593Y-152234000D02*
X124585593Y-152234000D01*
X124585593Y-152234000D02*
X124585593Y-151967333D01*
X124585593Y-151967333D02*
X124618926Y-151900667D01*
X124618926Y-151900667D02*
X124652260Y-151867333D01*
X124652260Y-151867333D02*
X124718926Y-151834000D01*
X124718926Y-151834000D02*
X124818926Y-151834000D01*
X124818926Y-151834000D02*
X124885593Y-151867333D01*
X124885593Y-151867333D02*
X124918926Y-151900667D01*
X124918926Y-151900667D02*
X124952260Y-151967333D01*
X124952260Y-151967333D02*
X124952260Y-152234000D01*
X124652260Y-151567333D02*
X124618926Y-151534000D01*
X124618926Y-151534000D02*
X124585593Y-151467333D01*
X124585593Y-151467333D02*
X124585593Y-151300667D01*
X124585593Y-151300667D02*
X124618926Y-151234000D01*
X124618926Y-151234000D02*
X124652260Y-151200667D01*
X124652260Y-151200667D02*
X124718926Y-151167333D01*
X124718926Y-151167333D02*
X124785593Y-151167333D01*
X124785593Y-151167333D02*
X124885593Y-151200667D01*
X124885593Y-151200667D02*
X125285593Y-151600667D01*
X125285593Y-151600667D02*
X125285593Y-151167333D01*
X124585593Y-150567333D02*
X124585593Y-150700666D01*
X124585593Y-150700666D02*
X124618926Y-150767333D01*
X124618926Y-150767333D02*
X124652260Y-150800666D01*
X124652260Y-150800666D02*
X124752260Y-150867333D01*
X124752260Y-150867333D02*
X124885593Y-150900666D01*
X124885593Y-150900666D02*
X125152260Y-150900666D01*
X125152260Y-150900666D02*
X125218926Y-150867333D01*
X125218926Y-150867333D02*
X125252260Y-150834000D01*
X125252260Y-150834000D02*
X125285593Y-150767333D01*
X125285593Y-150767333D02*
X125285593Y-150634000D01*
X125285593Y-150634000D02*
X125252260Y-150567333D01*
X125252260Y-150567333D02*
X125218926Y-150534000D01*
X125218926Y-150534000D02*
X125152260Y-150500666D01*
X125152260Y-150500666D02*
X124985593Y-150500666D01*
X124985593Y-150500666D02*
X124918926Y-150534000D01*
X124918926Y-150534000D02*
X124885593Y-150567333D01*
X124885593Y-150567333D02*
X124852260Y-150634000D01*
X124852260Y-150634000D02*
X124852260Y-150767333D01*
X124852260Y-150767333D02*
X124885593Y-150834000D01*
X124885593Y-150834000D02*
X124918926Y-150867333D01*
X124918926Y-150867333D02*
X124985593Y-150900666D01*
X161347999Y-144395926D02*
X161314666Y-144429260D01*
X161314666Y-144429260D02*
X161214666Y-144462593D01*
X161214666Y-144462593D02*
X161147999Y-144462593D01*
X161147999Y-144462593D02*
X161047999Y-144429260D01*
X161047999Y-144429260D02*
X160981333Y-144362593D01*
X160981333Y-144362593D02*
X160947999Y-144295926D01*
X160947999Y-144295926D02*
X160914666Y-144162593D01*
X160914666Y-144162593D02*
X160914666Y-144062593D01*
X160914666Y-144062593D02*
X160947999Y-143929260D01*
X160947999Y-143929260D02*
X160981333Y-143862593D01*
X160981333Y-143862593D02*
X161047999Y-143795926D01*
X161047999Y-143795926D02*
X161147999Y-143762593D01*
X161147999Y-143762593D02*
X161214666Y-143762593D01*
X161214666Y-143762593D02*
X161314666Y-143795926D01*
X161314666Y-143795926D02*
X161347999Y-143829260D01*
X161581333Y-143762593D02*
X162014666Y-143762593D01*
X162014666Y-143762593D02*
X161781333Y-144029260D01*
X161781333Y-144029260D02*
X161881333Y-144029260D01*
X161881333Y-144029260D02*
X161947999Y-144062593D01*
X161947999Y-144062593D02*
X161981333Y-144095926D01*
X161981333Y-144095926D02*
X162014666Y-144162593D01*
X162014666Y-144162593D02*
X162014666Y-144329260D01*
X162014666Y-144329260D02*
X161981333Y-144395926D01*
X161981333Y-144395926D02*
X161947999Y-144429260D01*
X161947999Y-144429260D02*
X161881333Y-144462593D01*
X161881333Y-144462593D02*
X161681333Y-144462593D01*
X161681333Y-144462593D02*
X161614666Y-144429260D01*
X161614666Y-144429260D02*
X161581333Y-144395926D01*
X162614666Y-143762593D02*
X162481333Y-143762593D01*
X162481333Y-143762593D02*
X162414666Y-143795926D01*
X162414666Y-143795926D02*
X162381333Y-143829260D01*
X162381333Y-143829260D02*
X162314666Y-143929260D01*
X162314666Y-143929260D02*
X162281333Y-144062593D01*
X162281333Y-144062593D02*
X162281333Y-144329260D01*
X162281333Y-144329260D02*
X162314666Y-144395926D01*
X162314666Y-144395926D02*
X162348000Y-144429260D01*
X162348000Y-144429260D02*
X162414666Y-144462593D01*
X162414666Y-144462593D02*
X162548000Y-144462593D01*
X162548000Y-144462593D02*
X162614666Y-144429260D01*
X162614666Y-144429260D02*
X162648000Y-144395926D01*
X162648000Y-144395926D02*
X162681333Y-144329260D01*
X162681333Y-144329260D02*
X162681333Y-144162593D01*
X162681333Y-144162593D02*
X162648000Y-144095926D01*
X162648000Y-144095926D02*
X162614666Y-144062593D01*
X162614666Y-144062593D02*
X162548000Y-144029260D01*
X162548000Y-144029260D02*
X162414666Y-144029260D01*
X162414666Y-144029260D02*
X162348000Y-144062593D01*
X162348000Y-144062593D02*
X162314666Y-144095926D01*
X162314666Y-144095926D02*
X162281333Y-144162593D01*
X140331926Y-136387666D02*
X140365260Y-136420999D01*
X140365260Y-136420999D02*
X140398593Y-136520999D01*
X140398593Y-136520999D02*
X140398593Y-136587666D01*
X140398593Y-136587666D02*
X140365260Y-136687666D01*
X140365260Y-136687666D02*
X140298593Y-136754333D01*
X140298593Y-136754333D02*
X140231926Y-136787666D01*
X140231926Y-136787666D02*
X140098593Y-136820999D01*
X140098593Y-136820999D02*
X139998593Y-136820999D01*
X139998593Y-136820999D02*
X139865260Y-136787666D01*
X139865260Y-136787666D02*
X139798593Y-136754333D01*
X139798593Y-136754333D02*
X139731926Y-136687666D01*
X139731926Y-136687666D02*
X139698593Y-136587666D01*
X139698593Y-136587666D02*
X139698593Y-136520999D01*
X139698593Y-136520999D02*
X139731926Y-136420999D01*
X139731926Y-136420999D02*
X139765260Y-136387666D01*
X139698593Y-135787666D02*
X139698593Y-135920999D01*
X139698593Y-135920999D02*
X139731926Y-135987666D01*
X139731926Y-135987666D02*
X139765260Y-136020999D01*
X139765260Y-136020999D02*
X139865260Y-136087666D01*
X139865260Y-136087666D02*
X139998593Y-136120999D01*
X139998593Y-136120999D02*
X140265260Y-136120999D01*
X140265260Y-136120999D02*
X140331926Y-136087666D01*
X140331926Y-136087666D02*
X140365260Y-136054333D01*
X140365260Y-136054333D02*
X140398593Y-135987666D01*
X140398593Y-135987666D02*
X140398593Y-135854333D01*
X140398593Y-135854333D02*
X140365260Y-135787666D01*
X140365260Y-135787666D02*
X140331926Y-135754333D01*
X140331926Y-135754333D02*
X140265260Y-135720999D01*
X140265260Y-135720999D02*
X140098593Y-135720999D01*
X140098593Y-135720999D02*
X140031926Y-135754333D01*
X140031926Y-135754333D02*
X139998593Y-135787666D01*
X139998593Y-135787666D02*
X139965260Y-135854333D01*
X139965260Y-135854333D02*
X139965260Y-135987666D01*
X139965260Y-135987666D02*
X139998593Y-136054333D01*
X139998593Y-136054333D02*
X140031926Y-136087666D01*
X140031926Y-136087666D02*
X140098593Y-136120999D01*
X125285593Y-123386000D02*
X124952260Y-123619333D01*
X125285593Y-123786000D02*
X124585593Y-123786000D01*
X124585593Y-123786000D02*
X124585593Y-123519333D01*
X124585593Y-123519333D02*
X124618926Y-123452667D01*
X124618926Y-123452667D02*
X124652260Y-123419333D01*
X124652260Y-123419333D02*
X124718926Y-123386000D01*
X124718926Y-123386000D02*
X124818926Y-123386000D01*
X124818926Y-123386000D02*
X124885593Y-123419333D01*
X124885593Y-123419333D02*
X124918926Y-123452667D01*
X124918926Y-123452667D02*
X124952260Y-123519333D01*
X124952260Y-123519333D02*
X124952260Y-123786000D01*
X124652260Y-123119333D02*
X124618926Y-123086000D01*
X124618926Y-123086000D02*
X124585593Y-123019333D01*
X124585593Y-123019333D02*
X124585593Y-122852667D01*
X124585593Y-122852667D02*
X124618926Y-122786000D01*
X124618926Y-122786000D02*
X124652260Y-122752667D01*
X124652260Y-122752667D02*
X124718926Y-122719333D01*
X124718926Y-122719333D02*
X124785593Y-122719333D01*
X124785593Y-122719333D02*
X124885593Y-122752667D01*
X124885593Y-122752667D02*
X125285593Y-123152667D01*
X125285593Y-123152667D02*
X125285593Y-122719333D01*
X124818926Y-122119333D02*
X125285593Y-122119333D01*
X124552260Y-122286000D02*
X125052260Y-122452666D01*
X125052260Y-122452666D02*
X125052260Y-122019333D01*
X165284999Y-114998593D02*
X165051666Y-114665260D01*
X164884999Y-114998593D02*
X164884999Y-114298593D01*
X164884999Y-114298593D02*
X165151666Y-114298593D01*
X165151666Y-114298593D02*
X165218333Y-114331926D01*
X165218333Y-114331926D02*
X165251666Y-114365260D01*
X165251666Y-114365260D02*
X165284999Y-114431926D01*
X165284999Y-114431926D02*
X165284999Y-114531926D01*
X165284999Y-114531926D02*
X165251666Y-114598593D01*
X165251666Y-114598593D02*
X165218333Y-114631926D01*
X165218333Y-114631926D02*
X165151666Y-114665260D01*
X165151666Y-114665260D02*
X164884999Y-114665260D01*
X165551666Y-114365260D02*
X165584999Y-114331926D01*
X165584999Y-114331926D02*
X165651666Y-114298593D01*
X165651666Y-114298593D02*
X165818333Y-114298593D01*
X165818333Y-114298593D02*
X165884999Y-114331926D01*
X165884999Y-114331926D02*
X165918333Y-114365260D01*
X165918333Y-114365260D02*
X165951666Y-114431926D01*
X165951666Y-114431926D02*
X165951666Y-114498593D01*
X165951666Y-114498593D02*
X165918333Y-114598593D01*
X165918333Y-114598593D02*
X165518333Y-114998593D01*
X165518333Y-114998593D02*
X165951666Y-114998593D01*
X166351666Y-114598593D02*
X166285000Y-114565260D01*
X166285000Y-114565260D02*
X166251666Y-114531926D01*
X166251666Y-114531926D02*
X166218333Y-114465260D01*
X166218333Y-114465260D02*
X166218333Y-114431926D01*
X166218333Y-114431926D02*
X166251666Y-114365260D01*
X166251666Y-114365260D02*
X166285000Y-114331926D01*
X166285000Y-114331926D02*
X166351666Y-114298593D01*
X166351666Y-114298593D02*
X166485000Y-114298593D01*
X166485000Y-114298593D02*
X166551666Y-114331926D01*
X166551666Y-114331926D02*
X166585000Y-114365260D01*
X166585000Y-114365260D02*
X166618333Y-114431926D01*
X166618333Y-114431926D02*
X166618333Y-114465260D01*
X166618333Y-114465260D02*
X166585000Y-114531926D01*
X166585000Y-114531926D02*
X166551666Y-114565260D01*
X166551666Y-114565260D02*
X166485000Y-114598593D01*
X166485000Y-114598593D02*
X166351666Y-114598593D01*
X166351666Y-114598593D02*
X166285000Y-114631926D01*
X166285000Y-114631926D02*
X166251666Y-114665260D01*
X166251666Y-114665260D02*
X166218333Y-114731926D01*
X166218333Y-114731926D02*
X166218333Y-114865260D01*
X166218333Y-114865260D02*
X166251666Y-114931926D01*
X166251666Y-114931926D02*
X166285000Y-114965260D01*
X166285000Y-114965260D02*
X166351666Y-114998593D01*
X166351666Y-114998593D02*
X166485000Y-114998593D01*
X166485000Y-114998593D02*
X166551666Y-114965260D01*
X166551666Y-114965260D02*
X166585000Y-114931926D01*
X166585000Y-114931926D02*
X166618333Y-114865260D01*
X166618333Y-114865260D02*
X166618333Y-114731926D01*
X166618333Y-114731926D02*
X166585000Y-114665260D01*
X166585000Y-114665260D02*
X166551666Y-114631926D01*
X166551666Y-114631926D02*
X166485000Y-114598593D01*
X154362999Y-151320593D02*
X154129666Y-150987260D01*
X153962999Y-151320593D02*
X153962999Y-150620593D01*
X153962999Y-150620593D02*
X154229666Y-150620593D01*
X154229666Y-150620593D02*
X154296333Y-150653926D01*
X154296333Y-150653926D02*
X154329666Y-150687260D01*
X154329666Y-150687260D02*
X154362999Y-150753926D01*
X154362999Y-150753926D02*
X154362999Y-150853926D01*
X154362999Y-150853926D02*
X154329666Y-150920593D01*
X154329666Y-150920593D02*
X154296333Y-150953926D01*
X154296333Y-150953926D02*
X154229666Y-150987260D01*
X154229666Y-150987260D02*
X153962999Y-150987260D01*
X155029666Y-151320593D02*
X154629666Y-151320593D01*
X154829666Y-151320593D02*
X154829666Y-150620593D01*
X154829666Y-150620593D02*
X154762999Y-150720593D01*
X154762999Y-150720593D02*
X154696333Y-150787260D01*
X154696333Y-150787260D02*
X154629666Y-150820593D01*
X155263000Y-150620593D02*
X155729666Y-150620593D01*
X155729666Y-150620593D02*
X155429666Y-151320593D01*
X104129000Y-120775593D02*
X104529000Y-120775593D01*
X104329000Y-121475593D02*
X104329000Y-120775593D01*
X104762333Y-121475593D02*
X104762333Y-120775593D01*
X104762333Y-121108926D02*
X105162333Y-121108926D01*
X105162333Y-121475593D02*
X105162333Y-120775593D01*
X105862333Y-121475593D02*
X105462333Y-121475593D01*
X105662333Y-121475593D02*
X105662333Y-120775593D01*
X105662333Y-120775593D02*
X105595666Y-120875593D01*
X105595666Y-120875593D02*
X105529000Y-120942260D01*
X105529000Y-120942260D02*
X105462333Y-120975593D01*
X149282999Y-159130926D02*
X149249666Y-159164260D01*
X149249666Y-159164260D02*
X149149666Y-159197593D01*
X149149666Y-159197593D02*
X149082999Y-159197593D01*
X149082999Y-159197593D02*
X148982999Y-159164260D01*
X148982999Y-159164260D02*
X148916333Y-159097593D01*
X148916333Y-159097593D02*
X148882999Y-159030926D01*
X148882999Y-159030926D02*
X148849666Y-158897593D01*
X148849666Y-158897593D02*
X148849666Y-158797593D01*
X148849666Y-158797593D02*
X148882999Y-158664260D01*
X148882999Y-158664260D02*
X148916333Y-158597593D01*
X148916333Y-158597593D02*
X148982999Y-158530926D01*
X148982999Y-158530926D02*
X149082999Y-158497593D01*
X149082999Y-158497593D02*
X149149666Y-158497593D01*
X149149666Y-158497593D02*
X149249666Y-158530926D01*
X149249666Y-158530926D02*
X149282999Y-158564260D01*
X149949666Y-159197593D02*
X149549666Y-159197593D01*
X149749666Y-159197593D02*
X149749666Y-158497593D01*
X149749666Y-158497593D02*
X149682999Y-158597593D01*
X149682999Y-158597593D02*
X149616333Y-158664260D01*
X149616333Y-158664260D02*
X149549666Y-158697593D01*
X150616333Y-159197593D02*
X150216333Y-159197593D01*
X150416333Y-159197593D02*
X150416333Y-158497593D01*
X150416333Y-158497593D02*
X150349666Y-158597593D01*
X150349666Y-158597593D02*
X150283000Y-158664260D01*
X150283000Y-158664260D02*
X150216333Y-158697593D01*
X159762926Y-114580000D02*
X159796260Y-114613333D01*
X159796260Y-114613333D02*
X159829593Y-114713333D01*
X159829593Y-114713333D02*
X159829593Y-114780000D01*
X159829593Y-114780000D02*
X159796260Y-114880000D01*
X159796260Y-114880000D02*
X159729593Y-114946667D01*
X159729593Y-114946667D02*
X159662926Y-114980000D01*
X159662926Y-114980000D02*
X159529593Y-115013333D01*
X159529593Y-115013333D02*
X159429593Y-115013333D01*
X159429593Y-115013333D02*
X159296260Y-114980000D01*
X159296260Y-114980000D02*
X159229593Y-114946667D01*
X159229593Y-114946667D02*
X159162926Y-114880000D01*
X159162926Y-114880000D02*
X159129593Y-114780000D01*
X159129593Y-114780000D02*
X159129593Y-114713333D01*
X159129593Y-114713333D02*
X159162926Y-114613333D01*
X159162926Y-114613333D02*
X159196260Y-114580000D01*
X159829593Y-113913333D02*
X159829593Y-114313333D01*
X159829593Y-114113333D02*
X159129593Y-114113333D01*
X159129593Y-114113333D02*
X159229593Y-114180000D01*
X159229593Y-114180000D02*
X159296260Y-114246667D01*
X159296260Y-114246667D02*
X159329593Y-114313333D01*
X159362926Y-113313333D02*
X159829593Y-113313333D01*
X159096260Y-113480000D02*
X159596260Y-113646666D01*
X159596260Y-113646666D02*
X159596260Y-113213333D01*
X133413593Y-115004000D02*
X133080260Y-115237333D01*
X133413593Y-115404000D02*
X132713593Y-115404000D01*
X132713593Y-115404000D02*
X132713593Y-115137333D01*
X132713593Y-115137333D02*
X132746926Y-115070667D01*
X132746926Y-115070667D02*
X132780260Y-115037333D01*
X132780260Y-115037333D02*
X132846926Y-115004000D01*
X132846926Y-115004000D02*
X132946926Y-115004000D01*
X132946926Y-115004000D02*
X133013593Y-115037333D01*
X133013593Y-115037333D02*
X133046926Y-115070667D01*
X133046926Y-115070667D02*
X133080260Y-115137333D01*
X133080260Y-115137333D02*
X133080260Y-115404000D01*
X132780260Y-114737333D02*
X132746926Y-114704000D01*
X132746926Y-114704000D02*
X132713593Y-114637333D01*
X132713593Y-114637333D02*
X132713593Y-114470667D01*
X132713593Y-114470667D02*
X132746926Y-114404000D01*
X132746926Y-114404000D02*
X132780260Y-114370667D01*
X132780260Y-114370667D02*
X132846926Y-114337333D01*
X132846926Y-114337333D02*
X132913593Y-114337333D01*
X132913593Y-114337333D02*
X133013593Y-114370667D01*
X133013593Y-114370667D02*
X133413593Y-114770667D01*
X133413593Y-114770667D02*
X133413593Y-114337333D01*
X132713593Y-114104000D02*
X132713593Y-113670666D01*
X132713593Y-113670666D02*
X132980260Y-113904000D01*
X132980260Y-113904000D02*
X132980260Y-113804000D01*
X132980260Y-113804000D02*
X133013593Y-113737333D01*
X133013593Y-113737333D02*
X133046926Y-113704000D01*
X133046926Y-113704000D02*
X133113593Y-113670666D01*
X133113593Y-113670666D02*
X133280260Y-113670666D01*
X133280260Y-113670666D02*
X133346926Y-113704000D01*
X133346926Y-113704000D02*
X133380260Y-113737333D01*
X133380260Y-113737333D02*
X133413593Y-113804000D01*
X133413593Y-113804000D02*
X133413593Y-114004000D01*
X133413593Y-114004000D02*
X133380260Y-114070666D01*
X133380260Y-114070666D02*
X133346926Y-114104000D01*
X144776926Y-119576000D02*
X144810260Y-119609333D01*
X144810260Y-119609333D02*
X144843593Y-119709333D01*
X144843593Y-119709333D02*
X144843593Y-119776000D01*
X144843593Y-119776000D02*
X144810260Y-119876000D01*
X144810260Y-119876000D02*
X144743593Y-119942667D01*
X144743593Y-119942667D02*
X144676926Y-119976000D01*
X144676926Y-119976000D02*
X144543593Y-120009333D01*
X144543593Y-120009333D02*
X144443593Y-120009333D01*
X144443593Y-120009333D02*
X144310260Y-119976000D01*
X144310260Y-119976000D02*
X144243593Y-119942667D01*
X144243593Y-119942667D02*
X144176926Y-119876000D01*
X144176926Y-119876000D02*
X144143593Y-119776000D01*
X144143593Y-119776000D02*
X144143593Y-119709333D01*
X144143593Y-119709333D02*
X144176926Y-119609333D01*
X144176926Y-119609333D02*
X144210260Y-119576000D01*
X144210260Y-119309333D02*
X144176926Y-119276000D01*
X144176926Y-119276000D02*
X144143593Y-119209333D01*
X144143593Y-119209333D02*
X144143593Y-119042667D01*
X144143593Y-119042667D02*
X144176926Y-118976000D01*
X144176926Y-118976000D02*
X144210260Y-118942667D01*
X144210260Y-118942667D02*
X144276926Y-118909333D01*
X144276926Y-118909333D02*
X144343593Y-118909333D01*
X144343593Y-118909333D02*
X144443593Y-118942667D01*
X144443593Y-118942667D02*
X144843593Y-119342667D01*
X144843593Y-119342667D02*
X144843593Y-118909333D01*
X144843593Y-118576000D02*
X144843593Y-118442666D01*
X144843593Y-118442666D02*
X144810260Y-118376000D01*
X144810260Y-118376000D02*
X144776926Y-118342666D01*
X144776926Y-118342666D02*
X144676926Y-118276000D01*
X144676926Y-118276000D02*
X144543593Y-118242666D01*
X144543593Y-118242666D02*
X144276926Y-118242666D01*
X144276926Y-118242666D02*
X144210260Y-118276000D01*
X144210260Y-118276000D02*
X144176926Y-118309333D01*
X144176926Y-118309333D02*
X144143593Y-118376000D01*
X144143593Y-118376000D02*
X144143593Y-118509333D01*
X144143593Y-118509333D02*
X144176926Y-118576000D01*
X144176926Y-118576000D02*
X144210260Y-118609333D01*
X144210260Y-118609333D02*
X144276926Y-118642666D01*
X144276926Y-118642666D02*
X144443593Y-118642666D01*
X144443593Y-118642666D02*
X144510260Y-118609333D01*
X144510260Y-118609333D02*
X144543593Y-118576000D01*
X144543593Y-118576000D02*
X144576926Y-118509333D01*
X144576926Y-118509333D02*
X144576926Y-118376000D01*
X144576926Y-118376000D02*
X144543593Y-118309333D01*
X144543593Y-118309333D02*
X144510260Y-118276000D01*
X144510260Y-118276000D02*
X144443593Y-118242666D01*
X163966666Y-129767593D02*
X163966666Y-130334260D01*
X163966666Y-130334260D02*
X164000000Y-130400926D01*
X164000000Y-130400926D02*
X164033333Y-130434260D01*
X164033333Y-130434260D02*
X164100000Y-130467593D01*
X164100000Y-130467593D02*
X164233333Y-130467593D01*
X164233333Y-130467593D02*
X164300000Y-130434260D01*
X164300000Y-130434260D02*
X164333333Y-130400926D01*
X164333333Y-130400926D02*
X164366666Y-130334260D01*
X164366666Y-130334260D02*
X164366666Y-129767593D01*
X164666666Y-129834260D02*
X164699999Y-129800926D01*
X164699999Y-129800926D02*
X164766666Y-129767593D01*
X164766666Y-129767593D02*
X164933333Y-129767593D01*
X164933333Y-129767593D02*
X164999999Y-129800926D01*
X164999999Y-129800926D02*
X165033333Y-129834260D01*
X165033333Y-129834260D02*
X165066666Y-129900926D01*
X165066666Y-129900926D02*
X165066666Y-129967593D01*
X165066666Y-129967593D02*
X165033333Y-130067593D01*
X165033333Y-130067593D02*
X164633333Y-130467593D01*
X164633333Y-130467593D02*
X165066666Y-130467593D01*
X161474999Y-114871593D02*
X161241666Y-114538260D01*
X161074999Y-114871593D02*
X161074999Y-114171593D01*
X161074999Y-114171593D02*
X161341666Y-114171593D01*
X161341666Y-114171593D02*
X161408333Y-114204926D01*
X161408333Y-114204926D02*
X161441666Y-114238260D01*
X161441666Y-114238260D02*
X161474999Y-114304926D01*
X161474999Y-114304926D02*
X161474999Y-114404926D01*
X161474999Y-114404926D02*
X161441666Y-114471593D01*
X161441666Y-114471593D02*
X161408333Y-114504926D01*
X161408333Y-114504926D02*
X161341666Y-114538260D01*
X161341666Y-114538260D02*
X161074999Y-114538260D01*
X161741666Y-114238260D02*
X161774999Y-114204926D01*
X161774999Y-114204926D02*
X161841666Y-114171593D01*
X161841666Y-114171593D02*
X162008333Y-114171593D01*
X162008333Y-114171593D02*
X162074999Y-114204926D01*
X162074999Y-114204926D02*
X162108333Y-114238260D01*
X162108333Y-114238260D02*
X162141666Y-114304926D01*
X162141666Y-114304926D02*
X162141666Y-114371593D01*
X162141666Y-114371593D02*
X162108333Y-114471593D01*
X162108333Y-114471593D02*
X161708333Y-114871593D01*
X161708333Y-114871593D02*
X162141666Y-114871593D01*
X162475000Y-114871593D02*
X162608333Y-114871593D01*
X162608333Y-114871593D02*
X162675000Y-114838260D01*
X162675000Y-114838260D02*
X162708333Y-114804926D01*
X162708333Y-114804926D02*
X162775000Y-114704926D01*
X162775000Y-114704926D02*
X162808333Y-114571593D01*
X162808333Y-114571593D02*
X162808333Y-114304926D01*
X162808333Y-114304926D02*
X162775000Y-114238260D01*
X162775000Y-114238260D02*
X162741666Y-114204926D01*
X162741666Y-114204926D02*
X162675000Y-114171593D01*
X162675000Y-114171593D02*
X162541666Y-114171593D01*
X162541666Y-114171593D02*
X162475000Y-114204926D01*
X162475000Y-114204926D02*
X162441666Y-114238260D01*
X162441666Y-114238260D02*
X162408333Y-114304926D01*
X162408333Y-114304926D02*
X162408333Y-114471593D01*
X162408333Y-114471593D02*
X162441666Y-114538260D01*
X162441666Y-114538260D02*
X162475000Y-114571593D01*
X162475000Y-114571593D02*
X162541666Y-114604926D01*
X162541666Y-114604926D02*
X162675000Y-114604926D01*
X162675000Y-114604926D02*
X162741666Y-114571593D01*
X162741666Y-114571593D02*
X162775000Y-114538260D01*
X162775000Y-114538260D02*
X162808333Y-114471593D01*
X160317593Y-141566666D02*
X159617593Y-141566666D01*
X159617593Y-141566666D02*
X159617593Y-141399999D01*
X159617593Y-141399999D02*
X159650926Y-141299999D01*
X159650926Y-141299999D02*
X159717593Y-141233333D01*
X159717593Y-141233333D02*
X159784260Y-141199999D01*
X159784260Y-141199999D02*
X159917593Y-141166666D01*
X159917593Y-141166666D02*
X160017593Y-141166666D01*
X160017593Y-141166666D02*
X160150926Y-141199999D01*
X160150926Y-141199999D02*
X160217593Y-141233333D01*
X160217593Y-141233333D02*
X160284260Y-141299999D01*
X160284260Y-141299999D02*
X160317593Y-141399999D01*
X160317593Y-141399999D02*
X160317593Y-141566666D01*
X159617593Y-140533333D02*
X159617593Y-140866666D01*
X159617593Y-140866666D02*
X159950926Y-140899999D01*
X159950926Y-140899999D02*
X159917593Y-140866666D01*
X159917593Y-140866666D02*
X159884260Y-140799999D01*
X159884260Y-140799999D02*
X159884260Y-140633333D01*
X159884260Y-140633333D02*
X159917593Y-140566666D01*
X159917593Y-140566666D02*
X159950926Y-140533333D01*
X159950926Y-140533333D02*
X160017593Y-140499999D01*
X160017593Y-140499999D02*
X160184260Y-140499999D01*
X160184260Y-140499999D02*
X160250926Y-140533333D01*
X160250926Y-140533333D02*
X160284260Y-140566666D01*
X160284260Y-140566666D02*
X160317593Y-140633333D01*
X160317593Y-140633333D02*
X160317593Y-140799999D01*
X160317593Y-140799999D02*
X160284260Y-140866666D01*
X160284260Y-140866666D02*
X160250926Y-140899999D01*
X172650999Y-141668593D02*
X172417666Y-141335260D01*
X172250999Y-141668593D02*
X172250999Y-140968593D01*
X172250999Y-140968593D02*
X172517666Y-140968593D01*
X172517666Y-140968593D02*
X172584333Y-141001926D01*
X172584333Y-141001926D02*
X172617666Y-141035260D01*
X172617666Y-141035260D02*
X172650999Y-141101926D01*
X172650999Y-141101926D02*
X172650999Y-141201926D01*
X172650999Y-141201926D02*
X172617666Y-141268593D01*
X172617666Y-141268593D02*
X172584333Y-141301926D01*
X172584333Y-141301926D02*
X172517666Y-141335260D01*
X172517666Y-141335260D02*
X172250999Y-141335260D01*
X173317666Y-141668593D02*
X172917666Y-141668593D01*
X173117666Y-141668593D02*
X173117666Y-140968593D01*
X173117666Y-140968593D02*
X173050999Y-141068593D01*
X173050999Y-141068593D02*
X172984333Y-141135260D01*
X172984333Y-141135260D02*
X172917666Y-141168593D01*
X173751000Y-140968593D02*
X173817666Y-140968593D01*
X173817666Y-140968593D02*
X173884333Y-141001926D01*
X173884333Y-141001926D02*
X173917666Y-141035260D01*
X173917666Y-141035260D02*
X173951000Y-141101926D01*
X173951000Y-141101926D02*
X173984333Y-141235260D01*
X173984333Y-141235260D02*
X173984333Y-141401926D01*
X173984333Y-141401926D02*
X173951000Y-141535260D01*
X173951000Y-141535260D02*
X173917666Y-141601926D01*
X173917666Y-141601926D02*
X173884333Y-141635260D01*
X173884333Y-141635260D02*
X173817666Y-141668593D01*
X173817666Y-141668593D02*
X173751000Y-141668593D01*
X173751000Y-141668593D02*
X173684333Y-141635260D01*
X173684333Y-141635260D02*
X173651000Y-141601926D01*
X173651000Y-141601926D02*
X173617666Y-141535260D01*
X173617666Y-141535260D02*
X173584333Y-141401926D01*
X173584333Y-141401926D02*
X173584333Y-141235260D01*
X173584333Y-141235260D02*
X173617666Y-141101926D01*
X173617666Y-141101926D02*
X173651000Y-141035260D01*
X173651000Y-141035260D02*
X173684333Y-141001926D01*
X173684333Y-141001926D02*
X173751000Y-140968593D01*
X133413593Y-119195000D02*
X133080260Y-119428333D01*
X133413593Y-119595000D02*
X132713593Y-119595000D01*
X132713593Y-119595000D02*
X132713593Y-119328333D01*
X132713593Y-119328333D02*
X132746926Y-119261667D01*
X132746926Y-119261667D02*
X132780260Y-119228333D01*
X132780260Y-119228333D02*
X132846926Y-119195000D01*
X132846926Y-119195000D02*
X132946926Y-119195000D01*
X132946926Y-119195000D02*
X133013593Y-119228333D01*
X133013593Y-119228333D02*
X133046926Y-119261667D01*
X133046926Y-119261667D02*
X133080260Y-119328333D01*
X133080260Y-119328333D02*
X133080260Y-119595000D01*
X132780260Y-118928333D02*
X132746926Y-118895000D01*
X132746926Y-118895000D02*
X132713593Y-118828333D01*
X132713593Y-118828333D02*
X132713593Y-118661667D01*
X132713593Y-118661667D02*
X132746926Y-118595000D01*
X132746926Y-118595000D02*
X132780260Y-118561667D01*
X132780260Y-118561667D02*
X132846926Y-118528333D01*
X132846926Y-118528333D02*
X132913593Y-118528333D01*
X132913593Y-118528333D02*
X133013593Y-118561667D01*
X133013593Y-118561667D02*
X133413593Y-118961667D01*
X133413593Y-118961667D02*
X133413593Y-118528333D01*
X132780260Y-118261666D02*
X132746926Y-118228333D01*
X132746926Y-118228333D02*
X132713593Y-118161666D01*
X132713593Y-118161666D02*
X132713593Y-117995000D01*
X132713593Y-117995000D02*
X132746926Y-117928333D01*
X132746926Y-117928333D02*
X132780260Y-117895000D01*
X132780260Y-117895000D02*
X132846926Y-117861666D01*
X132846926Y-117861666D02*
X132913593Y-117861666D01*
X132913593Y-117861666D02*
X133013593Y-117895000D01*
X133013593Y-117895000D02*
X133413593Y-118295000D01*
X133413593Y-118295000D02*
X133413593Y-117861666D01*
X169174333Y-109724926D02*
X169141000Y-109758260D01*
X169141000Y-109758260D02*
X169041000Y-109791593D01*
X169041000Y-109791593D02*
X168974333Y-109791593D01*
X168974333Y-109791593D02*
X168874333Y-109758260D01*
X168874333Y-109758260D02*
X168807667Y-109691593D01*
X168807667Y-109691593D02*
X168774333Y-109624926D01*
X168774333Y-109624926D02*
X168741000Y-109491593D01*
X168741000Y-109491593D02*
X168741000Y-109391593D01*
X168741000Y-109391593D02*
X168774333Y-109258260D01*
X168774333Y-109258260D02*
X168807667Y-109191593D01*
X168807667Y-109191593D02*
X168874333Y-109124926D01*
X168874333Y-109124926D02*
X168974333Y-109091593D01*
X168974333Y-109091593D02*
X169041000Y-109091593D01*
X169041000Y-109091593D02*
X169141000Y-109124926D01*
X169141000Y-109124926D02*
X169174333Y-109158260D01*
X169407667Y-109091593D02*
X169874333Y-109091593D01*
X169874333Y-109091593D02*
X169574333Y-109791593D01*
X152076999Y-124650593D02*
X151843666Y-124317260D01*
X151676999Y-124650593D02*
X151676999Y-123950593D01*
X151676999Y-123950593D02*
X151943666Y-123950593D01*
X151943666Y-123950593D02*
X152010333Y-123983926D01*
X152010333Y-123983926D02*
X152043666Y-124017260D01*
X152043666Y-124017260D02*
X152076999Y-124083926D01*
X152076999Y-124083926D02*
X152076999Y-124183926D01*
X152076999Y-124183926D02*
X152043666Y-124250593D01*
X152043666Y-124250593D02*
X152010333Y-124283926D01*
X152010333Y-124283926D02*
X151943666Y-124317260D01*
X151943666Y-124317260D02*
X151676999Y-124317260D01*
X152743666Y-124650593D02*
X152343666Y-124650593D01*
X152543666Y-124650593D02*
X152543666Y-123950593D01*
X152543666Y-123950593D02*
X152476999Y-124050593D01*
X152476999Y-124050593D02*
X152410333Y-124117260D01*
X152410333Y-124117260D02*
X152343666Y-124150593D01*
X153010333Y-124017260D02*
X153043666Y-123983926D01*
X153043666Y-123983926D02*
X153110333Y-123950593D01*
X153110333Y-123950593D02*
X153277000Y-123950593D01*
X153277000Y-123950593D02*
X153343666Y-123983926D01*
X153343666Y-123983926D02*
X153377000Y-124017260D01*
X153377000Y-124017260D02*
X153410333Y-124083926D01*
X153410333Y-124083926D02*
X153410333Y-124150593D01*
X153410333Y-124150593D02*
X153377000Y-124250593D01*
X153377000Y-124250593D02*
X152977000Y-124650593D01*
X152977000Y-124650593D02*
X153410333Y-124650593D01*
X124136999Y-132330926D02*
X124103666Y-132364260D01*
X124103666Y-132364260D02*
X124003666Y-132397593D01*
X124003666Y-132397593D02*
X123936999Y-132397593D01*
X123936999Y-132397593D02*
X123836999Y-132364260D01*
X123836999Y-132364260D02*
X123770333Y-132297593D01*
X123770333Y-132297593D02*
X123736999Y-132230926D01*
X123736999Y-132230926D02*
X123703666Y-132097593D01*
X123703666Y-132097593D02*
X123703666Y-131997593D01*
X123703666Y-131997593D02*
X123736999Y-131864260D01*
X123736999Y-131864260D02*
X123770333Y-131797593D01*
X123770333Y-131797593D02*
X123836999Y-131730926D01*
X123836999Y-131730926D02*
X123936999Y-131697593D01*
X123936999Y-131697593D02*
X124003666Y-131697593D01*
X124003666Y-131697593D02*
X124103666Y-131730926D01*
X124103666Y-131730926D02*
X124136999Y-131764260D01*
X124736999Y-131930926D02*
X124736999Y-132397593D01*
X124570333Y-131664260D02*
X124403666Y-132164260D01*
X124403666Y-132164260D02*
X124836999Y-132164260D01*
X125470333Y-132397593D02*
X125070333Y-132397593D01*
X125270333Y-132397593D02*
X125270333Y-131697593D01*
X125270333Y-131697593D02*
X125203666Y-131797593D01*
X125203666Y-131797593D02*
X125137000Y-131864260D01*
X125137000Y-131864260D02*
X125070333Y-131897593D01*
X128139926Y-133800000D02*
X128173260Y-133833333D01*
X128173260Y-133833333D02*
X128206593Y-133933333D01*
X128206593Y-133933333D02*
X128206593Y-134000000D01*
X128206593Y-134000000D02*
X128173260Y-134100000D01*
X128173260Y-134100000D02*
X128106593Y-134166667D01*
X128106593Y-134166667D02*
X128039926Y-134200000D01*
X128039926Y-134200000D02*
X127906593Y-134233333D01*
X127906593Y-134233333D02*
X127806593Y-134233333D01*
X127806593Y-134233333D02*
X127673260Y-134200000D01*
X127673260Y-134200000D02*
X127606593Y-134166667D01*
X127606593Y-134166667D02*
X127539926Y-134100000D01*
X127539926Y-134100000D02*
X127506593Y-134000000D01*
X127506593Y-134000000D02*
X127506593Y-133933333D01*
X127506593Y-133933333D02*
X127539926Y-133833333D01*
X127539926Y-133833333D02*
X127573260Y-133800000D01*
X127739926Y-133200000D02*
X128206593Y-133200000D01*
X127473260Y-133366667D02*
X127973260Y-133533333D01*
X127973260Y-133533333D02*
X127973260Y-133100000D01*
X127573260Y-132866666D02*
X127539926Y-132833333D01*
X127539926Y-132833333D02*
X127506593Y-132766666D01*
X127506593Y-132766666D02*
X127506593Y-132600000D01*
X127506593Y-132600000D02*
X127539926Y-132533333D01*
X127539926Y-132533333D02*
X127573260Y-132500000D01*
X127573260Y-132500000D02*
X127639926Y-132466666D01*
X127639926Y-132466666D02*
X127706593Y-132466666D01*
X127706593Y-132466666D02*
X127806593Y-132500000D01*
X127806593Y-132500000D02*
X128206593Y-132900000D01*
X128206593Y-132900000D02*
X128206593Y-132466666D01*
X137410926Y-114877000D02*
X137444260Y-114910333D01*
X137444260Y-114910333D02*
X137477593Y-115010333D01*
X137477593Y-115010333D02*
X137477593Y-115077000D01*
X137477593Y-115077000D02*
X137444260Y-115177000D01*
X137444260Y-115177000D02*
X137377593Y-115243667D01*
X137377593Y-115243667D02*
X137310926Y-115277000D01*
X137310926Y-115277000D02*
X137177593Y-115310333D01*
X137177593Y-115310333D02*
X137077593Y-115310333D01*
X137077593Y-115310333D02*
X136944260Y-115277000D01*
X136944260Y-115277000D02*
X136877593Y-115243667D01*
X136877593Y-115243667D02*
X136810926Y-115177000D01*
X136810926Y-115177000D02*
X136777593Y-115077000D01*
X136777593Y-115077000D02*
X136777593Y-115010333D01*
X136777593Y-115010333D02*
X136810926Y-114910333D01*
X136810926Y-114910333D02*
X136844260Y-114877000D01*
X136844260Y-114610333D02*
X136810926Y-114577000D01*
X136810926Y-114577000D02*
X136777593Y-114510333D01*
X136777593Y-114510333D02*
X136777593Y-114343667D01*
X136777593Y-114343667D02*
X136810926Y-114277000D01*
X136810926Y-114277000D02*
X136844260Y-114243667D01*
X136844260Y-114243667D02*
X136910926Y-114210333D01*
X136910926Y-114210333D02*
X136977593Y-114210333D01*
X136977593Y-114210333D02*
X137077593Y-114243667D01*
X137077593Y-114243667D02*
X137477593Y-114643667D01*
X137477593Y-114643667D02*
X137477593Y-114210333D01*
X136777593Y-113577000D02*
X136777593Y-113910333D01*
X136777593Y-113910333D02*
X137110926Y-113943666D01*
X137110926Y-113943666D02*
X137077593Y-113910333D01*
X137077593Y-113910333D02*
X137044260Y-113843666D01*
X137044260Y-113843666D02*
X137044260Y-113677000D01*
X137044260Y-113677000D02*
X137077593Y-113610333D01*
X137077593Y-113610333D02*
X137110926Y-113577000D01*
X137110926Y-113577000D02*
X137177593Y-113543666D01*
X137177593Y-113543666D02*
X137344260Y-113543666D01*
X137344260Y-113543666D02*
X137410926Y-113577000D01*
X137410926Y-113577000D02*
X137444260Y-113610333D01*
X137444260Y-113610333D02*
X137477593Y-113677000D01*
X137477593Y-113677000D02*
X137477593Y-113843666D01*
X137477593Y-113843666D02*
X137444260Y-113910333D01*
X137444260Y-113910333D02*
X137410926Y-113943666D01*
X131800666Y-105281593D02*
X131800666Y-105848260D01*
X131800666Y-105848260D02*
X131834000Y-105914926D01*
X131834000Y-105914926D02*
X131867333Y-105948260D01*
X131867333Y-105948260D02*
X131934000Y-105981593D01*
X131934000Y-105981593D02*
X132067333Y-105981593D01*
X132067333Y-105981593D02*
X132134000Y-105948260D01*
X132134000Y-105948260D02*
X132167333Y-105914926D01*
X132167333Y-105914926D02*
X132200666Y-105848260D01*
X132200666Y-105848260D02*
X132200666Y-105281593D01*
X132867333Y-105281593D02*
X132533999Y-105281593D01*
X132533999Y-105281593D02*
X132500666Y-105614926D01*
X132500666Y-105614926D02*
X132533999Y-105581593D01*
X132533999Y-105581593D02*
X132600666Y-105548260D01*
X132600666Y-105548260D02*
X132767333Y-105548260D01*
X132767333Y-105548260D02*
X132833999Y-105581593D01*
X132833999Y-105581593D02*
X132867333Y-105614926D01*
X132867333Y-105614926D02*
X132900666Y-105681593D01*
X132900666Y-105681593D02*
X132900666Y-105848260D01*
X132900666Y-105848260D02*
X132867333Y-105914926D01*
X132867333Y-105914926D02*
X132833999Y-105948260D01*
X132833999Y-105948260D02*
X132767333Y-105981593D01*
X132767333Y-105981593D02*
X132600666Y-105981593D01*
X132600666Y-105981593D02*
X132533999Y-105948260D01*
X132533999Y-105948260D02*
X132500666Y-105914926D01*
X159762926Y-117220000D02*
X159796260Y-117253333D01*
X159796260Y-117253333D02*
X159829593Y-117353333D01*
X159829593Y-117353333D02*
X159829593Y-117420000D01*
X159829593Y-117420000D02*
X159796260Y-117520000D01*
X159796260Y-117520000D02*
X159729593Y-117586667D01*
X159729593Y-117586667D02*
X159662926Y-117620000D01*
X159662926Y-117620000D02*
X159529593Y-117653333D01*
X159529593Y-117653333D02*
X159429593Y-117653333D01*
X159429593Y-117653333D02*
X159296260Y-117620000D01*
X159296260Y-117620000D02*
X159229593Y-117586667D01*
X159229593Y-117586667D02*
X159162926Y-117520000D01*
X159162926Y-117520000D02*
X159129593Y-117420000D01*
X159129593Y-117420000D02*
X159129593Y-117353333D01*
X159129593Y-117353333D02*
X159162926Y-117253333D01*
X159162926Y-117253333D02*
X159196260Y-117220000D01*
X159829593Y-116553333D02*
X159829593Y-116953333D01*
X159829593Y-116753333D02*
X159129593Y-116753333D01*
X159129593Y-116753333D02*
X159229593Y-116820000D01*
X159229593Y-116820000D02*
X159296260Y-116886667D01*
X159296260Y-116886667D02*
X159329593Y-116953333D01*
X159129593Y-116320000D02*
X159129593Y-115886666D01*
X159129593Y-115886666D02*
X159396260Y-116120000D01*
X159396260Y-116120000D02*
X159396260Y-116020000D01*
X159396260Y-116020000D02*
X159429593Y-115953333D01*
X159429593Y-115953333D02*
X159462926Y-115920000D01*
X159462926Y-115920000D02*
X159529593Y-115886666D01*
X159529593Y-115886666D02*
X159696260Y-115886666D01*
X159696260Y-115886666D02*
X159762926Y-115920000D01*
X159762926Y-115920000D02*
X159796260Y-115953333D01*
X159796260Y-115953333D02*
X159829593Y-116020000D01*
X159829593Y-116020000D02*
X159829593Y-116220000D01*
X159829593Y-116220000D02*
X159796260Y-116286666D01*
X159796260Y-116286666D02*
X159762926Y-116320000D01*
X154622593Y-122163666D02*
X154289260Y-122396999D01*
X154622593Y-122563666D02*
X153922593Y-122563666D01*
X153922593Y-122563666D02*
X153922593Y-122296999D01*
X153922593Y-122296999D02*
X153955926Y-122230333D01*
X153955926Y-122230333D02*
X153989260Y-122196999D01*
X153989260Y-122196999D02*
X154055926Y-122163666D01*
X154055926Y-122163666D02*
X154155926Y-122163666D01*
X154155926Y-122163666D02*
X154222593Y-122196999D01*
X154222593Y-122196999D02*
X154255926Y-122230333D01*
X154255926Y-122230333D02*
X154289260Y-122296999D01*
X154289260Y-122296999D02*
X154289260Y-122563666D01*
X153922593Y-121530333D02*
X153922593Y-121863666D01*
X153922593Y-121863666D02*
X154255926Y-121896999D01*
X154255926Y-121896999D02*
X154222593Y-121863666D01*
X154222593Y-121863666D02*
X154189260Y-121796999D01*
X154189260Y-121796999D02*
X154189260Y-121630333D01*
X154189260Y-121630333D02*
X154222593Y-121563666D01*
X154222593Y-121563666D02*
X154255926Y-121530333D01*
X154255926Y-121530333D02*
X154322593Y-121496999D01*
X154322593Y-121496999D02*
X154489260Y-121496999D01*
X154489260Y-121496999D02*
X154555926Y-121530333D01*
X154555926Y-121530333D02*
X154589260Y-121563666D01*
X154589260Y-121563666D02*
X154622593Y-121630333D01*
X154622593Y-121630333D02*
X154622593Y-121796999D01*
X154622593Y-121796999D02*
X154589260Y-121863666D01*
X154589260Y-121863666D02*
X154555926Y-121896999D01*
X146103333Y-152777926D02*
X146070000Y-152811260D01*
X146070000Y-152811260D02*
X145970000Y-152844593D01*
X145970000Y-152844593D02*
X145903333Y-152844593D01*
X145903333Y-152844593D02*
X145803333Y-152811260D01*
X145803333Y-152811260D02*
X145736667Y-152744593D01*
X145736667Y-152744593D02*
X145703333Y-152677926D01*
X145703333Y-152677926D02*
X145670000Y-152544593D01*
X145670000Y-152544593D02*
X145670000Y-152444593D01*
X145670000Y-152444593D02*
X145703333Y-152311260D01*
X145703333Y-152311260D02*
X145736667Y-152244593D01*
X145736667Y-152244593D02*
X145803333Y-152177926D01*
X145803333Y-152177926D02*
X145903333Y-152144593D01*
X145903333Y-152144593D02*
X145970000Y-152144593D01*
X145970000Y-152144593D02*
X146070000Y-152177926D01*
X146070000Y-152177926D02*
X146103333Y-152211260D01*
X146436667Y-152844593D02*
X146570000Y-152844593D01*
X146570000Y-152844593D02*
X146636667Y-152811260D01*
X146636667Y-152811260D02*
X146670000Y-152777926D01*
X146670000Y-152777926D02*
X146736667Y-152677926D01*
X146736667Y-152677926D02*
X146770000Y-152544593D01*
X146770000Y-152544593D02*
X146770000Y-152277926D01*
X146770000Y-152277926D02*
X146736667Y-152211260D01*
X146736667Y-152211260D02*
X146703333Y-152177926D01*
X146703333Y-152177926D02*
X146636667Y-152144593D01*
X146636667Y-152144593D02*
X146503333Y-152144593D01*
X146503333Y-152144593D02*
X146436667Y-152177926D01*
X146436667Y-152177926D02*
X146403333Y-152211260D01*
X146403333Y-152211260D02*
X146370000Y-152277926D01*
X146370000Y-152277926D02*
X146370000Y-152444593D01*
X146370000Y-152444593D02*
X146403333Y-152511260D01*
X146403333Y-152511260D02*
X146436667Y-152544593D01*
X146436667Y-152544593D02*
X146503333Y-152577926D01*
X146503333Y-152577926D02*
X146636667Y-152577926D01*
X146636667Y-152577926D02*
X146703333Y-152544593D01*
X146703333Y-152544593D02*
X146736667Y-152511260D01*
X146736667Y-152511260D02*
X146770000Y-152444593D01*
X169495926Y-143966333D02*
X169495926Y-144199666D01*
X169862593Y-144199666D02*
X169162593Y-144199666D01*
X169162593Y-144199666D02*
X169162593Y-143866333D01*
X169495926Y-143366333D02*
X169529260Y-143266333D01*
X169529260Y-143266333D02*
X169562593Y-143232999D01*
X169562593Y-143232999D02*
X169629260Y-143199666D01*
X169629260Y-143199666D02*
X169729260Y-143199666D01*
X169729260Y-143199666D02*
X169795926Y-143232999D01*
X169795926Y-143232999D02*
X169829260Y-143266333D01*
X169829260Y-143266333D02*
X169862593Y-143332999D01*
X169862593Y-143332999D02*
X169862593Y-143599666D01*
X169862593Y-143599666D02*
X169162593Y-143599666D01*
X169162593Y-143599666D02*
X169162593Y-143366333D01*
X169162593Y-143366333D02*
X169195926Y-143299666D01*
X169195926Y-143299666D02*
X169229260Y-143266333D01*
X169229260Y-143266333D02*
X169295926Y-143232999D01*
X169295926Y-143232999D02*
X169362593Y-143232999D01*
X169362593Y-143232999D02*
X169429260Y-143266333D01*
X169429260Y-143266333D02*
X169462593Y-143299666D01*
X169462593Y-143299666D02*
X169495926Y-143366333D01*
X169495926Y-143366333D02*
X169495926Y-143599666D01*
X169229260Y-142932999D02*
X169195926Y-142899666D01*
X169195926Y-142899666D02*
X169162593Y-142832999D01*
X169162593Y-142832999D02*
X169162593Y-142666333D01*
X169162593Y-142666333D02*
X169195926Y-142599666D01*
X169195926Y-142599666D02*
X169229260Y-142566333D01*
X169229260Y-142566333D02*
X169295926Y-142532999D01*
X169295926Y-142532999D02*
X169362593Y-142532999D01*
X169362593Y-142532999D02*
X169462593Y-142566333D01*
X169462593Y-142566333D02*
X169862593Y-142966333D01*
X169862593Y-142966333D02*
X169862593Y-142532999D01*
X152209593Y-140277000D02*
X151876260Y-140510333D01*
X152209593Y-140677000D02*
X151509593Y-140677000D01*
X151509593Y-140677000D02*
X151509593Y-140410333D01*
X151509593Y-140410333D02*
X151542926Y-140343667D01*
X151542926Y-140343667D02*
X151576260Y-140310333D01*
X151576260Y-140310333D02*
X151642926Y-140277000D01*
X151642926Y-140277000D02*
X151742926Y-140277000D01*
X151742926Y-140277000D02*
X151809593Y-140310333D01*
X151809593Y-140310333D02*
X151842926Y-140343667D01*
X151842926Y-140343667D02*
X151876260Y-140410333D01*
X151876260Y-140410333D02*
X151876260Y-140677000D01*
X152209593Y-139610333D02*
X152209593Y-140010333D01*
X152209593Y-139810333D02*
X151509593Y-139810333D01*
X151509593Y-139810333D02*
X151609593Y-139877000D01*
X151609593Y-139877000D02*
X151676260Y-139943667D01*
X151676260Y-139943667D02*
X151709593Y-140010333D01*
X151742926Y-139010333D02*
X152209593Y-139010333D01*
X151476260Y-139177000D02*
X151976260Y-139343666D01*
X151976260Y-139343666D02*
X151976260Y-138910333D01*
X172021593Y-123941666D02*
X171688260Y-124174999D01*
X172021593Y-124341666D02*
X171321593Y-124341666D01*
X171321593Y-124341666D02*
X171321593Y-124074999D01*
X171321593Y-124074999D02*
X171354926Y-124008333D01*
X171354926Y-124008333D02*
X171388260Y-123974999D01*
X171388260Y-123974999D02*
X171454926Y-123941666D01*
X171454926Y-123941666D02*
X171554926Y-123941666D01*
X171554926Y-123941666D02*
X171621593Y-123974999D01*
X171621593Y-123974999D02*
X171654926Y-124008333D01*
X171654926Y-124008333D02*
X171688260Y-124074999D01*
X171688260Y-124074999D02*
X171688260Y-124341666D01*
X172021593Y-123608333D02*
X172021593Y-123474999D01*
X172021593Y-123474999D02*
X171988260Y-123408333D01*
X171988260Y-123408333D02*
X171954926Y-123374999D01*
X171954926Y-123374999D02*
X171854926Y-123308333D01*
X171854926Y-123308333D02*
X171721593Y-123274999D01*
X171721593Y-123274999D02*
X171454926Y-123274999D01*
X171454926Y-123274999D02*
X171388260Y-123308333D01*
X171388260Y-123308333D02*
X171354926Y-123341666D01*
X171354926Y-123341666D02*
X171321593Y-123408333D01*
X171321593Y-123408333D02*
X171321593Y-123541666D01*
X171321593Y-123541666D02*
X171354926Y-123608333D01*
X171354926Y-123608333D02*
X171388260Y-123641666D01*
X171388260Y-123641666D02*
X171454926Y-123674999D01*
X171454926Y-123674999D02*
X171621593Y-123674999D01*
X171621593Y-123674999D02*
X171688260Y-123641666D01*
X171688260Y-123641666D02*
X171721593Y-123608333D01*
X171721593Y-123608333D02*
X171754926Y-123541666D01*
X171754926Y-123541666D02*
X171754926Y-123408333D01*
X171754926Y-123408333D02*
X171721593Y-123341666D01*
X171721593Y-123341666D02*
X171688260Y-123308333D01*
X171688260Y-123308333D02*
X171621593Y-123274999D01*
X161607593Y-150103666D02*
X161274260Y-150336999D01*
X161607593Y-150503666D02*
X160907593Y-150503666D01*
X160907593Y-150503666D02*
X160907593Y-150236999D01*
X160907593Y-150236999D02*
X160940926Y-150170333D01*
X160940926Y-150170333D02*
X160974260Y-150136999D01*
X160974260Y-150136999D02*
X161040926Y-150103666D01*
X161040926Y-150103666D02*
X161140926Y-150103666D01*
X161140926Y-150103666D02*
X161207593Y-150136999D01*
X161207593Y-150136999D02*
X161240926Y-150170333D01*
X161240926Y-150170333D02*
X161274260Y-150236999D01*
X161274260Y-150236999D02*
X161274260Y-150503666D01*
X160907593Y-149870333D02*
X160907593Y-149436999D01*
X160907593Y-149436999D02*
X161174260Y-149670333D01*
X161174260Y-149670333D02*
X161174260Y-149570333D01*
X161174260Y-149570333D02*
X161207593Y-149503666D01*
X161207593Y-149503666D02*
X161240926Y-149470333D01*
X161240926Y-149470333D02*
X161307593Y-149436999D01*
X161307593Y-149436999D02*
X161474260Y-149436999D01*
X161474260Y-149436999D02*
X161540926Y-149470333D01*
X161540926Y-149470333D02*
X161574260Y-149503666D01*
X161574260Y-149503666D02*
X161607593Y-149570333D01*
X161607593Y-149570333D02*
X161607593Y-149770333D01*
X161607593Y-149770333D02*
X161574260Y-149836999D01*
X161574260Y-149836999D02*
X161540926Y-149870333D01*
X140331926Y-151500666D02*
X140365260Y-151533999D01*
X140365260Y-151533999D02*
X140398593Y-151633999D01*
X140398593Y-151633999D02*
X140398593Y-151700666D01*
X140398593Y-151700666D02*
X140365260Y-151800666D01*
X140365260Y-151800666D02*
X140298593Y-151867333D01*
X140298593Y-151867333D02*
X140231926Y-151900666D01*
X140231926Y-151900666D02*
X140098593Y-151933999D01*
X140098593Y-151933999D02*
X139998593Y-151933999D01*
X139998593Y-151933999D02*
X139865260Y-151900666D01*
X139865260Y-151900666D02*
X139798593Y-151867333D01*
X139798593Y-151867333D02*
X139731926Y-151800666D01*
X139731926Y-151800666D02*
X139698593Y-151700666D01*
X139698593Y-151700666D02*
X139698593Y-151633999D01*
X139698593Y-151633999D02*
X139731926Y-151533999D01*
X139731926Y-151533999D02*
X139765260Y-151500666D01*
X139698593Y-150867333D02*
X139698593Y-151200666D01*
X139698593Y-151200666D02*
X140031926Y-151233999D01*
X140031926Y-151233999D02*
X139998593Y-151200666D01*
X139998593Y-151200666D02*
X139965260Y-151133999D01*
X139965260Y-151133999D02*
X139965260Y-150967333D01*
X139965260Y-150967333D02*
X139998593Y-150900666D01*
X139998593Y-150900666D02*
X140031926Y-150867333D01*
X140031926Y-150867333D02*
X140098593Y-150833999D01*
X140098593Y-150833999D02*
X140265260Y-150833999D01*
X140265260Y-150833999D02*
X140331926Y-150867333D01*
X140331926Y-150867333D02*
X140365260Y-150900666D01*
X140365260Y-150900666D02*
X140398593Y-150967333D01*
X140398593Y-150967333D02*
X140398593Y-151133999D01*
X140398593Y-151133999D02*
X140365260Y-151200666D01*
X140365260Y-151200666D02*
X140331926Y-151233999D01*
X161535333Y-109918593D02*
X161535333Y-109218593D01*
X161535333Y-109218593D02*
X161702000Y-109218593D01*
X161702000Y-109218593D02*
X161802000Y-109251926D01*
X161802000Y-109251926D02*
X161868667Y-109318593D01*
X161868667Y-109318593D02*
X161902000Y-109385260D01*
X161902000Y-109385260D02*
X161935333Y-109518593D01*
X161935333Y-109518593D02*
X161935333Y-109618593D01*
X161935333Y-109618593D02*
X161902000Y-109751926D01*
X161902000Y-109751926D02*
X161868667Y-109818593D01*
X161868667Y-109818593D02*
X161802000Y-109885260D01*
X161802000Y-109885260D02*
X161702000Y-109918593D01*
X161702000Y-109918593D02*
X161535333Y-109918593D01*
X162168667Y-109218593D02*
X162635333Y-109218593D01*
X162635333Y-109218593D02*
X162335333Y-109918593D01*
X137410926Y-119350000D02*
X137444260Y-119383333D01*
X137444260Y-119383333D02*
X137477593Y-119483333D01*
X137477593Y-119483333D02*
X137477593Y-119550000D01*
X137477593Y-119550000D02*
X137444260Y-119650000D01*
X137444260Y-119650000D02*
X137377593Y-119716667D01*
X137377593Y-119716667D02*
X137310926Y-119750000D01*
X137310926Y-119750000D02*
X137177593Y-119783333D01*
X137177593Y-119783333D02*
X137077593Y-119783333D01*
X137077593Y-119783333D02*
X136944260Y-119750000D01*
X136944260Y-119750000D02*
X136877593Y-119716667D01*
X136877593Y-119716667D02*
X136810926Y-119650000D01*
X136810926Y-119650000D02*
X136777593Y-119550000D01*
X136777593Y-119550000D02*
X136777593Y-119483333D01*
X136777593Y-119483333D02*
X136810926Y-119383333D01*
X136810926Y-119383333D02*
X136844260Y-119350000D01*
X136844260Y-119083333D02*
X136810926Y-119050000D01*
X136810926Y-119050000D02*
X136777593Y-118983333D01*
X136777593Y-118983333D02*
X136777593Y-118816667D01*
X136777593Y-118816667D02*
X136810926Y-118750000D01*
X136810926Y-118750000D02*
X136844260Y-118716667D01*
X136844260Y-118716667D02*
X136910926Y-118683333D01*
X136910926Y-118683333D02*
X136977593Y-118683333D01*
X136977593Y-118683333D02*
X137077593Y-118716667D01*
X137077593Y-118716667D02*
X137477593Y-119116667D01*
X137477593Y-119116667D02*
X137477593Y-118683333D01*
X136777593Y-118450000D02*
X136777593Y-118016666D01*
X136777593Y-118016666D02*
X137044260Y-118250000D01*
X137044260Y-118250000D02*
X137044260Y-118150000D01*
X137044260Y-118150000D02*
X137077593Y-118083333D01*
X137077593Y-118083333D02*
X137110926Y-118050000D01*
X137110926Y-118050000D02*
X137177593Y-118016666D01*
X137177593Y-118016666D02*
X137344260Y-118016666D01*
X137344260Y-118016666D02*
X137410926Y-118050000D01*
X137410926Y-118050000D02*
X137444260Y-118083333D01*
X137444260Y-118083333D02*
X137477593Y-118150000D01*
X137477593Y-118150000D02*
X137477593Y-118350000D01*
X137477593Y-118350000D02*
X137444260Y-118416666D01*
X137444260Y-118416666D02*
X137410926Y-118450000D01*
X153920926Y-130371000D02*
X153954260Y-130404333D01*
X153954260Y-130404333D02*
X153987593Y-130504333D01*
X153987593Y-130504333D02*
X153987593Y-130571000D01*
X153987593Y-130571000D02*
X153954260Y-130671000D01*
X153954260Y-130671000D02*
X153887593Y-130737667D01*
X153887593Y-130737667D02*
X153820926Y-130771000D01*
X153820926Y-130771000D02*
X153687593Y-130804333D01*
X153687593Y-130804333D02*
X153587593Y-130804333D01*
X153587593Y-130804333D02*
X153454260Y-130771000D01*
X153454260Y-130771000D02*
X153387593Y-130737667D01*
X153387593Y-130737667D02*
X153320926Y-130671000D01*
X153320926Y-130671000D02*
X153287593Y-130571000D01*
X153287593Y-130571000D02*
X153287593Y-130504333D01*
X153287593Y-130504333D02*
X153320926Y-130404333D01*
X153320926Y-130404333D02*
X153354260Y-130371000D01*
X153354260Y-130104333D02*
X153320926Y-130071000D01*
X153320926Y-130071000D02*
X153287593Y-130004333D01*
X153287593Y-130004333D02*
X153287593Y-129837667D01*
X153287593Y-129837667D02*
X153320926Y-129771000D01*
X153320926Y-129771000D02*
X153354260Y-129737667D01*
X153354260Y-129737667D02*
X153420926Y-129704333D01*
X153420926Y-129704333D02*
X153487593Y-129704333D01*
X153487593Y-129704333D02*
X153587593Y-129737667D01*
X153587593Y-129737667D02*
X153987593Y-130137667D01*
X153987593Y-130137667D02*
X153987593Y-129704333D01*
X153287593Y-129471000D02*
X153287593Y-129004333D01*
X153287593Y-129004333D02*
X153987593Y-129304333D01*
X161607593Y-152516666D02*
X161274260Y-152749999D01*
X161607593Y-152916666D02*
X160907593Y-152916666D01*
X160907593Y-152916666D02*
X160907593Y-152649999D01*
X160907593Y-152649999D02*
X160940926Y-152583333D01*
X160940926Y-152583333D02*
X160974260Y-152549999D01*
X160974260Y-152549999D02*
X161040926Y-152516666D01*
X161040926Y-152516666D02*
X161140926Y-152516666D01*
X161140926Y-152516666D02*
X161207593Y-152549999D01*
X161207593Y-152549999D02*
X161240926Y-152583333D01*
X161240926Y-152583333D02*
X161274260Y-152649999D01*
X161274260Y-152649999D02*
X161274260Y-152916666D01*
X161140926Y-151916666D02*
X161607593Y-151916666D01*
X160874260Y-152083333D02*
X161374260Y-152249999D01*
X161374260Y-152249999D02*
X161374260Y-151816666D01*
X137410926Y-123894000D02*
X137444260Y-123927333D01*
X137444260Y-123927333D02*
X137477593Y-124027333D01*
X137477593Y-124027333D02*
X137477593Y-124094000D01*
X137477593Y-124094000D02*
X137444260Y-124194000D01*
X137444260Y-124194000D02*
X137377593Y-124260667D01*
X137377593Y-124260667D02*
X137310926Y-124294000D01*
X137310926Y-124294000D02*
X137177593Y-124327333D01*
X137177593Y-124327333D02*
X137077593Y-124327333D01*
X137077593Y-124327333D02*
X136944260Y-124294000D01*
X136944260Y-124294000D02*
X136877593Y-124260667D01*
X136877593Y-124260667D02*
X136810926Y-124194000D01*
X136810926Y-124194000D02*
X136777593Y-124094000D01*
X136777593Y-124094000D02*
X136777593Y-124027333D01*
X136777593Y-124027333D02*
X136810926Y-123927333D01*
X136810926Y-123927333D02*
X136844260Y-123894000D01*
X136844260Y-123627333D02*
X136810926Y-123594000D01*
X136810926Y-123594000D02*
X136777593Y-123527333D01*
X136777593Y-123527333D02*
X136777593Y-123360667D01*
X136777593Y-123360667D02*
X136810926Y-123294000D01*
X136810926Y-123294000D02*
X136844260Y-123260667D01*
X136844260Y-123260667D02*
X136910926Y-123227333D01*
X136910926Y-123227333D02*
X136977593Y-123227333D01*
X136977593Y-123227333D02*
X137077593Y-123260667D01*
X137077593Y-123260667D02*
X137477593Y-123660667D01*
X137477593Y-123660667D02*
X137477593Y-123227333D01*
X136844260Y-122960666D02*
X136810926Y-122927333D01*
X136810926Y-122927333D02*
X136777593Y-122860666D01*
X136777593Y-122860666D02*
X136777593Y-122694000D01*
X136777593Y-122694000D02*
X136810926Y-122627333D01*
X136810926Y-122627333D02*
X136844260Y-122594000D01*
X136844260Y-122594000D02*
X136910926Y-122560666D01*
X136910926Y-122560666D02*
X136977593Y-122560666D01*
X136977593Y-122560666D02*
X137077593Y-122594000D01*
X137077593Y-122594000D02*
X137477593Y-122994000D01*
X137477593Y-122994000D02*
X137477593Y-122560666D01*
%TO.C,R7*%
X103224000Y-123574436D02*
X103224000Y-124028564D01*
X101754000Y-123574436D02*
X101754000Y-124028564D01*
%TO.C,Q1*%
X111168378Y-120674730D02*
X110928378Y-120344730D01*
X111408378Y-120344730D01*
X111168378Y-120674730D01*
G36*
X111168378Y-120674730D02*
G01*
X110928378Y-120344730D01*
X111408378Y-120344730D01*
X111168378Y-120674730D01*
G37*
X117360000Y-125780000D02*
X111240000Y-125780000D01*
X117360000Y-120410000D02*
X111680000Y-120410000D01*
%TO.C,Q2*%
X117631622Y-119070270D02*
X117871622Y-119400270D01*
X117391622Y-119400270D01*
X117631622Y-119070270D01*
G36*
X117871622Y-119400270D02*
G01*
X117391622Y-119400270D01*
X117631622Y-119070270D01*
X117871622Y-119400270D01*
G37*
X111440000Y-119335000D02*
X117120000Y-119335000D01*
X111440000Y-113965000D02*
X117560000Y-113965000D01*
%TO.C,Q3*%
X111368378Y-134214730D02*
X111128378Y-133884730D01*
X111608378Y-133884730D01*
X111368378Y-134214730D01*
G36*
X111368378Y-134214730D02*
G01*
X111128378Y-133884730D01*
X111608378Y-133884730D01*
X111368378Y-134214730D01*
G37*
X117560000Y-139320000D02*
X111440000Y-139320000D01*
X117560000Y-133950000D02*
X111880000Y-133950000D01*
%TO.C,Q4*%
X117631622Y-132245270D02*
X117871622Y-132575270D01*
X117391622Y-132575270D01*
X117631622Y-132245270D01*
G36*
X117871622Y-132575270D02*
G01*
X117391622Y-132575270D01*
X117631622Y-132245270D01*
X117871622Y-132575270D01*
G37*
X111440000Y-132510000D02*
X117120000Y-132510000D01*
X111440000Y-127140000D02*
X117560000Y-127140000D01*
%TO.C,Q5*%
X111368378Y-148429730D02*
X111128378Y-148099730D01*
X111608378Y-148099730D01*
X111368378Y-148429730D01*
G36*
X111368378Y-148429730D02*
G01*
X111128378Y-148099730D01*
X111608378Y-148099730D01*
X111368378Y-148429730D01*
G37*
X117560000Y-153535000D02*
X111440000Y-153535000D01*
X117560000Y-148165000D02*
X111880000Y-148165000D01*
%TO.C,Q6*%
X117631622Y-146270270D02*
X117871622Y-146600270D01*
X117391622Y-146600270D01*
X117631622Y-146270270D01*
G36*
X117871622Y-146600270D02*
G01*
X117391622Y-146600270D01*
X117631622Y-146270270D01*
X117871622Y-146600270D01*
G37*
X111440000Y-146535000D02*
X117120000Y-146535000D01*
X111440000Y-141165000D02*
X117560000Y-141165000D01*
%TO.C,U6*%
D13*
X131780751Y-112370076D02*
G75*
G02*
X131018751Y-112370076I-381000J0D01*
G01*
X131018751Y-112370076D02*
G75*
G02*
X131780751Y-112370076I381000J0D01*
G01*
D14*
X129621751Y-107547124D02*
X129621751Y-103366009D01*
X129621751Y-101374143D02*
X129621751Y-98293124D01*
X129621751Y-98293124D02*
X119467751Y-98293124D01*
X119467751Y-107547124D02*
X129621751Y-107547124D01*
X119467751Y-103366009D02*
X119467751Y-107547124D01*
X119467751Y-98293124D02*
X119467751Y-101374143D01*
%TO.C,R19*%
D12*
X130074936Y-125907500D02*
X130529064Y-125907500D01*
X130074936Y-127377500D02*
X130529064Y-127377500D01*
%TO.C,R20*%
X118464064Y-155475000D02*
X118009936Y-155475000D01*
X118464064Y-156945000D02*
X118009936Y-156945000D01*
%TO.C,C40*%
X130228748Y-118772000D02*
X130751252Y-118772000D01*
X130228748Y-120242000D02*
X130751252Y-120242000D01*
%TO.C,C8*%
X156837748Y-108485000D02*
X157360252Y-108485000D01*
X156837748Y-109955000D02*
X157360252Y-109955000D01*
%TO.C,C30*%
X158742748Y-146712000D02*
X159265252Y-146712000D01*
X158742748Y-148182000D02*
X159265252Y-148182000D01*
%TO.C,J3*%
D15*
X160630000Y-100475000D02*
X160630000Y-101825000D01*
X160630000Y-105825000D02*
X160630000Y-104325000D01*
X169570000Y-100475000D02*
X160630000Y-100475000D01*
X169570000Y-100475000D02*
X169570000Y-101825000D01*
X169570000Y-105825000D02*
X169570000Y-104325000D01*
D16*
X168400000Y-109075000D02*
G75*
G02*
X168200000Y-109075000I-100000J0D01*
G01*
X168200000Y-109075000D02*
G75*
G02*
X168400000Y-109075000I100000J0D01*
G01*
%TO.C,D4*%
D12*
X172180000Y-133825000D02*
X172180000Y-136510000D01*
X174100000Y-133825000D02*
X172180000Y-133825000D01*
X174100000Y-136510000D02*
X174100000Y-133825000D01*
%TO.C,J7*%
X143800000Y-100025000D02*
X143800000Y-101275000D01*
X144100000Y-102575000D02*
X144850000Y-102575000D01*
X144850000Y-102575000D02*
X144850000Y-105525000D01*
X144850000Y-105525000D02*
X150400000Y-105525000D01*
X145050000Y-100025000D02*
X143800000Y-100025000D01*
X155950000Y-102575000D02*
X155950000Y-105525000D01*
X155950000Y-105525000D02*
X150400000Y-105525000D01*
X156700000Y-102575000D02*
X155950000Y-102575000D01*
X144090000Y-100315000D02*
X156710000Y-100315000D01*
X156710000Y-106285000D01*
X144090000Y-106285000D01*
X144090000Y-100315000D01*
X144100000Y-100325000D02*
X145900000Y-100325000D01*
X145900000Y-101075000D01*
X144100000Y-101075000D01*
X144100000Y-100325000D01*
X147400000Y-100325000D02*
X153400000Y-100325000D01*
X153400000Y-101075000D01*
X147400000Y-101075000D01*
X147400000Y-100325000D01*
X154900000Y-100325000D02*
X156700000Y-100325000D01*
X156700000Y-101075000D01*
X154900000Y-101075000D01*
X154900000Y-100325000D01*
%TO.C,C18*%
X157380000Y-136771748D02*
X157380000Y-137294252D01*
X158850000Y-136771748D02*
X158850000Y-137294252D01*
%TO.C,C15*%
X170065000Y-138928748D02*
X170065000Y-139451252D01*
X171535000Y-138928748D02*
X171535000Y-139451252D01*
%TO.C,R18*%
X132869000Y-128296936D02*
X132869000Y-128751064D01*
X134339000Y-128296936D02*
X134339000Y-128751064D01*
%TO.C,R8*%
X169375000Y-115742936D02*
X169375000Y-116197064D01*
X170845000Y-115742936D02*
X170845000Y-116197064D01*
%TO.C,R15*%
X154427064Y-141505400D02*
X153972936Y-141505400D01*
X154427064Y-142975400D02*
X153972936Y-142975400D01*
%TO.C,C34*%
X154490052Y-143893000D02*
X153967548Y-143893000D01*
X154490052Y-145363000D02*
X153967548Y-145363000D01*
%TO.C,C37*%
X130101748Y-129313000D02*
X130624252Y-129313000D01*
X130101748Y-130783000D02*
X130624252Y-130783000D01*
%TO.C,C19*%
X164330748Y-146712000D02*
X164853252Y-146712000D01*
X164330748Y-148182000D02*
X164853252Y-148182000D01*
%TO.C,R13*%
X155421064Y-118391000D02*
X154966936Y-118391000D01*
X155421064Y-119861000D02*
X154966936Y-119861000D01*
%TO.C,C39*%
X130216648Y-115343000D02*
X130739152Y-115343000D01*
X130216648Y-116813000D02*
X130739152Y-116813000D01*
%TO.C,D1*%
X144900000Y-114690000D02*
X144900000Y-117350000D01*
X146600000Y-114690000D02*
X144900000Y-114690000D01*
X146600000Y-114690000D02*
X146600000Y-117350000D01*
%TO.C,R16*%
X154022936Y-146242000D02*
X154477064Y-146242000D01*
X154022936Y-147712000D02*
X154477064Y-147712000D01*
%TO.C,L3*%
X155740200Y-154590000D02*
X160960200Y-154590000D01*
X155740200Y-154840000D02*
X155740200Y-154590000D01*
X155740200Y-159810000D02*
X155740200Y-159560000D01*
X160960200Y-154590000D02*
X160960200Y-154840000D01*
X160960200Y-159560000D02*
X160960200Y-159810000D01*
X160960200Y-159810000D02*
X155740200Y-159810000D01*
%TO.C,C31*%
X169029748Y-112422000D02*
X169552252Y-112422000D01*
X169029748Y-113892000D02*
X169552252Y-113892000D01*
%TO.C,R6*%
X155601936Y-124995000D02*
X156056064Y-124995000D01*
X155601936Y-126465000D02*
X156056064Y-126465000D01*
%TO.C,D6*%
X134218400Y-142520400D02*
X128708400Y-142520400D01*
X134218400Y-145820400D02*
X128708400Y-145820400D01*
X134218400Y-145820400D02*
X134218400Y-142520400D01*
%TO.C,C35*%
X147790200Y-150461252D02*
X147790200Y-149938748D01*
X149260200Y-150461252D02*
X149260200Y-149938748D01*
%TO.C,C44*%
X130167748Y-146839000D02*
X130690252Y-146839000D01*
X130167748Y-148309000D02*
X130690252Y-148309000D01*
%TO.C,R27*%
X157337064Y-110745000D02*
X156882936Y-110745000D01*
X157337064Y-112215000D02*
X156882936Y-112215000D01*
%TO.C,C32*%
X154461252Y-136667000D02*
X153938748Y-136667000D01*
X154461252Y-138137000D02*
X153938748Y-138137000D01*
%TO.C,FB1*%
X161450000Y-118223733D02*
X161450000Y-118566267D01*
X162470000Y-118223733D02*
X162470000Y-118566267D01*
%TO.C,C28*%
X143156000Y-122308252D02*
X143156000Y-121785748D01*
X144626000Y-122308252D02*
X144626000Y-121785748D01*
%TO.C,U1*%
X145990200Y-154540000D02*
X147810200Y-154540000D01*
X145990200Y-154590000D02*
X145990200Y-154540000D01*
X145990200Y-157660000D02*
X145990200Y-157610000D01*
X147810200Y-154540000D02*
X147810200Y-154590000D01*
X147810200Y-157610000D02*
X147810200Y-157660000D01*
X147810200Y-157660000D02*
X145990200Y-157660000D01*
X148350200Y-157610000D02*
X148590200Y-157940000D01*
X148110200Y-157940000D01*
X148350200Y-157610000D01*
G36*
X148590200Y-157940000D02*
G01*
X148110200Y-157940000D01*
X148350200Y-157610000D01*
X148590200Y-157940000D01*
G37*
%TO.C,R25*%
X132139564Y-135190266D02*
X127785436Y-135190266D01*
X132139564Y-138610266D02*
X127785436Y-138610266D01*
%TO.C,C45*%
X125311252Y-143190000D02*
X123888748Y-143190000D01*
X125311252Y-145010000D02*
X123888748Y-145010000D01*
%TO.C,C33*%
X150090200Y-149938748D02*
X150090200Y-150461252D01*
X151560200Y-149938748D02*
X151560200Y-150461252D01*
%TO.C,C21*%
X106834000Y-123959252D02*
X106834000Y-123436748D01*
X108304000Y-123959252D02*
X108304000Y-123436748D01*
%TO.C,R21*%
X122043564Y-155475000D02*
X121589436Y-155475000D01*
X122043564Y-156945000D02*
X121589436Y-156945000D01*
%TO.C,C43*%
X125411252Y-115990000D02*
X123988748Y-115990000D01*
X125411252Y-117810000D02*
X123988748Y-117810000D01*
%TO.C,D2*%
X166075000Y-151550000D02*
X163415000Y-151550000D01*
X166075000Y-153250000D02*
X163415000Y-153250000D01*
X166075000Y-153250000D02*
X166075000Y-151550000D01*
%TO.C,C26*%
X150868748Y-118391000D02*
X151391252Y-118391000D01*
X150868748Y-119861000D02*
X151391252Y-119861000D01*
%TO.C,C24*%
X148490000Y-121785748D02*
X148490000Y-122308252D01*
X149960000Y-121785748D02*
X149960000Y-122308252D01*
%TO.C,L1*%
X142753000Y-138707600D02*
X142853000Y-138707600D01*
X142753000Y-146927600D02*
X142753000Y-138707600D01*
X142853000Y-146927600D02*
X142753000Y-146927600D01*
X150873000Y-138707600D02*
X150973000Y-138707600D01*
X150973000Y-138707600D02*
X150973000Y-146927600D01*
X150973000Y-146927600D02*
X150873000Y-146927600D01*
%TO.C,C17*%
X169425000Y-120291252D02*
X169425000Y-119768748D01*
X170895000Y-120291252D02*
X170895000Y-119768748D01*
%TO.C,C12*%
X155567748Y-127027000D02*
X156090252Y-127027000D01*
X155567748Y-128497000D02*
X156090252Y-128497000D01*
%TO.C,C16*%
X157985000Y-122331252D02*
X157985000Y-121808748D01*
X159455000Y-122331252D02*
X159455000Y-121808748D01*
%TO.C,C10*%
X142995800Y-149918748D02*
X142995800Y-150441252D01*
X144465800Y-149918748D02*
X144465800Y-150441252D01*
%TO.C,C20*%
X164330748Y-149252000D02*
X164853252Y-149252000D01*
X164330748Y-150722000D02*
X164853252Y-150722000D01*
%TO.C,U3*%
X147540000Y-111650000D02*
X147540000Y-115410000D01*
X147540000Y-115410000D02*
X148800000Y-115410000D01*
X154360000Y-111650000D02*
X154360000Y-115410000D01*
X154360000Y-115410000D02*
X153100000Y-115410000D01*
X154260000Y-110370000D02*
X154590000Y-110130000D01*
X154590000Y-110610000D01*
X154260000Y-110370000D01*
G36*
X154590000Y-110610000D02*
G01*
X154260000Y-110370000D01*
X154590000Y-110130000D01*
X154590000Y-110610000D01*
G37*
%TO.C,R11*%
X171042064Y-145188000D02*
X170587936Y-145188000D01*
X171042064Y-146658000D02*
X170587936Y-146658000D01*
%TO.C,C38*%
X114292748Y-155475000D02*
X114815252Y-155475000D01*
X114292748Y-156945000D02*
X114815252Y-156945000D01*
%TO.C,D3*%
X172180000Y-118455000D02*
X172180000Y-121140000D01*
X174100000Y-118455000D02*
X172180000Y-118455000D01*
X174100000Y-121140000D02*
X174100000Y-118455000D01*
%TO.C,R26*%
X132139564Y-149690266D02*
X127785436Y-149690266D01*
X132139564Y-153110266D02*
X127785436Y-153110266D01*
%TO.C,C36*%
X159261252Y-143665000D02*
X158738748Y-143665000D01*
X159261252Y-145135000D02*
X158738748Y-145135000D01*
%TO.C,C6*%
X137695000Y-136532252D02*
X137695000Y-136009748D01*
X139165000Y-136532252D02*
X139165000Y-136009748D01*
%TO.C,R24*%
X132177064Y-121190266D02*
X127822936Y-121190266D01*
X132177064Y-124610266D02*
X127822936Y-124610266D01*
%TO.C,R28*%
X165380936Y-112549000D02*
X165835064Y-112549000D01*
X165380936Y-114019000D02*
X165835064Y-114019000D01*
%TO.C,R17*%
X154477064Y-148617000D02*
X154022936Y-148617000D01*
X154477064Y-150087000D02*
X154022936Y-150087000D01*
%TO.C,TH1*%
X105820000Y-124187867D02*
G75*
G02*
X104180000Y-124187867I-820000J-417133D01*
G01*
%TO.C,C11*%
X146568748Y-158145000D02*
X147091252Y-158145000D01*
X146568748Y-159615000D02*
X147091252Y-159615000D01*
%TO.C,C14*%
X156878748Y-113395000D02*
X157401252Y-113395000D01*
X156878748Y-114865000D02*
X157401252Y-114865000D01*
%TO.C,R23*%
X134012000Y-114326936D02*
X134012000Y-114781064D01*
X135482000Y-114326936D02*
X135482000Y-114781064D01*
%TO.C,C29*%
X146738748Y-118391000D02*
X147261252Y-118391000D01*
X146738748Y-119861000D02*
X147261252Y-119861000D01*
%TO.C,U2*%
X159390000Y-125040000D02*
X160340000Y-125040000D01*
X159390000Y-125990000D02*
X159390000Y-125040000D01*
X159390000Y-135260000D02*
X159390000Y-134310000D01*
X160340000Y-135260000D02*
X159390000Y-135260000D01*
X168660000Y-125040000D02*
X169610000Y-125040000D01*
X169610000Y-125040000D02*
X169610000Y-125990000D01*
X169610000Y-134310000D02*
X169610000Y-135260000D01*
X169610000Y-135260000D02*
X168660000Y-135260000D01*
X158750000Y-125990000D02*
X158410000Y-125520000D01*
X159090000Y-125520000D01*
X158750000Y-125990000D01*
G36*
X158750000Y-125990000D02*
G01*
X158410000Y-125520000D01*
X159090000Y-125520000D01*
X158750000Y-125990000D01*
G37*
%TO.C,R29*%
X161697936Y-112549000D02*
X162152064Y-112549000D01*
X161697936Y-114019000D02*
X162152064Y-114019000D01*
%TO.C,D5*%
X157300000Y-139440000D02*
X157300000Y-142100000D01*
X159000000Y-139440000D02*
X157300000Y-139440000D01*
X159000000Y-139440000D02*
X159000000Y-142100000D01*
%TO.C,R10*%
X172385000Y-138912936D02*
X172385000Y-139367064D01*
X173855000Y-138912936D02*
X173855000Y-139367064D01*
%TO.C,R22*%
X134012000Y-118517936D02*
X134012000Y-118972064D01*
X135482000Y-118517936D02*
X135482000Y-118972064D01*
%TO.C,C7*%
X168963748Y-110263000D02*
X169486252Y-110263000D01*
X168963748Y-111733000D02*
X169486252Y-111733000D01*
%TO.C,R12*%
X151792000Y-121819936D02*
X151792000Y-122274064D01*
X153262000Y-121819936D02*
X153262000Y-122274064D01*
%TO.C,C41*%
X125311252Y-129190000D02*
X123888748Y-129190000D01*
X125311252Y-131010000D02*
X123888748Y-131010000D01*
%TO.C,C42*%
X130040748Y-132742000D02*
X130563252Y-132742000D01*
X130040748Y-134212000D02*
X130563252Y-134212000D01*
%TO.C,C25*%
X139288748Y-113067000D02*
X140711252Y-113067000D01*
X139288748Y-115787000D02*
X140711252Y-115787000D01*
%TO.C,U5*%
X134896800Y-105948800D02*
X139016800Y-105948800D01*
X134896800Y-106043800D02*
X134896800Y-105948800D01*
X134896800Y-111068800D02*
X134896800Y-110973800D01*
X139016800Y-105948800D02*
X139016800Y-106043800D01*
X139016800Y-110973800D02*
X139016800Y-111068800D01*
X139016800Y-111068800D02*
X134896800Y-111068800D01*
X134356800Y-106038800D02*
X134116800Y-105708800D01*
X134596800Y-105708800D01*
X134356800Y-106038800D01*
G36*
X134356800Y-106038800D02*
G01*
X134116800Y-105708800D01*
X134596800Y-105708800D01*
X134356800Y-106038800D01*
G37*
%TO.C,C13*%
X156918748Y-116035000D02*
X157441252Y-116035000D01*
X156918748Y-117505000D02*
X157441252Y-117505000D01*
%TO.C,R5*%
X154967000Y-121819936D02*
X154967000Y-122274064D01*
X156437000Y-121819936D02*
X156437000Y-122274064D01*
%TO.C,C9*%
X145485000Y-149918748D02*
X145485000Y-150441252D01*
X146955000Y-149918748D02*
X146955000Y-150441252D01*
%TO.C,FB2*%
X170240000Y-142828733D02*
X170240000Y-143171267D01*
X171260000Y-142828733D02*
X171260000Y-143171267D01*
%TO.C,R14*%
X153972936Y-139117800D02*
X154427064Y-139117800D01*
X153972936Y-140587800D02*
X154427064Y-140587800D01*
%TO.C,R9*%
X172405000Y-123622936D02*
X172405000Y-124077064D01*
X173875000Y-123622936D02*
X173875000Y-124077064D01*
%TO.C,R3*%
X158823136Y-149252000D02*
X159277264Y-149252000D01*
X158823136Y-150722000D02*
X159277264Y-150722000D01*
%TO.C,C5*%
X139165000Y-151122748D02*
X139165000Y-151645252D01*
X137695000Y-151122748D02*
X137695000Y-151645252D01*
%TO.C,D7*%
X160925000Y-112085000D02*
X163610000Y-112085000D01*
X163610000Y-110165000D02*
X160925000Y-110165000D01*
X163610000Y-112085000D02*
X163610000Y-110165000D01*
%TO.C,C23*%
X139288748Y-117540000D02*
X140711252Y-117540000D01*
X139288748Y-120260000D02*
X140711252Y-120260000D01*
%TO.C,C27*%
X155567748Y-129186000D02*
X156090252Y-129186000D01*
X155567748Y-130656000D02*
X156090252Y-130656000D01*
%TO.C,R4*%
X158773136Y-151715000D02*
X159227264Y-151715000D01*
X158773136Y-153185000D02*
X159227264Y-153185000D01*
%TO.C,C22*%
X139369748Y-122084000D02*
X140792252Y-122084000D01*
X139369748Y-124804000D02*
X140792252Y-124804000D01*
%TO.C,JP1*%
X165950000Y-119400000D02*
X165950000Y-116600000D01*
X166650000Y-115950000D02*
X167250000Y-115950000D01*
X167250000Y-120050000D02*
X166650000Y-120050000D01*
X167950000Y-116600000D02*
X167950000Y-119400000D01*
X165950000Y-116650000D02*
G75*
G02*
X166650000Y-115950000I700000J0D01*
G01*
X166650000Y-120050000D02*
G75*
G02*
X165950000Y-119350000I-1J699999D01*
G01*
X167250000Y-115950000D02*
G75*
G02*
X167950000Y-116650000I0J-700000D01*
G01*
X167950000Y-119350000D02*
G75*
G02*
X167250000Y-120050000I-699999J-1D01*
G01*
%TO.C,U4*%
D15*
X143500000Y-127000000D02*
X143500000Y-127300000D01*
X143500000Y-127000000D02*
X143800000Y-127000000D01*
X143500000Y-134000000D02*
X143500000Y-133700000D01*
X143500000Y-134000000D02*
X143800000Y-134000000D01*
X150500000Y-127000000D02*
X150200000Y-127000000D01*
X150500000Y-127000000D02*
X150500000Y-127300000D01*
X150500000Y-134000000D02*
X150200000Y-134000000D01*
X150500000Y-134000000D02*
X150500000Y-133700000D01*
D16*
X149850000Y-126005000D02*
G75*
G02*
X149650000Y-126005000I-100000J0D01*
G01*
X149650000Y-126005000D02*
G75*
G02*
X149850000Y-126005000I100000J0D01*
G01*
%TD*%
M02*
