%TF.GenerationSoftware,KiCad,Pcbnew,10.0.4-10.0.4~ubuntu24.04.1*%
%TF.CreationDate,2026-07-24T11:00:08+07:00*%
%TF.ProjectId,driver-bldc-foc,64726976-6572-42d6-926c-64632d666f63,rev?*%
%TF.SameCoordinates,Original*%
%TF.FileFunction,Copper,L4,Bot*%
%TF.FilePolarity,Positive*%
%FSLAX46Y46*%
G04 Gerber Fmt 4.6, Leading zero omitted, Abs format (unit mm)*
G04 Created by KiCad (PCBNEW 10.0.4-10.0.4~ubuntu24.04.1) date 2026-07-24 11:00:08*
%MOMM*%
%LPD*%
G01*
G04 APERTURE LIST*
G04 Aperture macros list*
%AMRoundRect*
0 Rectangle with rounded corners*
0 $1 Rounding radius*
0 $2 $3 $4 $5 $6 $7 $8 $9 X,Y pos of 4 corners*
0 Add a 4 corners polygon primitive as box body*
4,1,4,$2,$3,$4,$5,$6,$7,$8,$9,$2,$3,0*
0 Add four circle primitives for the rounded corners*
1,1,$1+$1,$2,$3*
1,1,$1+$1,$4,$5*
1,1,$1+$1,$6,$7*
1,1,$1+$1,$8,$9*
0 Add four rect primitives between the rounded corners*
20,1,$1+$1,$2,$3,$4,$5,0*
20,1,$1+$1,$4,$5,$6,$7,0*
20,1,$1+$1,$6,$7,$8,$9,0*
20,1,$1+$1,$8,$9,$2,$3,0*%
G04 Aperture macros list end*
%TA.AperFunction,ComponentPad*%
%ADD10C,1.498600*%
%TD*%
%TA.AperFunction,ComponentPad*%
%ADD11C,2.209800*%
%TD*%
%TA.AperFunction,ComponentPad*%
%ADD12O,1.050000X1.850000*%
%TD*%
%TA.AperFunction,ComponentPad*%
%ADD13O,1.050000X2.150000*%
%TD*%
%TA.AperFunction,ComponentPad*%
%ADD14RoundRect,0.250000X-0.600000X-0.725000X0.600000X-0.725000X0.600000X0.725000X-0.600000X0.725000X0*%
%TD*%
%TA.AperFunction,ComponentPad*%
%ADD15O,1.700000X1.950000*%
%TD*%
%TA.AperFunction,ComponentPad*%
%ADD16C,1.400000*%
%TD*%
%TA.AperFunction,ViaPad*%
%ADD17C,0.600000*%
%TD*%
%TA.AperFunction,Conductor*%
%ADD18C,0.254000*%
%TD*%
%TA.AperFunction,Conductor*%
%ADD19C,0.200000*%
%TD*%
G04 APERTURE END LIST*
D10*
%TO.P,U6,4*%
%TO.N,N/C*%
X119044752Y-102370076D03*
%TO.P,U6,3*%
X130044750Y-102370076D03*
D11*
%TO.P,U6,2,2_2*%
%TO.N,VBUS*%
X122044751Y-112370076D03*
%TO.P,U6,1,1_1*%
%TO.N,GND*%
X127044751Y-112370076D03*
%TD*%
D12*
%TO.P,J3,SH1,SHIELD_SH1*%
%TO.N,GND*%
X169420000Y-103075000D03*
%TO.P,J3,SH2,SHIELD_SH2*%
X160780000Y-103075000D03*
D13*
%TO.P,J3,SH3,SHIELD_SH3*%
X169420000Y-107225000D03*
%TO.P,J3,SH4,SHIELD_SH4*%
X160780000Y-107225000D03*
%TD*%
D14*
%TO.P,J7,1,Pin_1_1*%
%TO.N,+3.3V*%
X146650000Y-102775000D03*
D15*
%TO.P,J7,2,Pin_2_2*%
%TO.N,/MCU/DEBUG_DIO*%
X149150000Y-102775000D03*
%TO.P,J7,3,Pin_3_3*%
%TO.N,/MCU/DEBUG_CLK*%
X151650000Y-102775000D03*
%TO.P,J7,4,Pin_4_4*%
%TO.N,GND*%
X154150000Y-102775000D03*
%TD*%
D16*
%TO.P,TH1,1*%
%TO.N,/MCU/FET_TEMP*%
X105000000Y-124605000D03*
%TO.P,TH1,2*%
%TO.N,/MCU/3V3_MCU*%
X105000000Y-122705000D03*
%TD*%
D17*
%TO.N,GND*%
X141605000Y-124460000D03*
X141605000Y-123190000D03*
X141605000Y-123825000D03*
X141605000Y-122555000D03*
X141478000Y-119888000D03*
X141478000Y-118618000D03*
X141478000Y-119253000D03*
X141478000Y-117983000D03*
X141478000Y-115443000D03*
X141478000Y-114173000D03*
X141478000Y-114808000D03*
X141478000Y-113538000D03*
X159950000Y-145542000D03*
X159950000Y-146177000D03*
%TO.N,/MCU/U1_RX*%
X165377000Y-137668000D03*
X163949000Y-134366000D03*
%TO.N,GND*%
X138430000Y-152334000D03*
X138430000Y-135321000D03*
%TO.N,+5V*%
X138430000Y-137221000D03*
%TO.N,GND*%
X126900000Y-110500000D03*
X147900000Y-130100000D03*
X156638000Y-125730000D03*
X129900000Y-109300000D03*
X127416000Y-155508400D03*
X126216000Y-156708400D03*
X146100000Y-130100000D03*
X156652000Y-127762000D03*
X127416000Y-156708400D03*
X125700000Y-109900000D03*
X147950000Y-119126000D03*
X148525200Y-151150000D03*
X128616000Y-155508400D03*
X165542000Y-149987000D03*
X158090000Y-114130000D03*
X149258000Y-123030000D03*
X152908000Y-110871000D03*
X126816000Y-157908400D03*
X177800000Y-146050000D03*
X166950000Y-116700000D03*
X139431800Y-106603800D03*
X147300000Y-129500000D03*
X125616000Y-156108400D03*
X126816000Y-155508400D03*
X147900000Y-131300000D03*
X177327000Y-141062000D03*
X170175000Y-110998000D03*
X165750000Y-134500000D03*
X170241000Y-113157000D03*
X156106500Y-119126000D03*
X158115000Y-137983000D03*
X168300000Y-107800000D03*
X149750000Y-124206000D03*
X150550200Y-157050000D03*
X177327000Y-110455000D03*
X134481800Y-107873800D03*
X150000200Y-157050000D03*
X125700000Y-108100000D03*
X127500000Y-110500000D03*
X128016000Y-156108400D03*
X139700000Y-102108000D03*
X157380000Y-133400000D03*
X129900000Y-108100000D03*
X152888000Y-109731000D03*
X159962700Y-149987000D03*
X129216000Y-156108400D03*
X146700000Y-131300000D03*
X153538000Y-110311000D03*
X129216000Y-156708400D03*
X147900000Y-130700000D03*
X128100000Y-109900000D03*
X126300000Y-108100000D03*
X127416000Y-157908400D03*
X128616000Y-156708400D03*
X127416000Y-157308400D03*
X128100000Y-108100000D03*
X128016000Y-157308400D03*
X125616000Y-156708400D03*
X177200000Y-146650000D03*
X177927000Y-141062000D03*
X126216000Y-157308400D03*
X152750000Y-146019600D03*
X125700000Y-110500000D03*
X129900000Y-110500000D03*
X129300000Y-109900000D03*
X162837500Y-113284000D03*
X126300000Y-109900000D03*
X126816000Y-157308400D03*
X129216000Y-155508400D03*
X134747000Y-113641500D03*
X126300000Y-108700000D03*
X147300000Y-130100000D03*
X128016000Y-156708400D03*
X128016000Y-157908400D03*
X129900000Y-109900000D03*
X122729000Y-156210000D03*
X126900000Y-109300000D03*
X128700000Y-109300000D03*
X126816000Y-156108400D03*
X154000000Y-146019600D03*
X129900000Y-108700000D03*
X161900000Y-107800000D03*
X129816000Y-155508400D03*
X177200000Y-146050000D03*
X129816000Y-157908400D03*
X125700000Y-109300000D03*
X113604000Y-156210000D03*
X140300000Y-102708000D03*
X128700000Y-109900000D03*
X146100000Y-129500000D03*
X149450200Y-157050000D03*
X146700000Y-130100000D03*
X128100000Y-109300000D03*
X127500000Y-109300000D03*
X158049000Y-109220000D03*
X125700000Y-108700000D03*
X146700000Y-130700000D03*
X128700000Y-108700000D03*
X177327000Y-109855000D03*
X127500000Y-108700000D03*
X126900000Y-108100000D03*
X128100000Y-110500000D03*
X125616000Y-155508400D03*
X146100000Y-130700000D03*
X125616000Y-157908400D03*
X139700000Y-102708000D03*
X127500000Y-108100000D03*
X126300000Y-110500000D03*
X129300000Y-108700000D03*
X110363000Y-125857000D03*
X126300000Y-109300000D03*
X165542000Y-147447000D03*
X158720000Y-121120000D03*
X153528000Y-109741000D03*
X128700000Y-110500000D03*
X129300000Y-109300000D03*
X156779000Y-129921000D03*
X177327000Y-140462000D03*
X128616000Y-157308400D03*
X129216000Y-157308400D03*
X129816000Y-157308400D03*
X147900000Y-129500000D03*
X125616000Y-157308400D03*
X147300000Y-130700000D03*
X126216000Y-157908400D03*
X126900000Y-108700000D03*
X127416000Y-156108400D03*
X158130000Y-116770000D03*
X129216000Y-157908400D03*
X126216000Y-156108400D03*
X143730800Y-151130000D03*
X129300000Y-108100000D03*
X170160000Y-119080000D03*
X147300000Y-131300000D03*
X177927000Y-110455000D03*
X162862500Y-111125000D03*
X171740000Y-126890000D03*
X161260000Y-122950000D03*
X170800000Y-140140000D03*
X129300000Y-110500000D03*
X177927000Y-140462000D03*
X146700000Y-129500000D03*
X146100000Y-131300000D03*
X128016000Y-155508400D03*
X127500000Y-109900000D03*
X168470000Y-138130000D03*
X129816000Y-156708400D03*
X128700000Y-108100000D03*
X146220000Y-151130000D03*
X128100000Y-108700000D03*
X177800000Y-146650000D03*
X177927000Y-109855000D03*
X128616000Y-157908400D03*
X153548000Y-110881000D03*
X129816000Y-156108400D03*
X152898000Y-110301000D03*
X126900000Y-109900000D03*
X126816000Y-156708400D03*
X140300000Y-102108000D03*
X128616000Y-156108400D03*
X126216000Y-155508400D03*
%TO.N,/MCU/VB*%
X130425000Y-142027200D03*
X168402000Y-133223000D03*
%TO.N,/MCU/VC*%
X142748000Y-154051000D03*
X159893000Y-137795000D03*
X161417000Y-145161000D03*
X161734644Y-131381356D03*
%TO.N,/ThreePhaseBridge and Power/SHC*%
X139700000Y-130937000D03*
X117856000Y-140970000D03*
%TO.N,/ThreePhaseBridge and Power/SPA*%
X134200000Y-122500000D03*
X134800000Y-121900000D03*
X118900000Y-116400000D03*
X134800000Y-124300000D03*
X134200000Y-123700000D03*
X118300000Y-118200000D03*
X134800000Y-123100000D03*
X118300000Y-117600000D03*
X118900000Y-117000000D03*
X118900000Y-115800000D03*
X118300000Y-117000000D03*
X134200000Y-123100000D03*
X118300000Y-118800000D03*
X134800000Y-122500000D03*
X118300000Y-115800000D03*
X134200000Y-121300000D03*
X118300000Y-119400000D03*
X118900000Y-118200000D03*
X118900000Y-118800000D03*
X134200000Y-124300000D03*
X118300000Y-116400000D03*
X118900000Y-117600000D03*
X134800000Y-123700000D03*
X134800000Y-121300000D03*
X134200000Y-121900000D03*
%TO.N,/MCU/ENC_SDA*%
X173355000Y-127254000D03*
X177650000Y-118700000D03*
%TO.N,+3.3V*%
X153040000Y-113740000D03*
X152390000Y-113170000D03*
X161080000Y-115005000D03*
X153020000Y-112600000D03*
X153030000Y-113170000D03*
X142383000Y-135810000D03*
X178390000Y-124220000D03*
X162880000Y-115625000D03*
X177170000Y-123590000D03*
X153660000Y-114300000D03*
X151750000Y-113160000D03*
X177800000Y-124220000D03*
X176570000Y-123600000D03*
X151130000Y-113190000D03*
X176590000Y-124220000D03*
X160490000Y-116265000D03*
X160500000Y-115625000D03*
X177190000Y-124210000D03*
X151140000Y-114350000D03*
X151750000Y-114930000D03*
X178370000Y-123600000D03*
X153640000Y-112570000D03*
X152400000Y-113740000D03*
X162280000Y-115015000D03*
X161690000Y-115015000D03*
X168275000Y-110998000D03*
X177780000Y-123600000D03*
X163450000Y-115615000D03*
X161710000Y-116275000D03*
X151140000Y-113760000D03*
X162310000Y-115635000D03*
X154280000Y-112580000D03*
X152390000Y-114940000D03*
X153030000Y-114940000D03*
X153040000Y-114330000D03*
X142350000Y-110450000D03*
X162300000Y-116275000D03*
X152380000Y-112600000D03*
X151760000Y-114320000D03*
X151760000Y-113730000D03*
X162870000Y-116265000D03*
X153650000Y-114910000D03*
X160470000Y-115005000D03*
X141700000Y-110450000D03*
X154300000Y-113720000D03*
X153660000Y-113710000D03*
X141050000Y-110450000D03*
X151120000Y-112620000D03*
X163420000Y-114995000D03*
X161100000Y-116265000D03*
X154290000Y-113150000D03*
X152400000Y-114330000D03*
X151740000Y-112590000D03*
X161110000Y-115625000D03*
X168402000Y-113157000D03*
X161720000Y-115635000D03*
X154300000Y-114310000D03*
X151130000Y-114960000D03*
X153650000Y-113140000D03*
X163440000Y-116255000D03*
X175006000Y-144018000D03*
X154290000Y-114920000D03*
X162850000Y-115005000D03*
%TO.N,/ThreePhaseBridge and Power/BUCKVCC*%
X153220000Y-130940000D03*
X153081791Y-129165321D03*
%TO.N,+5V*%
X145750000Y-114250000D03*
X147150000Y-109550000D03*
X132800000Y-109550000D03*
X136050000Y-109550000D03*
X146550000Y-110150000D03*
X132800000Y-108900000D03*
X166751000Y-152400000D03*
X145950000Y-110150000D03*
X147150000Y-110750000D03*
X136050000Y-108900000D03*
X138496000Y-150495000D03*
X145950000Y-110750000D03*
X146550000Y-111350000D03*
X147150000Y-110150000D03*
X177650000Y-149150000D03*
X146550000Y-110750000D03*
X146550000Y-109550000D03*
X145950000Y-111350000D03*
X145950000Y-109550000D03*
X147150000Y-111350000D03*
%TO.N,VBUS*%
X120400000Y-126780800D03*
X138100000Y-126738000D03*
X138100000Y-125738000D03*
X139000000Y-126238000D03*
X121200000Y-126780800D03*
X139300000Y-125738000D03*
X121200000Y-125780800D03*
X122800000Y-126780800D03*
X138700000Y-125738000D03*
X123600000Y-125780800D03*
X122800000Y-125780800D03*
X123600000Y-126780800D03*
X121600000Y-126280800D03*
X137500000Y-126738000D03*
X120800000Y-126280800D03*
X122000000Y-126780800D03*
X139300000Y-126738000D03*
X138400000Y-126238000D03*
X120400000Y-125780800D03*
X122400000Y-126280800D03*
X122000000Y-125780800D03*
X138700000Y-126738000D03*
X123200000Y-126280800D03*
X137500000Y-125738000D03*
X137800000Y-126238000D03*
%TO.N,Net-(J3-CC1)*%
X166370000Y-113133500D03*
X166751000Y-106553000D03*
%TO.N,/USB_D+*%
X165092000Y-126746000D03*
X164127003Y-106431000D03*
%TO.N,/USB_D-*%
X165739942Y-106433230D03*
X166116000Y-128027000D03*
%TO.N,Net-(J3-CC2)*%
X161036000Y-113157000D03*
X163327000Y-106431000D03*
%TO.N,/MCU/ENC_CS*%
X162687000Y-130810000D03*
X170942000Y-136271000D03*
X162687000Y-126619000D03*
X177650000Y-137900000D03*
%TO.N,/MCU/LED2*%
X171770000Y-134560000D03*
X165092000Y-128480000D03*
%TO.N,/MCU/3V3_MCU*%
X160550000Y-121065000D03*
X161160000Y-121065000D03*
X169570000Y-142100000D03*
X162930000Y-121065000D03*
X160430000Y-125570000D03*
X160080000Y-126070000D03*
X162900000Y-120445000D03*
X160150000Y-133890000D03*
X161740000Y-120455000D03*
X168270000Y-134510000D03*
X171930000Y-142160000D03*
X163500000Y-121055000D03*
X162360000Y-121075000D03*
X160520000Y-120445000D03*
X163470000Y-120435000D03*
X162330000Y-120455000D03*
X161130000Y-120445000D03*
X161770000Y-121075000D03*
X168890000Y-126390000D03*
%TO.N,/MCU/DEBUG_DIO*%
X169164000Y-122301000D03*
%TO.N,/MCU/DEBUG_CLK*%
X168148000Y-122174000D03*
%TO.N,/ThreePhaseBridge and Power/SHB*%
X135763000Y-129413000D03*
X110236000Y-138684000D03*
X139573000Y-129150000D03*
%TO.N,/ThreePhaseBridge and Power/GHB*%
X117652800Y-140106400D03*
X138430000Y-129895600D03*
%TO.N,/MCU/ENC_MISO*%
X166119382Y-122939382D03*
X177650000Y-135100000D03*
%TO.N,/MCU/ENC_SCK*%
X177650000Y-129500000D03*
X166685069Y-122373695D03*
%TO.N,/ThreePhaseBridge and Power/SHA*%
X141224000Y-125730000D03*
X136271000Y-120777000D03*
%TO.N,Net-(U4-FB)*%
X151686473Y-127373000D03*
X154178000Y-134874000D03*
%TO.N,Net-(U4-RCL)*%
X153162000Y-125476000D03*
X154281500Y-119126000D03*
%TO.N,/MCU/VA*%
X142748000Y-117856000D03*
X162560000Y-133477000D03*
X133096000Y-117856000D03*
X157861000Y-124283000D03*
%TO.N,Net-(U4-VGLS)*%
X148780500Y-124142500D03*
X146050000Y-119126000D03*
%TO.N,Net-(U4-CPL)*%
X152080000Y-119126000D03*
X148877000Y-125730000D03*
%TO.N,Net-(U4-CPH)*%
X150241000Y-119126000D03*
X148580310Y-124968000D03*
%TO.N,/ThreePhaseBridge and Power/GHA*%
X118414800Y-126492000D03*
X146150000Y-125171200D03*
%TO.N,/ThreePhaseBridge and Power/GLA*%
X118364000Y-114757200D03*
X143383000Y-125003000D03*
%TO.N,/ThreePhaseBridge and Power/SPB*%
X118900000Y-129200000D03*
X134200000Y-137200000D03*
X134200000Y-136000000D03*
X134200000Y-137800000D03*
X134200000Y-136600000D03*
X118900000Y-130400000D03*
X134800000Y-136000000D03*
X118900000Y-131000000D03*
X134800000Y-138400000D03*
X118300000Y-131600000D03*
X118300000Y-132800000D03*
X118300000Y-129800000D03*
X134200000Y-135400000D03*
X118300000Y-132200000D03*
X118300000Y-129200000D03*
X134800000Y-137800000D03*
X118900000Y-129800000D03*
X134200000Y-138400000D03*
X118300000Y-130400000D03*
X134800000Y-136600000D03*
X118300000Y-131000000D03*
X118900000Y-131600000D03*
X134800000Y-137200000D03*
X134800000Y-135400000D03*
X118900000Y-132200000D03*
%TO.N,/ThreePhaseBridge and Power/GLB*%
X118668800Y-128016000D03*
X141480998Y-128643000D03*
%TO.N,/ThreePhaseBridge and Power/GHC*%
X136906000Y-143510000D03*
X122428000Y-154279600D03*
%TO.N,/ThreePhaseBridge and Power/GLC*%
X118872000Y-141427200D03*
X141351000Y-131572000D03*
%TO.N,/ThreePhaseBridge and Power/SPC*%
X119000000Y-143800000D03*
X119000000Y-143200000D03*
X134100000Y-151000000D03*
X118400000Y-145600000D03*
X118400000Y-143200000D03*
X134700000Y-149800000D03*
X134700000Y-151000000D03*
X134100000Y-152200000D03*
X134100000Y-151600000D03*
X119000000Y-145000000D03*
X134700000Y-150400000D03*
X134700000Y-151600000D03*
X119000000Y-146200000D03*
X138176000Y-142994000D03*
X119000000Y-145600000D03*
X118400000Y-146800000D03*
X134700000Y-152200000D03*
X134100000Y-150400000D03*
X119000000Y-144400000D03*
X118400000Y-145000000D03*
X118400000Y-144400000D03*
X134700000Y-152800000D03*
X118400000Y-143800000D03*
X134100000Y-149800000D03*
X134100000Y-152800000D03*
X118400000Y-146200000D03*
%TO.N,/MCU/IC*%
X141605000Y-132842000D03*
X156302000Y-124079000D03*
%TO.N,/MCU/IB*%
X162750000Y-143338000D03*
X142230000Y-136850000D03*
%TO.N,/MCU/IA*%
X164750000Y-142711000D03*
X143548000Y-133935000D03*
%TO.N,/MCU/OC*%
X144350000Y-135810000D03*
X167377000Y-140880000D03*
%TO.N,/MCU/DRV_MOSI*%
X143700000Y-136437000D03*
X163750000Y-126490000D03*
%TO.N,/MCU/DRV_MISO*%
X162560000Y-144780000D03*
X146109110Y-136067602D03*
X169902500Y-145923000D03*
X162070000Y-141003000D03*
%TO.N,/MCU/DRV_SCK*%
X146851335Y-135687000D03*
X161120000Y-141875000D03*
%TO.N,/MCU/DRV_CS*%
X147555000Y-136067600D03*
X167862992Y-131972348D03*
%TO.N,/MCU/DRV_EN*%
X167323198Y-131374956D03*
X148826999Y-135982123D03*
%TO.N,/MCU/PWM_A+*%
X164240000Y-132080000D03*
X150927661Y-136282631D03*
%TO.N,/MCU/PWM_A-*%
X151113000Y-135504394D03*
X160960000Y-126770000D03*
%TO.N,/MCU/PWM_B+*%
X150228356Y-134883000D03*
X165123000Y-131453000D03*
%TO.N,/MCU/PWM_B-*%
X164250000Y-138670000D03*
X151740000Y-136250000D03*
%TO.N,/MCU/PWM_C+*%
X160270000Y-128540000D03*
X152290000Y-133340000D03*
%TO.N,/MCU/PWM_C-*%
X160224644Y-129390000D03*
X152270000Y-132260000D03*
%TO.N,Net-(U4-DVDD)*%
X154432000Y-130302000D03*
X151765000Y-131445000D03*
%TO.N,Net-(U4-BST)*%
X153081791Y-128316791D03*
X155194000Y-131720000D03*
%TO.N,/+12V*%
X153508000Y-151384000D03*
X149463800Y-155150000D03*
X157734000Y-145542000D03*
X146510000Y-147540000D03*
X149510000Y-147540000D03*
X152908000Y-150784000D03*
X148910000Y-147540000D03*
X142270000Y-146930000D03*
X145910000Y-147540000D03*
X153508000Y-150784000D03*
X150613800Y-155150000D03*
X147110000Y-147540000D03*
X142270000Y-143930000D03*
X142270000Y-145730000D03*
X145310000Y-147540000D03*
X143813800Y-156100000D03*
X142270000Y-144530000D03*
X142270000Y-145130000D03*
X152908000Y-151384000D03*
X144463800Y-156100000D03*
X143213800Y-156100000D03*
X150063800Y-155150000D03*
X147710000Y-147540000D03*
X142890000Y-147550000D03*
X142270000Y-146330000D03*
X143510000Y-147540000D03*
X144710000Y-147540000D03*
X148310000Y-147540000D03*
X144110000Y-147540000D03*
X142270000Y-143330000D03*
X142270000Y-147530000D03*
%TO.N,/MCU/FET_TEMP*%
X157353000Y-131953000D03*
X155829000Y-134747000D03*
X156718000Y-144653000D03*
%TO.N,/MCU/LED1*%
X170942000Y-124135500D03*
X167377644Y-126862356D03*
%TO.N,/CAN_TX*%
X172339000Y-132588000D03*
X174625000Y-133350000D03*
%TO.N,/MCU/ENC_SCL*%
X177650000Y-115850000D03*
X172783500Y-129857500D03*
%TO.N,/MCU/ENC_MOSI*%
X165363353Y-123200959D03*
X174625000Y-134239000D03*
%TO.N,/MCU/ENC_EN*%
X165354000Y-121793000D03*
X168529000Y-114681000D03*
X177650000Y-112950000D03*
X162306000Y-122428000D03*
X163250000Y-123385648D03*
X173540000Y-112903000D03*
%TO.N,V*%
X148590000Y-114554000D03*
X153035000Y-106807000D03*
%TD*%
%TO.N,/MCU/DEBUG_DIO*%
D18*
X169164000Y-122301000D02*
X169672000Y-122301000D01*
X169672000Y-122301000D02*
X171704000Y-120269000D01*
X171704000Y-120269000D02*
X171704000Y-109855000D01*
X171704000Y-109855000D02*
X170761000Y-108912000D01*
X169976053Y-100627000D02*
X151298000Y-100627000D01*
X151298000Y-100627000D02*
X149150000Y-102775000D01*
X170761000Y-108912000D02*
X170761000Y-101411947D01*
X170761000Y-101411947D02*
X169976053Y-100627000D01*
%TO.N,/MCU/DEBUG_CLK*%
X151650000Y-102775000D02*
X153206000Y-101219000D01*
X153206000Y-101219000D02*
X169926000Y-101219000D01*
X169926000Y-101219000D02*
X170307000Y-101600000D01*
X171250000Y-110363000D02*
X171250000Y-119072000D01*
X170307000Y-101600000D02*
X170307000Y-109420000D01*
X170307000Y-109420000D02*
X171250000Y-110363000D01*
X171250000Y-119072000D02*
X168148000Y-122174000D01*
%TO.N,/MCU/ENC_MOSI*%
X166624000Y-127642053D02*
X166297000Y-127315053D01*
X166624000Y-127648288D02*
X166624000Y-127642053D01*
X166743000Y-128262000D02*
X166743000Y-127767288D01*
X171328712Y-132847712D02*
X166743000Y-128262000D01*
X166743000Y-127767288D02*
X166624000Y-127648288D01*
X171712000Y-132847712D02*
X171328712Y-132847712D01*
X165472962Y-123200959D02*
X165363353Y-123200959D01*
X174244000Y-134620000D02*
X173484288Y-134620000D01*
X174625000Y-134239000D02*
X174244000Y-134620000D01*
X173484288Y-134620000D02*
X171712000Y-132847712D01*
X166297000Y-127315053D02*
X166297000Y-124024997D01*
X166297000Y-124024997D02*
X165472962Y-123200959D01*
%TO.N,/MCU/ENC_SCK*%
X170815000Y-122936000D02*
X171577000Y-123698000D01*
X171577000Y-123698000D02*
X171577000Y-125092000D01*
X168021000Y-122936000D02*
X170815000Y-122936000D01*
X166866374Y-122555000D02*
X167640000Y-122555000D01*
X171577000Y-125092000D02*
X171113000Y-125556000D01*
X171113000Y-125556000D02*
X171113000Y-129073712D01*
X166685069Y-122373695D02*
X166866374Y-122555000D01*
X172523788Y-130484500D02*
X176665500Y-130484500D01*
X167640000Y-122555000D02*
X168021000Y-122936000D01*
X171113000Y-129073712D02*
X172523788Y-130484500D01*
X176665500Y-130484500D02*
X177650000Y-129500000D01*
%TO.N,/MCU/U1_RX*%
D19*
X163949000Y-134366000D02*
X164139524Y-134556524D01*
X164178654Y-134556524D02*
X165377000Y-135754870D01*
X164139524Y-134556524D02*
X164178654Y-134556524D01*
X165377000Y-135754870D02*
X165377000Y-137668000D01*
%TO.N,/MCU/PWM_B+*%
D18*
X165123000Y-131453000D02*
X165123000Y-134897000D01*
X165123000Y-134897000D02*
X166006000Y-135780000D01*
X166006000Y-138891948D02*
X165117948Y-139780000D01*
X166006000Y-135780000D02*
X166006000Y-138891948D01*
X165117948Y-139780000D02*
X152877948Y-139780000D01*
X152877948Y-139780000D02*
X150228356Y-137130408D01*
X150228356Y-137130408D02*
X150228356Y-134883000D01*
%TO.N,/MCU/PWM_A+*%
X164240000Y-132080000D02*
X163322000Y-132998000D01*
X163322000Y-132998000D02*
X163322000Y-136855288D01*
X163322000Y-136855288D02*
X164877000Y-138410288D01*
X164877000Y-138410288D02*
X164877000Y-138929712D01*
X164877000Y-138929712D02*
X164720000Y-139086712D01*
%TO.N,/MCU/VB*%
X160157843Y-143864000D02*
X162389288Y-143864000D01*
X131572000Y-141859000D02*
X149820532Y-141859000D01*
X159815842Y-143522000D02*
X160157843Y-143864000D01*
X162389288Y-143864000D02*
X162490288Y-143965000D01*
X162490288Y-143965000D02*
X165178712Y-143965000D01*
X169097000Y-133918000D02*
X168402000Y-133223000D01*
X130425000Y-142027200D02*
X131403800Y-142027200D01*
X149820532Y-141859000D02*
X151483532Y-143522000D01*
X165178712Y-143965000D02*
X169097000Y-140046712D01*
X131403800Y-142027200D02*
X131572000Y-141859000D01*
X151483532Y-143522000D02*
X159815842Y-143522000D01*
X169097000Y-140046712D02*
X169097000Y-133918000D01*
%TO.N,/MCU/VC*%
X159893000Y-135128000D02*
X161671000Y-133350000D01*
X159893000Y-137795000D02*
X159893000Y-135128000D01*
X161671000Y-131445000D02*
X161734644Y-131381356D01*
X161417000Y-145161000D02*
X161417000Y-146304000D01*
X153670000Y-154051000D02*
X142748000Y-154051000D01*
X161671000Y-133350000D02*
X161671000Y-131445000D01*
X161417000Y-146304000D02*
X153670000Y-154051000D01*
%TO.N,/ThreePhaseBridge and Power/SHC*%
X137033000Y-133604000D02*
X139700000Y-130937000D01*
X117856000Y-140970000D02*
X118025800Y-140800200D01*
X136440800Y-140800200D02*
X137033000Y-140208000D01*
X137033000Y-140208000D02*
X137033000Y-133604000D01*
X118025800Y-140800200D02*
X136440800Y-140800200D01*
%TO.N,/MCU/ENC_SDA*%
X174371000Y-118745000D02*
X177605000Y-118745000D01*
X173355000Y-127254000D02*
X173355000Y-119761000D01*
X177605000Y-118745000D02*
X177650000Y-118700000D01*
X173355000Y-119761000D02*
X174371000Y-118745000D01*
%TO.N,+3.3V*%
X142121000Y-132199000D02*
X146939000Y-127381000D01*
X179373000Y-125095000D02*
X178370000Y-124092000D01*
X140978000Y-132572000D02*
X141351000Y-132199000D01*
X146939000Y-123070052D02*
X145423000Y-121554052D01*
X179373000Y-143334000D02*
X179373000Y-125095000D01*
X178370000Y-124092000D02*
X178370000Y-123600000D01*
X140978000Y-134405000D02*
X140978000Y-132572000D01*
X150529288Y-113760000D02*
X151140000Y-113760000D01*
X175006000Y-144018000D02*
X178689000Y-144018000D01*
X145423000Y-118866288D02*
X150529288Y-113760000D01*
X141351000Y-132199000D02*
X142121000Y-132199000D01*
X178689000Y-144018000D02*
X179373000Y-143334000D01*
X142383000Y-135810000D02*
X140978000Y-134405000D01*
X145423000Y-121554052D02*
X145423000Y-118866288D01*
X146939000Y-127381000D02*
X146939000Y-123070052D01*
%TO.N,/ThreePhaseBridge and Power/BUCKVCC*%
D19*
X153220000Y-129720000D02*
X153220000Y-130940000D01*
X153212800Y-129296330D02*
X153212800Y-129712800D01*
X153081791Y-129165321D02*
X153212800Y-129296330D01*
X153212800Y-129712800D02*
X153220000Y-129720000D01*
%TO.N,Net-(J3-CC1)*%
D18*
X166370000Y-113133500D02*
X166370000Y-106934000D01*
X166370000Y-106934000D02*
X166751000Y-106553000D01*
%TO.N,/USB_D+*%
X164127003Y-125138003D02*
X164127003Y-106431000D01*
X165092000Y-126103000D02*
X164127003Y-125138003D01*
X165092000Y-126746000D02*
X165092000Y-126103000D01*
%TO.N,/USB_D-*%
X166116000Y-127889000D02*
X165735000Y-127508000D01*
X166116000Y-128027000D02*
X166116000Y-127889000D01*
X164581003Y-107592169D02*
X165739942Y-106433230D01*
X164592000Y-112268000D02*
X164581003Y-112257003D01*
X165735000Y-125095000D02*
X164581003Y-123941003D01*
X164581003Y-112278997D02*
X164592000Y-112268000D01*
X164581003Y-112257003D02*
X164581003Y-107592169D01*
X165735000Y-127508000D02*
X165735000Y-125095000D01*
X164581003Y-123941003D02*
X164581003Y-112278997D01*
%TO.N,Net-(J3-CC2)*%
X163327000Y-107945000D02*
X163327000Y-106431000D01*
X161036000Y-113157000D02*
X161925000Y-112268000D01*
X161925000Y-109347000D02*
X163327000Y-107945000D01*
X161925000Y-112268000D02*
X161925000Y-109347000D01*
%TO.N,/MCU/ENC_CS*%
X172571000Y-137900000D02*
X177650000Y-137900000D01*
X170942000Y-136271000D02*
X172571000Y-137900000D01*
X162687000Y-126619000D02*
X162687000Y-130810000D01*
%TO.N,/MCU/LED2*%
X165092000Y-128480000D02*
X165263000Y-128651000D01*
X165263000Y-128651000D02*
X165735000Y-128651000D01*
X165735000Y-128651000D02*
X171644000Y-134560000D01*
X171644000Y-134560000D02*
X171770000Y-134560000D01*
%TO.N,/MCU/3V3_MCU*%
X122422000Y-105283000D02*
X155956000Y-105283000D01*
X155956000Y-105283000D02*
X158877000Y-108204000D01*
X158877000Y-108204000D02*
X158877000Y-118802000D01*
X158877000Y-118802000D02*
X160520000Y-120445000D01*
X105000000Y-122705000D02*
X122422000Y-105283000D01*
%TO.N,/ThreePhaseBridge and Power/SHB*%
X110998000Y-139446000D02*
X110236000Y-138684000D01*
X135763000Y-138811000D02*
X135128000Y-139446000D01*
X135763000Y-129413000D02*
X135763000Y-138811000D01*
X135763000Y-129413000D02*
X136026000Y-129150000D01*
X136026000Y-129150000D02*
X139573000Y-129150000D01*
X135128000Y-139446000D02*
X110998000Y-139446000D01*
%TO.N,/ThreePhaseBridge and Power/GHB*%
D19*
X137515600Y-129895600D02*
X136194800Y-131216400D01*
X135229600Y-140106400D02*
X117652800Y-140106400D01*
X136194800Y-131216400D02*
X136194800Y-139141200D01*
X136194800Y-139141200D02*
X135229600Y-140106400D01*
X138430000Y-129895600D02*
X137515600Y-129895600D01*
%TO.N,/MCU/ENC_MISO*%
D18*
X166119382Y-122939382D02*
X166751000Y-123571000D01*
X166751000Y-123571000D02*
X166751000Y-127127000D01*
X171585000Y-131961000D02*
X174511000Y-131961000D01*
X174511000Y-131961000D02*
X177650000Y-135100000D01*
X166751000Y-127127000D02*
X171585000Y-131961000D01*
%TO.N,/ThreePhaseBridge and Power/SHA*%
X141224000Y-125730000D02*
X136271000Y-120777000D01*
%TO.N,Net-(U4-FB)*%
D19*
X154178000Y-134874000D02*
X152400000Y-134874000D01*
D18*
X152146000Y-134874000D02*
X150495000Y-133223000D01*
X152400000Y-134874000D02*
X152146000Y-134874000D01*
X150495000Y-133223000D02*
X150495000Y-128564473D01*
X150495000Y-128564473D02*
X151686473Y-127373000D01*
%TO.N,Net-(U4-RCL)*%
X153162000Y-120245500D02*
X154281500Y-119126000D01*
X153162000Y-125476000D02*
X153162000Y-120245500D01*
%TO.N,/MCU/VA*%
X133604000Y-117348000D02*
X133096000Y-117856000D01*
X157861000Y-124283000D02*
X162510000Y-124283000D01*
X164465000Y-130556000D02*
X162560000Y-132461000D01*
X142240000Y-117348000D02*
X133604000Y-117348000D01*
X164465000Y-126238000D02*
X164465000Y-130556000D01*
X162560000Y-132461000D02*
X162560000Y-133477000D01*
X142748000Y-117856000D02*
X142240000Y-117348000D01*
X162510000Y-124283000D02*
X164465000Y-126238000D01*
%TO.N,Net-(U4-VGLS)*%
X148780500Y-124142500D02*
X148653500Y-124142500D01*
X146050000Y-121539000D02*
X146050000Y-119126000D01*
X148653500Y-124142500D02*
X146050000Y-121539000D01*
%TO.N,Net-(U4-CPL)*%
X152080000Y-124145000D02*
X150749000Y-125476000D01*
X150749000Y-125476000D02*
X149131000Y-125476000D01*
X152080000Y-119126000D02*
X152080000Y-124145000D01*
X149131000Y-125476000D02*
X148877000Y-125730000D01*
%TO.N,Net-(U4-CPH)*%
X148580310Y-124968000D02*
X149874712Y-124968000D01*
X150377000Y-119262000D02*
X150241000Y-119126000D01*
X149874712Y-124968000D02*
X150377000Y-124465712D01*
X150377000Y-124465712D02*
X150377000Y-119262000D01*
%TO.N,/ThreePhaseBridge and Power/GHA*%
D19*
X142570200Y-125603000D02*
X140309600Y-127863600D01*
X119786400Y-127863600D02*
X118414800Y-126492000D01*
X146150000Y-125171200D02*
X146100800Y-125171200D01*
X140309600Y-127863600D02*
X119786400Y-127863600D01*
X146100800Y-125171200D02*
X145669000Y-125603000D01*
X145669000Y-125603000D02*
X142570200Y-125603000D01*
%TO.N,/ThreePhaseBridge and Power/GLA*%
X142875000Y-116713000D02*
X143383000Y-117221000D01*
X118364000Y-114757200D02*
X118795800Y-115189000D01*
X118795800Y-115189000D02*
X139827000Y-115189000D01*
X139827000Y-115189000D02*
X141351000Y-116713000D01*
X141351000Y-116713000D02*
X142875000Y-116713000D01*
X143383000Y-117221000D02*
X143383000Y-125003000D01*
%TO.N,/ThreePhaseBridge and Power/GLB*%
X119075200Y-128422400D02*
X118668800Y-128016000D01*
X141260398Y-128422400D02*
X119075200Y-128422400D01*
X141480998Y-128643000D02*
X141260398Y-128422400D01*
%TO.N,/ThreePhaseBridge and Power/GHC*%
X135483600Y-154279600D02*
X122428000Y-154279600D01*
X136906000Y-152857200D02*
X135483600Y-154279600D01*
X136906000Y-143510000D02*
X136906000Y-152857200D01*
%TO.N,/ThreePhaseBridge and Power/GLC*%
X141351000Y-131572000D02*
X140208000Y-131572000D01*
X139547600Y-132232400D02*
X139547600Y-138836400D01*
X136956800Y-141427200D02*
X118872000Y-141427200D01*
X140208000Y-131572000D02*
X139547600Y-132232400D01*
X139547600Y-138836400D02*
X136956800Y-141427200D01*
%TO.N,/ThreePhaseBridge and Power/SPC*%
D18*
X136654288Y-142875000D02*
X134700000Y-144829288D01*
X138041000Y-142994000D02*
X137922000Y-142875000D01*
X134700000Y-144829288D02*
X134700000Y-149800000D01*
X137922000Y-142875000D02*
X136654288Y-142875000D01*
X138176000Y-142994000D02*
X138041000Y-142994000D01*
%TO.N,/MCU/IC*%
X155325000Y-124456000D02*
X155317947Y-124456000D01*
X149733000Y-126238000D02*
X148844000Y-127127000D01*
X148463000Y-132842000D02*
X141605000Y-132842000D01*
X153535948Y-126238000D02*
X149733000Y-126238000D01*
X156302000Y-124079000D02*
X155702000Y-124079000D01*
X148844000Y-132461000D02*
X148463000Y-132842000D01*
X155702000Y-124079000D02*
X155325000Y-124456000D01*
X155317947Y-124456000D02*
X153535948Y-126238000D01*
X148844000Y-127127000D02*
X148844000Y-132461000D01*
%TO.N,/MCU/IB*%
X161827816Y-143338000D02*
X161755816Y-143410000D01*
X146523584Y-137920000D02*
X143300000Y-137920000D01*
X160003895Y-143068000D02*
X151671584Y-143068000D01*
X161755816Y-143410000D02*
X160345896Y-143410000D01*
X162750000Y-143338000D02*
X161827816Y-143338000D01*
X143300000Y-137920000D02*
X142230000Y-136850000D01*
X160345896Y-143410000D02*
X160003895Y-143068000D01*
X151671584Y-143068000D02*
X146523584Y-137920000D01*
%TO.N,/MCU/IA*%
X146700792Y-137455156D02*
X151859636Y-142614000D01*
X143530000Y-134870288D02*
X143010000Y-135390288D01*
X143530000Y-133953000D02*
X143530000Y-134870288D01*
X160533948Y-142956000D02*
X161567764Y-142956000D01*
X161567764Y-142956000D02*
X161812765Y-142711000D01*
X143010000Y-136710000D02*
X143755156Y-137455156D01*
X161812765Y-142711000D02*
X164750000Y-142711000D01*
X143755156Y-137455156D02*
X146700792Y-137455156D01*
X143010000Y-135390288D02*
X143010000Y-136710000D01*
X160191947Y-142614000D02*
X160533948Y-142956000D01*
X151859636Y-142614000D02*
X160191947Y-142614000D01*
X143548000Y-133935000D02*
X143530000Y-133953000D01*
%TO.N,/MCU/OC*%
X145541156Y-137001156D02*
X146888844Y-137001156D01*
X152047688Y-142160000D02*
X160380000Y-142160000D01*
X144350000Y-135810000D02*
X145541156Y-137001156D01*
X167370000Y-140880000D02*
X167377000Y-140880000D01*
X161797712Y-142084000D02*
X166166000Y-142084000D01*
X146888844Y-137001156D02*
X152047688Y-142160000D01*
X167377000Y-140853000D02*
X167400000Y-140830000D01*
X160722000Y-142502000D02*
X161379712Y-142502000D01*
X167377000Y-140880000D02*
X167377000Y-140853000D01*
X160380000Y-142160000D02*
X160722000Y-142502000D01*
X166166000Y-142084000D02*
X167370000Y-140880000D01*
X161379712Y-142502000D02*
X161797712Y-142084000D01*
%TO.N,/MCU/DRV_MOSI*%
X153670000Y-126746000D02*
X150495000Y-126746000D01*
X149860000Y-132969000D02*
X148272500Y-134556500D01*
X161570000Y-125730000D02*
X160750000Y-124910000D01*
X143700000Y-135500000D02*
X143700000Y-136437000D01*
X148272500Y-134556500D02*
X145986500Y-134556500D01*
X160750000Y-124910000D02*
X157601288Y-124910000D01*
X145986500Y-134556500D02*
X145923000Y-134620000D01*
X149860000Y-127381000D02*
X149860000Y-132969000D01*
X163750000Y-126490000D02*
X163750000Y-126165052D01*
X163750000Y-126165052D02*
X163314948Y-125730000D01*
X155513052Y-124910000D02*
X155506000Y-124910000D01*
X163314948Y-125730000D02*
X161570000Y-125730000D01*
X155506000Y-124910000D02*
X153670000Y-126746000D01*
X155709053Y-124714000D02*
X155513052Y-124910000D01*
X157405288Y-124714000D02*
X155709053Y-124714000D01*
X150495000Y-126746000D02*
X149860000Y-127381000D01*
X157601288Y-124910000D02*
X157405288Y-124714000D01*
X144580000Y-134620000D02*
X143700000Y-135500000D01*
X145923000Y-134620000D02*
X144580000Y-134620000D01*
%TO.N,/MCU/DRV_MISO*%
X152607844Y-140794000D02*
X161791000Y-140794000D01*
X162560000Y-144780000D02*
X168759500Y-144780000D01*
X147800000Y-135070000D02*
X147830000Y-135070000D01*
X162000000Y-141003000D02*
X162070000Y-141003000D01*
X146440000Y-135060000D02*
X147790000Y-135060000D01*
X148200000Y-135440000D02*
X148200000Y-136386156D01*
X168759500Y-144780000D02*
X169902500Y-145923000D01*
X146109110Y-135390890D02*
X146440000Y-135060000D01*
X146109110Y-136067602D02*
X146109110Y-135390890D01*
X147790000Y-135060000D02*
X147800000Y-135070000D01*
X161791000Y-140794000D02*
X162000000Y-141003000D01*
X147830000Y-135070000D02*
X148200000Y-135440000D01*
X148200000Y-136386156D02*
X152607844Y-140794000D01*
%TO.N,/MCU/DRV_SCK*%
X147292000Y-136691312D02*
X146851335Y-136250647D01*
X152231740Y-141702000D02*
X147292000Y-136762260D01*
X147292000Y-136762260D02*
X147292000Y-136691312D01*
X161120000Y-141875000D02*
X161110000Y-141865000D01*
X161110000Y-141840000D02*
X160972000Y-141702000D01*
X160972000Y-141702000D02*
X152231740Y-141702000D01*
X146851335Y-136250647D02*
X146851335Y-135687000D01*
X161110000Y-141865000D02*
X161110000Y-141840000D01*
%TO.N,/MCU/DRV_CS*%
X162329712Y-141630000D02*
X161810288Y-141630000D01*
X166914000Y-139268052D02*
X165388053Y-140794000D01*
X162697000Y-141262712D02*
X162329712Y-141630000D01*
X152419792Y-141248000D02*
X147746000Y-136574208D01*
X162697000Y-141187000D02*
X162697000Y-141262712D01*
X147746000Y-136574208D02*
X147746000Y-136258600D01*
X147746000Y-136258600D02*
X147555000Y-136067600D01*
X166914000Y-132571948D02*
X166914000Y-139268052D01*
X165388053Y-140794000D02*
X163090000Y-140794000D01*
X163090000Y-140794000D02*
X162697000Y-141187000D01*
X161443000Y-141262712D02*
X161443000Y-141248000D01*
X167513600Y-131972348D02*
X166914000Y-132571948D01*
X161810288Y-141630000D02*
X161443000Y-141262712D01*
X167862992Y-131972348D02*
X167513600Y-131972348D01*
X161443000Y-141248000D02*
X152419792Y-141248000D01*
%TO.N,/MCU/DRV_EN*%
X167323198Y-131374956D02*
X167323198Y-131520698D01*
X166460000Y-132383896D02*
X166460000Y-139080000D01*
X152795896Y-140340000D02*
X148826999Y-136371103D01*
X167323198Y-131520698D02*
X166460000Y-132383896D01*
X148826999Y-136371103D02*
X148826999Y-135982123D01*
X165200000Y-140340000D02*
X152795896Y-140340000D01*
X166460000Y-139080000D02*
X165200000Y-140340000D01*
%TO.N,/MCU/PWM_A+*%
X150927661Y-136282631D02*
X150927661Y-137187661D01*
X153024000Y-139284000D02*
X163264000Y-139284000D01*
X163990288Y-139297000D02*
X164509712Y-139297000D01*
X163264000Y-139284000D02*
X163270000Y-139290000D01*
X150927661Y-137187661D02*
X153024000Y-139284000D01*
X164509712Y-139297000D02*
X164640000Y-139166712D01*
X163860000Y-139290000D02*
X163866000Y-139284000D01*
X163977288Y-139284000D02*
X163990288Y-139297000D01*
X163866000Y-139284000D02*
X163977288Y-139284000D01*
X163270000Y-139290000D02*
X163860000Y-139290000D01*
%TO.N,/MCU/PWM_A-*%
X160960000Y-131380000D02*
X156830000Y-135510000D01*
X156830000Y-135510000D02*
X151118606Y-135510000D01*
X160960000Y-126770000D02*
X160960000Y-131380000D01*
X151118606Y-135510000D02*
X151113000Y-135504394D01*
%TO.N,/MCU/PWM_B-*%
X153320000Y-138830000D02*
X151740000Y-137250000D01*
X151740000Y-137250000D02*
X151740000Y-136250000D01*
X164250000Y-138670000D02*
X164090000Y-138830000D01*
X164090000Y-138830000D02*
X153320000Y-138830000D01*
%TO.N,/MCU/PWM_C+*%
X159750000Y-128540000D02*
X159354000Y-128936000D01*
X156272000Y-131505235D02*
X156272000Y-131528712D01*
X160270000Y-128540000D02*
X159750000Y-128540000D01*
X154248620Y-132569328D02*
X153467948Y-133350000D01*
X153467948Y-133350000D02*
X152300000Y-133350000D01*
X159354000Y-129563948D02*
X158045948Y-130872000D01*
X155453712Y-132347000D02*
X154470948Y-132347000D01*
X154427947Y-132390000D02*
X154427944Y-132390000D01*
X154248620Y-132569324D02*
X154248620Y-132569328D01*
X158045948Y-130872000D02*
X156905236Y-130872000D01*
X152300000Y-133350000D02*
X152290000Y-133340000D01*
X154470948Y-132347000D02*
X154427947Y-132390000D01*
X156272000Y-131528712D02*
X155453712Y-132347000D01*
X156905236Y-130872000D02*
X156272000Y-131505235D01*
X159354000Y-128936000D02*
X159354000Y-129563948D01*
X154427944Y-132390000D02*
X154248620Y-132569324D01*
%TO.N,/MCU/PWM_C-*%
X157093288Y-131326000D02*
X156726000Y-131693288D01*
X156726000Y-131716765D02*
X155641765Y-132801000D01*
X151663000Y-132867000D02*
X152270000Y-132260000D01*
X152090288Y-134027000D02*
X151663000Y-133599712D01*
X160170000Y-129390000D02*
X158234000Y-131326000D01*
X156726000Y-131693288D02*
X156726000Y-131716765D01*
X155641765Y-132801000D02*
X154659000Y-132801000D01*
X151663000Y-133599712D02*
X151663000Y-132867000D01*
X160224644Y-129390000D02*
X160170000Y-129390000D01*
X154659000Y-132801000D02*
X153433000Y-134027000D01*
X158234000Y-131326000D02*
X157093288Y-131326000D01*
X153433000Y-134027000D02*
X152090288Y-134027000D01*
%TO.N,Net-(U4-DVDD)*%
X153479712Y-131567000D02*
X152960288Y-131567000D01*
X152838288Y-131445000D02*
X151765000Y-131445000D01*
X152960288Y-131567000D02*
X152838288Y-131445000D01*
X153847000Y-130887000D02*
X153847000Y-131199712D01*
X154432000Y-130302000D02*
X153847000Y-130887000D01*
X153847000Y-131199712D02*
X153479712Y-131567000D01*
%TO.N,Net-(U4-BST)*%
D19*
X155194000Y-129159000D02*
X155194000Y-131720000D01*
X153081791Y-128316791D02*
X153614997Y-128849997D01*
X154884997Y-128849997D02*
X155194000Y-129159000D01*
X153614997Y-128849997D02*
X154884997Y-128849997D01*
%TO.N,/MCU/FET_TEMP*%
D18*
X130165288Y-142654200D02*
X129565288Y-142054200D01*
X131591852Y-142481200D02*
X130857712Y-142481200D01*
X155829000Y-133477000D02*
X155829000Y-134747000D01*
X105000000Y-134334712D02*
X105000000Y-124605000D01*
X130857712Y-142481200D02*
X130684712Y-142654200D01*
X151295479Y-143976000D02*
X149632479Y-142313000D01*
X156041000Y-143976000D02*
X151295479Y-143976000D01*
X130684712Y-142654200D02*
X130165288Y-142654200D01*
X157353000Y-131953000D02*
X155829000Y-133477000D01*
X156718000Y-144653000D02*
X156041000Y-143976000D01*
X131760053Y-142313000D02*
X131591852Y-142481200D01*
X129565288Y-142054200D02*
X112719488Y-142054200D01*
X149632479Y-142313000D02*
X131760053Y-142313000D01*
X112719488Y-142054200D02*
X105000000Y-134334712D01*
%TO.N,/MCU/LED1*%
X167377644Y-126862356D02*
X170104500Y-124135500D01*
X170104500Y-124135500D02*
X170942000Y-124135500D01*
%TO.N,/CAN_TX*%
X174625000Y-133350000D02*
X173101000Y-133350000D01*
X173101000Y-133350000D02*
X172339000Y-132588000D01*
%TO.N,/MCU/ENC_SCL*%
X174752000Y-115951000D02*
X177549000Y-115951000D01*
X172728000Y-117975000D02*
X174752000Y-115951000D01*
X172783500Y-129857500D02*
X172728000Y-129802000D01*
X172728000Y-129802000D02*
X172728000Y-117975000D01*
X177549000Y-115951000D02*
X177650000Y-115850000D01*
%TO.N,/MCU/ENC_EN*%
X163250000Y-123385648D02*
X163250000Y-123372000D01*
X165354000Y-121793000D02*
X168529000Y-118618000D01*
X173540000Y-112903000D02*
X173667000Y-113030000D01*
X163250000Y-123372000D02*
X162306000Y-122428000D01*
X177570000Y-113030000D02*
X177650000Y-112950000D01*
X173667000Y-113030000D02*
X177570000Y-113030000D01*
X168529000Y-118618000D02*
X168529000Y-114681000D01*
%TO.N,V*%
X153035000Y-106807000D02*
X148590000Y-111252000D01*
X148590000Y-111252000D02*
X148590000Y-114554000D01*
%TD*%
%TA.AperFunction,Conductor*%
%TO.N,/ThreePhaseBridge and Power/SPA*%
G36*
X118609970Y-115503429D02*
G01*
X118615281Y-115504032D01*
X118615628Y-115504122D01*
X118652388Y-115513972D01*
X118652477Y-115513756D01*
X118697419Y-115525505D01*
X118697883Y-115525627D01*
X118749656Y-115539500D01*
X118749658Y-115539500D01*
X135058171Y-115539500D01*
X135093106Y-115544523D01*
X135108104Y-115548927D01*
X135166855Y-115586672D01*
X135166879Y-115586700D01*
X135166882Y-115586702D01*
X135166883Y-115586704D01*
X135168042Y-115588041D01*
X135195518Y-115642902D01*
X135197163Y-115650460D01*
X135200000Y-115676831D01*
X135200000Y-116828670D01*
X135199999Y-116828676D01*
X135200000Y-116828679D01*
X135194975Y-116863614D01*
X135190570Y-116878612D01*
X135152827Y-116937355D01*
X135152792Y-116937385D01*
X135152791Y-116937387D01*
X135152789Y-116937387D01*
X135151458Y-116938542D01*
X135096597Y-116966018D01*
X135089039Y-116967663D01*
X135062668Y-116970500D01*
X133554301Y-116970500D01*
X133458291Y-116996226D01*
X133458289Y-116996226D01*
X133458289Y-116996227D01*
X133436044Y-117009070D01*
X133436040Y-117009071D01*
X133372203Y-117045928D01*
X133161565Y-117256566D01*
X133161564Y-117256569D01*
X133133310Y-117277721D01*
X133110223Y-117290329D01*
X133050791Y-117305500D01*
X133023525Y-117305500D01*
X132894994Y-117339939D01*
X132894993Y-117339940D01*
X132887338Y-117341991D01*
X132883510Y-117343017D01*
X132757991Y-117415485D01*
X132757984Y-117415490D01*
X132757968Y-117415505D01*
X132655505Y-117517968D01*
X132655490Y-117517984D01*
X132655485Y-117517992D01*
X132583017Y-117643509D01*
X132582989Y-117643578D01*
X132582748Y-117644511D01*
X132545500Y-117783525D01*
X132545500Y-117928474D01*
X132583013Y-118068477D01*
X132583017Y-118068488D01*
X132583018Y-118068489D01*
X132653631Y-118190795D01*
X132655489Y-118194013D01*
X132757985Y-118296509D01*
X132758674Y-118297005D01*
X132761178Y-118298353D01*
X132880069Y-118366995D01*
X132883087Y-118368869D01*
X132883514Y-118368983D01*
X132883515Y-118368984D01*
X133023525Y-118406500D01*
X133023528Y-118406500D01*
X133168472Y-118406500D01*
X133168475Y-118406500D01*
X133308485Y-118368984D01*
X133434015Y-118296509D01*
X133536509Y-118194015D01*
X133608984Y-118068485D01*
X133646500Y-117928475D01*
X133646500Y-117908556D01*
X133650764Y-117876318D01*
X133651127Y-117874968D01*
X133655146Y-117861282D01*
X133656550Y-117854825D01*
X133657333Y-117851920D01*
X133674034Y-117824594D01*
X133689378Y-117796487D01*
X133711445Y-117774420D01*
X133739694Y-117753274D01*
X133762784Y-117740666D01*
X133822209Y-117725500D01*
X135058171Y-117725500D01*
X135093106Y-117730523D01*
X135108104Y-117734927D01*
X135166855Y-117772672D01*
X135166879Y-117772700D01*
X135166882Y-117772702D01*
X135166883Y-117772704D01*
X135168042Y-117774041D01*
X135195518Y-117828902D01*
X135197163Y-117836460D01*
X135200000Y-117862831D01*
X135200000Y-124821300D01*
X135180315Y-124888339D01*
X135127511Y-124934094D01*
X135076000Y-124945300D01*
X120184324Y-124945300D01*
X120184315Y-124945300D01*
X120184314Y-124945301D01*
X120076873Y-124956852D01*
X120076861Y-124956854D01*
X120025351Y-124968060D01*
X119922826Y-125002183D01*
X119922820Y-125002186D01*
X119801786Y-125079971D01*
X119801775Y-125079979D01*
X119748983Y-125125723D01*
X119748977Y-125125730D01*
X119721704Y-125157204D01*
X119662927Y-125194977D01*
X119627993Y-125200000D01*
X117141830Y-125200000D01*
X117141825Y-125199999D01*
X117141823Y-125200000D01*
X117106889Y-125194975D01*
X117091890Y-125190570D01*
X117033144Y-125152827D01*
X117033115Y-125152793D01*
X117033114Y-125152793D01*
X117033113Y-125152791D01*
X117031957Y-125151458D01*
X117004477Y-125096583D01*
X117002832Y-125089021D01*
X117000000Y-125062668D01*
X117000000Y-115641829D01*
X117005023Y-115606893D01*
X117009427Y-115591895D01*
X117047172Y-115533144D01*
X117047200Y-115533119D01*
X117047199Y-115533119D01*
X117048541Y-115531956D01*
X117103420Y-115504477D01*
X117110979Y-115502833D01*
X117137332Y-115500000D01*
X118583918Y-115500000D01*
X118609970Y-115503429D01*
G37*
%TD.AperFunction*%
%TD*%
%TA.AperFunction,Conductor*%
%TO.N,/ThreePhaseBridge and Power/SPC*%
G36*
X129878512Y-142942934D02*
G01*
X129889021Y-142945812D01*
X129898324Y-142944747D01*
X129931888Y-142955661D01*
X129935582Y-142957478D01*
X130019578Y-143005974D01*
X130039867Y-143011410D01*
X130051606Y-143014555D01*
X130051607Y-143014556D01*
X130066496Y-143018545D01*
X130115589Y-143031700D01*
X130115590Y-143031700D01*
X130734409Y-143031700D01*
X130734411Y-143031700D01*
X130830422Y-143005974D01*
X130890491Y-142971292D01*
X130953842Y-142954686D01*
X134976147Y-142998646D01*
X135042966Y-143019062D01*
X135088142Y-143072363D01*
X135098785Y-143123855D01*
X135001204Y-153077216D01*
X134980863Y-153144059D01*
X134927613Y-153189294D01*
X134877210Y-153200000D01*
X116924000Y-153200000D01*
X116856961Y-153180315D01*
X116811206Y-153127511D01*
X116800000Y-153076000D01*
X116800000Y-142925362D01*
X116819685Y-142858323D01*
X116872489Y-142812568D01*
X116925350Y-142801369D01*
X129878512Y-142942934D01*
G37*
%TD.AperFunction*%
%TD*%
%TA.AperFunction,Conductor*%
%TO.N,/ThreePhaseBridge and Power/SPB*%
G36*
X135043039Y-128819685D02*
G01*
X135088794Y-128872489D01*
X135100000Y-128924000D01*
X135100000Y-138888771D01*
X135091356Y-138918207D01*
X135084833Y-138948197D01*
X135081077Y-138953213D01*
X135080315Y-138955810D01*
X135063682Y-138976451D01*
X135007954Y-139032180D01*
X134946631Y-139065666D01*
X134920272Y-139068500D01*
X116924000Y-139068500D01*
X116856961Y-139048815D01*
X116811206Y-138996011D01*
X116800000Y-138944500D01*
X116800000Y-128924000D01*
X116819685Y-128856961D01*
X116872489Y-128811206D01*
X116924000Y-128800000D01*
X134976000Y-128800000D01*
X135043039Y-128819685D01*
G37*
%TD.AperFunction*%
%TD*%
%TA.AperFunction,Conductor*%
%TO.N,VBUS*%
G36*
X139703363Y-125470485D02*
G01*
X139749118Y-125523289D01*
X139760324Y-125574800D01*
X139760324Y-126926800D01*
X139740639Y-126993839D01*
X139687835Y-127039594D01*
X139636324Y-127050800D01*
X120184324Y-127050800D01*
X120117285Y-127031115D01*
X120071530Y-126978311D01*
X120060324Y-126926800D01*
X120060324Y-125574800D01*
X120080009Y-125507761D01*
X120132813Y-125462006D01*
X120184324Y-125450800D01*
X139636324Y-125450800D01*
X139703363Y-125470485D01*
G37*
%TD.AperFunction*%
%TD*%
M02*
